<?xml version="1.0" encoding="UTF-8"?>
<!DOCTYPE svg  PUBLIC '-//W3C//DTD SVG 1.1//EN'  'http://www.w3.org/Graphics/SVG/1.1/DTD/svg11.dtd'>
<!-- Created with matplotlib (http://matplotlib.org/) -->
<svg width="815.49pt" height="504pt" version="1.1" viewBox="0 0 815.49 504" xmlns="http://www.w3.org/2000/svg" xmlns:xlink="http://www.w3.org/1999/xlink">
 <defs>
  <style type="text/css">*{stroke-linecap:butt;stroke-linejoin:round;}</style>
 </defs>
 <g id="figure_1">
  <g id="patch_1">
   <path d="m0 504h815.49v-504h-815.49z" fill="none"/>
  </g>
  <g id="axes_1">
   <g id="patch_2">
    <path d="m64.875 433.99h736.31v-419.69h-736.31z" fill="#002b36"/>
   </g>
   <g id="matplotlib.axis_1">
    <g id="xtick_1">
     <g id="line2d_1">
      <path d="m109.29 433.99v-419.69" clip-path="url(#pe76703432a)" fill="none" stroke="#073642" stroke-linecap="square" stroke-width="1.3"/>
     </g>
     <g id="line2d_2">
      <defs>
       <path id="mb8a73d8f55" d="m0 0v3.5" stroke="#93a1a1" stroke-width="1.3"/>
      </defs>
      <use x="109.292458" y="433.992612" fill="#93a1a1" stroke="#93a1a1" stroke-width="1.3" xlink:href="#mb8a73d8f55"/>
     </g>
     <g id="text_1"><!-- 4K -->
      <defs>
       <path id="NotoMono-34" d="m54.984 16.016h-10.406v-16.016h-8.5938v16.016h-33v7.7656l32.422 48h9.1719v-47.656h10.406zm-19 8.1094v17.375q0 8.5938 0.64062 21.094h-0.4375q-1.7656-4.9688-4.4062-8.7812l-20.062-29.688z"/>
       <path id="NotoMono-4b" d="m58.5 0h-10.312l-21.969 34.078-6.8281-5.5625v-28.516h-9.0938v71.391h9.0938v-35.703l5.9062 8.2031 22.109 27.5h10.219l-25.453-31.109z"/>
      </defs>
      <g transform="translate(104.52 463.3) rotate(-32.461) scale(.13 -.13)" fill="#93a1a1">
       <use xlink:href="#NotoMono-34"/>
       <use x="60.009766" xlink:href="#NotoMono-4b"/>
      </g>
     </g>
    </g>
    <g id="xtick_2">
     <g id="line2d_3">
      <path d="m155.32 433.99v-419.69" clip-path="url(#pe76703432a)" fill="none" stroke="#073642" stroke-linecap="square" stroke-width="1.3"/>
     </g>
     <g id="line2d_4">
      <use x="155.317195" y="433.992612" fill="#93a1a1" stroke="#93a1a1" stroke-width="1.3" xlink:href="#mb8a73d8f55"/>
     </g>
     <g id="text_2"><!-- 8K -->
      <defs>
       <path id="NotoMono-38" d="m37.312 37.797q15.078-7.8125 15.078-19.188 0-8.8438-6.1562-14.219-6.1406-5.375-16.25-5.375-10.547 0-16.453 5.0469-5.9062 5.0625-5.9062 14.156 0 12.547 13.766 19.188-11.484 7.125-11.484 18.016 0 7.8594 5.6875 12.469 5.7031 4.625 14.391 4.625 8.9844 0 14.547-4.6406t5.5625-12.547q0-11.234-12.781-17.531zm-7.2344 3.6094q11.328 5.0312 11.328 13.578 0 4.9219-3.0781 7.5156t-8.4375 2.5938q-5.1875 0-8.2344-2.5938t-3.0469-7.5156q0-4.3906 2.4062-7.4531 2.4219-3.0469 9.0625-6.125zm-1.3594-7.4219q-12.406-5.9062-12.406-15.875 0-11.719 13.469-11.719 6.6406 0 10.281 3.2031t3.6406 8.9062q0 4.4062-3.0781 7.7969t-10.453 7z"/>
      </defs>
      <g transform="translate(150.55 463.3) rotate(-32.461) scale(.13 -.13)" fill="#93a1a1">
       <use xlink:href="#NotoMono-38"/>
       <use x="60.009766" xlink:href="#NotoMono-4b"/>
      </g>
     </g>
    </g>
    <g id="xtick_3">
     <g id="line2d_5">
      <path d="m201.34 433.99v-419.69" clip-path="url(#pe76703432a)" fill="none" stroke="#073642" stroke-linecap="square" stroke-width="1.3"/>
     </g>
     <g id="line2d_6">
      <use x="201.341931" y="433.992612" fill="#93a1a1" stroke="#93a1a1" stroke-width="1.3" xlink:href="#mb8a73d8f55"/>
     </g>
     <g id="text_3"><!-- 16K -->
      <defs>
       <path id="NotoMono-31" d="m37.016 0h-8.5938v44.578q0 5.9531 0.39062 17.625-1.9062-2.0938-5.9062-5.5156l-7.1875-5.9062-4.7344 6 18.703 14.609h7.3281z"/>
       <path id="NotoMono-36" d="m47.125 71.484v-7.5625q-3.4688 1.1719-8.1094 1.1719-10.938 0-16.438-6.8906-5.4844-6.8906-5.9688-21.828h0.57812q4.6406 8.2969 14.984 8.2969 9.5312 0 14.922-5.8125 5.3906-5.7969 5.3906-15.859 0-11.141-5.8906-17.562-5.875-6.4219-15.781-6.4219-10.641 0-16.969 8.2344t-6.3281 23.266q0 41.891 31.203 41.891 5.0781 0 8.4062-0.92188zm-3.2344-48.484q0 7.0781-3.3438 10.891t-9.5469 3.8125q-6.1875 0-10.391-3.9688-4.2031-3.9531-4.2031-9.0312 0-7.4219 3.9531-12.812t10.359-5.3906q6.2031 0 9.6875 4.2969t3.4844 12.203z"/>
      </defs>
      <g transform="translate(193.28 467.49) rotate(-32.461) scale(.13 -.13)" fill="#93a1a1">
       <use xlink:href="#NotoMono-31"/>
       <use x="60.009766" xlink:href="#NotoMono-36"/>
       <use x="120.019531" xlink:href="#NotoMono-4b"/>
      </g>
     </g>
    </g>
    <g id="xtick_4">
     <g id="line2d_7">
      <path d="m247.37 433.99v-419.69" clip-path="url(#pe76703432a)" fill="none" stroke="#073642" stroke-linecap="square" stroke-width="1.3"/>
     </g>
     <g id="line2d_8">
      <use x="247.366668" y="433.992612" fill="#93a1a1" stroke="#93a1a1" stroke-width="1.3" xlink:href="#mb8a73d8f55"/>
     </g>
     <g id="text_4"><!-- 32K -->
      <defs>
       <path id="NotoMono-33" d="m33.891 37.594v-0.28125q17.625-2.2969 17.625-17 0-9.9062-6.75-15.609-6.7344-5.6875-19.469-5.6875-11.812 0-18.906 3.8594v8.3125q8.9844-4.6875 18.703-4.6875 17.297 0 17.297 14.109 0 12.594-18.609 12.594h-6.5v7.375h6.5q7.8125 0 12.109 3.7031 4.2969 3.7188 4.2969 9.8281 0 4.9688-3.3281 7.875-3.3125 2.9062-8.875 2.9062-8.7031 0-16.797-5.9062l-4.5 6.1094q9.1406 7.3125 21.297 7.3125 10.047 0 15.688-4.8281t5.6406-12.891q0-6.7344-4-11.281-4-4.5312-11.422-5.8125z"/>
       <path id="NotoMono-32" d="m52.203 0h-44.484v7.625l17.094 18.594q9.5156 10.406 12.531 15.5 3.0312 5.1094 3.0312 11.266 0 5.5156-3.0938 8.7031-3.0938 3.2031-8.375 3.2031-7.8125 0-15.531-6.6875l-4.9688 5.8125q9.375 8.3906 20.594 8.3906 9.4844 0 14.953-5.1719t5.4688-13.906q0-5.8125-2.8906-11.922-2.875-6.1094-14.203-18.312l-13.719-14.594v-0.39062h33.594z"/>
      </defs>
      <g transform="translate(239.3 467.49) rotate(-32.461) scale(.13 -.13)" fill="#93a1a1">
       <use xlink:href="#NotoMono-33"/>
       <use x="60.009766" xlink:href="#NotoMono-32"/>
       <use x="120.019531" xlink:href="#NotoMono-4b"/>
      </g>
     </g>
    </g>
    <g id="xtick_5">
     <g id="line2d_9">
      <path d="m293.39 433.99v-419.69" clip-path="url(#pe76703432a)" fill="none" stroke="#073642" stroke-linecap="square" stroke-width="1.3"/>
     </g>
     <g id="line2d_10">
      <use x="293.391404" y="433.992612" fill="#93a1a1" stroke="#93a1a1" stroke-width="1.3" xlink:href="#mb8a73d8f55"/>
     </g>
     <g id="text_5"><!-- 64K -->
      <g transform="translate(285.33 467.49) rotate(-32.461) scale(.13 -.13)" fill="#93a1a1">
       <use xlink:href="#NotoMono-36"/>
       <use x="60.009766" xlink:href="#NotoMono-34"/>
       <use x="120.019531" xlink:href="#NotoMono-4b"/>
      </g>
     </g>
    </g>
    <g id="xtick_6">
     <g id="line2d_11">
      <path d="m339.42 433.99v-419.69" clip-path="url(#pe76703432a)" fill="none" stroke="#073642" stroke-linecap="square" stroke-width="1.3"/>
     </g>
     <g id="line2d_12">
      <use x="339.416141" y="433.992612" fill="#93a1a1" stroke="#93a1a1" stroke-width="1.3" xlink:href="#mb8a73d8f55"/>
     </g>
     <g id="text_6"><!-- 128K -->
      <g transform="translate(328.06 471.68) rotate(-32.461) scale(.13 -.13)" fill="#93a1a1">
       <use xlink:href="#NotoMono-31"/>
       <use x="60.009766" xlink:href="#NotoMono-32"/>
       <use x="120.019531" xlink:href="#NotoMono-38"/>
       <use x="180.029297" xlink:href="#NotoMono-4b"/>
      </g>
     </g>
    </g>
    <g id="xtick_7">
     <g id="line2d_13">
      <path d="m385.44 433.99v-419.69" clip-path="url(#pe76703432a)" fill="none" stroke="#073642" stroke-linecap="square" stroke-width="1.3"/>
     </g>
     <g id="line2d_14">
      <use x="385.440877" y="433.992612" fill="#93a1a1" stroke="#93a1a1" stroke-width="1.3" xlink:href="#mb8a73d8f55"/>
     </g>
     <g id="text_7"><!-- 256K -->
      <defs>
       <path id="NotoMono-35" d="m8.4062 2.875v8.4062q7.0312-4.6875 17.578-4.6875 16.406 0 16.406 15.328 0 14.359-16.797 14.359-4.3594 0-11.281-1.2656l-4.4062 2.7812 2.6875 33.594h33.703v-8.1094h-25.984l-1.9062-20.453q5.2344 0.96875 10.203 0.96875 10.266 0 16.578-5.5938 6.3281-5.5781 6.3281-15.297 0-11.438-6.75-17.672-6.7344-6.2188-18.984-6.2188-10.938 0-17.375 3.8594z"/>
      </defs>
      <g transform="translate(374.09 471.68) rotate(-32.461) scale(.13 -.13)" fill="#93a1a1">
       <use xlink:href="#NotoMono-32"/>
       <use x="60.009766" xlink:href="#NotoMono-35"/>
       <use x="120.019531" xlink:href="#NotoMono-36"/>
       <use x="180.029297" xlink:href="#NotoMono-4b"/>
      </g>
     </g>
    </g>
    <g id="xtick_8">
     <g id="line2d_15">
      <path d="m431.47 433.99v-419.69" clip-path="url(#pe76703432a)" fill="none" stroke="#073642" stroke-linecap="square" stroke-width="1.3"/>
     </g>
     <g id="line2d_16">
      <use x="431.465614" y="433.992612" fill="#93a1a1" stroke="#93a1a1" stroke-width="1.3" xlink:href="#mb8a73d8f55"/>
     </g>
     <g id="text_8"><!-- 512K -->
      <g transform="translate(420.11 471.68) rotate(-32.461) scale(.13 -.13)" fill="#93a1a1">
       <use xlink:href="#NotoMono-35"/>
       <use x="60.009766" xlink:href="#NotoMono-31"/>
       <use x="120.019531" xlink:href="#NotoMono-32"/>
       <use x="180.029297" xlink:href="#NotoMono-4b"/>
      </g>
     </g>
    </g>
    <g id="xtick_9">
     <g id="line2d_17">
      <path d="m477.49 433.99v-419.69" clip-path="url(#pe76703432a)" fill="none" stroke="#073642" stroke-linecap="square" stroke-width="1.3"/>
     </g>
     <g id="line2d_18">
      <use x="477.49035" y="433.992612" fill="#93a1a1" stroke="#93a1a1" stroke-width="1.3" xlink:href="#mb8a73d8f55"/>
     </g>
     <g id="text_9"><!-- 1M -->
      <defs>
       <path id="NotoMono-4d" d="m25.984 0-13.578 62.5h-0.39062q0.875-12.984 0.875-19.828v-42.672h-7.375v71.391h12.062l12.109-58.203h0.29688l12.203 58.203h12.312v-71.391h-7.4844v43.312q0 4.9844 0.6875 19.094h-0.39062l-13.812-62.406z"/>
      </defs>
      <g transform="translate(472.72 463.3) rotate(-32.461) scale(.13 -.13)" fill="#93a1a1">
       <use xlink:href="#NotoMono-31"/>
       <use x="60.009766" xlink:href="#NotoMono-4d"/>
      </g>
     </g>
    </g>
    <g id="xtick_10">
     <g id="line2d_19">
      <path d="m523.52 433.99v-419.69" clip-path="url(#pe76703432a)" fill="none" stroke="#073642" stroke-linecap="square" stroke-width="1.3"/>
     </g>
     <g id="line2d_20">
      <use x="523.515087" y="433.992612" fill="#93a1a1" stroke="#93a1a1" stroke-width="1.3" xlink:href="#mb8a73d8f55"/>
     </g>
     <g id="text_10"><!-- 2M -->
      <g transform="translate(518.74 463.3) rotate(-32.461) scale(.13 -.13)" fill="#93a1a1">
       <use xlink:href="#NotoMono-32"/>
       <use x="60.009766" xlink:href="#NotoMono-4d"/>
      </g>
     </g>
    </g>
    <g id="xtick_11">
     <g id="line2d_21">
      <path d="m569.54 433.99v-419.69" clip-path="url(#pe76703432a)" fill="none" stroke="#073642" stroke-linecap="square" stroke-width="1.3"/>
     </g>
     <g id="line2d_22">
      <use x="569.539823" y="433.992612" fill="#93a1a1" stroke="#93a1a1" stroke-width="1.3" xlink:href="#mb8a73d8f55"/>
     </g>
     <g id="text_11"><!-- 4M -->
      <g transform="translate(564.77 463.3) rotate(-32.461) scale(.13 -.13)" fill="#93a1a1">
       <use xlink:href="#NotoMono-34"/>
       <use x="60.009766" xlink:href="#NotoMono-4d"/>
      </g>
     </g>
    </g>
    <g id="xtick_12">
     <g id="line2d_23">
      <path d="m615.56 433.99v-419.69" clip-path="url(#pe76703432a)" fill="none" stroke="#073642" stroke-linecap="square" stroke-width="1.3"/>
     </g>
     <g id="line2d_24">
      <use x="615.56456" y="433.992612" fill="#93a1a1" stroke="#93a1a1" stroke-width="1.3" xlink:href="#mb8a73d8f55"/>
     </g>
     <g id="text_12"><!-- 8M -->
      <g transform="translate(610.79 463.3) rotate(-32.461) scale(.13 -.13)" fill="#93a1a1">
       <use xlink:href="#NotoMono-38"/>
       <use x="60.009766" xlink:href="#NotoMono-4d"/>
      </g>
     </g>
    </g>
    <g id="xtick_13">
     <g id="line2d_25">
      <path d="m661.59 433.99v-419.69" clip-path="url(#pe76703432a)" fill="none" stroke="#073642" stroke-linecap="square" stroke-width="1.3"/>
     </g>
     <g id="line2d_26">
      <use x="661.589296" y="433.992612" fill="#93a1a1" stroke="#93a1a1" stroke-width="1.3" xlink:href="#mb8a73d8f55"/>
     </g>
     <g id="text_13"><!-- 16M -->
      <g transform="translate(653.53 467.49) rotate(-32.461) scale(.13 -.13)" fill="#93a1a1">
       <use xlink:href="#NotoMono-31"/>
       <use x="60.009766" xlink:href="#NotoMono-36"/>
       <use x="120.019531" xlink:href="#NotoMono-4d"/>
      </g>
     </g>
    </g>
    <g id="xtick_14">
     <g id="line2d_27">
      <path d="m707.61 433.99v-419.69" clip-path="url(#pe76703432a)" fill="none" stroke="#073642" stroke-linecap="square" stroke-width="1.3"/>
     </g>
     <g id="line2d_28">
      <use x="707.614033" y="433.992612" fill="#93a1a1" stroke="#93a1a1" stroke-width="1.3" xlink:href="#mb8a73d8f55"/>
     </g>
     <g id="text_14"><!-- 32M -->
      <g transform="translate(699.55 467.49) rotate(-32.461) scale(.13 -.13)" fill="#93a1a1">
       <use xlink:href="#NotoMono-33"/>
       <use x="60.009766" xlink:href="#NotoMono-32"/>
       <use x="120.019531" xlink:href="#NotoMono-4d"/>
      </g>
     </g>
    </g>
    <g id="xtick_15">
     <g id="line2d_29">
      <path d="m753.64 433.99v-419.69" clip-path="url(#pe76703432a)" fill="none" stroke="#073642" stroke-linecap="square" stroke-width="1.3"/>
     </g>
     <g id="line2d_30">
      <use x="753.638769" y="433.992612" fill="#93a1a1" stroke="#93a1a1" stroke-width="1.3" xlink:href="#mb8a73d8f55"/>
     </g>
     <g id="text_15"><!-- 64M -->
      <g transform="translate(745.58 467.49) rotate(-32.461) scale(.13 -.13)" fill="#93a1a1">
       <use xlink:href="#NotoMono-36"/>
       <use x="60.009766" xlink:href="#NotoMono-34"/>
       <use x="120.019531" xlink:href="#NotoMono-4d"/>
      </g>
     </g>
    </g>
    <g id="text_16"><!-- Block size (bytes) -->
     <defs>
      <path id="NotoMono-42" d="m6.5938 71.391h21.484q13.375 0 19.406-4.2812 6.0312-4.2656 6.0312-13.781 0-6.25-3.8438-10.406-3.8281-4.1562-10.359-5.0312v-0.48438q16.203-2.6406 16.203-16.703 0-9.6719-6.2344-15.188-6.2188-5.5156-16.953-5.5156h-25.734zm9.125-30.281h13.875q7.6094 0 11.094 2.6875 3.5 2.6875 3.5 8.8906 0 5.8594-3.7344 8.3906-3.7344 2.5469-11.844 2.5469h-12.891zm0-7.6094v-25.781h15q15.188 0 15.188 13.375 0 12.406-15.828 12.406z"/>
      <path id="NotoMono-6c" d="m25.984 69-13.094 1.0156v5.9688h22.016v-69l17.188-0.98438v-6h-42.906v6l16.797 0.98438z"/>
      <path id="NotoMono-6f" d="m29.781-0.98438q-10.547 0-17.359 7.5938t-6.8125 20.297q0 12.844 6.6094 20.266 6.625 7.4219 17.859 7.4219 10.641 0 17.422-7.5781 6.7969-7.5625 6.7969-20.109 0-12.938-6.6875-20.422-6.6875-7.4688-17.828-7.4688zm0.20312 7.375q15.141 0 15.141 20.516 0 20.312-15.234 20.312-15.094 0-15.094-20.312 0-20.516 15.188-20.516z"/>
      <path id="NotoMono-63" d="m51.812 51.703-3.0312-7.7031q-7.3281 2.7812-13.094 2.7812-18.109 0-18.109-20.172 0-19.828 17.625-19.828 7.6719 0 15.672 3.0312v-7.8125q-6.5312-2.9844-16.062-2.9844-12.547 0-19.484 7.1094-6.9219 7.1094-6.9219 20.391 0 13.719 7.0781 20.891 7.0781 7.1875 19.922 7.1875 8.6875 0 16.406-2.8906z"/>
      <path id="NotoMono-6b" d="m18.703 27 6.5938 7.4219 19.281 19.188h10.844l-24.125-23.188 25.484-30.422h-10.391l-20.797 24.609-6.3125-4v-20.609h-8.7812v75.984h8.7812v-34.875l-0.78125-14.109z"/>
      <path id="NotoMono-73" d="m9.9062 2.3906v8.1094q9.4375-4.2031 18.078-4.2031 13.422 0 13.422 7.9062 0 2.7969-2.3906 4.8438t-11.031 5.1719q-11.375 4.25-14.344 7.7812-2.9531 3.5469-2.9531 8.375 0 6.6406 5.4375 10.422 5.4531 3.7969 15.078 3.7969 9.6719 0 18.016-3.6094l-2.9219-7.2812q-8.8906 3.5156-15.578 3.5156-11.531 0-11.531-6.5 0-2.9688 2.4688-4.75t11.359-4.9688q10.297-3.75 13.688-7.3906t3.3906-8.9062q0-7.3281-5.7188-11.516-5.7031-4.1719-16.156-4.1719-12.109 0-18.312 3.375z"/>
      <path id="NotoMono-69" d="m30.906 75.688q5.1719 0 5.1719-5.5625 0-2.8438-1.5312-4.2344t-3.6406-1.3906q-5.2188 0-5.2188 5.625 0 5.5625 5.2188 5.5625zm-4.4844-29.109-13.141 1.0312v6h22.016v-46.625l17.188-0.98438v-6h-42.859v6l16.797 0.98438z"/>
      <path id="NotoMono-7a" d="m50.984 0h-42.094v6.1094l32.219 40.812h-30.609v6.6875h39.594v-7.125l-31.594-39.797h32.484z"/>
      <path id="NotoMono-65" d="m53.516 25.094h-37.797q0.39062-18.312 16.797-18.312 9.5312 0 18.078 3.7188v-7.8125q-8.1094-3.6719-17.781-3.6719-11.969 0-19.141 7.2969-7.1719 7.3125-7.1719 20.109 0 12.984 6.6094 20.578 6.625 7.5938 17.703 7.5938 10.344 0 16.516-6.5469 6.1875-6.5469 6.1875-17.438zm-37.594 7.2344h27.969q0 14.891-13.281 14.891-13.422 0-14.688-14.891z"/>
      <path id="NotoMono-28" d="m36.078 71.391h9.4375q-21.938-18.359-21.938-43.609 0-25.438 21.828-43.609h-9.3281q-21.672 17.25-21.672 43.516 0 25.969 21.672 43.703z"/>
      <path id="NotoMono-62" d="m16.609 6.7812h-0.59375l-1.8125-6.7812h-6.4844v75.984h8.8906v-18.359q0-3.9688-0.39062-11.047h0.39062q5.2188 8.0156 15.719 8.0156 9.8125 0 15.406-7.3125 5.5938-7.2969 5.5938-20.375 0-13.188-5.625-20.547-5.6094-7.3438-15.375-7.3438-10.109 0-15.719 7.7656zm0 20.125q0-11.078 3.3906-15.797t10.812-4.7188q13.281 0 13.281 20.609 0 20.219-13.375 20.219-7.5781 0-10.844-4.5938t-3.2656-15.719z"/>
      <path id="NotoMono-79" d="m4 53.609h9.1875l12.797-31.922q4-10.016 4.3438-14.172h0.28125q1.125 5.4688 4.4062 14.266l11.672 31.828h9.2188l-23.188-60.594q-3.2812-8.5-7.625-12.766-4.3438-4.2812-12-4.2812-4.2031 0-8.2031 0.84375v7.0781q3.0156-0.59375 6.6406-0.59375 4.6875 0 7.2969 2t4.6562 6.8906l2.8281 7.3281z"/>
      <path id="NotoMono-74" d="m49.812 7.3281v-6.7344q-6.3594-1.5781-12.312-1.5781-17.672 0-17.672 16.812v31.094h-13.047v4.5938l13.047 2.3906 3.75 14.016h5.1406v-14.312h21.375v-6.6875h-21.375v-31.094q0-9.5312 9.375-9.5312 4.5312 0 11.719 1.0312z"/>
      <path id="NotoMono-29" d="m23.875-15.828h-9.2812q21.781 18.125 21.781 43.609 0 25.297-21.875 43.609h9.375q21.734-17.625 21.734-43.703 0-26.375-21.734-43.516z"/>
     </defs>
     <g transform="translate(355.79 489.18) scale(.143 -.143)" fill="#93a1a1">
      <use xlink:href="#NotoMono-42"/>
      <use x="60.009766" xlink:href="#NotoMono-6c"/>
      <use x="120.019531" xlink:href="#NotoMono-6f"/>
      <use x="180.029297" xlink:href="#NotoMono-63"/>
      <use x="240.039062" xlink:href="#NotoMono-6b"/>
      <use x="300.048828" xlink:href="#NotoMono-20"/>
      <use x="360.058594" xlink:href="#NotoMono-73"/>
      <use x="420.068359" xlink:href="#NotoMono-69"/>
      <use x="480.078125" xlink:href="#NotoMono-7a"/>
      <use x="540.087891" xlink:href="#NotoMono-65"/>
      <use x="600.097656" xlink:href="#NotoMono-20"/>
      <use x="660.107422" xlink:href="#NotoMono-28"/>
      <use x="720.117188" xlink:href="#NotoMono-62"/>
      <use x="780.126953" xlink:href="#NotoMono-79"/>
      <use x="840.136719" xlink:href="#NotoMono-74"/>
      <use x="900.146484" xlink:href="#NotoMono-65"/>
      <use x="960.15625" xlink:href="#NotoMono-73"/>
      <use x="1020.166016" xlink:href="#NotoMono-29"/>
     </g>
    </g>
   </g>
   <g id="matplotlib.axis_2">
    <g id="ytick_1">
     <g id="line2d_31">
      <path d="m64.875 388.57h736.31" clip-path="url(#pe76703432a)" fill="none" stroke="#073642" stroke-linecap="square" stroke-width="1.3"/>
     </g>
     <g id="line2d_32">
      <defs>
       <path id="m4b75f4127e" d="m0 0h-3.5" stroke="#93a1a1" stroke-width="1.3"/>
      </defs>
      <use x="64.875039" y="388.570808" fill="#93a1a1" stroke="#93a1a1" stroke-width="1.3" xlink:href="#m4b75f4127e"/>
     </g>
     <g id="text_17"><!-- $\mathdefault{10^{0}}$ -->
      <defs>
       <path id="NotoMono-30" d="m29.891-0.98438q-11.188 0-16.953 9.4531t-5.7656 27.328q0 36.719 22.719 36.719 11.328 0 17.109-9.4531t5.7812-27.266q0-36.781-22.891-36.781zm0 7.5781q7.1719 0 10.531 6.8594 3.375 6.8594 3.375 22.344 0 15.375-3.375 22.234-3.3594 6.8594-10.531 6.8594-7.0938 0-10.391-6.8125-3.2812-6.8125-3.2812-22.281 0-15.531 3.2812-22.375 3.2969-6.8281 10.391-6.8281z"/>
      </defs>
      <g transform="translate(30.695 393.51) scale(.13 -.13)" fill="#93a1a1">
       <use transform="translate(0 .7125)" xlink:href="#NotoMono-31"/>
       <use transform="translate(60.01 .7125)" xlink:href="#NotoMono-30"/>
       <use transform="translate(120.96 38.239) scale(.7)" xlink:href="#NotoMono-30"/>
      </g>
     </g>
    </g>
    <g id="ytick_2">
     <g id="line2d_33">
      <path d="m64.875 119.63h736.31" clip-path="url(#pe76703432a)" fill="none" stroke="#073642" stroke-linecap="square" stroke-width="1.3"/>
     </g>
     <g id="line2d_34">
      <use x="64.875039" y="119.62583" fill="#93a1a1" stroke="#93a1a1" stroke-width="1.3" xlink:href="#m4b75f4127e"/>
     </g>
     <g id="text_18"><!-- $\mathdefault{10^{1}}$ -->
      <g transform="translate(30.695 124.56) scale(.13 -.13)" fill="#93a1a1">
       <use transform="translate(0 .5)" xlink:href="#NotoMono-31"/>
       <use transform="translate(60.01 .5)" xlink:href="#NotoMono-30"/>
       <use transform="translate(120.96 38.027) scale(.7)" xlink:href="#NotoMono-31"/>
      </g>
     </g>
    </g>
    <g id="ytick_3">
     <g id="line2d_35">
      <defs>
       <path id="m953bff5925" d="m0 0h-2" stroke="#93a1a1" stroke-width=".65"/>
      </defs>
      <use x="64.875039" y="430.230912" fill="#93a1a1" stroke="#93a1a1" stroke-width=".65" xlink:href="#m953bff5925"/>
     </g>
    </g>
    <g id="ytick_4">
     <g id="line2d_36">
      <use x="64.875039" y="414.634269" fill="#93a1a1" stroke="#93a1a1" stroke-width=".65" xlink:href="#m953bff5925"/>
     </g>
    </g>
    <g id="ytick_5">
     <g id="line2d_37">
      <use x="64.875039" y="400.877055" fill="#93a1a1" stroke="#93a1a1" stroke-width=".65" xlink:href="#m953bff5925"/>
     </g>
    </g>
    <g id="ytick_6">
     <g id="line2d_38">
      <use x="64.875039" y="307.610303" fill="#93a1a1" stroke="#93a1a1" stroke-width=".65" xlink:href="#m953bff5925"/>
     </g>
    </g>
    <g id="ytick_7">
     <g id="line2d_39">
      <use x="64.875039" y="260.251443" fill="#93a1a1" stroke="#93a1a1" stroke-width=".65" xlink:href="#m953bff5925"/>
     </g>
    </g>
    <g id="ytick_8">
     <g id="line2d_40">
      <use x="64.875039" y="226.649797" fill="#93a1a1" stroke="#93a1a1" stroke-width=".65" xlink:href="#m953bff5925"/>
     </g>
    </g>
    <g id="ytick_9">
     <g id="line2d_41">
      <use x="64.875039" y="200.586336" fill="#93a1a1" stroke="#93a1a1" stroke-width=".65" xlink:href="#m953bff5925"/>
     </g>
    </g>
    <g id="ytick_10">
     <g id="line2d_42">
      <use x="64.875039" y="179.290937" fill="#93a1a1" stroke="#93a1a1" stroke-width=".65" xlink:href="#m953bff5925"/>
     </g>
    </g>
    <g id="ytick_11">
     <g id="line2d_43">
      <use x="64.875039" y="161.285934" fill="#93a1a1" stroke="#93a1a1" stroke-width=".65" xlink:href="#m953bff5925"/>
     </g>
    </g>
    <g id="ytick_12">
     <g id="line2d_44">
      <use x="64.875039" y="145.689292" fill="#93a1a1" stroke="#93a1a1" stroke-width=".65" xlink:href="#m953bff5925"/>
     </g>
    </g>
    <g id="ytick_13">
     <g id="line2d_45">
      <use x="64.875039" y="131.932078" fill="#93a1a1" stroke="#93a1a1" stroke-width=".65" xlink:href="#m953bff5925"/>
     </g>
    </g>
    <g id="ytick_14">
     <g id="line2d_46">
      <use x="64.875039" y="38.665325" fill="#93a1a1" stroke="#93a1a1" stroke-width=".65" xlink:href="#m953bff5925"/>
     </g>
    </g>
    <g id="text_19"><!-- Wall-clock overhead -->
     <defs>
      <path id="NotoMono-57" d="m25.781 49.219h8.6406l7.0781-25.438q2.9844-10.688 3.5156-14.984 0.10938 2.5781 3.1719 30.219l3.4219 32.375h8.2969l-9.125-71.391h-9.2812l-8.2031 28.328q-1.9531 6.7344-3.2188 13.766-1.5625-8.4531-3.1719-13.875l-7.625-28.219h-9.2656l-9.9219 71.391h8.3125l4.2969-32.375q1.1094-8.5938 1.9375-18.469 0.84375-9.8594 0.84375-11.75 1.1719 7.3594 3.4062 15.234z"/>
      <path id="NotoMono-61" d="m43.703 0-1.8125 7.4219h-0.39062q-3.75-4.7344-7.7188-6.5781-3.9531-1.8281-10.203-1.8281-7.9531 0-12.469 4.2031t-4.5156 11.766q0 16.219 24.906 17l9.9062 0.34375v3.3594q0 11.531-11.906 11.531-7.1875 0-16.016-4l-3.0781 6.6875q9.5625 4.6875 18.703 4.6875 11.078 0 16.031-4.25t4.9531-13.625v-36.719zm-2.3906 26.219-7.9062-0.34375q-9.5781-0.39062-13.578-3t-4-7.9844q0-8.6875 9.7656-8.6875 7.1719 0 11.438 3.9688 4.2812 3.9844 4.2812 11.219z"/>
      <path id="NotoMono-2d" d="m13.922 22.703v8.2031h32.172v-8.2031z"/>
      <path id="NotoMono-76" d="m24.312 0-20.312 53.609h9.1875l11.719-31.828q4.1406-11.281 4.875-15.875h0.29688q0.34375 2.1562 4.9375 15.875l11.672 31.828h9.2188l-20.312-53.609z"/>
      <path id="NotoMono-72" d="m51.703 52.391-2.3906-8.1094q-6 2.2031-10.938 2.2031-7.9531 0-12.281-4.5156-4.3125-4.5156-4.3125-13.062v-28.906h-8.8906v53.609h7.2344l1.0625-9.8125h0.39062q3.7188 5.8125 7.9688 8.2969 4.25 2.5 10.438 2.5 5.7656 0 11.719-2.2031z"/>
      <path id="NotoMono-68" d="m43.312 0v34.516q0 12.703-11.625 12.703-14.984 0-14.984-19.438v-27.781h-8.8906v75.984h8.8906v-22.562l-0.39062-7.0312h0.48438q5.0312 8.2031 16.406 8.2031 19 0 19-19.578v-35.016z"/>
      <path id="NotoMono-64" d="m43.797 7.1719h-0.39062q-5.5156-8.1562-15.719-8.1562-9.8125 0-15.406 7.2969-5.5938 7.3125-5.5938 20.391 0 13.188 5.6094 20.531 5.625 7.3594 15.391 7.3594 10.062 0 15.719-7.8125h0.59375q-0.59375 6.2969-0.59375 7.9062v21.297h8.8906v-75.984h-7.1719zm-0.39062 17.531v2q0 11.094-3.3906 15.797-3.3906 4.7188-10.812 4.7188-13.281 0-13.281-20.609 0-20.219 13.375-20.219 7.4219 0 10.672 4.3281t3.4375 13.984z"/>
     </defs>
     <g transform="translate(23.259 305.68) rotate(-90) scale(.143 -.143)" fill="#93a1a1">
      <use xlink:href="#NotoMono-57"/>
      <use x="60.009766" xlink:href="#NotoMono-61"/>
      <use x="120.019531" xlink:href="#NotoMono-6c"/>
      <use x="180.029297" xlink:href="#NotoMono-6c"/>
      <use x="240.039062" xlink:href="#NotoMono-2d"/>
      <use x="300.048828" xlink:href="#NotoMono-63"/>
      <use x="360.058594" xlink:href="#NotoMono-6c"/>
      <use x="420.068359" xlink:href="#NotoMono-6f"/>
      <use x="480.078125" xlink:href="#NotoMono-63"/>
      <use x="540.087891" xlink:href="#NotoMono-6b"/>
      <use x="600.097656" xlink:href="#NotoMono-20"/>
      <use x="660.107422" xlink:href="#NotoMono-6f"/>
      <use x="720.117188" xlink:href="#NotoMono-76"/>
      <use x="780.126953" xlink:href="#NotoMono-65"/>
      <use x="840.136719" xlink:href="#NotoMono-72"/>
      <use x="900.146484" xlink:href="#NotoMono-68"/>
      <use x="960.15625" xlink:href="#NotoMono-65"/>
      <use x="1020.166016" xlink:href="#NotoMono-61"/>
      <use x="1080.175781" xlink:href="#NotoMono-64"/>
     </g>
    </g>
   </g>
   <g id="PathCollection_1">
    <defs>
     <path id="m25935e0b06" d="m-3.0619 6.1237 3.0619-3.0619 3.0619 3.0619 3.0619-3.0619-3.0619-3.0619 3.0619-3.0619-3.0619-3.0619-3.0619 3.0619-3.0619-3.0619-3.0619 3.0619 3.0619 3.0619-3.0619 3.0619z" stroke="#000" stroke-opacity=".77" stroke-width="1.5"/>
    </defs>
    <g clip-path="url(#pe76703432a)" fill="#839496" fill-opacity=".77" stroke="#000000" stroke-opacity=".77" stroke-width="1.5">
     <use x="109.938585" y="304.81623" xlink:href="#m25935e0b06"/>
     <use x="153.008003" y="301.968293" xlink:href="#m25935e0b06"/>
     <use x="195.955171" y="304.110177" xlink:href="#m25935e0b06"/>
     <use x="245.180174" y="301.557707" xlink:href="#m25935e0b06"/>
     <use x="286.384931" y="297.582145" xlink:href="#m25935e0b06"/>
     <use x="338.490553" y="298.092418" xlink:href="#m25935e0b06"/>
     <use x="381.989939" y="224.431907" xlink:href="#m25935e0b06"/>
     <use x="430.579397" y="261.706468" xlink:href="#m25935e0b06"/>
     <use x="470.507764" y="147.445691" xlink:href="#m25935e0b06"/>
     <use x="519.825982" y="124.917263" xlink:href="#m25935e0b06"/>
     <use x="571.992828" y="195.818647" xlink:href="#m25935e0b06"/>
     <use x="610.350288" y="168.281111" xlink:href="#m25935e0b06"/>
     <use x="662.356972" y="108.218785" xlink:href="#m25935e0b06"/>
     <use x="707.440861" y="94.475107" xlink:href="#m25935e0b06"/>
     <use x="756.125584" y="38.137894" xlink:href="#m25935e0b06"/>
    </g>
   </g>
   <g id="PathCollection_2">
    <defs>
     <path id="C0_0_63e0803ec6" d="m0 6.1237c1.624 0 3.1818-0.64523 4.3301-1.7936s1.7936-2.7061 1.7936-4.3301-0.64523-3.1818-1.7936-4.3301-2.7061-1.7936-4.3301-1.7936-3.1818 0.64523-4.3301 1.7936-1.7936 2.7061-1.7936 4.3301 0.64523 3.1818 1.7936 4.3301 2.7061 1.7936 4.3301 1.7936z"/>
    </defs>
    <g clip-path="url(#pe76703432a)">
     <use x="114.290427" y="297.673293" fill="#839496" fill-opacity=".77" xlink:href="#C0_0_63e0803ec6"/>
    </g>
    <g clip-path="url(#pe76703432a)">
     <use x="154.441114" y="299.404612" fill="#839496" fill-opacity=".77" xlink:href="#C0_0_63e0803ec6"/>
    </g>
    <g clip-path="url(#pe76703432a)">
     <use x="199.040888" y="297.442879" fill="#839496" fill-opacity=".77" xlink:href="#C0_0_63e0803ec6"/>
    </g>
    <g clip-path="url(#pe76703432a)">
     <use x="241.061066" y="299.217493" fill="#839496" fill-opacity=".77" xlink:href="#C0_0_63e0803ec6"/>
    </g>
    <g clip-path="url(#pe76703432a)">
     <use x="295.514438" y="300.697425" fill="#839496" fill-opacity=".77" xlink:href="#C0_0_63e0803ec6"/>
    </g>
    <g clip-path="url(#pe76703432a)">
     <use x="341.595226" y="299.459063" fill="#839496" fill-opacity=".77" xlink:href="#C0_0_63e0803ec6"/>
    </g>
    <g clip-path="url(#pe76703432a)">
     <use x="385.943578" y="220.189869" fill="#839496" fill-opacity=".77" xlink:href="#C0_0_63e0803ec6"/>
    </g>
    <g clip-path="url(#pe76703432a)">
     <use x="433.631296" y="251.910097" fill="#839496" fill-opacity=".77" xlink:href="#C0_0_63e0803ec6"/>
    </g>
    <g clip-path="url(#pe76703432a)">
     <use x="482.697898" y="169.824382" fill="#839496" fill-opacity=".77" xlink:href="#C0_0_63e0803ec6"/>
    </g>
    <g clip-path="url(#pe76703432a)">
     <use x="523.631075" y="186.62615" fill="#839496" fill-opacity=".77" xlink:href="#C0_0_63e0803ec6"/>
    </g>
    <g clip-path="url(#pe76703432a)">
     <use x="564.582286" y="231.492101" fill="#839496" fill-opacity=".77" xlink:href="#C0_0_63e0803ec6"/>
    </g>
    <g clip-path="url(#pe76703432a)">
     <use x="622.386937" y="216.421363" fill="#839496" fill-opacity=".77" xlink:href="#C0_0_63e0803ec6"/>
    </g>
    <g clip-path="url(#pe76703432a)">
     <use x="667.782112" y="192.353646" fill="#839496" fill-opacity=".77" xlink:href="#C0_0_63e0803ec6"/>
    </g>
    <g clip-path="url(#pe76703432a)">
     <use x="712.839734" y="163.120702" fill="#839496" fill-opacity=".77" xlink:href="#C0_0_63e0803ec6"/>
    </g>
    <g clip-path="url(#pe76703432a)">
     <use x="752.486435" y="114.10809" fill="#839496" fill-opacity=".77" xlink:href="#C0_0_63e0803ec6"/>
    </g>
   </g>
   <g id="PathCollection_3">
    <defs>
     <path id="C1_0_5b3070c5d9" d="m0 6.1237c1.624 0 3.1818-0.64523 4.3301-1.7936s1.7936-2.7061 1.7936-4.3301-0.64523-3.1818-1.7936-4.3301-2.7061-1.7936-4.3301-1.7936-3.1818 0.64523-4.3301 1.7936-1.7936 2.7061-1.7936 4.3301 0.64523 3.1818 1.7936 4.3301 2.7061 1.7936 4.3301 1.7936z"/>
    </defs>
    <g clip-path="url(#pe76703432a)">
     <use x="107.868026" y="366.561216" fill="#3636b2" fill-opacity=".77" xlink:href="#C1_0_5b3070c5d9"/>
    </g>
    <g clip-path="url(#pe76703432a)">
     <use x="159.903727" y="345.957032" fill="#3636b2" fill-opacity=".77" xlink:href="#C1_0_5b3070c5d9"/>
    </g>
    <g clip-path="url(#pe76703432a)">
     <use x="206.934097" y="358.768517" fill="#3636b2" fill-opacity=".77" xlink:href="#C1_0_5b3070c5d9"/>
    </g>
    <g clip-path="url(#pe76703432a)">
     <use x="249.732455" y="364.651762" fill="#3636b2" fill-opacity=".77" xlink:href="#C1_0_5b3070c5d9"/>
    </g>
    <g clip-path="url(#pe76703432a)">
     <use x="287.188475" y="370.991738" fill="#3636b2" fill-opacity=".77" xlink:href="#C1_0_5b3070c5d9"/>
    </g>
    <g clip-path="url(#pe76703432a)">
     <use x="346.363743" y="366.132474" fill="#3636b2" fill-opacity=".77" xlink:href="#C1_0_5b3070c5d9"/>
    </g>
    <g clip-path="url(#pe76703432a)">
     <use x="381.606746" y="356.630744" fill="#3636b2" fill-opacity=".77" xlink:href="#C1_0_5b3070c5d9"/>
    </g>
    <g clip-path="url(#pe76703432a)">
     <use x="434.87164" y="264.869545" fill="#3636b2" fill-opacity=".77" xlink:href="#C1_0_5b3070c5d9"/>
    </g>
    <g clip-path="url(#pe76703432a)">
     <use x="484.795266" y="255.749055" fill="#3636b2" fill-opacity=".77" xlink:href="#C1_0_5b3070c5d9"/>
    </g>
    <g clip-path="url(#pe76703432a)">
     <use x="524.79585" y="195.55432" fill="#3636b2" fill-opacity=".77" xlink:href="#C1_0_5b3070c5d9"/>
    </g>
    <g clip-path="url(#pe76703432a)">
     <use x="571.534927" y="230.370747" fill="#3636b2" fill-opacity=".77" xlink:href="#C1_0_5b3070c5d9"/>
    </g>
    <g clip-path="url(#pe76703432a)">
     <use x="619.132014" y="226.046425" fill="#3636b2" fill-opacity=".77" xlink:href="#C1_0_5b3070c5d9"/>
    </g>
    <g clip-path="url(#pe76703432a)">
     <use x="663.523226" y="208.20578" fill="#3636b2" fill-opacity=".77" xlink:href="#C1_0_5b3070c5d9"/>
    </g>
    <g clip-path="url(#pe76703432a)">
     <use x="701.67896" y="161.686749" fill="#3636b2" fill-opacity=".77" xlink:href="#C1_0_5b3070c5d9"/>
    </g>
    <g clip-path="url(#pe76703432a)">
     <use x="751.834205" y="123.631581" fill="#3636b2" fill-opacity=".77" xlink:href="#C1_0_5b3070c5d9"/>
    </g>
   </g>
   <g id="PathCollection_4">
    <defs>
     <path id="C2_0_217da9aab3" d="m0 3.0619c0.81202 0 1.5909-0.32262 2.1651-0.8968 0.57418-0.57418 0.8968-1.353 0.8968-2.1651s-0.32262-1.5909-0.8968-2.1651c-0.57418-0.57418-1.353-0.8968-2.1651-0.8968s-1.5909 0.32262-2.1651 0.8968c-0.57418 0.57418-0.8968 1.353-0.8968 2.1651s0.32262 1.5909 0.8968 2.1651c0.57418 0.57418 1.353 0.8968 2.1651 0.8968z"/>
    </defs>
    <g clip-path="url(#pe76703432a)">
     <use x="104.316646" y="288.281957" fill="#839496" fill-opacity=".77" xlink:href="#C2_0_217da9aab3"/>
    </g>
    <g clip-path="url(#pe76703432a)">
     <use x="148.261502" y="309.833023" fill="#839496" fill-opacity=".77" xlink:href="#C2_0_217da9aab3"/>
    </g>
    <g clip-path="url(#pe76703432a)">
     <use x="202.118797" y="397.856263" fill="#839496" fill-opacity=".77" xlink:href="#C2_0_217da9aab3"/>
    </g>
    <g clip-path="url(#pe76703432a)">
     <use x="240.364936" y="408.593953" fill="#839496" fill-opacity=".77" xlink:href="#C2_0_217da9aab3"/>
    </g>
    <g clip-path="url(#pe76703432a)">
     <use x="290.230281" y="411.884111" fill="#839496" fill-opacity=".77" xlink:href="#C2_0_217da9aab3"/>
    </g>
    <g clip-path="url(#pe76703432a)">
     <use x="336.141813" y="400.553057" fill="#839496" fill-opacity=".77" xlink:href="#C2_0_217da9aab3"/>
    </g>
    <g clip-path="url(#pe76703432a)">
     <use x="392.871898" y="395.981982" fill="#839496" fill-opacity=".77" xlink:href="#C2_0_217da9aab3"/>
    </g>
    <g clip-path="url(#pe76703432a)">
     <use x="428.101646" y="383.175016" fill="#839496" fill-opacity=".77" xlink:href="#C2_0_217da9aab3"/>
    </g>
    <g clip-path="url(#pe76703432a)">
     <use x="481.099307" y="400.571177" fill="#839496" fill-opacity=".77" xlink:href="#C2_0_217da9aab3"/>
    </g>
    <g clip-path="url(#pe76703432a)">
     <use x="517.661231" y="385.059348" fill="#839496" fill-opacity=".77" xlink:href="#C2_0_217da9aab3"/>
    </g>
    <g clip-path="url(#pe76703432a)">
     <use x="573.137883" y="383.411696" fill="#839496" fill-opacity=".77" xlink:href="#C2_0_217da9aab3"/>
    </g>
    <g clip-path="url(#pe76703432a)">
     <use x="608.115666" y="375.565615" fill="#839496" fill-opacity=".77" xlink:href="#C2_0_217da9aab3"/>
    </g>
    <g clip-path="url(#pe76703432a)">
     <use x="666.794655" y="371.689145" fill="#839496" fill-opacity=".77" xlink:href="#C2_0_217da9aab3"/>
    </g>
    <g clip-path="url(#pe76703432a)">
     <use x="707.498716" y="358.170956" fill="#839496" fill-opacity=".77" xlink:href="#C2_0_217da9aab3"/>
    </g>
    <g clip-path="url(#pe76703432a)">
     <use x="752.595522" y="328.303626" fill="#839496" fill-opacity=".77" xlink:href="#C2_0_217da9aab3"/>
    </g>
   </g>
   <g id="PathCollection_5">
    <defs>
     <path id="C3_0_139e90f1d1" d="m0 3.0619c0.81202 0 1.5909-0.32262 2.1651-0.8968 0.57418-0.57418 0.8968-1.353 0.8968-2.1651s-0.32262-1.5909-0.8968-2.1651c-0.57418-0.57418-1.353-0.8968-2.1651-0.8968s-1.5909 0.32262-2.1651 0.8968c-0.57418 0.57418-0.8968 1.353-0.8968 2.1651s0.32262 1.5909 0.8968 2.1651c0.57418 0.57418 1.353 0.8968 2.1651 0.8968z"/>
    </defs>
    <g clip-path="url(#pe76703432a)">
     <use x="108.54472" y="336.536616" fill="#3636b2" fill-opacity=".77" xlink:href="#C3_0_139e90f1d1"/>
    </g>
    <g clip-path="url(#pe76703432a)">
     <use x="148.054044" y="318.254282" fill="#3636b2" fill-opacity=".77" xlink:href="#C3_0_139e90f1d1"/>
    </g>
    <g clip-path="url(#pe76703432a)">
     <use x="195.927703" y="249.791998" fill="#3636b2" fill-opacity=".77" xlink:href="#C3_0_139e90f1d1"/>
    </g>
    <g clip-path="url(#pe76703432a)">
     <use x="242.867197" y="248.915394" fill="#3636b2" fill-opacity=".77" xlink:href="#C3_0_139e90f1d1"/>
    </g>
    <g clip-path="url(#pe76703432a)">
     <use x="300.848145" y="252.512678" fill="#3636b2" fill-opacity=".77" xlink:href="#C3_0_139e90f1d1"/>
    </g>
    <g clip-path="url(#pe76703432a)">
     <use x="346.007508" y="246.060362" fill="#3636b2" fill-opacity=".77" xlink:href="#C3_0_139e90f1d1"/>
    </g>
    <g clip-path="url(#pe76703432a)">
     <use x="391.603294" y="258.973643" fill="#3636b2" fill-opacity=".77" xlink:href="#C3_0_139e90f1d1"/>
    </g>
    <g clip-path="url(#pe76703432a)">
     <use x="428.833143" y="393.687361" fill="#3636b2" fill-opacity=".77" xlink:href="#C3_0_139e90f1d1"/>
    </g>
    <g clip-path="url(#pe76703432a)">
     <use x="470.140972" y="389.21264" fill="#3636b2" fill-opacity=".77" xlink:href="#C3_0_139e90f1d1"/>
    </g>
    <g clip-path="url(#pe76703432a)">
     <use x="527.907974" y="392.608716" fill="#3636b2" fill-opacity=".77" xlink:href="#C3_0_139e90f1d1"/>
    </g>
    <g clip-path="url(#pe76703432a)">
     <use x="569.276215" y="389.151584" fill="#3636b2" fill-opacity=".77" xlink:href="#C3_0_139e90f1d1"/>
    </g>
    <g clip-path="url(#pe76703432a)">
     <use x="617.582312" y="378.949615" fill="#3636b2" fill-opacity=".77" xlink:href="#C3_0_139e90f1d1"/>
    </g>
    <g clip-path="url(#pe76703432a)">
     <use x="657.883801" y="375.963369" fill="#3636b2" fill-opacity=".77" xlink:href="#C3_0_139e90f1d1"/>
    </g>
    <g clip-path="url(#pe76703432a)">
     <use x="706.40678" y="363.580605" fill="#3636b2" fill-opacity=".77" xlink:href="#C3_0_139e90f1d1"/>
    </g>
    <g clip-path="url(#pe76703432a)">
     <use x="751.898866" y="328.691917" fill="#3636b2" fill-opacity=".77" xlink:href="#C3_0_139e90f1d1"/>
    </g>
   </g>
   <g id="patch_3">
    <path d="m64.875 433.99v-419.69" fill="none" stroke="#839496" stroke-linecap="square"/>
   </g>
   <g id="patch_4">
    <path d="m801.19 433.99v-419.69" fill="none" stroke="#839496" stroke-linecap="square"/>
   </g>
   <g id="patch_5">
    <path d="m64.875 433.99h736.31" fill="none" stroke="#839496" stroke-linecap="square"/>
   </g>
   <g id="patch_6">
    <path d="m64.875 14.3h736.31" fill="none" stroke="#839496" stroke-linecap="square"/>
   </g>
   <g id="legend_1">
    <g id="patch_7">
     <path d="m70.706 83.446h96.646q1.666 0 1.666-1.666v-61.649q0-1.666-1.666-1.666h-96.646q-1.666 0-1.666 1.666v61.649q0 1.666 1.666 1.666z" fill="#002b36" opacity=".8" stroke="#ccc" stroke-width=".39"/>
    </g>
    <g id="PathCollection_6">
     <use x="80.702039" y="25.939873" fill="#839496" fill-opacity=".77" stroke="#000000" stroke-opacity=".77" stroke-width="1.5" xlink:href="#m25935e0b06"/>
    </g>
    <g id="text_20"><!-- MMF    ATI - - - -->
     <defs>
      <path id="NotoMono-46" d="m21 0h-9.0781v71.391h41.062v-8.0156h-31.984v-25.188h30.125v-8.0156h-30.125z"/>
      <path id="NotoMono-41" d="m49.031 0-7.0312 22.125h-23.984l-7.125-22.125h-9.2812l23.594 71.688h9.5156l23.688-71.688zm-9.625 30.172-6.5 20.703q-1.9062 6.0625-3.0156 11.047-0.98438-4.8438-2.25-8.9375l-7.0312-22.812z"/>
      <path id="NotoMono-54" d="m34.516 0h-9.125v63.375h-20.406v8.0156h49.906v-8.0156h-20.375z"/>
      <path id="NotoMono-49" d="m48.875 0h-37.891v6l14.406 0.98438v57.422l-14.406 0.96875v6.0156h37.891v-6.0156l-14.359-0.96875v-57.422l14.359-0.98438z"/>
     </defs>
     <g transform="translate(95.696 28.126) scale(.0833 -.0833)" fill="#93a1a1">
      <use xlink:href="#NotoMono-4d"/>
      <use x="60.009766" xlink:href="#NotoMono-4d"/>
      <use x="120.019531" xlink:href="#NotoMono-46"/>
      <use x="180.029297" xlink:href="#NotoMono-20"/>
      <use x="240.039062" xlink:href="#NotoMono-20"/>
      <use x="300.048828" xlink:href="#NotoMono-20"/>
      <use x="360.058594" xlink:href="#NotoMono-20"/>
      <use x="420.068359" xlink:href="#NotoMono-41"/>
      <use x="480.078125" xlink:href="#NotoMono-54"/>
      <use x="540.087891" xlink:href="#NotoMono-49"/>
      <use x="600.097656" xlink:href="#NotoMono-20"/>
      <use x="660.107422" xlink:href="#NotoMono-2d"/>
      <use x="720.117188" xlink:href="#NotoMono-2d"/>
      <use x="780.126953" xlink:href="#NotoMono-2d"/>
     </g>
    </g>
    <g id="PathCollection_7">
     <path d="m80.702 44.56c1.624 0 3.1818-0.64523 4.3301-1.7936s1.7936-2.7061 1.7936-4.3301-0.64523-3.1818-1.7936-4.3301-2.7061-1.7936-4.3301-1.7936-3.1818 0.64523-4.3301 1.7936-1.7936 2.7061-1.7936 4.3301 0.64523 3.1818 1.7936 4.3301 2.7061 1.7936 4.3301 1.7936z" fill="#839496" fill-opacity=".77"/>
    </g>
    <g id="text_21"><!-- RS     ATI - - - -->
     <defs>
      <path id="NotoMono-52" d="m18.219 29.5v-29.5h-9.1406v71.391h17.438q25.391 0 25.391-20.266 0-14.016-14.109-19.141l19.375-31.984h-10.688l-17.094 29.5zm0 7.7031h8q8.3594 0 12.312 3.2188 3.9531 3.2344 3.9531 10.266 0 6.875-3.9062 9.9062t-12.594 3.0312h-7.7656z"/>
      <path id="NotoMono-53" d="m6.8906 2.3906v8.6875q10.297-4.1875 20.203-4.1875 17.094 0 17.094 11.719 0 5.0781-3.4375 7.8125t-13.938 6.4844q-10.156 3.5625-14.578 8.5156-4.4219 4.9688-4.4219 12.875 0 8.5 6.2656 13.297 6.2812 4.8125 17.219 4.8125 11.188 0 20.312-3.7969l-3.125-8.0156q-9.4219 3.8125-17.578 3.8125-14.297 0-14.297-10.203 0-4.9844 3.1875-8.0156 3.2031-3.0156 13.219-6.4844 12-4.2969 16.031-8.875 4.0312-4.5625 4.0312-11.734 0-9.375-6.7656-14.734-6.7656-5.3438-19.219-5.3438-12.938 0-20.203 3.375z"/>
     </defs>
     <g transform="translate(95.696 40.623) scale(.0833 -.0833)" fill="#93a1a1">
      <use xlink:href="#NotoMono-52"/>
      <use x="60.009766" xlink:href="#NotoMono-53"/>
      <use x="120.019531" xlink:href="#NotoMono-20"/>
      <use x="180.029297" xlink:href="#NotoMono-20"/>
      <use x="240.039062" xlink:href="#NotoMono-20"/>
      <use x="300.048828" xlink:href="#NotoMono-20"/>
      <use x="360.058594" xlink:href="#NotoMono-20"/>
      <use x="420.068359" xlink:href="#NotoMono-41"/>
      <use x="480.078125" xlink:href="#NotoMono-54"/>
      <use x="540.087891" xlink:href="#NotoMono-49"/>
      <use x="600.097656" xlink:href="#NotoMono-20"/>
      <use x="660.107422" xlink:href="#NotoMono-2d"/>
      <use x="720.117188" xlink:href="#NotoMono-2d"/>
      <use x="780.126953" xlink:href="#NotoMono-2d"/>
     </g>
    </g>
    <g id="PathCollection_8">
     <path d="m80.702 57.056c1.624 0 3.1818-0.64523 4.3301-1.7936 1.1484-1.1484 1.7936-2.7061 1.7936-4.3301 0-1.624-0.64523-3.1818-1.7936-4.3301-1.1484-1.1484-2.7061-1.7936-4.3301-1.7936s-3.1818 0.64523-4.3301 1.7936c-1.1484 1.1484-1.7936 2.7061-1.7936 4.3301 0 1.624 0.64523 3.1818 1.7936 4.3301 1.1484 1.1484 2.7061 1.7936 4.3301 1.7936z" fill="#3636b2" fill-opacity=".77"/>
    </g>
    <g id="text_22"><!-- RS     ATI S- - -->
     <g transform="translate(95.696 53.119) scale(.0833 -.0833)" fill="#93a1a1">
      <use xlink:href="#NotoMono-52"/>
      <use x="60.009766" xlink:href="#NotoMono-53"/>
      <use x="120.019531" xlink:href="#NotoMono-20"/>
      <use x="180.029297" xlink:href="#NotoMono-20"/>
      <use x="240.039062" xlink:href="#NotoMono-20"/>
      <use x="300.048828" xlink:href="#NotoMono-20"/>
      <use x="360.058594" xlink:href="#NotoMono-20"/>
      <use x="420.068359" xlink:href="#NotoMono-41"/>
      <use x="480.078125" xlink:href="#NotoMono-54"/>
      <use x="540.087891" xlink:href="#NotoMono-49"/>
      <use x="600.097656" xlink:href="#NotoMono-20"/>
      <use x="660.107422" xlink:href="#NotoMono-53"/>
      <use x="720.117188" xlink:href="#NotoMono-2d"/>
      <use x="780.126953" xlink:href="#NotoMono-2d"/>
     </g>
    </g>
    <g id="PathCollection_9">
     <path d="m80.702 66.491c0.81202 0 1.5909-0.32262 2.1651-0.8968 0.57418-0.57418 0.8968-1.353 0.8968-2.1651s-0.32262-1.5909-0.8968-2.1651c-0.57418-0.57418-1.353-0.8968-2.1651-0.8968s-1.5909 0.32262-2.1651 0.8968c-0.57418 0.57418-0.8968 1.353-0.8968 2.1651s0.32262 1.5909 0.8968 2.1651c0.57418 0.57418 1.353 0.8968 2.1651 0.8968z" fill="#839496" fill-opacity=".77"/>
    </g>
    <g id="text_23"><!-- RS     RRI - - - -->
     <g transform="translate(95.696 65.615) scale(.0833 -.0833)" fill="#93a1a1">
      <use xlink:href="#NotoMono-52"/>
      <use x="60.009766" xlink:href="#NotoMono-53"/>
      <use x="120.019531" xlink:href="#NotoMono-20"/>
      <use x="180.029297" xlink:href="#NotoMono-20"/>
      <use x="240.039062" xlink:href="#NotoMono-20"/>
      <use x="300.048828" xlink:href="#NotoMono-20"/>
      <use x="360.058594" xlink:href="#NotoMono-20"/>
      <use x="420.068359" xlink:href="#NotoMono-52"/>
      <use x="480.078125" xlink:href="#NotoMono-52"/>
      <use x="540.087891" xlink:href="#NotoMono-49"/>
      <use x="600.097656" xlink:href="#NotoMono-20"/>
      <use x="660.107422" xlink:href="#NotoMono-2d"/>
      <use x="720.117188" xlink:href="#NotoMono-2d"/>
      <use x="780.126953" xlink:href="#NotoMono-2d"/>
     </g>
    </g>
    <g id="PathCollection_10">
     <path d="m80.702 78.987c0.81202 0 1.5909-0.32262 2.1651-0.8968 0.57418-0.57418 0.8968-1.353 0.8968-2.1651 0-0.81202-0.32262-1.5909-0.8968-2.1651-0.57418-0.57418-1.353-0.8968-2.1651-0.8968s-1.5909 0.32262-2.1651 0.8968c-0.57418 0.57418-0.8968 1.353-0.8968 2.1651 0 0.81202 0.32262 1.5909 0.8968 2.1651 0.57418 0.57418 1.353 0.8968 2.1651 0.8968z" fill="#3636b2" fill-opacity=".77"/>
    </g>
    <g id="text_24"><!-- RS     RRI S- - -->
     <g transform="translate(95.696 78.112) scale(.0833 -.0833)" fill="#93a1a1">
      <use xlink:href="#NotoMono-52"/>
      <use x="60.009766" xlink:href="#NotoMono-53"/>
      <use x="120.019531" xlink:href="#NotoMono-20"/>
      <use x="180.029297" xlink:href="#NotoMono-20"/>
      <use x="240.039062" xlink:href="#NotoMono-20"/>
      <use x="300.048828" xlink:href="#NotoMono-20"/>
      <use x="360.058594" xlink:href="#NotoMono-20"/>
      <use x="420.068359" xlink:href="#NotoMono-52"/>
      <use x="480.078125" xlink:href="#NotoMono-52"/>
      <use x="540.087891" xlink:href="#NotoMono-49"/>
      <use x="600.097656" xlink:href="#NotoMono-20"/>
      <use x="660.107422" xlink:href="#NotoMono-53"/>
      <use x="720.117188" xlink:href="#NotoMono-2d"/>
      <use x="780.126953" xlink:href="#NotoMono-2d"/>
     </g>
    </g>
   </g>
  </g>
 </g>
 <defs>
  <clipPath id="pe76703432a">
   <rect x="64.875" y="14.3" width="736.31" height="419.69"/>
  </clipPath>
 </defs>
</svg>
