<?xml version="1.0" encoding="UTF-8" standalone="no"?>
<!DOCTYPE svg PUBLIC "-//W3C//DTD SVG 1.1//EN"
 "http://www.w3.org/Graphics/SVG/1.1/DTD/svg11.dtd">
<!-- Generated by graphviz version 2.38.0 (20140413.2041)
 -->
<!-- Title: %3 Pages: 1 -->
<svg width="610pt" height="387pt"
 viewBox="0.00 0.00 610.00 386.74" xmlns="http://www.w3.org/2000/svg" xmlns:xlink="http://www.w3.org/1999/xlink">
<g id="graph0" class="graph" transform="scale(1 1) rotate(0) translate(4 382.735)">
<title>%3</title>
<g id="clust1" class="cluster"><title>cluster_GO</title>
<polygon fill="none" stroke="white" points="8,-77 8,-370.735 594,-370.735 594,-77 8,-77"/>
<text text-anchor="middle" x="301" y="-84.8" font-family="Times,serif" font-size="14.00" fill="white">Gene Ontology</text>
</g>
<!-- X1XMA5 -->
<g id="node1" class="node"><title>X1XMA5</title>
<ellipse fill="none" stroke="white" cx="243" cy="-18" rx="66.0889" ry="18"/>
<text text-anchor="start" x="200" y="-14.3" font-family="Times,serif" font-size="14.00" fill="white"> up:X1XMA5 </text>
</g>
<!-- 0042131 -->
<g id="node2" class="node"><title>0042131</title>
<ellipse fill="none" stroke="#cc9999" cx="243" cy="-133.456" rx="178.382" ry="25.4118"/>
<text text-anchor="start" x="205" y="-137.256" font-family="Times,serif" font-size="14.00" fill="white"> </text>
<text text-anchor="start" x="209" y="-137.256" font-family="Times,serif" font-size="14.00" fill="#cc9999">go:0042131</text>
<text text-anchor="start" x="125" y="-123.256" font-family="Times,serif" font-size="14.00" fill="#cc9999">thiamine phosphate phosphatase activity</text>
<text text-anchor="start" x="357" y="-123.256" font-family="Times,serif" font-size="14.00" fill="white"> </text>
</g>
<!-- X1XMA5&#45;&gt;0042131 -->
<g id="edge1" class="edge"><title>X1XMA5&#45;&gt;0042131</title>
<path fill="none" stroke="white" d="M243,-36.2315C243,-52.4903 243,-77.3425 243,-97.7171"/>
<polygon fill="white" stroke="white" points="239.5,-97.8944 243,-107.894 246.5,-97.8944 239.5,-97.8944"/>
<text text-anchor="middle" x="293" y="-57.8" font-family="Times,serif" font-size="14.00" fill="white">up:classifiedWith</text>
</g>
<!-- 0042131&#45;&gt;0042131 -->
<g id="edge5" class="edge"><title>0042131&#45;&gt;0042131</title>
<path fill="none" stroke="#cc9999" stroke-dasharray="5,2" d="M413.53,-125.973C429.271,-127.519 439.191,-130.013 439.191,-133.456 439.191,-136.091 433.376,-138.171 423.586,-139.695"/>
<polygon fill="#cc9999" stroke="#cc9999" points="423.025,-136.238 413.53,-140.939 423.884,-143.185 423.025,-136.238"/>
<text text-anchor="start" x="439.191" y="-130.756" font-family="Times,serif" font-size="14.00" fill="white"> </text>
<text text-anchor="start" x="443.191" y="-130.756" font-family="Times,serif" font-size="14.00" fill="#cc9999">rdfs:subClassOf</text>
<text text-anchor="start" x="534.191" y="-130.756" font-family="Times,serif" font-size="14.00" fill="white"> </text>
</g>
<!-- 0003993 -->
<g id="node3" class="node"><title>0003993</title>
<ellipse fill="none" stroke="#cc9999" cx="175" cy="-235.368" rx="159.198" ry="25.4118"/>
<text text-anchor="start" x="137" y="-239.168" font-family="Times,serif" font-size="14.00" fill="white"> </text>
<text text-anchor="start" x="141" y="-239.168" font-family="Times,serif" font-size="14.00" fill="#cc9999">go:0003993</text>
<text text-anchor="start" x="70.5" y="-225.168" font-family="Times,serif" font-size="14.00" fill="#cc9999">acid phosphate phosphatase activity</text>
<text text-anchor="start" x="275.5" y="-225.168" font-family="Times,serif" font-size="14.00" fill="white"> </text>
</g>
<!-- 0042131&#45;&gt;0003993 -->
<g id="edge2" class="edge"><title>0042131&#45;&gt;0003993</title>
<path fill="none" stroke="#cc9999" d="M226.365,-158.897C217.639,-171.719 206.826,-187.605 197.376,-201.491"/>
<polygon fill="#cc9999" stroke="#cc9999" points="194.432,-199.596 191.699,-209.832 200.219,-203.535 194.432,-199.596"/>
<text text-anchor="start" x="213" y="-181.712" font-family="Times,serif" font-size="14.00" fill="white"> </text>
<text text-anchor="start" x="217" y="-181.712" font-family="Times,serif" font-size="14.00" fill="#cc9999">rdfs:subClassOf</text>
<text text-anchor="start" x="308" y="-181.712" font-family="Times,serif" font-size="14.00" fill="white"> </text>
</g>
<!-- 0042578 -->
<g id="node4" class="node"><title>0042578</title>
<ellipse fill="none" stroke="#cc9999" cx="290" cy="-337.279" rx="140.014" ry="25.4118"/>
<text text-anchor="start" x="252" y="-341.079" font-family="Times,serif" font-size="14.00" fill="white"> </text>
<text text-anchor="start" x="256" y="-341.079" font-family="Times,serif" font-size="14.00" fill="#cc9999">go:0042578</text>
<text text-anchor="start" x="199" y="-327.079" font-family="Times,serif" font-size="14.00" fill="#cc9999">phosphate phosphatase activity</text>
<text text-anchor="start" x="377" y="-327.079" font-family="Times,serif" font-size="14.00" fill="white"> </text>
</g>
<!-- 0042131&#45;&gt;0042578 -->
<g id="edge4" class="edge"><title>0042131&#45;&gt;0042578</title>
<path fill="none" stroke="#cc9999" stroke-dasharray="5,2" d="M371.022,-151.221C405.468,-162.245 438.967,-180.33 460,-209.912 473.112,-228.353 472.335,-241.853 460,-260.823 443.632,-285.996 416.725,-302.837 389.095,-314.078"/>
<polygon fill="#cc9999" stroke="#cc9999" points="387.793,-310.829 379.711,-317.68 390.301,-317.364 387.793,-310.829"/>
<text text-anchor="start" x="469" y="-232.668" font-family="Times,serif" font-size="14.00" fill="white"> </text>
<text text-anchor="start" x="473" y="-232.668" font-family="Times,serif" font-size="14.00" fill="#cc9999">rdfs:subClassOf</text>
<text text-anchor="start" x="564" y="-232.668" font-family="Times,serif" font-size="14.00" fill="white"> </text>
</g>
<!-- 0003993&#45;&gt;0003993 -->
<g id="edge6" class="edge"><title>0003993&#45;&gt;0003993</title>
<path fill="none" stroke="#cc9999" stroke-dasharray="5,2" d="M326.781,-227.661C342.234,-229.185 352.099,-231.754 352.099,-235.368 352.099,-238.106 346.434,-240.244 336.964,-241.783"/>
<polygon fill="#cc9999" stroke="#cc9999" points="336.261,-238.344 326.781,-243.074 337.142,-245.288 336.261,-238.344"/>
<text text-anchor="start" x="352.099" y="-232.668" font-family="Times,serif" font-size="14.00" fill="white"> </text>
<text text-anchor="start" x="356.099" y="-232.668" font-family="Times,serif" font-size="14.00" fill="#cc9999">rdfs:subClassOf</text>
<text text-anchor="start" x="447.099" y="-232.668" font-family="Times,serif" font-size="14.00" fill="white"> </text>
</g>
<!-- 0003993&#45;&gt;0042578 -->
<g id="edge3" class="edge"><title>0003993&#45;&gt;0042578</title>
<path fill="none" stroke="#cc9999" d="M202.838,-260.553C218.377,-274.053 237.894,-291.01 254.519,-305.454"/>
<polygon fill="#cc9999" stroke="#cc9999" points="252.574,-308.4 262.418,-312.316 257.165,-303.115 252.574,-308.4"/>
<text text-anchor="start" x="239" y="-283.623" font-family="Times,serif" font-size="14.00" fill="white"> </text>
<text text-anchor="start" x="243" y="-283.623" font-family="Times,serif" font-size="14.00" fill="#cc9999">rdfs:subClassOf</text>
<text text-anchor="start" x="334" y="-283.623" font-family="Times,serif" font-size="14.00" fill="white"> </text>
</g>
<!-- 0042578&#45;&gt;0042578 -->
<g id="edge7" class="edge"><title>0042578&#45;&gt;0042578</title>
<path fill="none" stroke="#cc9999" stroke-dasharray="5,2" d="M423.139,-329.335C438.228,-330.822 448.007,-333.471 448.007,-337.279 448.007,-340.165 442.391,-342.385 433.105,-343.939"/>
<polygon fill="#cc9999" stroke="#cc9999" points="432.61,-340.473 423.139,-345.224 433.505,-347.416 432.61,-340.473"/>
<text text-anchor="start" x="448.007" y="-334.579" font-family="Times,serif" font-size="14.00" fill="white"> </text>
<text text-anchor="start" x="452.007" y="-334.579" font-family="Times,serif" font-size="14.00" fill="#cc9999">rdfs:subClassOf</text>
<text text-anchor="start" x="543.007" y="-334.579" font-family="Times,serif" font-size="14.00" fill="white"> </text>
</g>
</g>
</svg>
