<?xml version="1.0" encoding="UTF-8" standalone="no"?>
<!DOCTYPE svg PUBLIC "-//W3C//DTD SVG 1.1//EN"
 "http://www.w3.org/Graphics/SVG/1.1/DTD/svg11.dtd">
<!-- Generated by graphviz version 2.38.0 (20140413.2041)
 -->
<!-- Title: %3 Pages: 1 -->
<svg width="177pt" height="218pt"
 viewBox="0.00 0.00 176.74 218.00" xmlns="http://www.w3.org/2000/svg" xmlns:xlink="http://www.w3.org/1999/xlink">
<g id="graph0" class="graph" transform="scale(1 1) rotate(0) translate(4 214)">
<title>%3</title>
<!-- X1XMA5 -->
<g id="node1" class="node"><title>X1XMA5</title>
<ellipse fill="none" stroke="white" cx="61.7445" cy="-18" rx="61.99" ry="18"/>
<text text-anchor="middle" x="61.7445" y="-14.3" font-family="Times,serif" font-size="14.00" fill="white">up:X1XMA5</text>
</g>
<!-- go -->
<g id="node2" class="node"><title>go</title>
<ellipse fill="none" stroke="#42ffff" cx="61.7445" cy="-105" rx="29.795" ry="18"/>
<text text-anchor="start" x="46.7445" y="-102.3" font-family="Times,serif" font-size="14.00" fill="white"> </text>
<text text-anchor="start" x="50.7445" y="-102.3" font-family="Times,serif" font-size="14.00" fill="#42ffff">?go</text>
<text text-anchor="start" x="72.7445" y="-102.3" font-family="Times,serif" font-size="14.00" fill="white"> </text>
</g>
<!-- X1XMA5&#45;&gt;go -->
<g id="edge1" class="edge"><title>X1XMA5&#45;&gt;go</title>
<path fill="none" stroke="white" d="M61.7445,-36.201C61.7445,-47.8374 61.7445,-63.4521 61.7445,-76.7632"/>
<polygon fill="white" stroke="white" points="58.2446,-76.8245 61.7445,-86.8246 65.2446,-76.8246 58.2446,-76.8245"/>
<text text-anchor="start" x="61.7445" y="-57.8" font-family="Times,serif" font-size="14.00" fill="white"> up:classifiedWith </text>
</g>
<!-- Class -->
<g id="node3" class="node"><title>Class</title>
<ellipse fill="none" stroke="#cc9999" cx="61.7445" cy="-192" rx="51.9908" ry="18"/>
<text text-anchor="start" x="29.7445" y="-189.3" font-family="Times,serif" font-size="14.00" fill="white"> </text>
<text text-anchor="start" x="33.7445" y="-189.3" font-family="Times,serif" font-size="14.00" fill="#cc9999">rdfs:Class</text>
<text text-anchor="start" x="89.7445" y="-189.3" font-family="Times,serif" font-size="14.00" fill="white"> </text>
</g>
<!-- go&#45;&gt;Class -->
<g id="edge2" class="edge"><title>go&#45;&gt;Class</title>
<path fill="none" stroke="#cc9999" d="M61.7445,-123.201C61.7445,-134.837 61.7445,-150.452 61.7445,-163.763"/>
<polygon fill="#cc9999" stroke="#cc9999" points="58.2446,-163.825 61.7445,-173.825 65.2446,-163.825 58.2446,-163.825"/>
<text text-anchor="start" x="61.7445" y="-145.8" font-family="Times,serif" font-size="14.00" fill="white"> </text>
<text text-anchor="start" x="65.7445" y="-145.8" font-family="Times,serif" font-size="14.00" fill="#cc9999">rdf:type</text>
<text text-anchor="start" x="111.745" y="-145.8" font-family="Times,serif" font-size="14.00" fill="white"> </text>
</g>
</g>
</svg>
