<?xml version="1.0" encoding="UTF-8" standalone="no"?>
<!DOCTYPE svg PUBLIC "-//W3C//DTD SVG 1.1//EN"
 "http://www.w3.org/Graphics/SVG/1.1/DTD/svg11.dtd">
<!-- Generated by graphviz version 2.38.0 (20140413.2041)
 -->
<!-- Title: %3 Pages: 1 -->
<svg width="210pt" height="305pt"
 viewBox="0.00 0.00 209.74 305.00" xmlns="http://www.w3.org/2000/svg" xmlns:xlink="http://www.w3.org/1999/xlink">
<g id="graph0" class="graph" transform="scale(1 1) rotate(0) translate(4 301)">
<title>%3</title>
<!-- X1XMA5 -->
<g id="node1" class="node"><title>X1XMA5</title>
<ellipse fill="none" stroke="white" cx="61.7445" cy="-18" rx="61.99" ry="18"/>
<text text-anchor="middle" x="61.7445" y="-14.3" font-family="Times,serif" font-size="14.00" fill="white">up:X1XMA5</text>
</g>
<!-- go_direct -->
<g id="node2" class="node"><title>go_direct</title>
<ellipse fill="none" stroke="#42ffff" cx="61.7445" cy="-105" rx="55.4913" ry="18"/>
<text text-anchor="start" x="27.2445" y="-102.3" font-family="Times,serif" font-size="14.00" fill="white"> </text>
<text text-anchor="start" x="31.2445" y="-102.3" font-family="Times,serif" font-size="14.00" fill="#42ffff">?go_direct</text>
<text text-anchor="start" x="92.2445" y="-102.3" font-family="Times,serif" font-size="14.00" fill="white"> </text>
</g>
<!-- X1XMA5&#45;&gt;go_direct -->
<g id="edge1" class="edge"><title>X1XMA5&#45;&gt;go_direct</title>
<path fill="none" stroke="white" d="M61.7445,-36.201C61.7445,-47.8374 61.7445,-63.4521 61.7445,-76.7632"/>
<polygon fill="white" stroke="white" points="58.2446,-76.8245 61.7445,-86.8246 65.2446,-76.8246 58.2446,-76.8245"/>
<text text-anchor="start" x="61.7445" y="-57.8" font-family="Times,serif" font-size="14.00" fill="white"> up:classifiedWith </text>
</g>
<!-- Class -->
<g id="node3" class="node"><title>Class</title>
<ellipse fill="none" stroke="#cc9999" cx="61.7445" cy="-279" rx="51.9908" ry="18"/>
<text text-anchor="start" x="29.7445" y="-276.3" font-family="Times,serif" font-size="14.00" fill="white"> </text>
<text text-anchor="start" x="33.7445" y="-276.3" font-family="Times,serif" font-size="14.00" fill="#cc9999">rdfs:Class</text>
<text text-anchor="start" x="89.7445" y="-276.3" font-family="Times,serif" font-size="14.00" fill="white"> </text>
</g>
<!-- go_direct&#45;&gt;Class -->
<g id="edge2" class="edge"><title>go_direct&#45;&gt;Class</title>
<path fill="none" stroke="#cc9999" d="M53.9684,-122.897C48.2027,-136.4 40.8305,-155.984 37.7445,-174 35.0432,-189.77 35.0432,-194.23 37.7445,-210 40.1795,-224.216 45.2832,-239.408 50.1606,-251.818"/>
<polygon fill="#cc9999" stroke="#cc9999" points="46.9358,-253.179 53.9684,-261.103 53.4124,-250.523 46.9358,-253.179"/>
<text text-anchor="start" x="37.7445" y="-189.3" font-family="Times,serif" font-size="14.00" fill="white"> </text>
<text text-anchor="start" x="41.7445" y="-189.3" font-family="Times,serif" font-size="14.00" fill="#cc9999">rdf:type</text>
<text text-anchor="start" x="87.7445" y="-189.3" font-family="Times,serif" font-size="14.00" fill="white"> </text>
</g>
<!-- go -->
<g id="node4" class="node"><title>go</title>
<ellipse fill="none" stroke="#42ffff" cx="130.745" cy="-192" rx="29.795" ry="18"/>
<text text-anchor="start" x="115.745" y="-189.3" font-family="Times,serif" font-size="14.00" fill="white"> </text>
<text text-anchor="start" x="119.745" y="-189.3" font-family="Times,serif" font-size="14.00" fill="#42ffff">?go</text>
<text text-anchor="start" x="141.745" y="-189.3" font-family="Times,serif" font-size="14.00" fill="white"> </text>
</g>
<!-- go_direct&#45;&gt;go -->
<g id="edge3" class="edge"><title>go_direct&#45;&gt;go</title>
<path fill="none" stroke="#cc9999" d="M75.3767,-122.793C85.7514,-135.574 100.159,-153.322 111.676,-167.51"/>
<polygon fill="#cc9999" stroke="#cc9999" points="109.051,-169.83 118.071,-175.388 114.486,-165.418 109.051,-169.83"/>
<text text-anchor="start" x="99.7445" y="-145.8" font-family="Times,serif" font-size="14.00" fill="white"> </text>
<text text-anchor="start" x="103.745" y="-145.8" font-family="Times,serif" font-size="14.00" fill="#cc9999">rdf:subClassOf*</text>
<text text-anchor="start" x="197.745" y="-145.8" font-family="Times,serif" font-size="14.00" fill="white"> </text>
</g>
<!-- go&#45;&gt;Class -->
<g id="edge4" class="edge"><title>go&#45;&gt;Class</title>
<path fill="none" stroke="#cc9999" d="M118.089,-208.59C107.942,-221.09 93.5119,-238.866 81.7955,-253.3"/>
<polygon fill="#cc9999" stroke="#cc9999" points="78.8487,-251.376 75.2635,-261.346 84.2835,-255.788 78.8487,-251.376"/>
<text text-anchor="start" x="99.7445" y="-232.8" font-family="Times,serif" font-size="14.00" fill="white"> </text>
<text text-anchor="start" x="103.745" y="-232.8" font-family="Times,serif" font-size="14.00" fill="#cc9999">rdf:type</text>
<text text-anchor="start" x="149.745" y="-232.8" font-family="Times,serif" font-size="14.00" fill="white"> </text>
</g>
</g>
</svg>
