<?xml version="1.0" encoding="UTF-8" standalone="no"?>
<!-- Created with Inkscape (http://www.inkscape.org/) -->

<svg
   xmlns:dc="http://purl.org/dc/elements/1.1/"
   xmlns:cc="http://creativecommons.org/ns#"
   xmlns:rdf="http://www.w3.org/1999/02/22-rdf-syntax-ns#"
   xmlns:svg="http://www.w3.org/2000/svg"
   xmlns="http://www.w3.org/2000/svg"
   xmlns:sodipodi="http://sodipodi.sourceforge.net/DTD/sodipodi-0.dtd"
   xmlns:inkscape="http://www.inkscape.org/namespaces/inkscape"
   id="svg2"
   version="1.1"
   inkscape:version="0.91 r13725"
   xml:space="preserve"
   width="450"
   height="210"
   viewBox="0 0 449.99998 210"
   sodipodi:docname="Logotype-INRA-cmjn.svg"><metadata
     id="metadata8"><rdf:RDF><cc:Work
         rdf:about=""><dc:format>image/svg+xml</dc:format><dc:type
           rdf:resource="http://purl.org/dc/dcmitype/StillImage" /><dc:title></dc:title></cc:Work></rdf:RDF></metadata><defs
     id="defs6"><clipPath
       clipPathUnits="userSpaceOnUse"
       id="clipPath16"><path
         d="m 0,623.627 870.236,0 L 870.236,0 0,0 0,623.627 Z"
         id="path18"
         inkscape:connector-curvature="0" /></clipPath></defs><sodipodi:namedview
     pagecolor="#ffffff"
     bordercolor="#666666"
     borderopacity="1"
     objecttolerance="10"
     gridtolerance="10"
     guidetolerance="10"
     inkscape:pageopacity="0"
     inkscape:pageshadow="2"
     inkscape:window-width="1920"
     inkscape:window-height="1016"
     id="namedview4"
     showgrid="false"
     inkscape:zoom="0.85629237"
     inkscape:cx="225.34053"
     inkscape:cy="383.16066"
     inkscape:window-x="0"
     inkscape:window-y="27"
     inkscape:window-maximized="1"
     inkscape:current-layer="g10" /><g
     id="g10"
     inkscape:groupmode="layer"
     inkscape:label="Logotype-INRA-cmjn"
     transform="matrix(1.25,0,0,-1.25,0,210)"><g
       id="g12"
       transform="translate(-237.30213,-230.76231)"><g
         id="g14"
         clip-path="url(#clipPath16)"><g
           id="g20"
           transform="translate(391.8574,355.4238)"><path
             d="m 0,0 0,-69.153 12.298,0 0,77.123 -4.331,0 C 3.567,7.97 0,4.402 0,0 m 145.5,-41.01 13.031,34.702 13.234,-34.702 -26.265,0 z m 48.833,-24.677 -4.968,12.311 -24.791,61.346 -11.153,0 -29.246,-71.181 -4.574,7.231 -1.664,2.623 -8.141,12.865 c 5.942,1.041 10.946,2.918 14.909,8.441 2.814,4.064 4.373,9.277 4.373,14.695 0,8.647 -3.854,16.674 -10.211,20.842 C 114.798,6.303 108.546,7.97 96.46,7.97 l -13.402,0 c -4.316,0 -7.812,-3.439 -7.941,-7.722 l 0,-0.51 0.181,-50.443 -0.619,0.911 -39.404,57.764 -11.572,0 0,-77.123 11.884,0 -0.211,58.784 39.303,-57.273 1.033,-1.511 11.262,0 0,66.284 10.526,0 c 5.523,0 9.802,-0.417 13.134,-2.497 4.065,-2.714 6.565,-7.817 6.565,-13.03 0,-5.003 -1.776,-9.481 -5.319,-12.61 -3.644,-3.129 -10.107,-3.339 -15.42,-3.339 l -2.712,0 18.818,-30.96 0.264,-0.433 c 0.533,-0.764 1.191,-1.427 1.955,-1.961 1.293,-0.91 2.871,-1.454 4.574,-1.454 l 15.797,0 7.015,18.238 32.932,0 5.238,-13.092 0.176,-0.448 c 1.254,-2.767 4.022,-4.698 7.25,-4.698 l 7.969,0 -1.403,3.466 z"
             style="fill:#97b225;fill-opacity:1;fill-rule:nonzero;stroke:none"
             id="path22"
             inkscape:connector-curvature="0" /></g><g
           id="g24"
           transform="translate(278.001,331.9419)"><path
             d="m 0,0 -28.769,0.038 c -0.169,-1.526 -0.282,-3.067 -0.339,-4.626 L 0,-4.626 c 0.542,0 0.979,0.441 0.979,0.982 l 0,2.666 C 0.979,-0.439 0.542,0 0,0"
             style="fill:#97b225;fill-opacity:1;fill-rule:nonzero;stroke:none"
             id="path26"
             inkscape:connector-curvature="0" /></g><g
           id="g28"
           transform="translate(278.001,312.8447)"><path
             d="m 0,0 -28.011,0 c 0.229,-1.188 0.482,-2.36 0.776,-3.524 l 27.235,0 c 0.542,0 0.979,0.443 0.979,0.982 l 0,1.566 C 0.979,-0.438 0.542,0 0,0"
             style="fill:#97b225;fill-opacity:1;fill-rule:nonzero;stroke:none"
             id="path30"
             inkscape:connector-curvature="0" /></g><g
           id="g32"
           transform="translate(278.001,289.6689)"><path
             d="m 0,0 -18.493,0 c 0.506,-0.754 1.027,-1.488 1.561,-2.218 l 16.932,0 c 0.542,0 0.979,0.439 0.979,0.983 l 0,0.253 C 0.979,-0.438 0.542,0 0,0"
             style="fill:#97b225;fill-opacity:1;fill-rule:nonzero;stroke:none"
             id="path34"
             inkscape:connector-curvature="0" /></g><g
           id="g36"
           transform="translate(278.001,305.3076)"><path
             d="m 0,0 -26.072,0 c 0.279,-0.854 0.565,-1.702 0.878,-2.542 l 25.194,0 c 0.542,0 0.979,0.439 0.979,0.982 l 0,0.582 C 0.979,-0.434 0.542,0 0,0"
             style="fill:#97b225;fill-opacity:1;fill-rule:nonzero;stroke:none"
             id="path38"
             inkscape:connector-curvature="0" /></g><g
           id="g40"
           transform="translate(278.001,282.6006)"><path
             d="m 0,0 -13.004,0 -0.076,0 c 0.799,-0.882 1.638,-1.727 2.485,-2.561 0.006,-0.009 0.016,-0.014 0.024,-0.024 0.472,-0.477 0.967,-0.93 1.459,-1.393 0.737,-0.686 1.483,-1.369 2.256,-2.017 0.09,-0.076 0.176,-0.162 0.267,-0.243 l 0.01,0 6.579,0 c 0.542,0 0.979,0.438 0.979,0.982 l 0,4.274 C 0.979,-0.434 0.542,0 0,0"
             style="fill:#97b225;fill-opacity:1;fill-rule:nonzero;stroke:none"
             id="path42"
             inkscape:connector-curvature="0" /></g><g
           id="g44"
           transform="translate(278.001,336.1772)"><path
             d="m 0,0 -28.153,0 c -0.184,-1.016 -0.34,-2.037 -0.473,-3.067 l 28.626,0 c 0.542,0 0.979,0.439 0.979,0.978 l 0,1.106 C 0.979,-0.439 0.542,0 0,0"
             style="fill:#97b225;fill-opacity:1;fill-rule:nonzero;stroke:none"
             id="path46"
             inkscape:connector-curvature="0" /></g><g
           id="g48"
           transform="translate(278.001,353.5308)"><path
             d="m 0,0 -22.347,0 c -0.37,-0.732 -0.73,-1.474 -1.071,-2.223 l 23.418,0 c 0.542,0 0.979,0.439 0.979,0.983 l 0,0.258 C 0.979,-0.446 0.542,0 0,0"
             style="fill:#97b225;fill-opacity:1;fill-rule:nonzero;stroke:none"
             id="path50"
             inkscape:connector-curvature="0" /></g><g
           id="g52"
           transform="translate(313.627,382.9746)"><path
             d="m 0,0 24.348,0 0.018,0 c -0.054,0.024 -0.109,0.043 -0.165,0.064 -1.304,0.582 -2.635,1.105 -3.984,1.601 -0.741,0.269 -1.49,0.52 -2.244,0.763 -0.315,0.1 -0.632,0.191 -0.95,0.291 -0.873,0.269 -1.733,0.572 -2.62,0.806 l -0.3,0 -14.103,0 c -0.542,0 -0.98,-0.439 -0.98,-0.983 l 0,-1.562 C -0.98,0.439 -0.542,0 0,0"
             style="fill:#97b225;fill-opacity:1;fill-rule:nonzero;stroke:none"
             id="path54"
             inkscape:connector-curvature="0" /></g><g
           id="g56"
           transform="translate(278.001,366.7827)"><path
             d="m 0,0 -13.383,0 c -1.736,-1.975 -3.36,-4.054 -4.844,-6.234 l 18.227,0 c 0.542,0 0.979,0.442 0.979,0.983 l 0,4.273 C 0.979,-0.434 0.542,0 0,0"
             style="fill:#97b225;fill-opacity:1;fill-rule:nonzero;stroke:none"
             id="path58"
             inkscape:connector-curvature="0" /></g><g
           id="g60"
           transform="translate(344.4277,314.1992)"><path
             d="m 0,0 0,-4.271 c 0,-0.542 0.438,-0.981 0.982,-0.981 l 28.314,-0.162 c 0.534,2.04 0.971,4.117 1.3,6.23 L 0.982,0.982 C 0.438,0.982 0,0.541 0,0"
             style="fill:#97b225;fill-opacity:1;fill-rule:nonzero;stroke:none"
             id="path62"
             inkscape:connector-curvature="0" /></g><g
           id="g64"
           transform="translate(278.001,377.9429)"><path
             d="m 0,0 -0.567,0 -0.518,0 c -2.807,-1.867 -5.457,-3.954 -7.927,-6.233 l 0.439,0 8.573,0 c 0.542,0 0.979,0.443 0.979,0.982 l 0,4.273 C 0.979,-0.434 0.542,0 0,0"
             style="fill:#97b225;fill-opacity:1;fill-rule:nonzero;stroke:none"
             id="path66"
             inkscape:connector-curvature="0" /></g><g
           id="g68"
           transform="translate(310.0352,382.9463)"><path
             d="m 0,0 -23.447,0 -0.619,0 c -1.491,-0.672 -2.957,-1.388 -4.384,-2.17 0.086,-0.024 0.167,-0.053 0.261,-0.053 l 0.197,0 27.992,0 c 0.543,0 0.98,0.444 0.98,0.983 l 0,0.258 C 0.98,-0.439 0.543,0 0,0"
             style="fill:#97b225;fill-opacity:1;fill-rule:nonzero;stroke:none"
             id="path70"
             inkscape:connector-curvature="0" /></g><g
           id="g72"
           transform="translate(341.8135,316.5557)"><path
             d="m 0,0 -28.187,0 c -0.542,0 -0.98,-0.446 -0.98,-0.982 l 0,-1.109 c 0,-0.542 0.438,-0.98 0.98,-0.98 l 28.187,0 c 0.544,0 0.985,0.438 0.985,0.98 l 0,1.109 C 0.985,-0.446 0.544,0 0,0"
             style="fill:#97b225;fill-opacity:1;fill-rule:nonzero;stroke:none"
             id="path74"
             inkscape:connector-curvature="0" /></g><g
           id="g76"
           transform="translate(341.8135,340.3408)"><path
             d="m 0,0 -28.187,0 c -0.542,0 -0.98,-0.443 -0.98,-0.982 l 0,-1.565 c 0,-0.539 0.438,-0.98 0.98,-0.98 l 28.187,0 c 0.544,0 0.985,0.441 0.985,0.98 l 0,1.565 C 0.985,-0.443 0.544,0 0,0"
             style="fill:#97b225;fill-opacity:1;fill-rule:nonzero;stroke:none"
             id="path78"
             inkscape:connector-curvature="0" /></g><g
           id="g80"
           transform="translate(341.8135,298.8262)"><path
             d="m 0,0 -28.187,0 c -0.542,0 -0.98,-0.438 -0.98,-0.982 l 0,-0.258 c 0,-0.538 0.438,-0.983 0.98,-0.983 l 28.187,0 c 0.544,0 0.985,0.445 0.985,0.983 l 0,0.258 C 0.985,-0.438 0.544,0 0,0"
             style="fill:#97b225;fill-opacity:1;fill-rule:nonzero;stroke:none"
             id="path82"
             inkscape:connector-curvature="0" /></g><g
           id="g84"
           transform="translate(341.8135,322.3457)"><path
             d="m 0,0 -28.187,0 c -0.542,0 -0.98,-0.439 -0.98,-0.978 l 0,-2.666 c 0,-0.544 0.438,-0.982 0.98,-0.982 l 28.187,0 c 0.544,0 0.985,0.438 0.985,0.982 l 0,2.666 C 0.985,-0.439 0.544,0 0,0"
             style="fill:#97b225;fill-opacity:1;fill-rule:nonzero;stroke:none"
             id="path86"
             inkscape:connector-curvature="0" /></g><g
           id="g88"
           transform="translate(341.8135,346.894)"><path
             d="m 0,0 -28.187,0 c -0.542,0 -0.98,-0.439 -0.98,-0.982 l 0,-0.578 c 0,-0.548 0.438,-0.982 0.98,-0.982 l 28.187,0 c 0.544,0 0.985,0.434 0.985,0.982 l 0,0.578 C 0.985,-0.439 0.544,0 0,0"
             style="fill:#97b225;fill-opacity:1;fill-rule:nonzero;stroke:none"
             id="path90"
             inkscape:connector-curvature="0" /></g><g
           id="g92"
           transform="translate(310.0352,366.7827)"><path
             d="m 0,0 -28.189,0 c -0.542,0 -0.983,-0.439 -0.983,-0.978 l 0,-1.564 c 0,-0.544 0.441,-0.978 0.983,-0.978 L 0,-3.52 c 0.543,0 0.98,0.434 0.98,0.978 l 0,1.564 C 0.98,-0.439 0.543,0 0,0"
             style="fill:#97b225;fill-opacity:1;fill-rule:nonzero;stroke:none"
             id="path94"
             inkscape:connector-curvature="0" /></g><g
           id="g96"
           transform="translate(312.6465,265.249)"><path
             d="m 0,0 0,-1.106 c 0,-0.539 0.438,-0.978 0.98,-0.978 l 12.074,0 c 3.426,0.749 6.746,1.784 9.942,3.067 l -22.016,0 C 0.438,0.983 0,0.539 0,0"
             style="fill:#97b225;fill-opacity:1;fill-rule:nonzero;stroke:none"
             id="path98"
             inkscape:connector-curvature="0" /></g><g
           id="g100"
           transform="translate(341.8135,289.1162)"><path
             d="m 0,0 -28.187,0 c -0.542,0 -0.98,-0.444 -0.98,-0.982 l 0,-4.274 c 0,-0.549 0.438,-0.983 0.98,-0.983 l 28.187,0 c 0.544,0 0.985,0.434 0.985,0.983 l 0,4.274 C 0.985,-0.444 0.544,0 0,0"
             style="fill:#97b225;fill-opacity:1;fill-rule:nonzero;stroke:none"
             id="path102"
             inkscape:connector-curvature="0" /></g><g
           id="g104"
           transform="translate(341.8135,277.9551)"><path
             d="m 0,0 -28.187,0 c -0.542,0 -0.98,-0.443 -0.98,-0.982 l 0,-4.279 c 0,-0.543 0.438,-0.977 0.98,-0.977 l 28.187,0 c 0.544,0 0.985,0.434 0.985,0.977 l 0,4.279 C 0.985,-0.443 0.544,0 0,0"
             style="fill:#97b225;fill-opacity:1;fill-rule:nonzero;stroke:none"
             id="path106"
             inkscape:connector-curvature="0" /></g><g
           id="g108"
           transform="translate(345.4102,319.7559)"><path
             d="m 0,0 c -0.544,0 -0.982,-0.439 -0.982,-0.978 l 0,-0.255 c 0,-0.546 0.438,-0.98 0.982,-0.98 l 29.928,-0.172 c 0.086,0.735 0.158,1.474 0.219,2.213 L 0,0 Z"
             style="fill:#97b225;fill-opacity:1;fill-rule:nonzero;stroke:none"
             id="path110"
             inkscape:connector-curvature="0" /></g><g
           id="g112"
           transform="translate(344.4277,295.0684)"><path
             d="m 0,0 0,-0.258 c 0,-0.539 0.438,-0.977 0.982,-0.977 l 21.791,0 c 0.414,0.729 0.814,1.468 1.2,2.217 l -22.991,0 C 0.438,0.982 0,0.543 0,0"
             style="fill:#97b225;fill-opacity:1;fill-rule:nonzero;stroke:none"
             id="path114"
             inkscape:connector-curvature="0" /></g><g
           id="g116"
           transform="translate(344.4277,299.8896)"><path
             d="m 0,0 0,-1.568 c 0,-0.539 0.438,-0.984 0.982,-0.984 l 23.652,0 c 0.563,1.159 1.09,2.333 1.581,3.531 l -25.233,0 C 0.438,0.979 0,0.539 0,0"
             style="fill:#97b225;fill-opacity:1;fill-rule:nonzero;stroke:none"
             id="path118"
             inkscape:connector-curvature="0" /></g><g
           id="g120"
           transform="translate(345.4102,332.6548)"><path
             d="M 0,0 29.921,-0.169 C 29.818,0.685 29.709,1.538 29.572,2.38 L 0,2.547 c -0.544,0 -0.982,-0.439 -0.982,-0.98 l 0,-0.585 C -0.982,0.441 -0.544,0 0,0"
             style="fill:#97b225;fill-opacity:1;fill-rule:nonzero;stroke:none"
             id="path122"
             inkscape:connector-curvature="0" /></g><g
           id="g124"
           transform="translate(344.4277,285.4863)"><path
             d="M 0,0 0,-0.258 C 0,-0.802 0.438,-1.24 0.982,-1.24 l 15.117,0 c 0.61,0.724 1.204,1.464 1.784,2.213 l -16.901,0 C 0.438,0.973 0,0.539 0,0"
             style="fill:#97b225;fill-opacity:1;fill-rule:nonzero;stroke:none"
             id="path126"
             inkscape:connector-curvature="0" /></g><g
           id="g128"
           transform="translate(341.8135,377.9429)"><path
             d="m 0,0 -28.187,0 c -0.542,0 -0.98,-0.438 -0.98,-0.978 l 0,-2.668 c 0,-0.537 0.438,-0.98 0.98,-0.98 l 28.187,0 c 0.544,0 0.985,0.443 0.985,0.98 l 0,2.668 C 0.985,-0.438 0.544,0 0,0"
             style="fill:#97b225;fill-opacity:1;fill-rule:nonzero;stroke:none"
             id="path130"
             inkscape:connector-curvature="0" /></g><g
           id="g132"
           transform="translate(341.8135,362.0107)"><path
             d="m 0,0 -28.187,0 c -0.542,0 -0.98,-0.441 -0.98,-0.98 l 0,-0.258 c 0,-0.541 0.438,-0.982 0.98,-0.982 L 0,-2.22 c 0.544,0 0.985,0.441 0.985,0.982 l 0,0.258 C 0.985,-0.441 0.544,0 0,0"
             style="fill:#97b225;fill-opacity:1;fill-rule:nonzero;stroke:none"
             id="path134"
             inkscape:connector-curvature="0" /></g><g
           id="g136"
           transform="translate(344.4277,282.4199)"><path
             d="m 0,0 0,-4.278 c 0,-0.539 0.438,-0.979 0.982,-0.979 l 8.125,0 c 2.225,1.928 4.319,4.012 6.257,6.239 l -14.382,0 C 0.438,0.982 0,0.543 0,0"
             style="fill:#97b225;fill-opacity:1;fill-rule:nonzero;stroke:none"
             id="path138"
             inkscape:connector-curvature="0" /></g><g
           id="g140"
           transform="translate(341.8135,355.4526)"><path
             d="m 0,0 -28.187,0 c -0.542,0 -0.98,-0.441 -0.98,-0.982 l 0,-4.276 c 0,-0.544 0.438,-0.98 0.98,-0.98 l 28.187,0 c 0.544,0 0.985,0.436 0.985,0.98 l 0,4.276 C 0.985,-0.441 0.544,0 0,0"
             style="fill:#97b225;fill-opacity:1;fill-rule:nonzero;stroke:none"
             id="path142"
             inkscape:connector-curvature="0" /></g><g
           id="g144"
           transform="translate(310.0352,268.5547)"><path
             d="m 0,0 -26.771,0 c 1.579,-0.801 3.193,-1.545 4.845,-2.218 l 21.926,0 c 0.543,0 0.98,0.439 0.98,0.983 l 0,0.257 C 0.98,-0.434 0.543,0 0,0"
             style="fill:#97b225;fill-opacity:1;fill-rule:nonzero;stroke:none"
             id="path146"
             inkscape:connector-curvature="0" /></g><g
           id="g148"
           transform="translate(310.0352,292.0771)"><path
             d="m 0,0 -28.189,0 c -0.542,0 -0.983,-0.438 -0.983,-0.982 l 0,-2.662 c 0,-0.544 0.441,-0.982 0.983,-0.982 l 28.189,0 c 0.543,0 0.98,0.438 0.98,0.982 l 0,2.662 C 0.98,-0.438 0.543,0 0,0"
             style="fill:#97b225;fill-opacity:1;fill-rule:nonzero;stroke:none"
             id="path150"
             inkscape:connector-curvature="0" /></g><g
           id="g152"
           transform="translate(345.4102,339.9688)"><path
             d="m 0,0 28.188,0 c 0.028,0 0.052,0.014 0.078,0.019 -0.284,1.178 -0.596,2.349 -0.945,3.505 L 0,3.524 c -0.544,0 -0.982,-0.438 -0.982,-0.982 l 0,-1.56 C -0.982,0.439 -0.544,0 0,0"
             style="fill:#97b225;fill-opacity:1;fill-rule:nonzero;stroke:none"
             id="path154"
             inkscape:connector-curvature="0" /></g><g
           id="g156"
           transform="translate(310.0352,285.9443)"><path
             d="m 0,0 -28.189,0 c -0.542,0 -0.983,-0.443 -0.983,-0.982 l 0,-1.102 c 0,-0.544 0.441,-0.983 0.983,-0.983 l 28.189,0 c 0.543,0 0.98,0.439 0.98,0.983 l 0,1.102 C 0.98,-0.443 0.543,0 0,0"
             style="fill:#97b225;fill-opacity:1;fill-rule:nonzero;stroke:none"
             id="path158"
             inkscape:connector-curvature="0" /></g><g
           id="g160"
           transform="translate(345.4102,363.7158)"><path
             d="M 0,0 16.92,0 C 16.111,1.049 15.271,2.07 14.403,3.067 L 0,3.067 c -0.544,0 -0.982,-0.439 -0.982,-0.978 l 0,-1.107 C -0.982,0.439 -0.544,0 0,0"
             style="fill:#97b225;fill-opacity:1;fill-rule:nonzero;stroke:none"
             id="path162"
             inkscape:connector-curvature="0" /></g><g
           id="g164"
           transform="translate(345.4102,349.2144)"><path
             d="M 0,0 25.283,0 C 24.402,2.139 23.418,4.223 22.32,6.238 L 0,6.238 c -0.544,0 -0.982,-0.436 -0.982,-0.982 l 0,-4.276 C -0.982,0.441 -0.544,0 0,0"
             style="fill:#97b225;fill-opacity:1;fill-rule:nonzero;stroke:none"
             id="path166"
             inkscape:connector-curvature="0" /></g><g
           id="g168"
           transform="translate(345.4102,357.2056)"><path
             d="M 0,0 21.31,0 C 20.377,1.59 19.373,3.133 18.307,4.626 L 0,4.626 c -0.544,0 -0.982,-0.438 -0.982,-0.978 l 0,-2.668 C -0.982,0.441 -0.544,0 0,0"
             style="fill:#97b225;fill-opacity:1;fill-rule:nonzero;stroke:none"
             id="path170"
             inkscape:connector-curvature="0" /></g><g
           id="g172"
           transform="translate(310.0352,355.4526)"><path
             d="m 0,0 -28.189,0 c -0.542,0 -0.983,-0.441 -0.983,-0.982 l 0,-0.256 c 0,-0.543 0.441,-0.982 0.983,-0.982 L 0,-2.22 c 0.543,0 0.98,0.439 0.98,0.982 l 0,0.256 C 0.98,-0.441 0.543,0 0,0"
             style="fill:#97b225;fill-opacity:1;fill-rule:nonzero;stroke:none"
             id="path174"
             inkscape:connector-curvature="0" /></g><g
           id="g176"
           transform="translate(310.0352,340.3408)"><path
             d="m 0,0 -28.189,0 c -0.542,0 -0.983,-0.443 -0.983,-0.982 l 0,-4.279 c 0,-0.541 0.441,-0.977 0.983,-0.977 l 28.189,0 c 0.543,0 0.98,0.436 0.98,0.977 l 0,4.279 C 0.98,-0.443 0.543,0 0,0"
             style="fill:#97b225;fill-opacity:1;fill-rule:nonzero;stroke:none"
             id="path178"
             inkscape:connector-curvature="0" /></g><g
           id="g180"
           transform="translate(310.0352,331.7417)"><path
             d="m 0,0 -28.189,0 c -0.542,0 -0.983,-0.439 -0.983,-0.978 l 0,-0.257 c 0,-0.544 0.441,-0.983 0.983,-0.983 l 28.189,0 c 0.543,0 0.98,0.439 0.98,0.983 l 0,0.257 C 0.98,-0.439 0.543,0 0,0"
             style="fill:#97b225;fill-opacity:1;fill-rule:nonzero;stroke:none"
             id="path182"
             inkscape:connector-curvature="0" /></g><g
           id="g184"
           transform="translate(310.0352,351.9399)"><path
             d="m 0,0 -28.189,0 c -0.542,0 -0.983,-0.438 -0.983,-0.982 l 0,-1.56 c 0,-0.543 0.441,-0.982 0.983,-0.982 l 28.189,0 c 0.543,0 0.98,0.439 0.98,0.982 l 0,1.56 C 0.98,-0.438 0.543,0 0,0"
             style="fill:#97b225;fill-opacity:1;fill-rule:nonzero;stroke:none"
             id="path186"
             inkscape:connector-curvature="0" /></g><g
           id="g188"
           transform="translate(310.0352,310.0713)"><path
             d="m 0,0 -28.189,0 c -0.542,0 -0.983,-0.441 -0.983,-0.982 l 0,-1.564 c 0,-0.543 0.441,-0.982 0.983,-0.982 l 28.189,0 c 0.543,0 0.98,0.439 0.98,0.982 l 0,1.564 C 0.98,-0.441 0.543,0 0,0"
             style="fill:#97b225;fill-opacity:1;fill-rule:nonzero;stroke:none"
             id="path190"
             inkscape:connector-curvature="0" /></g><g
           id="g192"
           transform="translate(310.0352,300.0859)"><path
             d="m 0,0 -28.189,0 c -0.542,0 -0.983,-0.439 -0.983,-0.983 l 0,-4.274 c 0,-0.543 0.441,-0.982 0.983,-0.982 l 28.189,0 c 0.543,0 0.98,0.439 0.98,0.982 l 0,4.274 C 0.98,-0.439 0.543,0 0,0"
             style="fill:#97b225;fill-opacity:1;fill-rule:nonzero;stroke:none"
             id="path194"
             inkscape:connector-curvature="0" /></g><g
           id="g196"
           transform="translate(310.0352,324.4443)"><path
             d="m 0,0 -28.189,0 c -0.542,0 -0.983,-0.439 -0.983,-0.982 l 0,-0.58 c 0,-0.546 0.441,-0.982 0.983,-0.982 l 28.189,0 c 0.543,0 0.98,0.436 0.98,0.982 l 0,0.58 C 0.98,-0.439 0.543,0 0,0"
             style="fill:#97b225;fill-opacity:1;fill-rule:nonzero;stroke:none"
             id="path198"
             inkscape:connector-curvature="0" /></g><g
           id="g200"
           transform="translate(310.0352,316.627)"><path
             d="m 0,0 -28.189,0 c -0.542,0 -0.983,-0.438 -0.983,-0.982 l 0,-0.581 c 0,-0.544 0.441,-0.982 0.983,-0.982 l 28.189,0 c 0.543,0 0.98,0.438 0.98,0.982 l 0,0.581 C 0.98,-0.438 0.543,0 0,0"
             style="fill:#97b225;fill-opacity:1;fill-rule:nonzero;stroke:none"
             id="path202"
             inkscape:connector-curvature="0" /></g><g
           id="g204"
           transform="translate(392.1016,250.3906)"><path
             d="m 0,0 c 0.758,-0.518 2.171,-0.931 3.309,-0.931 2.446,0 3.892,1.585 3.892,3.929 0,2.136 -1.24,3.445 -3.066,4.823 -1.861,1.276 -4.375,3.446 -4.375,6.445 0,3.514 2.445,6.099 6.133,6.099 1.447,0 2.687,-0.448 3.239,-0.862 l -0.62,-2.274 c -0.586,0.414 -1.551,0.792 -2.757,0.792 -2.309,0 -3.377,-1.722 -3.377,-3.307 0,-2.31 1.206,-3.205 3.411,-4.79 C 8.58,7.96 9.82,5.823 9.82,3.239 c 0,-3.998 -2.791,-6.513 -6.511,-6.513 -1.586,0 -3.24,0.517 -3.895,1 L 0,0 Z"
             style="fill:#97b225;fill-opacity:1;fill-rule:nonzero;stroke:none"
             id="path206"
             inkscape:connector-curvature="0" /></g><g
           id="g208"
           transform="translate(415.5679,247.7373)"><path
             d="m 0,0 c -0.725,-0.38 -1.896,-0.621 -3.344,-0.621 -4.513,0 -7.786,3.653 -7.786,11.544 0,9.166 4.548,12.096 8.235,12.096 1.377,0 2.413,-0.277 2.86,-0.587 l -0.586,-2.24 c -0.551,0.242 -1.102,0.483 -2.309,0.483 -2.48,0 -5.41,-2.412 -5.41,-9.511 0,-7.099 2.619,-9.441 5.479,-9.441 1,0 1.861,0.241 2.412,0.482 L 0,0 Z"
             style="fill:#97b225;fill-opacity:1;fill-rule:nonzero;stroke:none"
             id="path210"
             inkscape:connector-curvature="0" /></g><path
           d="m 421.251,247.323 -2.654,0 0,23.226 2.654,0 0,-23.226 z"
           style="fill:#97b225;fill-opacity:1;fill-rule:nonzero;stroke:none"
           id="path212"
           inkscape:connector-curvature="0" /><g
           id="g214"
           transform="translate(434.2769,258.3506)"><path
             d="m 0,0 -5.824,0 0,-8.719 6.617,0 0,-2.308 -9.27,0 0,23.225 8.856,0 0,-2.309 -6.203,0 0,-7.65 L 0,2.239 0,0 Z"
             style="fill:#97b225;fill-opacity:1;fill-rule:nonzero;stroke:none"
             id="path216"
             inkscape:connector-curvature="0" /></g><g
           id="g218"
           transform="translate(438.3765,247.3232)"><path
             d="m 0,0 0,23.226 2.48,0 4.274,-10.89 C 7.719,9.821 8.924,6.755 9.717,4.238 l 0.07,0 C 9.58,7.891 9.477,10.889 9.477,14.921 l 0,8.305 2.377,0 L 11.854,0 9.373,0 4.963,11.165 C 3.998,13.508 2.998,16.161 2.17,19.056 l -0.068,0 C 2.309,15.954 2.377,12.991 2.377,8.029 L 2.377,0 0,0 Z"
             style="fill:#97b225;fill-opacity:1;fill-rule:nonzero;stroke:none"
             id="path220"
             inkscape:connector-curvature="0" /></g><g
           id="g222"
           transform="translate(464.8745,247.7373)"><path
             d="m 0,0 c -0.725,-0.38 -1.896,-0.621 -3.344,-0.621 -4.513,0 -7.787,3.653 -7.787,11.544 0,9.166 4.549,12.096 8.236,12.096 1.379,0 2.413,-0.277 2.86,-0.587 l -0.586,-2.24 c -0.551,0.242 -1.102,0.483 -2.309,0.483 -2.48,0 -5.41,-2.412 -5.41,-9.511 0,-7.099 2.619,-9.441 5.479,-9.441 1,0 1.861,0.241 2.412,0.482 L 0,0 Z"
             style="fill:#97b225;fill-opacity:1;fill-rule:nonzero;stroke:none"
             id="path224"
             inkscape:connector-curvature="0" /></g><g
           id="g226"
           transform="translate(476.3823,258.3506)"><path
             d="m 0,0 -5.824,0 0,-8.719 6.617,0 0,-2.308 -9.27,0 0,23.225 8.856,0 0,-2.309 -6.203,0 0,-7.65 L 0,2.239 0,0 Z"
             style="fill:#97b225;fill-opacity:1;fill-rule:nonzero;stroke:none"
             id="path228"
             inkscape:connector-curvature="0" /></g><g
           id="g230"
           transform="translate(489.4409,265.5869)"><path
             d="M 0,0 C 0,-1.586 0.412,-2.826 1.309,-4.239 3.1,-2.895 4.064,-1.447 4.064,0.344 4.064,1.757 3.582,3.273 2.066,3.273 0.723,3.273 0,1.826 0,0 m 5.34,-14.403 c -1.965,2.687 -3.617,5.133 -4.996,7.304 -1.069,-1 -2.102,-2.619 -2.102,-4.721 0,-2.377 1.276,-4.618 3.688,-4.618 1.377,0 2.584,0.724 3.41,2.035 m 2.723,-3.861 c -0.415,0.621 -0.793,1.069 -1.551,2.171 -1.276,-1.585 -3.17,-2.446 -5.032,-2.446 -3.859,0 -5.789,3.17 -5.789,6.409 0,2.55 1.104,4.824 3.551,6.651 l 0,0.103 c -1,1.585 -1.689,3.308 -1.689,5.203 0,2.825 1.758,5.41 4.756,5.41 2.136,0 4.099,-1.586 4.099,-4.756 0,-2.308 -1.033,-4.169 -3.996,-6.27 l 0,-0.105 c 0.861,-1.446 2.617,-4.169 4.41,-6.58 1,2.136 1.309,5.099 1.379,6.685 l 2.377,0 c -0.24,-2.757 -1,-6.1 -2.551,-8.408 0.45,-0.69 1.344,-1.861 2.965,-4.067 l -2.929,0 z"
             style="fill:#97b225;fill-opacity:1;fill-rule:nonzero;stroke:none"
             id="path232"
             inkscape:connector-curvature="0" /></g><path
           d="m 511.871,247.323 -2.652,0 0,23.226 2.652,0 0,-23.226 z"
           style="fill:#97b225;fill-opacity:1;fill-rule:nonzero;stroke:none"
           id="path234"
           inkscape:connector-curvature="0" /><g
           id="g236"
           transform="translate(530.478,257.3164)"><path
             d="m 0,0 c -0.172,3.066 -0.346,6.478 -0.242,9.097 l -0.137,0 C -0.896,6.513 -1.516,3.756 -2.24,1.034 l -2.826,-10.888 -1.723,0 -2.688,10.44 c -0.793,2.963 -1.447,5.823 -1.929,8.511 l -0.104,0 c 0.035,-2.722 -0.136,-5.961 -0.275,-9.269 l -0.447,-9.821 -2.379,0 1.379,23.225 2.894,0 2.688,-10.614 c 0.793,-3.066 1.379,-5.34 1.861,-7.993 l 0.103,0 c 0.448,2.653 0.965,4.858 1.723,7.993 l 2.619,10.614 2.963,0 1.344,-23.225 -2.481,0 L 0,0 Z"
             style="fill:#97b225;fill-opacity:1;fill-rule:nonzero;stroke:none"
             id="path238"
             inkscape:connector-curvature="0" /></g><g
           id="g240"
           transform="translate(540.0562,259.04)"><path
             d="m 0,0 c 0.311,-0.035 0.621,-0.069 1.068,-0.069 2.584,0 4.342,1.687 4.342,4.996 C 5.41,7.305 4.445,9.44 1.482,9.44 0.861,9.44 0.346,9.372 0,9.269 L 0,0 Z m -2.617,11.163 c 1.066,0.276 2.306,0.448 3.824,0.448 2.137,0 3.961,-0.516 5.168,-1.688 C 7.479,8.821 8.064,7.132 8.064,5.1 8.064,2.963 7.547,1.516 6.65,0.344 5.41,-1.379 3.238,-2.24 1.172,-2.24 c -0.447,0 -0.793,0 -1.172,0.034 l 0,-9.511 -2.617,0 0,22.88 z"
             style="fill:#97b225;fill-opacity:1;fill-rule:nonzero;stroke:none"
             id="path242"
             inkscape:connector-curvature="0" /></g><g
           id="g244"
           transform="translate(557.1128,256.4209)"><path
             d="m 0,0 -1.207,5.892 c -0.344,1.654 -0.654,3.584 -0.93,5.307 l -0.103,0 C -2.516,9.441 -2.859,7.443 -3.205,5.892 L -4.41,0 0,0 Z m -4.789,-2.137 -1.516,-6.961 -2.586,0 5.307,23.226 2.93,0 5.168,-23.226 -2.619,0 -1.516,6.961 -5.168,0 z"
             style="fill:#97b225;fill-opacity:1;fill-rule:nonzero;stroke:none"
             id="path246"
             inkscape:connector-curvature="0" /></g><g
           id="g248"
           transform="translate(574.3413,247.7373)"><path
             d="m 0,0 c -0.723,-0.38 -1.895,-0.621 -3.342,-0.621 -4.513,0 -7.787,3.653 -7.787,11.544 0,9.166 4.547,12.096 8.234,12.096 1.379,0 2.413,-0.277 2.86,-0.587 l -0.586,-2.24 c -0.551,0.242 -1.102,0.483 -2.309,0.483 -2.48,0 -5.408,-2.412 -5.408,-9.511 0,-7.099 2.619,-9.441 5.479,-9.441 0.998,0 1.859,0.241 2.412,0.482 L 0,0 Z"
             style="fill:#97b225;fill-opacity:1;fill-rule:nonzero;stroke:none"
             id="path250"
             inkscape:connector-curvature="0" /></g><g
           id="g252"
           transform="translate(580.4038,268.1709)"><path
             d="m 0,0 -4.238,0 0,2.378 11.131,0 0,-2.378 -4.241,0 0,-20.848 -2.652,0 L 0,0 Z"
             style="fill:#97b225;fill-opacity:1;fill-rule:nonzero;stroke:none"
             id="path254"
             inkscape:connector-curvature="0" /></g></g></g></g></svg>