<?xml version="1.0" encoding="UTF-8" standalone="no"?>
<!-- Created with Inkscape (http://www.inkscape.org/) -->
<svg
   xmlns:dc="http://purl.org/dc/elements/1.1/"
   xmlns:cc="http://creativecommons.org/ns#"
   xmlns:rdf="http://www.w3.org/1999/02/22-rdf-syntax-ns#"
   xmlns:svg="http://www.w3.org/2000/svg"
   xmlns="http://www.w3.org/2000/svg"
   xmlns:sodipodi="http://sodipodi.sourceforge.net/DTD/sodipodi-0.dtd"
   xmlns:inkscape="http://www.inkscape.org/namespaces/inkscape"
   width="178.57625"
   height="59.396252"
   id="svg3198"
   sodipodi:version="0.32"
   inkscape:version="0.46"
   version="1.0"
   sodipodi:docname="Université Rennes 1.svg"
   inkscape:output_extension="org.inkscape.output.svg.inkscape">
  <defs
     id="defs3200">
    <inkscape:perspective
       sodipodi:type="inkscape:persp3d"
       inkscape:vp_x="0 : 526.18109 : 1"
       inkscape:vp_y="0 : 1000 : 0"
       inkscape:vp_z="744.09448 : 526.18109 : 1"
       inkscape:persp3d-origin="372.04724 : 350.78739 : 1"
       id="perspective3206" />
  </defs>
  <sodipodi:namedview
     id="base"
     pagecolor="#ffffff"
     bordercolor="#666666"
     borderopacity="1.0"
     inkscape:pageopacity="0.0"
     inkscape:pageshadow="2"
     inkscape:zoom="5.1966597"
     inkscape:cx="89.288125"
     inkscape:cy="29.698127"
     inkscape:document-units="px"
     inkscape:current-layer="layer1"
     showgrid="false"
     inkscape:window-width="1024"
     inkscape:window-height="712"
     inkscape:window-x="-4"
     inkscape:window-y="-4" />
  <metadata
     id="metadata3203">
    <rdf:RDF>
      <cc:Work
         rdf:about="">
        <dc:format>image/svg+xml</dc:format>
        <dc:type
           rdf:resource="http://purl.org/dc/dcmitype/StillImage" />
      </cc:Work>
    </rdf:RDF>
  </metadata>
  <g
     inkscape:label="Calque 1"
     inkscape:groupmode="layer"
     id="layer1"
     transform="translate(-310.71187,-385.5212)">
    <path
       d="M 310.71187,407.4062 L 311.99062,407.4062 L 311.99062,413.8262 C 311.99062,416.02245 312.65812,416.5787 313.86687,416.5787 C 315.07562,416.5787 315.74313,416.02245 315.74313,413.8262 L 315.74313,407.4062 L 317.02062,407.4062 L 317.02062,413.7712 C 317.02062,416.54995 315.99312,417.6487 313.86687,417.6487 C 311.74062,417.6487 310.71187,416.54995 310.71187,413.7712 L 310.71187,407.4062"
       style="fill:#f7931d;fill-opacity:1;fill-rule:nonzero;stroke:none"
       id="path13" />
    <path
       d="M 327.85938,407.4062 L 327.85938,417.43995 L 326.10938,417.43995 L 322.14938,408.7412 L 322.12062,408.7412 L 322.12062,417.43995 L 320.98187,417.43995 L 320.98187,407.4062 L 322.78812,407.4062 L 326.69313,415.99495 L 326.72062,415.99495 L 326.72062,407.4062 L 327.85938,407.4062"
       style="fill:#f7931d;fill-opacity:1;fill-rule:nonzero;stroke:none"
       id="path15" />
    <path
       d="M 332.01437,417.43995 L 333.29275,417.43995 L 333.29275,407.4067 L 332.01437,407.4067 L 332.01437,417.43995 z"
       style="fill:#f7931d;fill-opacity:1;fill-rule:nonzero;stroke:none"
       id="path17" />
    <path
       d="M 340.86687,417.43995 L 339.33937,417.43995 L 336.43437,407.4062 L 337.82437,407.4062 L 340.11687,416.22995 L 340.14437,416.22995 L 342.49312,407.4062 L 343.79937,407.4062 L 340.86687,417.43995"
       style="fill:#f7931d;fill-opacity:1;fill-rule:nonzero;stroke:none"
       id="path19" />
    <path
       d="M 346.77312,417.43995 L 346.77312,407.4062 L 351.94312,407.4062 L 351.94312,408.5187 L 348.05187,408.5187 L 348.05187,411.74245 L 351.66438,411.74245 L 351.66438,412.8537 L 348.05187,412.8537 L 348.05187,416.32745 L 352.02562,416.32745 L 352.02562,417.43995 L 346.77312,417.43995"
       style="fill:#f7931d;fill-opacity:1;fill-rule:nonzero;stroke:none"
       id="path21" />
    <path
       d="M 356.63937,412.8262 L 356.63937,417.43995 L 355.36062,417.43995 L 355.36062,407.4062 L 358.82187,407.4062 C 360.60062,407.4062 361.22562,408.65745 361.22562,409.90745 C 361.22562,411.0887 360.57312,411.99245 359.39062,412.2012 L 359.39062,412.2287 C 360.54437,412.4087 360.96187,412.7987 361.03062,414.8137 C 361.04438,415.2437 361.18312,416.81495 361.37812,417.43995 L 360.04437,417.43995 C 359.68312,416.74495 359.76687,415.4387 359.65562,414.10495 C 359.55813,412.88245 358.57187,412.8262 358.14062,412.8262 L 356.63937,412.8262 z M 356.63937,411.71495 L 358.55812,411.71495 C 359.47438,411.71495 359.91937,410.92245 359.91937,410.0462 C 359.91937,409.32495 359.55813,408.5187 358.57187,408.5187 L 356.63937,408.5187 L 356.63937,411.71495"
       style="fill:#f7931d;fill-opacity:1;fill-rule:nonzero;stroke:none"
       id="path23" />
    <path
       d="M 365.76937,414.45245 L 365.76937,414.7437 C 365.76937,416.1062 366.63187,416.5362 367.45063,416.5362 C 368.46562,416.5362 369.24437,416.1062 369.24437,414.9112 C 369.24437,412.68745 364.74187,412.93745 364.74187,409.9212 C 364.74187,408.1437 366.00687,407.1987 367.68812,407.1987 C 369.52188,407.1987 370.55062,408.08745 370.46688,410.12995 L 369.13313,410.12995 C 369.14687,409.03245 368.79937,408.30995 367.59062,408.30995 C 366.82563,408.30995 366.04813,408.6987 366.04813,409.78245 C 366.04813,411.99245 370.55062,411.67245 370.55062,414.85495 C 370.55062,416.96745 369.09187,417.6487 367.43813,417.6487 C 364.47812,417.6762 364.47812,415.40995 364.50563,414.45245 L 365.76937,414.45245"
       style="fill:#f7931d;fill-opacity:1;fill-rule:nonzero;stroke:none"
       id="path25" />
    <path
       d="M 374.34438,417.43995 L 375.62275,417.43995 L 375.62275,407.4067 L 374.34438,407.4067 L 374.34438,417.43995 z"
       style="fill:#f7931d;fill-opacity:1;fill-rule:nonzero;stroke:none"
       id="path27" />
    <path
       d="M 385.33687,407.4062 L 385.33687,408.5187 L 382.69562,408.5187 L 382.69562,417.43995 L 381.41812,417.43995 L 381.41812,408.5187 L 378.77688,408.5187 L 378.77688,407.4062 L 385.33687,407.4062"
       style="fill:#f7931d;fill-opacity:1;fill-rule:nonzero;stroke:none"
       id="path29" />
    <path
       d="M 388.32437,417.43995 L 388.32437,407.4062 L 393.49437,407.4062 L 393.49437,408.5187 L 389.60312,408.5187 L 389.60312,411.74245 L 393.21562,411.74245 L 393.21562,412.8537 L 389.60312,412.8537 L 389.60312,416.32745 L 393.57687,416.32745 L 393.57687,417.43995 L 388.32437,417.43995 z M 392.32687,404.3912 L 390.50687,406.34995 L 389.57437,406.34995 L 390.81187,404.3912 L 392.32687,404.3912"
       style="fill:#f7931d;fill-opacity:1;fill-rule:nonzero;stroke:none"
       id="path31" />
    <path
       d="M 401.72062,407.4062 L 404.80563,407.4062 C 406.08438,407.4062 407.00063,407.86495 407.50187,408.93495 C 407.90437,409.78245 407.94562,411.7837 407.94562,412.1037 C 407.94562,414.2437 407.75187,415.47995 407.33438,416.14745 C 406.79188,417.0087 405.77812,417.43995 404.02687,417.43995 L 401.72062,417.43995 L 401.72062,407.4062 z M 402.99937,416.32745 L 404.20812,416.32745 C 405.98687,416.32745 406.63937,415.6612 406.63937,413.3262 L 406.63937,411.29745 C 406.63937,409.2687 406.01437,408.5187 404.67937,408.5187 L 402.99937,408.5187 L 402.99937,416.32745"
       style="fill:#f7931d;fill-opacity:1;fill-rule:nonzero;stroke:none"
       id="path33" />
    <path
       d="M 411.85062,417.43995 L 411.85062,407.4062 L 417.02062,407.4062 L 417.02062,408.5187 L 413.12937,408.5187 L 413.12937,411.74245 L 416.74187,411.74245 L 416.74187,412.8537 L 413.12937,412.8537 L 413.12937,416.32745 L 417.10438,416.32745 L 417.10438,417.43995 L 411.85062,417.43995"
       style="fill:#f7931d;fill-opacity:1;fill-rule:nonzero;stroke:none"
       id="path35" />
    <path
       d="M 337.58562,421.5262 C 342.25687,421.5262 345.16812,423.9962 345.16812,427.9912 C 345.16812,430.6662 343.78062,432.66245 341.30813,433.64495 C 343.40812,435.03245 344.69313,437.1662 346.45437,440.0437 C 347.43687,441.6337 348.01187,442.41245 349.60188,444.6137 L 345.64187,444.6137 L 342.59562,439.8737 C 339.54812,435.1337 338.16062,434.5937 336.46812,434.5937 L 335.08062,434.5937 L 335.08062,444.6137 L 331.76312,444.6137 L 331.76312,421.5262 L 337.58562,421.5262 z M 335.08062,431.6137 L 337.21187,431.6137 C 340.76687,431.6137 341.78312,429.78495 341.74937,427.8562 C 341.71562,425.68995 340.42937,424.36995 337.21187,424.36995 L 335.08062,424.36995 L 335.08062,431.6137"
       style="fill:#f7931d;fill-opacity:1;fill-rule:nonzero;stroke:none"
       id="path37" />
    <path
       d="M 365.24187,424.50495 L 355.45812,424.50495 L 355.45812,431.4787 L 364.90437,431.4787 L 364.90437,434.45745 L 355.45812,434.45745 L 355.45812,441.6337 L 365.54688,441.6337 L 365.54688,444.6137 L 352.14062,444.6137 L 352.14062,421.5262 L 365.24187,421.5262 L 365.24187,424.50495"
       style="fill:#f7931d;fill-opacity:1;fill-rule:nonzero;stroke:none"
       id="path39" />
    <path
       d="M 390.42812,444.6137 L 387.58437,444.6137 L 372.14812,426.83995 L 372.14812,444.6137 L 369.03437,444.6137 L 369.03437,421.5262 L 371.67313,421.5262 L 387.31437,439.39995 L 387.31437,421.5262 L 390.42812,421.5262 L 390.42812,444.6137"
       style="fill:#f7931d;fill-opacity:1;fill-rule:nonzero;stroke:none"
       id="path41" />
    <path
       d="M 416.86563,444.6137 L 414.02187,444.6137 L 398.58562,426.83995 L 398.58562,444.6137 L 395.47187,444.6137 L 395.47187,421.5262 L 398.11187,421.5262 L 413.75187,439.39995 L 413.75187,421.5262 L 416.86563,421.5262 L 416.86563,444.6137"
       style="fill:#f7931d;fill-opacity:1;fill-rule:nonzero;stroke:none"
       id="path43" />
    <path
       d="M 435.04437,424.50495 L 425.26062,424.50495 L 425.26062,431.4787 L 434.70687,431.4787 L 434.70687,434.45745 L 425.26062,434.45745 L 425.26062,441.6337 L 435.34937,441.6337 L 435.34937,444.6137 L 421.94437,444.6137 L 421.94437,421.5262 L 435.04437,421.5262 L 435.04437,424.50495"
       style="fill:#f7931d;fill-opacity:1;fill-rule:nonzero;stroke:none"
       id="path45" />
    <path
       d="M 449.83687,426.6037 C 447.87437,424.74245 445.97938,424.19995 444.42188,424.19995 C 442.28812,424.19995 440.76562,425.31745 440.76562,426.9412 C 440.76562,431.37745 450.75187,431.3087 450.75187,438.65495 C 450.75187,442.27745 448.00937,444.91745 444.28687,444.91745 C 441.78188,444.91745 439.74937,444.23995 437.82062,442.78495 L 437.82062,438.58745 C 439.51187,440.7537 441.64687,441.9387 443.91312,441.9387 C 446.48687,441.9387 447.67188,440.3137 447.67188,439.02745 C 447.67188,434.2537 437.68562,433.71245 437.68562,427.38245 C 437.68562,423.62495 440.46187,421.2212 444.69313,421.2212 C 446.45312,421.2212 448.21437,421.7637 449.83687,422.8462 L 449.83687,426.6037"
       style="fill:#f7931d;fill-opacity:1;fill-rule:nonzero;stroke:none"
       id="path47" />
    <path
       d="M 474.33937,418.57495 L 474.32063,418.5637 L 474.32063,417.7162 L 472.88562,417.7162 L 472.73187,418.19245 C 471.64312,419.6112 467.98062,423.90745 462.06687,426.1162 L 462.54812,427.56245 C 464.37937,426.8487 465.95187,426.02995 467.31187,425.18745 L 467.31187,444.11745 L 474.32063,444.11745 L 474.32063,418.6037 C 474.32563,418.5962 474.33812,418.57995 474.33937,418.57495"
       style="fill:#f7931d;fill-opacity:1;fill-rule:nonzero;stroke:none"
       id="path49" />
    <g
       id="g3277">
      <path
         id="path53"
         style="fill:#a72c31;fill-opacity:1;fill-rule:nonzero;stroke:none"
         d="M 436.71312,388.3762 L 436.71187,388.35745 C 436.66188,388.37745 436.62312,388.3937 436.71312,388.3762" />
      <path
         id="path55"
         style="fill:#a72c31;fill-opacity:1;fill-rule:nonzero;stroke:none"
         d="M 437.43687,388.1912 L 437.42937,388.17995 C 437.34062,388.2037 437.38312,388.1987 437.43687,388.1912" />
      <path
         id="path57"
         style="fill:#a72c31;fill-opacity:1;fill-rule:nonzero;stroke:none"
         d="M 437.44812,388.2062 C 437.39437,388.21995 437.30937,388.2412 437.17437,388.2737 C 437.25562,388.25495 437.34437,388.2337 437.44937,388.20745 L 437.44812,388.2062" />
      <path
         id="path59"
         style="fill:#a72c31;fill-opacity:1;fill-rule:nonzero;stroke:none"
         d="M 437.43687,388.1912 L 437.44812,388.2062 C 437.58687,388.16995 437.50687,388.1812 437.43687,388.1912" />
      <path
         id="path61"
         style="fill:#a72c31;fill-opacity:1;fill-rule:nonzero;stroke:none"
         d="M 437.38187,388.1012 L 437.15312,387.8637 L 437.39312,388.12995 L 437.42937,388.17995 C 437.43312,388.17745 437.43437,388.17745 437.44062,388.1762 L 437.38187,388.1012" />
      <path
         id="path63"
         style="fill:#a72c31;fill-opacity:1;fill-rule:nonzero;stroke:none"
         d="M 431.09188,387.4662 L 431.65937,387.5962 C 432.30687,387.7587 432.93687,387.93745 433.54438,388.2587 L 434.00937,388.55745 L 433.39687,388.12495 C 433.09312,387.9387 432.64688,387.86745 432.12187,387.70995 C 432.03812,387.6937 432.08812,387.60495 431.91562,387.5712 C 431.58687,387.2362 431.01687,387.9437 430.95063,386.8512" />
      <path
         id="path65"
         style="fill:#a72c31;fill-opacity:1;fill-rule:nonzero;stroke:none"
         d="M 442.78937,387.20495 C 442.83812,387.5037 442.88313,387.8262 442.89562,388.15245 L 442.88937,388.14245 C 442.22437,387.30495 441.50437,386.4762 440.40062,385.9237" />
      <path
         id="path67"
         style="fill:#a72c31;fill-opacity:1;fill-rule:nonzero;stroke:none"
         d="M 440.76437,387.1762 C 441.35812,387.65995 441.85812,388.2662 442.30563,388.8812 C 442.56687,389.0112 442.56187,389.2837 442.66312,389.49995 C 442.61063,389.5012 442.58687,389.5012 442.66312,389.49995 C 442.76187,389.7087 442.95812,389.8637 443.59437,389.7812 C 443.63937,389.6787 443.66937,389.57745 443.69937,389.4762 C 443.73188,389.4762 443.75812,389.47495 443.79188,389.47495 L 443.78438,389.46245 L 443.77187,389.43995 L 443.74312,389.3937 L 443.73312,389.37745 C 443.83187,388.9912 443.83687,388.61495 443.84187,388.2462 C 443.83937,388.07245 443.82562,387.9037 443.81313,387.73495 C 443.97062,387.7962 444.11687,387.8637 444.14187,388.00745 C 444.80437,388.5887 445.44562,389.1887 445.97938,389.88245 C 447.07562,391.2387 447.89937,392.83245 448.34562,394.61245 C 448.75187,395.95745 449.18437,398.5462 449.13937,399.90745 C 449.24187,401.7062 449.68687,400.8262 449.73562,400.7287 C 450.11312,399.6212 450.00937,398.7137 449.79813,396.5187 C 449.87813,397.52245 449.37562,395.01745 449.03562,393.5962 C 448.63687,391.3137 446.53437,388.60245 444.30812,386.90995" />
      <path
         id="path69"
         style="fill:#a72c31;fill-opacity:1;fill-rule:nonzero;stroke:none"
         d="M 435.44313,385.5212 C 436.53062,385.8412 438.55687,386.5687 439.48687,387.92495 C 439.72687,388.18245 439.93062,388.47495 440.12563,388.76995 C 440.11312,388.84245 440.10312,388.91495 440.08687,388.98745 L 440.07313,389.0687 C 440.46812,389.0337 439.49687,389.12245 440.30687,389.04995 L 440.40562,389.21495 C 440.58437,389.21745 440.10938,389.40245 440.82437,389.2537 L 440.86062,389.0837 C 440.86437,389.05495 440.87062,389.02745 440.87812,388.99745 C 440.96562,388.98995 441.05312,388.98245 441.15688,388.97245 L 441.15688,388.96995 L 441.15312,388.96245 L 441.14562,388.94995 L 441.13062,388.92495 L 441.10312,388.8737 L 440.98937,388.6837 L 440.95063,388.6237 C 440.96187,388.5487 440.96812,388.4737 440.96312,388.39745 C 440.99563,387.98745 440.91437,387.56995 440.76437,387.1762" />
      <path
         id="path71"
         style="fill:#a72c31;fill-opacity:1;fill-rule:nonzero;stroke:none"
         d="M 435.75063,387.36245 L 436.14937,387.60995 L 436.29562,387.68995 L 436.30062,387.6912 C 436.38063,387.7287 436.36813,387.7037 436.33062,387.66245 L 436.51187,387.84495 C 436.55187,387.8787 436.59437,387.9112 436.63563,387.9437 C 436.60812,387.9212 436.57812,387.8987 436.54812,387.87745 C 436.53688,387.8662 436.52187,387.8562 436.51187,387.84495 L 436.45062,387.79995 L 436.34187,387.71495 C 436.35812,387.7287 436.37437,387.7437 436.39062,387.75745 L 436.29562,387.68995 L 436.22438,387.65745 C 436.38687,387.7712 436.53812,387.8987 436.68063,388.03495 C 436.68187,388.1012 436.68187,388.1687 436.69813,388.2337 L 436.71187,388.3512 L 436.71187,388.35745 C 436.77187,388.33495 436.84562,388.3087 436.72187,388.33245 L 436.71312,388.2412 C 436.72062,388.2812 436.77312,388.3037 436.91812,388.2912 C 436.92937,388.3037 436.94187,388.3137 436.95062,388.32495 C 436.83437,388.35245 436.75687,388.3687 436.71312,388.3762 L 436.71437,388.3812 C 436.80312,388.3612 436.88063,388.34245 436.95062,388.3262 C 436.96687,388.34495 436.98687,388.3612 437.00187,388.3812 C 437.04312,388.49995 437.30062,388.38995 437.17813,388.31745 C 437.17562,388.3037 437.17437,388.2887 437.17437,388.2737 C 437.17437,388.2662 437.17312,388.2587 437.17312,388.2512 C 437.23062,388.23995 437.29688,388.22495 437.37063,388.20745 C 437.29688,388.1262 437.22687,388.05245 437.15437,387.9812 C 437.15062,387.83995 437.14687,387.71245 437.12812,387.61745 L 437.06812,387.42495" />
      <path
         id="path73"
         style="fill:#a72c31;fill-opacity:1;fill-rule:nonzero;stroke:none"
         d="M 436.75812,388.1187 C 436.73438,388.1612 436.71187,388.2037 436.71312,388.2362 L 436.71187,388.2137 C 436.70187,388.1612 436.70063,388.1087 436.70063,388.0562 C 436.72062,388.0762 436.73812,388.0987 436.75812,388.1187" />
      <path
         id="path75"
         style="fill:#a72c31;fill-opacity:1;fill-rule:nonzero;stroke:none"
         d="M 436.66938,387.4087 C 436.67937,387.43745 436.68687,387.47245 436.69437,387.5087 C 436.62687,387.4612 436.56063,387.42495 436.49437,387.3862" />
      <path
         id="path77"
         style="fill:#a72c31;fill-opacity:1;fill-rule:nonzero;stroke:none"
         d="M 432.45312,387.4462 L 432.59562,387.54245 C 432.57063,387.5237 432.49937,387.4737 432.45312,387.4462" />
      <path
         id="path79"
         style="fill:#a72c31;fill-opacity:1;fill-rule:nonzero;stroke:none"
         d="M 433.54438,387.89995 C 433.40187,387.79745 433.23438,387.74495 433.07812,387.66745 L 433.30187,387.80495 L 433.54438,387.89995" />
      <path
         id="path81"
         style="fill:#a72c31;fill-opacity:1;fill-rule:nonzero;stroke:none"
         d="M 466.42937,390.2637 C 466.19062,390.18245 465.51437,390.1062 465.81687,390.2962 C 466.27562,390.56995 466.60438,390.7112 467.01063,390.97245 C 467.38563,391.1262 467.74937,391.27745 468.11687,391.4687 L 468.35312,391.6962 L 468.08437,391.32995 C 467.96188,391.1487 467.57937,391.2187 467.28812,391.06995 C 467.23187,391.0612 467.38687,390.87745 467.27312,390.8587 C 467.04062,390.7687 466.81313,390.73245 466.63687,390.59995 C 466.52312,390.58495 466.54438,390.2787 466.42937,390.2637" />
      <path
         id="path83"
         style="fill:#a72c31;fill-opacity:1;fill-rule:nonzero;stroke:none"
         d="M 468.50687,390.8412 L 468.27937,390.63995 L 468.34312,390.80245 C 468.37687,390.86495 468.43812,390.84495 468.50687,390.8412" />
      <path
         id="path85"
         style="fill:#a72c31;fill-opacity:1;fill-rule:nonzero;stroke:none"
         d="M 468.02937,390.4162 L 467.97937,390.40495 L 468.07063,390.4512 L 468.02937,390.4162" />
      <path
         id="path87"
         style="fill:#a72c31;fill-opacity:1;fill-rule:nonzero;stroke:none"
         d="M 467.97812,390.40495 L 467.97937,390.40495 L 467.83312,390.33495 L 467.91188,390.47995 C 467.90812,390.43245 467.91812,390.3937 467.97812,390.40495" />
      <path
         id="path89"
         style="fill:#a72c31;fill-opacity:1;fill-rule:nonzero;stroke:none"
         d="M 467.61313,390.1812 L 467.83312,390.33495 C 467.78312,390.27495 467.71312,390.2212 467.61313,390.1812" />
      <path
         id="path91"
         style="fill:#a72c31;fill-opacity:1;fill-rule:nonzero;stroke:none"
         d="M 470.04812,392.4637 C 469.99187,392.44245 469.88188,392.40245 469.88188,392.40245 C 469.84687,392.10745 469.61062,391.98995 469.39062,391.8662 L 469.38562,392.02745 C 469.49688,392.11495 469.55562,392.0787 469.50187,391.9537 C 469.61062,392.2537 469.78187,392.4587 469.98312,392.64745 C 470.01937,392.5912 470.07688,392.5437 470.04812,392.4637" />
      <path
         id="path93"
         style="fill:#a72c31;fill-opacity:1;fill-rule:nonzero;stroke:none"
         d="M 469.98312,392.64745 L 469.97188,392.6662 L 470.10688,392.75995 L 470.10812,392.75245 L 469.98312,392.64745" />
      <g
         id="g3259">
        <path
           d="M 444.25313,413.8537 L 444.25937,413.8462 L 444.18437,413.7337 L 444.15562,413.7487 L 444.25313,413.8537 z M 444.40188,413.5787 C 444.34938,413.55245 444.24187,413.4987 444.24187,413.4987 C 444.41688,413.23245 444.24563,413.0737 444.08062,412.92495 L 443.94562,413.07495 C 444.00687,413.1737 444.10562,413.14995 444.14187,413.02495 C 444.02312,413.32495 444.06937,413.5362 444.18437,413.7337 C 444.27062,413.6887 444.37937,413.65495 444.40188,413.5787 z M 442.34062,411.8662 C 442.28812,411.84995 442.61063,411.68495 442.49687,411.65495 C 442.31062,411.53995 442.08687,411.48495 441.99562,411.3362 C 441.88687,411.30995 442.16188,410.9937 442.05062,410.9662 C 441.87062,410.84745 441.20687,410.7237 441.38063,410.94245 C 441.63812,411.2687 441.86312,411.4512 442.11562,411.7412 C 442.40437,411.92995 442.66938,412.12995 442.93562,412.3587 C 442.99062,412.43245 443.00313,412.5212 443.01937,412.60745 L 443.01063,412.21995 C 443.02437,412.02495 442.52437,412.05245 442.34062,411.8662 z M 443.73062,411.73995 C 443.71938,411.80745 443.80312,411.79745 443.88563,411.80245 L 443.79062,411.56995 L 443.73062,411.73995 z M 443.41562,411.0112 L 443.54187,411.1962 C 443.53562,411.1262 443.49563,411.06495 443.41562,411.0112 z M 443.50562,411.3562 C 443.54187,411.30745 443.58438,411.26995 443.63937,411.28995 L 443.64062,411.2912 L 443.54187,411.1962 L 443.50562,411.3562 z M 443.64062,411.2912 L 443.70312,411.3512 L 443.68562,411.30995 L 443.64062,411.2912 z M 440.09438,407.21745 C 439.96437,407.1737 439.88187,407.0287 439.90188,406.8112 C 440.12563,406.80745 440.13813,407.0012 440.09438,407.21745 z M 435.68062,409.6887 C 435.61687,409.71245 435.54312,409.6662 435.49187,409.56245 C 435.57938,409.4962 435.63687,409.58495 435.68062,409.6887 z M 442.42062,410.84745 C 442.27062,410.68245 442.20562,410.4737 442.24812,410.1712 C 442.24062,410.29495 442.14938,410.33995 442.06563,410.2612 L 442.16437,410.08995 C 442.36687,410.1887 442.56062,410.3037 442.43437,410.60495 C 442.43437,410.60495 442.54688,410.6337 442.60188,410.6487 C 442.59312,410.7287 442.49562,410.7862 442.42062,410.84745 L 442.51187,410.9437 C 442.61687,410.7737 442.66062,410.39995 442.66062,410.3987 C 442.35062,409.9237 442.03312,409.49495 441.75812,409.0487 C 441.67687,409.05995 441.59562,409.0887 441.59437,409.02245 L 441.61562,408.8487 L 441.48187,408.6612 L 441.40937,408.61745 L 441.40687,408.61745 C 441.34687,408.6112 441.31187,408.6562 441.28937,408.70995 L 441.28812,408.5512 L 441.25812,408.5187 C 441.26437,408.52245 441.27062,408.52745 441.27688,408.52995 C 441.27937,408.53745 441.28687,408.5437 441.28812,408.5512 L 441.38312,408.60245 L 441.38563,408.60495 L 441.38563,408.6037 L 441.40937,408.61745 L 441.45812,408.6262 L 441.15938,408.1912 L 441.06687,408.12745 C 440.95187,408.0612 440.82812,408.00745 440.90062,407.83245 L 440.84187,407.75745 L 440.83187,407.79245 L 440.83187,407.74495 L 440.58688,407.42745 C 440.42188,407.22495 440.27312,406.9987 440.08187,406.8062 C 438.93437,405.46745 437.56563,404.53245 435.79812,403.7487 C 434.82437,403.3537 433.77812,402.96745 432.48188,403.1137 C 429.75313,403.8137 428.73812,406.0912 428.57062,409.1062 C 428.54813,410.1687 429.46437,411.38495 430.15312,412.0387 C 430.09562,412.2762 430.03812,412.4987 429.95812,412.6812 C 429.80563,413.0787 430.00563,413.97495 430.57187,414.5887 C 431.85438,415.14245 431.52062,413.86245 431.59562,413.9187 C 431.87313,413.2812 431.57937,413.46495 431.84062,412.8962 C 431.67562,413.25245 431.33937,412.73995 431.81313,412.38495 C 432.50937,411.79995 432.00312,411.43995 432.32187,411.38745 C 432.41562,411.37745 432.44563,411.3087 432.51063,411.24995 C 433.10187,411.21245 433.72062,410.69495 434.63687,410.79995 C 434.86687,410.80745 435.08187,410.60995 435.29812,410.5437 C 435.45063,410.53745 435.59687,410.65745 435.71562,410.67745 C 435.90437,410.7087 436.07937,410.66995 436.25563,410.6137 C 436.07187,410.6187 435.93312,410.6487 435.73438,410.6437 C 435.60187,410.63245 435.86312,410.4162 435.96312,410.3787 C 436.01063,410.3437 436.02937,410.56245 436.07563,410.5262 C 436.15688,410.5387 436.24937,410.4687 436.35188,410.42995 C 436.39812,410.39495 436.35188,410.57995 436.37437,410.56245 C 436.50563,410.53245 436.65437,410.3437 436.71812,410.41495 L 436.85187,410.55245 L 436.94437,410.5962 L 437.02437,410.5712 L 437.63187,410.4637 L 437.63437,410.4462 C 437.52688,410.4312 437.43562,410.38245 437.36937,410.23745 C 437.39937,410.29245 437.37687,410.3412 437.32062,410.3337 L 437.31187,410.2312 C 437.42062,410.20995 437.53187,410.1912 437.56937,410.3487 C 437.56937,410.3487 437.62312,410.3212 437.64937,410.30745 C 437.67062,410.3412 437.64688,410.39745 437.63437,410.4462 L 437.69937,410.45245 C 437.69312,410.3512 437.60188,410.1912 437.60062,410.1912 L 436.85812,409.9212 C 436.82938,409.9512 436.80562,409.9887 436.78687,409.9587 L 436.74812,409.8737 L 436.64437,409.82995 L 436.60312,409.8387 L 436.60187,409.8387 L 436.57937,409.9162 L 436.53562,409.8537 L 436.58812,409.8412 L 436.58938,409.8412 L 436.60312,409.8387 L 436.62437,409.82495 L 436.37937,409.7562 L 436.32437,409.76245 C 436.25812,409.7762 436.19437,409.7912 436.17437,409.69495 L 436.13062,409.6812 L 436.13563,409.6987 L 436.12312,409.6787 L 435.93563,409.62245 L 435.56187,409.50995 C 434.73062,409.30245 433.93313,409.3137 433.01687,409.4212 C 432.75937,409.44495 432.50062,409.4937 432.23812,409.5587 C 432.15062,409.36245 432.08938,409.1212 432.15312,408.70745 C 432.11062,409.5087 431.06813,408.59495 431.91312,407.9137 C 433.08312,407.4637 432.38437,406.7862 433.14062,406.4387 C 433.22937,406.41495 433.31687,406.4062 433.41312,406.3462 C 434.03562,406.5862 435.74562,406.51995 437.14938,407.67995 C 437.53312,407.9462 438.07187,407.9462 438.50562,408.09995 C 438.78687,408.24995 438.90562,408.60495 439.07437,408.7887 C 439.34938,409.0687 439.68812,409.21245 440.01187,409.3712 C 439.73187,409.12245 439.46062,409.0112 439.14062,408.75745 C 438.93437,408.57745 439.59937,408.56495 439.80563,408.6312 C 439.92062,408.6337 439.71687,408.9937 439.83062,408.9937 C 439.94687,409.11745 440.16312,409.1362 440.36187,409.2112 C 440.47438,409.21995 440.19437,409.44495 440.25187,409.44995 C 440.47187,409.5862 440.95812,409.4487 440.98937,409.6362 L 441.06313,410.01495 L 441.16688,410.19745 L 441.32187,410.2587 C 441.69437,410.40495 442.08062,410.6237 442.39562,410.8687 L 442.42062,410.84745 z M 438.27437,410.21745 L 438.25063,410.22495 L 438.29312,410.22995 L 438.27437,410.21745 z M 438.24937,410.22495 L 438.25063,410.22495 L 438.18437,410.2187 L 438.21562,410.2962 L 438.24937,410.22495 z M 437.89187,410.8862 C 437.86687,410.8962 437.94937,410.7237 437.89687,410.74495 C 437.79562,410.7437 437.68437,410.80995 437.60562,410.77995 C 437.55187,410.80745 437.57187,410.5912 437.51937,410.6187 C 437.40938,410.63995 437.10687,410.8087 437.23812,410.83995 C 437.43937,410.8787 437.58687,410.8662 437.77187,410.8987 L 438.26687,410.8987 L 438.36937,410.97495 L 438.25937,410.8162 C 438.21062,410.72995 438.01812,410.9037 437.89187,410.8862 z M 438.41312,410.38245 C 438.42687,410.41495 438.45812,410.38245 438.49187,410.3587 L 438.38813,410.29245 L 438.41312,410.38245 z M 439.13313,410.9062 C 439.12437,410.7462 439.00687,410.7437 438.89437,410.7437 L 438.88312,410.8462 C 438.93937,410.8637 438.97188,410.8212 438.94813,410.7612 C 438.99062,410.91495 439.07313,410.9787 439.18063,411.01495 C 439.20187,410.96745 439.23562,410.9187 439.22187,410.8812 C 439.19187,410.88995 439.13313,410.9062 439.13313,410.9062 z M 439.17188,411.0287 L 439.24312,411.0362 L 439.24563,411.0312 L 439.18063,411.01495 L 439.17188,411.0287"
           style="fill:#a72c31;fill-opacity:1;fill-rule:nonzero;stroke:none"
           id="path51" />
        <path
           d="M 455.57812,387.3537 C 454.51187,388.0212 453.56687,388.9662 453.04688,390.2037 C 453.03687,390.2337 453.03062,390.26245 453.02187,390.29245 C 452.46812,390.48495 451.82312,391.16745 451.86312,391.19995 C 451.55313,393.34745 452.20937,395.3662 453.21062,397.03495 C 453.44562,397.06245 453.67687,397.02495 453.68687,397.2562 C 453.64437,397.4737 453.66312,397.64995 453.70812,397.8112 L 454.22438,398.4987 L 454.47688,398.67995 L 454.48563,398.67995 C 454.64062,398.71995 454.71687,398.62245 454.76187,398.48745 C 454.77062,398.5037 454.78312,398.5187 454.79438,398.53495 C 454.80437,398.6737 454.83812,398.8037 454.91187,398.9212 C 455.01437,398.97745 455.11187,399.03995 455.20687,399.1087 C 455.12437,399.0637 455.03812,399.0212 454.95187,398.97745 C 454.93813,398.9587 454.92188,398.9412 454.91187,398.9212 L 454.47688,398.67995 L 454.32187,398.6312 C 454.71937,399.1612 455.22562,399.57745 455.67937,400.06495 C 455.80687,400.14245 455.93312,400.22995 456.03562,400.26745 C 456.45812,400.4437 456.89062,400.6312 456.80812,401.1612 L 457.04312,401.38995 L 457.04937,401.28495 L 457.08562,401.4287 L 458.02187,402.4487 C 458.62562,403.1137 459.17687,403.8387 459.69813,404.58495 C 461.31062,407.0037 462.55312,409.59245 462.66938,412.04495 C 462.81562,414.56745 461.22187,415.9687 459.42062,415.1987 C 457.20312,414.2362 455.16812,411.4787 453.70812,408.87745 C 452.50312,406.70995 451.17687,404.69745 449.92562,402.62495 L 449.95687,402.6462 C 449.95687,402.6462 446.12063,391.54495 439.13812,390.7612 C 437.88187,390.61995 436.73812,390.5512 435.68937,390.54245 C 435.71812,390.12995 435.45562,389.7837 435.22562,389.4512 L 435.27812,389.63995 C 435.40437,389.84245 435.44437,389.8562 435.35438,389.6587 C 435.52688,389.94245 435.59062,390.2412 435.64437,390.54245 C 432.84437,390.5237 430.75687,390.9537 429.17062,391.70495 C 428.98187,391.6212 428.78687,391.55495 428.58438,391.5062 C 425.79062,390.67245 426.82687,388.3812 426.82687,388.3812 C 418.82313,395.4737 418.20812,400.43995 418.70812,402.98995 C 418.81937,403.73745 419.07062,404.39495 419.46938,404.9162 C 419.49437,404.94995 419.51063,404.96995 419.51063,404.96995 L 419.51313,404.9662 C 419.69937,405.19995 419.91062,405.4112 420.15812,405.5837 C 422.37937,407.13495 426.23437,405.4612 428.85437,401.84995 C 431.94187,403.0237 432.39812,400.6112 435.96687,401.4887 C 433.25937,401.00495 437.67687,398.55245 438.70312,401.4962 C 439.00813,403.52995 438.96562,403.7287 440.02187,404.95995 C 441.29812,406.6462 443.27938,408.92495 444.33187,411.15995 C 444.88437,412.33245 445.83938,413.32495 446.78312,414.5862 C 449.20312,417.94745 451.33812,421.6037 458.55937,423.2462 C 462.52062,424.00245 467.51062,421.33995 468.96812,417.46245 C 470.56063,413.6687 469.89187,410.55745 469.22312,407.9087 C 468.28313,405.1087 466.26937,403.5737 464.68437,402.2312 C 463.65562,401.15245 462.95562,399.6737 462.09312,398.8337 C 460.86937,397.60745 458.98187,396.6462 458.13813,396.4137 C 458.97688,396.9612 460.52437,397.73745 461.87437,398.8862 C 462.83312,399.70495 460.37187,399.1612 459.62687,398.8462 C 459.22938,398.7987 459.49062,397.6412 459.08187,397.58745 C 458.41062,397.0612 457.84812,397.11495 457.24062,396.9462 C 456.90687,396.9412 457.59187,396.2662 457.43062,396.26995 C 457.06187,396.0587 456.37812,396.1012 455.90187,396.01995 C 455.88687,395.9062 455.87937,395.79245 455.89188,395.6787 C 456.06313,394.4587 455.16688,393.38745 455.04312,392.30745 C 455.28312,392.4387 455.46812,392.4462 455.44062,392.2212 C 455.34187,391.4537 455.26812,391.0137 455.51063,390.51245 C 455.51063,390.4437 455.51937,390.37245 455.53188,390.3012 C 455.90187,389.7662 456.37187,389.2512 456.95187,388.86995 C 457.21438,388.84495 457.45812,388.9287 457.69187,388.99745 C 457.52937,388.9137 457.35312,388.8262 457.16688,388.7362 C 457.81562,388.3637 458.58812,388.16245 459.49687,388.2837 C 460.04812,388.3287 460.60562,388.19495 461.14187,388.2387 C 461.34938,388.26995 461.54562,388.3562 461.73062,388.44745 C 462.11062,388.85495 462.51187,389.1687 463.00313,389.3687 C 463.05812,389.22995 463.13063,389.0937 463.16688,388.95745 C 463.27062,388.98245 463.37563,389.01245 463.48062,389.0337 C 463.37187,388.99495 463.27062,388.9587 463.17188,388.92495 C 463.17937,388.8812 463.18562,388.8387 463.18187,388.79495 C 463.34438,388.8387 463.52312,388.8387 463.71437,388.8712 C 463.82937,388.8662 463.70812,389.0737 463.76562,389.0712 C 464.06687,389.1762 464.43437,389.02745 464.58312,389.18495 L 464.90812,389.49495 L 465.12312,389.6487 L 465.30562,389.68995 C 465.74437,389.78745 466.22312,389.96495 466.66438,390.1462 L 466.67062,390.12495 C 466.43313,389.9912 466.22938,389.8237 466.07563,389.5412 C 466.14812,389.65495 466.09938,389.69995 465.97687,389.63495 L 465.94937,389.47745 C 466.19437,389.54995 466.42937,389.63995 466.52312,389.9112 C 466.52312,389.9112 466.63937,389.9262 466.69687,389.9337 C 466.74187,390.0037 466.69562,390.0637 466.67062,390.12495 L 466.81437,390.2012 C 466.79188,390.03995 466.58187,389.70995 466.58187,389.70995 C 466.00937,389.31745 465.45687,388.96745 464.91187,388.6312 C 464.84687,388.64745 464.78938,388.67745 464.74563,388.6212 L 464.65562,388.4737 L 464.41812,388.32745 L 464.32312,388.2962 L 464.32063,388.29745 C 464.26187,388.2962 464.25812,388.3362 464.26937,388.38245 L 464.16812,388.2512 L 464.12063,388.22995 C 464.12813,388.2312 464.13687,388.2337 464.14562,388.2362 C 464.15312,388.2412 464.16188,388.24495 464.16812,388.2512 L 464.28812,388.2862 L 464.29188,388.28745 L 464.29188,388.28745 L 464.32312,388.2962 L 464.37313,388.29995 L 463.81563,387.9837 L 463.68562,387.94495 C 463.53437,387.90745 463.38187,387.8712 463.34312,387.7237 L 463.24313,387.66745 L 463.25437,387.6962 L 463.22438,387.65745 L 462.78312,387.44995"
           style="fill:#a72c31;fill-opacity:1;fill-rule:nonzero;stroke:none"
           id="path95" />
      </g>
      <path
         id="path97"
         style="fill:#a72c31;fill-opacity:1;fill-rule:nonzero;stroke:none"
         d="M 462.79438,388.45495 C 462.86562,388.44745 462.90562,388.5612 462.95063,388.64995 C 462.76437,388.6587 462.56313,388.66995 462.56313,388.66995 C 462.54312,388.5937 462.51562,388.5312 462.48937,388.4637 C 462.60312,388.45245 462.71812,388.4487 462.79438,388.45495" />
      <path
         id="path99"
         style="fill:#a72c31;fill-opacity:1;fill-rule:nonzero;stroke:none"
         d="M 452.75813,392.51995 C 452.76688,392.64245 452.78188,392.7612 452.79812,392.8812 L 452.45812,393.1362 C 452.14437,392.5087 451.83688,391.6587 452.68062,391.15745 C 452.68562,391.16245 452.50187,390.82495 452.44937,390.6512 C 452.58937,390.53995 452.76062,390.5537 452.93312,390.58745 C 452.79438,391.1087 452.73438,391.60995 452.73937,392.09745 C 452.64187,392.2987 452.52688,392.5112 452.38062,392.7437 C 452.50062,392.52495 452.64688,392.4612 452.75813,392.51995" />
      <path
         id="path101"
         style="fill:#a72c31;fill-opacity:1;fill-rule:nonzero;stroke:none"
         d="M 460.22688,404.7237 C 459.56437,404.5462 459.58187,403.93745 459.63437,403.31245 C 460.07687,403.50995 460.30937,404.08495 460.22688,404.7237" />
      <path
         id="path103"
         style="fill:#a72c31;fill-opacity:1;fill-rule:nonzero;stroke:none"
         d="M 453.64812,386.88995 C 453.36937,386.9737 453.10438,387.20995 452.87687,387.5387 C 453.18437,387.36245 453.40562,387.11245 453.64812,386.88995" />
      <path
         id="path105"
         style="fill:#a72c31;fill-opacity:1;fill-rule:nonzero;stroke:none"
         d="M 463.46312,389.57745 L 463.46187,389.54995 L 463.00313,389.3687 L 462.97562,389.44745 L 463.46312,389.57745" />
    </g>
    <g
       id="g3271">
      <path
         id="path107"
         style="fill:#a72c31;fill-opacity:1;fill-rule:nonzero;stroke:none"
         d="M 475.20812,400.8312 C 474.67312,400.8312 474.46062,400.37495 474.55062,399.76495 L 474.58187,399.64245 C 474.14062,400.37495 473.46938,400.89245 472.79812,400.89245 C 471.77687,400.89245 471.48812,399.9012 471.71687,398.6062 L 472.09812,396.5337 C 472.15812,396.16745 472.12812,395.89245 471.92937,395.89245 C 471.74687,395.89245 471.42687,396.1212 471.32062,396.2437 L 471.32062,395.87745 C 471.60938,395.57245 472.02062,395.3587 472.31062,395.3587 C 472.84438,395.3587 473.07313,395.8012 472.96687,396.4112 L 472.58437,398.52995 C 472.40187,399.5212 472.50937,400.1612 473.24062,400.1612 C 473.74437,400.1612 474.61312,399.4137 474.90187,397.8287 L 475.29812,395.55745 L 476.15187,395.55745 L 475.43562,399.6587 C 475.37563,400.0087 475.39062,400.28245 475.60438,400.28245 C 475.77188,400.28245 476.09187,400.0537 476.21437,399.94745 L 476.21437,400.29745 C 475.90812,400.60245 475.48062,400.8312 475.20812,400.8312" />
      <path
         id="path109"
         style="fill:#a72c31;fill-opacity:1;fill-rule:nonzero;stroke:none"
         d="M 483.42188,400.14245 C 482.68813,401.0887 481.80937,401.4362 480.64937,401.4362 C 478.69062,401.4362 477.49063,399.9687 477.49063,398.15745 C 477.49063,396.2237 478.85062,394.87745 480.69063,394.87745 C 482.44937,394.87745 483.64812,396.07745 483.64812,398.1437 L 483.64812,398.4762 L 478.61063,398.4762 C 478.69062,399.5562 479.51687,400.4762 480.64937,400.4762 C 481.54312,400.4762 482.14188,400.1562 482.63563,399.52995 L 483.42188,400.14245 z M 482.52938,397.5962 C 482.48937,396.5437 481.79688,395.83745 480.64937,395.83745 C 479.50313,395.83745 478.74313,396.5437 478.61063,397.5962 L 482.52938,397.5962" />
      <path
         id="path111"
         style="fill:#a72c31;fill-opacity:1;fill-rule:nonzero;stroke:none"
         d="M 485.54187,401.13995 L 485.54187,395.1137 L 486.79062,395.1137 L 486.79062,397.0912 L 489.28812,397.0912 L 489.28812,401.13995 L 485.54187,401.13995 z M 488.03937,398.33995 L 486.79062,398.33995 L 486.79062,399.8912 L 488.03937,399.8912 L 488.03937,398.33995" />
      <path
         id="path113"
         style="fill:#a72c31;fill-opacity:1;fill-rule:nonzero;stroke:none"
         d="M 475.50312,394.64745 C 476.65812,392.9837 478.55187,391.9912 480.56687,391.9912 C 482.57688,391.9912 484.46688,392.97995 485.62312,394.63745 L 486.02938,394.35495 C 484.78062,392.56495 482.73812,391.49745 480.56687,391.49745 C 478.38937,391.49745 476.34437,392.5687 475.09562,394.3662 L 475.50312,394.64745 z M 485.63687,401.65495 C 484.48062,403.3237 482.58562,404.31995 480.56687,404.31995 C 478.54062,404.31995 476.64312,403.31995 475.48812,401.64495 L 475.08187,401.9262 C 476.32937,403.73495 478.37937,404.8137 480.56687,404.8137 C 482.74687,404.8137 484.79562,403.7387 486.04312,401.93495 L 485.63687,401.65495" />
    </g>
  </g>
</svg>
