<?xml version="1.0" encoding="UTF-8" standalone="no"?>
<!DOCTYPE svg PUBLIC "-//W3C//DTD SVG 1.1//EN"
 "http://www.w3.org/Graphics/SVG/1.1/DTD/svg11.dtd">
<!-- Generated by graphviz version 2.38.0 (20140413.2041)
 -->
<!-- Title: %3 Pages: 1 -->
<svg width="314pt" height="218pt"
 viewBox="0.00 0.00 313.64 218.00" xmlns="http://www.w3.org/2000/svg" xmlns:xlink="http://www.w3.org/1999/xlink">
<g id="graph0" class="graph" transform="scale(1 1) rotate(0) translate(4 214)">
<title>%3</title>
<!-- uniac -->
<g id="node1" class="node"><title>uniac</title>
<ellipse fill="none" stroke="#42ffff" cx="98.2451" cy="-18" rx="39.7935" ry="18"/>
<text text-anchor="start" x="75.7451" y="-15.3" font-family="Times,serif" font-size="14.00" fill="white"> </text>
<text text-anchor="start" x="79.7451" y="-15.3" font-family="Times,serif" font-size="14.00" fill="#42ffff">?uniac</text>
<text text-anchor="start" x="116.745" y="-15.3" font-family="Times,serif" font-size="14.00" fill="white"> </text>
</g>
<!-- Protein -->
<g id="node2" class="node"><title>Protein</title>
<ellipse fill="none" stroke="#cc9999" cx="55.2451" cy="-105" rx="55.4913" ry="18"/>
<text text-anchor="start" x="20.7451" y="-102.3" font-family="Times,serif" font-size="14.00" fill="white"> </text>
<text text-anchor="start" x="24.7451" y="-102.3" font-family="Times,serif" font-size="14.00" fill="#cc9999">up:Protein</text>
<text text-anchor="start" x="85.7451" y="-102.3" font-family="Times,serif" font-size="14.00" fill="white"> </text>
</g>
<!-- uniac&#45;&gt;Protein -->
<g id="edge1" class="edge"><title>uniac&#45;&gt;Protein</title>
<path fill="none" stroke="#cc9999" d="M84.698,-35.0336C80.3107,-40.763 75.6925,-47.4316 72.2451,-54 68.4529,-61.2253 65.2428,-69.47 62.6683,-77.1521"/>
<polygon fill="#cc9999" stroke="#cc9999" points="59.2975,-76.2048 59.6546,-86.7936 65.9787,-78.2932 59.2975,-76.2048"/>
<text text-anchor="start" x="72.2451" y="-58.8" font-family="Times,serif" font-size="14.00" fill="white"> </text>
<text text-anchor="start" x="76.2451" y="-58.8" font-family="Times,serif" font-size="14.00" fill="#cc9999">rdf:typ</text>
<text text-anchor="start" x="116.245" y="-58.8" font-family="Times,serif" font-size="14.00" fill="white"> </text>
</g>
<!-- go -->
<g id="node3" class="node"><title>go</title>
<ellipse fill="none" stroke="#42ffff" cx="158.245" cy="-105" rx="29.795" ry="18"/>
<text text-anchor="start" x="143.245" y="-102.3" font-family="Times,serif" font-size="14.00" fill="white"> </text>
<text text-anchor="start" x="147.245" y="-102.3" font-family="Times,serif" font-size="14.00" fill="#42ffff">?go</text>
<text text-anchor="start" x="169.245" y="-102.3" font-family="Times,serif" font-size="14.00" fill="white"> </text>
</g>
<!-- uniac&#45;&gt;go -->
<g id="edge2" class="edge"><title>uniac&#45;&gt;go</title>
<path fill="none" stroke="white" d="M109.814,-35.3889C118.725,-48.0132 131.179,-65.6562 141.226,-79.8897"/>
<polygon fill="white" stroke="white" points="138.491,-82.0849 147.118,-88.2362 144.21,-78.0481 138.491,-82.0849"/>
<text text-anchor="start" x="131.245" y="-57.8" font-family="Times,serif" font-size="14.00" fill="white"> up:classifiedWith </text>
</g>
<!-- Class -->
<g id="node4" class="node"><title>Class</title>
<ellipse fill="none" stroke="#cc9999" cx="85.2451" cy="-192" rx="51.9908" ry="18"/>
<text text-anchor="start" x="53.2451" y="-189.3" font-family="Times,serif" font-size="14.00" fill="white"> </text>
<text text-anchor="start" x="57.2451" y="-189.3" font-family="Times,serif" font-size="14.00" fill="#cc9999">rdfs:Class</text>
<text text-anchor="start" x="113.245" y="-189.3" font-family="Times,serif" font-size="14.00" fill="white"> </text>
</g>
<!-- go&#45;&gt;Class -->
<g id="edge3" class="edge"><title>go&#45;&gt;Class</title>
<path fill="none" stroke="#cc9999" d="M145.194,-121.196C134.329,-133.848 118.656,-152.097 106.061,-166.763"/>
<polygon fill="#cc9999" stroke="#cc9999" points="103.29,-164.617 99.4298,-174.484 108.6,-169.178 103.29,-164.617"/>
<text text-anchor="start" x="126.245" y="-145.8" font-family="Times,serif" font-size="14.00" fill="white"> </text>
<text text-anchor="start" x="130.245" y="-145.8" font-family="Times,serif" font-size="14.00" fill="#cc9999">rdf:type</text>
<text text-anchor="start" x="176.245" y="-145.8" font-family="Times,serif" font-size="14.00" fill="white"> </text>
</g>
<!-- 0016021 -->
<g id="node5" class="node"><title>0016021</title>
<ellipse fill="none" stroke="white" cx="230.245" cy="-192" rx="75.2868" ry="18"/>
<text text-anchor="middle" x="230.245" y="-188.3" font-family="Times,serif" font-size="14.00" fill="white">og:GO_0016021</text>
</g>
<!-- go&#45;&gt;0016021 -->
<g id="edge4" class="edge"><title>go&#45;&gt;0016021</title>
<path fill="none" stroke="#cc9999" d="M171.451,-121.59C181.971,-134.01 196.904,-151.639 209.087,-166.022"/>
<polygon fill="#cc9999" stroke="#cc9999" points="206.754,-168.683 215.888,-174.051 212.096,-164.158 206.754,-168.683"/>
<text text-anchor="start" x="198.245" y="-145.8" font-family="Times,serif" font-size="14.00" fill="white"> </text>
<text text-anchor="start" x="202.245" y="-145.8" font-family="Times,serif" font-size="14.00" fill="#cc9999">rdf:subClassOf*</text>
<text text-anchor="start" x="296.245" y="-145.8" font-family="Times,serif" font-size="14.00" fill="white"> </text>
</g>
</g>
</svg>
