<svg xmlns="http://www.w3.org/2000/svg" xmlns:xlink="http://www.w3.org/1999/xlink" width="296.794" height="205.796" viewBox="0 0 222.595 154.347"><defs><symbol overflow="visible" id="a"><path d="M5.11-1.578V-3.25H3.921v-1.453h2.703v4a3.416 3.416 0 0 1-1.11.656 3.724 3.724 0 0 1-1.28.219C3.097.172 2.222-.218 1.608-1 .992-1.79.688-2.91.688-4.36c0-1.476.312-2.6.937-3.374.625-.782 1.52-1.172 2.688-1.172.351 0 .695.054 1.03.156.345.094.665.234.97.422v1.922a2.395 2.395 0 0 0-.844-.703 2.187 2.187 0 0 0-1.032-.25c-.656 0-1.148.25-1.468.75-.324.492-.485 1.242-.485 2.25 0 .968.157 1.71.47 2.218.312.5.765.75 1.358.75.188 0 .344-.015.47-.046a.905.905 0 0 0 .327-.141zm0 0"/></symbol><symbol overflow="visible" id="b"><path d="M4.484 0H2.75v-7.234H.531V-8.75h6.172v1.516H4.484zm0 0"/></symbol><symbol overflow="visible" id="c"><path d="M3.61-7.172l-.813 3.578h1.64zM2.562-8.75h2.109L7.032 0H5.296l-.531-2.156H2.453L1.922 0H.188zm0 0"/></symbol><symbol overflow="visible" id="d"><path d="M6.328-.25a3.898 3.898 0 0 1-.86.313c-.304.07-.616.109-.937.109-1.187 0-2.093-.383-2.718-1.156C1.195-1.766.89-2.891.89-4.36c0-1.477.304-2.602.921-3.375.625-.782 1.532-1.172 2.72-1.172.32 0 .632.039.937.11.312.062.597.167.86.312v1.921a3.247 3.247 0 0 0-.86-.593 2.007 2.007 0 0 0-.86-.203c-.636 0-1.117.257-1.437.765-.324.5-.485 1.246-.485 2.235 0 .98.16 1.718.485 2.218.32.5.8.75 1.437.75.29 0 .579-.062.86-.187s.566-.32.86-.594zm0 0"/></symbol><symbol overflow="visible" id="e"><path d="M1.344-8.75h1.578l.64 4.438L5.985-8.75h1.594L5.86 0H4.781l1.5-7.781L3.75-3.125h-.828L2.25-7.781.75 0H-.344zm0 0"/></symbol><symbol overflow="visible" id="f"><path d="M5.203-4.703c0 .336-.062.625-.187.875s-.305.453-.532.61a2.293 2.293 0 0 1-.734.374c-.273.074-.555.11-.844.11h-.703v1.89a.66.66 0 0 0 .047.266c.031.074.102.133.219.172.05.023.14.043.265.062.133.024.258.031.375.031V0H.438v-.313C.5-.32.598-.332.734-.343a.679.679 0 0 0 .282-.063.353.353 0 0 0 .187-.156.577.577 0 0 0 .063-.282v-4.5a.817.817 0 0 0-.047-.281c-.032-.082-.102-.145-.203-.188a6.134 6.134 0 0 0-.344-.078 1.545 1.545 0 0 0-.266-.03v-.313H3.25c.582 0 1.05.14 1.406.421.364.282.547.653.547 1.11zM3.875-3.641c.094-.132.156-.273.188-.421.03-.157.046-.297.046-.422 0-.164-.023-.332-.062-.5a.983.983 0 0 0-.203-.454.924.924 0 0 0-.406-.312 1.378 1.378 0 0 0-.61-.125h-.625v2.75h.453c.313 0 .567-.047.766-.14a1.25 1.25 0 0 0 .453-.376zm0 0"/></symbol><symbol overflow="visible" id="g"><path d="M3.078 1.36H.734v-8.032h2.344v.39H1.516V.954h1.562zm0 0"/></symbol><symbol overflow="visible" id="h"><path d="M4.516-4.11c.187.231.328.497.421.798.094.304.141.62.141.953 0 .398-.058.757-.172 1.078a2.3 2.3 0 0 1-.468.781c-.211.21-.454.371-.735.484a2.743 2.743 0 0 1-.937.157c-.387 0-.727-.063-1.016-.188a1.92 1.92 0 0 1-.719-.515 2.142 2.142 0 0 1-.437-.797 3.457 3.457 0 0 1-.14-1c0-.352.046-.676.14-.97.094-.288.238-.554.437-.796.188-.219.426-.395.719-.531.29-.133.629-.203 1.016-.203.394 0 .738.07 1.03.203.29.136.532.32.72.547zm-.422 1.75c0-.695-.121-1.238-.36-1.624-.23-.383-.554-.579-.968-.579-.418 0-.746.196-.985.579-.242.386-.36.93-.36 1.625 0 .668.114 1.203.345 1.609.226.398.562.594 1 .594.425 0 .754-.196.984-.594.227-.406.344-.941.344-1.61zm0 0"/></symbol><symbol overflow="visible" id="i"><path d="M2.016-3.75a.546.546 0 0 1-.188.422.572.572 0 0 1-.422.172.614.614 0 0 1-.437-.172.56.56 0 0 1-.172-.422c0-.164.055-.305.172-.422a.63.63 0 0 1 .437-.172c.164 0 .305.059.422.172a.558.558 0 0 1 .188.422zm0 3.25a.583.583 0 0 1-.188.422.587.587 0 0 1-.422.172.63.63 0 0 1-.437-.172A.597.597 0 0 1 .797-.5c0-.164.055-.305.172-.422a.598.598 0 0 1 .437-.187c.164 0 .305.062.422.187a.558.558 0 0 1 .188.422zm0 0"/></symbol><symbol overflow="visible" id="j"><path d="M2.14 1.61a2.52 2.52 0 0 1-.75-.11 2.264 2.264 0 0 1-.593-.281 1.328 1.328 0 0 1-.39-.407A.917.917 0 0 1 .28.344c0-.149.035-.278.11-.39A.36.36 0 0 1 .719-.22c.176 0 .312.047.406.14a.38.38 0 0 1 .14.298c0 .093-.015.207-.046.344-.032.144-.059.25-.078.312.02.031.054.066.109.11.063.038.129.078.203.109.094.05.192.086.297.11.102.03.25.046.438.046a1.339 1.339 0 0 0 .937-.375c.125-.137.223-.297.297-.484.07-.18.11-.41.11-.704 0-.156-.016-.312-.048-.468a.926.926 0 0 0-.187-.406.921.921 0 0 0-.375-.266 1.617 1.617 0 0 0-.594-.094H1.75v-.5h.39c.407 0 .696-.11.876-.328.175-.227.265-.566.265-1.016 0-.363-.09-.64-.265-.828-.168-.187-.414-.281-.735-.281-.148 0-.273.023-.375.063-.093.03-.172.07-.234.109a.903.903 0 0 0-.188.14l-.093.094c.02.094.039.215.062.36.031.136.047.261.047.375a.38.38 0 0 1-.14.296c-.094.086-.231.126-.407.126-.156 0-.273-.051-.344-.157a.792.792 0 0 1-.093-.39.96.96 0 0 1 .125-.47c.082-.155.207-.3.375-.437.164-.132.367-.242.609-.328.238-.093.516-.14.828-.14.363 0 .66.058.89.171.239.106.427.231.563.375.133.157.223.32.266.485.05.156.078.293.078.406 0 .156-.023.309-.063.453a1.407 1.407 0 0 1-.61.781c-.167.118-.374.211-.624.282v.062c.156.024.328.063.516.125.187.055.36.137.515.25a1.462 1.462 0 0 1 .531 1.172c0 .563-.23 1.02-.687 1.375-.45.352-1.012.531-1.687.531zm0 0"/></symbol><symbol overflow="visible" id="k"><path d="M4.906 0H3.594c-.23-.332-.477-.688-.735-1.063a30.94 30.94 0 0 0-.812-1.109l-.36.344v1.031c0 .106.02.195.063.266.04.062.102.11.188.14.07.032.14.059.203.079.062.011.132.015.218.015V0H.234v-.297c.063 0 .13-.004.203-.016.07-.007.133-.019.188-.03A.305.305 0 0 0 .813-.47c.039-.07.062-.16.062-.265v-5.047a.624.624 0 0 0-.078-.297.573.573 0 0 0-.172-.219.555.555 0 0 0-.297-.094 3.036 3.036 0 0 1-.297-.03v-.282l1.594-.094.063.063v4.578l.734-.735c.27-.257.5-.492.687-.703.02-.02.04-.05.063-.094a.186.186 0 0 0 .047-.109c0-.082-.063-.14-.188-.172a1.832 1.832 0 0 0-.375-.078v-.281h1.922v.266c-.25.074-.469.167-.656.28a2.395 2.395 0 0 0-.438.298 2.492 2.492 0 0 0-.296.28 6.976 6.976 0 0 1-.547.517c.238.304.507.664.812 1.078.3.406.52.703.656.89.133.168.25.278.344.328.102.055.254.086.453.094zm0 0"/></symbol><symbol overflow="visible" id="l"><path d="M2.64 1.36H.298V.952h1.562V-6.28H.297v-.39H2.64zm0 0"/></symbol><symbol overflow="visible" id="m"><path d="M4.422-.078a4.53 4.53 0 0 1-.36.125 1.272 1.272 0 0 1-.359.047c-.23 0-.414-.055-.547-.157a.79.79 0 0 1-.265-.484h-.016c-.2.219-.406.387-.625.5-.219.102-.48.156-.781.156-.324 0-.59-.101-.797-.296C.46-.384.359-.645.359-.97c0-.164.02-.316.063-.453.05-.133.125-.254.219-.36A.963.963 0 0 1 .92-2c.126-.07.24-.129.345-.172.125-.05.39-.144.796-.281.407-.133.676-.238.813-.313v-.437c0-.04-.012-.113-.031-.219a.832.832 0 0 0-.094-.312 1.2 1.2 0 0 0-.25-.282c-.105-.082-.258-.125-.453-.125a.907.907 0 0 0-.375.079.69.69 0 0 0-.25.14c0 .055.016.137.047.25.031.117.047.227.047.328 0 .106-.047.2-.141.281-.094.086-.227.126-.39.126-.15 0-.258-.051-.329-.157a.675.675 0 0 1-.094-.36c0-.124.047-.25.141-.374a1.29 1.29 0 0 1 .375-.328c.133-.082.297-.149.484-.203.188-.063.368-.094.547-.094.239 0 .454.016.641.047.188.031.352.105.5.218.145.106.254.25.328.438.082.188.125.43.125.719 0 .418-.008.793-.015 1.125-.012.324-.016.672-.016 1.047 0 .117.02.21.062.28a.54.54 0 0 0 .188.173c.039.023.11.039.203.047h.297zM2.89-2.406c-.25.074-.47.148-.657.219a3.372 3.372 0 0 0-.53.265 1.243 1.243 0 0 0-.345.36.886.886 0 0 0-.125.484c0 .242.063.418.188.531a.708.708 0 0 0 .484.172c.207 0 .39-.047.547-.14.164-.102.3-.227.406-.376zm0 0"/></symbol><symbol overflow="visible" id="n"><path d="M3-.188c-.2.075-.383.137-.547.188a1.8 1.8 0 0 1-.625.094c-.367 0-.621-.09-.766-.266C.914-.359.845-.617.845-.953v-2.938H.063v-.421h.796v-1.36h.797v1.36h1.25v.421H1.672v2.422c0 .18.004.328.016.453.007.125.039.23.093.313.04.086.11.152.203.203a.958.958 0 0 0 .391.063c.07 0 .176-.004.313-.016.144-.02.25-.04.312-.063zm0 0"/></symbol><symbol overflow="visible" id="o"><path d="M4.172-1.016a2.36 2.36 0 0 1-.734.829A1.897 1.897 0 0 1 2.39.108c-.356 0-.664-.058-.922-.171a1.704 1.704 0 0 1-.64-.516 1.927 1.927 0 0 1-.391-.735 3.03 3.03 0 0 1-.126-.89c0-.281.04-.555.126-.828.093-.27.226-.516.406-.735a1.835 1.835 0 0 1 1.453-.687c.312 0 .582.055.812.156.227.094.41.23.547.406.133.157.235.352.297.579.07.218.11.46.11.718v.297H1.188c0 .281.023.54.078.766.062.23.148.433.265.61.114.179.258.312.438.405.187.094.41.141.672.141.257 0 .484-.055.671-.172.188-.125.368-.344.547-.656zm-.984-1.656c0-.164-.016-.344-.047-.531a1.458 1.458 0 0 0-.125-.469A.813.813 0 0 0 2.734-4a.742.742 0 0 0-.437-.125c-.313 0-.574.133-.781.39-.2.25-.309.606-.329 1.063zm0 0"/></symbol><symbol overflow="visible" id="p"><path d="M3.64-3.781a.76.76 0 0 1-.109.406c-.074.117-.187.172-.344.172-.167 0-.292-.04-.374-.125a.375.375 0 0 1-.126-.281c0-.063.004-.118.016-.172.008-.063.016-.117.016-.172-.137 0-.297.058-.485.172-.18.117-.336.273-.468.469v2.53c0 .106.02.188.062.25.04.063.102.11.188.141.07.032.164.059.28.079.114.011.22.015.313.015V0H.313v-.297H.53A.66.66 0 0 0 .72-.344.306.306 0 0 0 .89-.469c.039-.07.062-.16.062-.265v-2.688a.605.605 0 0 0-.062-.25.573.573 0 0 0-.172-.219.563.563 0 0 0-.203-.078A.972.972 0 0 0 .266-4v-.297l1.437-.094.063.063v.61h.03c.177-.227.376-.407.595-.532.226-.125.437-.188.625-.188.175 0 .32.063.437.188a.612.612 0 0 1 .188.469zm0 0"/></symbol><symbol overflow="visible" id="q"><path d="M5.11 0H2.983v-.297h.22a.677.677 0 0 0 .202-.047.244.244 0 0 0 .172-.125c.04-.07.063-.16.063-.265V-2.97c0-.3-.075-.535-.22-.703a.695.695 0 0 0-.53-.25c-.157 0-.297.027-.422.078a1.415 1.415 0 0 0-.344.172.969.969 0 0 0-.234.219c-.055.074-.094.133-.125.172v2.5c0 .094.02.18.062.25.04.062.102.11.188.14.062.032.129.059.203.079.07.011.144.015.219.015V0H.312v-.297h.22a.66.66 0 0 0 .187-.047.306.306 0 0 0 .172-.125c.039-.07.062-.16.062-.265v-2.688a.63.63 0 0 0-.062-.265.62.62 0 0 0-.172-.204.563.563 0 0 0-.203-.078A.972.972 0 0 0 .266-4v-.297l1.437-.094.063.063v.61h.03l.266-.235c.102-.102.204-.188.297-.25.102-.07.227-.129.375-.172a1.66 1.66 0 0 1 .516-.078c.414 0 .723.133.922.39.195.262.297.606.297 1.032v2.25a.56.56 0 0 0 .047.25.42.42 0 0 0 .187.156.75.75 0 0 0 .188.063c.05.011.125.015.218.015zm0 0"/></symbol><symbol overflow="visible" id="r"><path d="M5.11-3H.671v-.547h4.437zm0 1.64H.671v-.562h4.437zm0 0"/></symbol><symbol overflow="visible" id="s"><path d="M6.469-2.484c-.074 0-.172.011-.297.03-.117.024-.211.048-.281.079a.49.49 0 0 0-.188.203.687.687 0 0 0-.047.266V-.703c.008.125.016.226.016.297-.387.18-.777.312-1.172.406-.387.094-.762.14-1.125.14-.406 0-.793-.074-1.156-.218a2.815 2.815 0 0 1-.969-.64 3.073 3.073 0 0 1-.672-1.016 3.576 3.576 0 0 1-.234-1.329c0-.476.078-.921.234-1.328a2.96 2.96 0 0 1 .672-1.046c.27-.301.598-.532.984-.688.383-.164.797-.25 1.235-.25.351 0 .66.043.922.125.257.086.488.188.687.313l.188-.297h.343l.047 2.171h-.36a5.707 5.707 0 0 0-.234-.703 2.43 2.43 0 0 0-.343-.625A1.589 1.589 0 0 0 3.453-6c-.312 0-.594.07-.844.203-.25.125-.464.313-.64.563-.18.242-.32.543-.422.906-.094.367-.14.773-.14 1.219 0 .398.046.773.14 1.125.101.343.242.648.422.906.176.262.398.465.672.61.28.148.593.218.937.218.258 0 .492-.035.703-.11.207-.081.36-.163.453-.25.02-.156.032-.312.032-.468v-.735c0-.125-.016-.234-.047-.328a.337.337 0 0 0-.203-.203 1.205 1.205 0 0 0-.391-.11 3.701 3.701 0 0 0-.39-.03v-.329h2.734zm0 0"/></symbol><symbol overflow="visible" id="t"><path d="M2.984 0H.313v-.39c.05-.051.124-.114.218-.188.094-.082.203-.164.328-.25.07-.05.16-.102.266-.156a7.97 7.97 0 0 1 .36-.204 1.97 1.97 0 0 0 .577-.437.803.803 0 0 0 .094-.219c.031-.093.047-.222.047-.39 0-.227-.062-.399-.187-.516a.72.72 0 0 0-.5-.172.875.875 0 0 0-.36.078.446.446 0 0 0-.234.203c.008.063.023.137.047.22.02.085.031.163.031.233 0 .075-.031.141-.094.204-.054.054-.14.078-.265.078A.267.267 0 0 1 .42-2a.42.42 0 0 1-.077-.266c0-.101.023-.207.078-.312.062-.102.144-.195.25-.281.113-.094.242-.164.39-.22.157-.05.32-.077.5-.077.395 0 .708.09.938.265.227.18.344.414.344.704 0 .136-.024.261-.063.374a.71.71 0 0 1-.203.297 1.503 1.503 0 0 1-.36.266l-.609.281a5.24 5.24 0 0 0-.468.235C1.004-.66.89-.582.797-.5h2.187zm0 0"/></symbol></defs><use xlink:href="#a" x="48.433" y="79.607"/><use xlink:href="#b" x="61.285" y="79.607"/><use xlink:href="#c" x="74.125" y="79.607"/><use xlink:href="#a" x="86.977" y="79.607"/><path d="M46.137 68.434h51.027v36.851H46.137zm0 0" fill="none" stroke-width="1.417" stroke="#2aa198" stroke-opacity=".99"/><use xlink:href="#a" x="48.62" y="102.284"/><use xlink:href="#b" x="61.472" y="102.284"/><use xlink:href="#c" x="74.312" y="102.284"/><use xlink:href="#a" x="87.164" y="102.284"/><path d="M53.309 82.441v8.504M65.535 82.441v8.504M77.766 82.441v8.504M89.992 82.441v8.504" fill="none" stroke-width=".75" stroke="#000"/><use xlink:href="#d" x="161.984" y="79.772"/><use xlink:href="#c" x="174.836" y="79.772"/><use xlink:href="#b" x="187.676" y="79.772"/><use xlink:href="#a" x="200.528" y="79.772"/><path d="M159.523 68.434h51.024v36.851h-51.024zm0 0" fill="none" stroke-width="1.417" stroke="#2aa198" stroke-opacity=".99"/><use xlink:href="#d" x="162.172" y="102.45"/><use xlink:href="#c" x="175.024" y="102.45"/><use xlink:href="#b" x="187.864" y="102.45"/><use xlink:href="#a" x="200.716" y="102.45"/><path d="M166.695 82.605v8.504M178.922 82.605v8.504M191.148 82.605v8.504M203.379 82.605v8.504" fill="none" stroke-width=".75" stroke="#000"/><use xlink:href="#a" x="105.479" y="79.772"/><use xlink:href="#b" x="118.331" y="79.772"/><use xlink:href="#b" x="131.171" y="79.772"/><use xlink:href="#d" x="144.023" y="79.772"/><path d="M102.832 68.434h51.023v36.851h-51.023zm0 0" fill="none" stroke-width="1.417" stroke="#dc322f" stroke-opacity=".99"/><use xlink:href="#a" x="105.479" y="102.45"/><use xlink:href="#a" x="118.328" y="102.45" fill="#dc322f"/><use xlink:href="#b" x="131.178" y="102.45"/><use xlink:href="#d" x="144.03" y="102.45"/><path d="M110 82.605v8.504M134.457 82.605v8.504M146.688 82.605v8.504" fill="none" stroke-width=".75" stroke="#000"/><use xlink:href="#e" x="119.084" y="91.111" fill="#dc322f"/><use xlink:href="#f" x="10.107" y="79.772"/><use xlink:href="#g" x="15.588" y="79.772"/><use xlink:href="#h" x="18.963" y="79.772"/><use xlink:href="#i" x="24.48" y="79.772"/><use xlink:href="#j" x="27.288" y="79.772"/><use xlink:href="#k" x="32.247" y="79.772"/><use xlink:href="#l" x="37.062" y="79.772"/><use xlink:href="#f" x="-.4" y="8.906"/><use xlink:href="#m" x="5.081" y="8.906"/><use xlink:href="#n" x="9.608" y="8.906"/><use xlink:href="#n" x="12.713" y="8.906"/><use xlink:href="#o" x="15.818" y="8.906"/><use xlink:href="#p" x="20.165" y="8.906"/><use xlink:href="#q" x="23.846" y="8.906"/><use xlink:href="#r" x="29.156" y="8.906"/><use xlink:href="#f" x="34.943" y="8.906"/><g><use xlink:href="#s" x="30.676" y="99.615"/></g><g><use xlink:href="#t" x="37.201" y="101.415"/></g><g><use xlink:href="#a" x="48.447" y="8.916"/></g><g><use xlink:href="#b" x="62.043" y="8.916"/></g><g><use xlink:href="#c" x="75.651" y="8.916"/></g><g><use xlink:href="#a" x="89.247" y="8.916"/></g><g><use xlink:href="#a" x="102.843" y="8.916"/></g><g><use xlink:href="#b" x="116.439" y="8.916"/></g><g><use xlink:href="#b" x="130.047" y="8.916"/></g><g><use xlink:href="#d" x="143.643" y="8.916"/></g><g><use xlink:href="#d" x="157.239" y="8.916"/></g><g><use xlink:href="#c" x="170.835" y="8.916"/></g><g><use xlink:href="#b" x="184.443" y="8.916"/></g><g><use xlink:href="#a" x="198.039" y="8.916"/></g></svg>