<svg xmlns="http://www.w3.org/2000/svg" xmlns:xlink="http://www.w3.org/1999/xlink" width="420.518" height="322.393" viewBox="0 0 315.389 241.795"><defs><symbol overflow="visible" id="b"><path d="M1.36-4.922h2.546L3.141-.984h1.593L4.547 0H.063L.25-.984h1.61l.577-2.954H1.173zm1.718-2.39h1.297l-.297 1.5H2.797zm0 0"/></symbol><symbol overflow="visible" id="c"><path d="M2.781-4c-.324 0-.605.21-.844.625-.23.418-.343.922-.343 1.516 0 .293.054.523.172.687.125.168.296.25.515.25.332 0 .617-.203.86-.61.25-.405.375-.898.375-1.484 0-.3-.07-.539-.204-.718A.643.643 0 002.782-4zm.969 0l.547-2.844h1.297L4.266 0H2.984l.125-.734a2.005 2.005 0 01-.656.64 1.47 1.47 0 01-.765.219c-.43 0-.766-.16-1.016-.484-.25-.32-.375-.758-.375-1.313 0-.375.039-.75.125-1.125.094-.383.223-.734.39-1.047.196-.375.446-.664.75-.875a1.69 1.69 0 01.985-.328c.332 0 .601.094.812.281.22.188.348.446.391.766zm0 0"/></symbol><symbol overflow="visible" id="d"><path d="M5.39-4.922L3.298-2.484 4.516 0H3.203l-.75-1.563L1.125 0H-.328l2.25-2.61-1.14-2.312h1.327l.641 1.39 1.188-1.39zm0 0"/></symbol><symbol overflow="visible" id="g"><path d="M1.672-.906l-.547 2.781H-.156l1.312-6.797h1.297l-.156.734c.207-.28.43-.492.672-.64.238-.145.5-.219.781-.219.426 0 .766.164 1.016.484.25.325.375.762.375 1.313 0 .375-.047.758-.141 1.14-.094.387-.219.731-.375 1.032-.21.387-.469.683-.781.89a1.69 1.69 0 01-.969.313c-.324 0-.594-.09-.813-.266-.21-.187-.34-.441-.39-.765zm.969-.016c.332 0 .613-.207.843-.625.239-.414.36-.914.36-1.5 0-.3-.063-.531-.188-.687a.602.602 0 00-.5-.25c-.336 0-.625.203-.875.609-.242.406-.36.898-.36 1.469 0 .312.063.558.188.734.133.168.313.25.532.25zm0 0"/></symbol><symbol overflow="visible" id="h"><path d="M3.734-3c0-.32-.07-.566-.203-.734C3.395-3.91 3.203-4 2.953-4c-.367 0-.668.2-.906.594-.242.398-.36.898-.36 1.5 0 .312.067.558.204.734a.7.7 0 00.578.266c.351 0 .648-.196.89-.594.25-.406.375-.906.375-1.5zM.391-1.875c0-.938.238-1.695.718-2.281.489-.594 1.13-.89 1.922-.89.625 0 1.114.179 1.469.53.352.356.531.844.531 1.47 0 .948-.246 1.714-.734 2.296-.492.586-1.125.875-1.906.875-.625 0-1.118-.176-1.47-.531-.355-.352-.53-.844-.53-1.469zm0 0"/></symbol><symbol overflow="visible" id="i"><path d="M4.813-4.766l-.22 1.11A2.346 2.346 0 003.876-4a2.54 2.54 0 00-.797-.125c-.273 0-.492.055-.656.156-.156.106-.235.242-.235.406 0 .137.051.247.157.329.113.086.36.18.734.28l.328.095c.375.105.645.261.813.468.176.211.265.48.265.813 0 .531-.203.95-.609 1.25-.398.305-.953.453-1.672.453a5.54 5.54 0 01-.922-.078 4.982 4.982 0 01-.89-.234l.234-1.125c.25.167.508.296.781.39.282.086.555.125.828.125.32 0 .57-.05.75-.156.188-.113.282-.27.282-.469a.378.378 0 00-.141-.312c-.086-.082-.324-.18-.719-.297l-.375-.094c-.367-.113-.633-.27-.797-.469-.168-.207-.25-.472-.25-.797 0-.488.196-.882.594-1.187.406-.313.938-.469 1.594-.469.281 0 .555.027.828.078.27.043.54.11.813.203zm0 0"/></symbol><symbol overflow="visible" id="y"><path d="M2.64-.922c.32 0 .598-.203.829-.61.238-.413.36-.921.36-1.515 0-.3-.063-.531-.188-.687a.602.602 0 00-.5-.25c-.344 0-.637.203-.875.609-.243.406-.36.898-.36 1.469 0 .312.063.558.188.734a.66.66 0 00.547.25zm-.968.016L1.5 0H.203l1.328-6.844h1.297l-.531 2.657c.187-.282.398-.493.64-.641a1.57 1.57 0 01.797-.219c.426 0 .766.164 1.016.484.25.325.375.762.375 1.313 0 .387-.047.773-.14 1.156-.087.375-.212.715-.376 1.016-.199.387-.453.683-.765.89a1.69 1.69 0 01-.969.313c-.336 0-.605-.09-.813-.266-.21-.187-.34-.441-.39-.765zm0 0"/></symbol><symbol overflow="visible" id="M"><path d="M.406-1.14H1.86l.829-4.266-1.407.343.219-1.171 1.438-.329h1.234L3.125-1.14h1.36L4.264 0H.189zm0 0"/></symbol><symbol overflow="visible" id="N"><path d="M.39-2.344h4.641v1.047H.391zm0-2h4.641v1.032H.391zm0 0"/></symbol><symbol overflow="visible" id="Q"><path d="M2.547-6.844H4.78L4.61-6H3.547L2.312.36h1.063l-.156.828H.984zm0 0"/></symbol><symbol overflow="visible" id="R"><path d="M2.688 1.188H.467L.626.359h1.063L2.921-6H1.859l.172-.844h2.235zm0 0"/></symbol><symbol overflow="visible" id="S"><path d="M4.734-6.828c-.68.918-1.187 1.82-1.53 2.703a7.1 7.1 0 00-.517 2.61c0 .417.04.85.126 1.296.082.446.207.914.374 1.407h-.984a8.067 8.067 0 01-.547-1.47 6.202 6.202 0 01-.172-1.452c0-.844.188-1.692.563-2.547C2.43-5.133 3-5.984 3.75-6.828zm0 0"/></symbol><symbol overflow="visible" id="T"><path d="M1.906-1.61h1.375L3.047-.421 1.859 1.266H.922l.75-1.688zm0 0"/></symbol><symbol overflow="visible" id="U"><path d="M.5 1.188C1.176.27 1.688-.625 2.031-1.5a7.195 7.195 0 00.516-2.625c0-.414-.043-.848-.125-1.297-.086-.445-.211-.914-.375-1.406h1c.226.5.398.996.515 1.484.126.48.188.953.188 1.422 0 .856-.195 1.711-.578 2.563-.375.855-.938 1.703-1.688 2.546zm0 0"/></symbol><symbol overflow="visible" id="e"><path d="M1.719-.594c.207 0 .383-.133.531-.406.156-.27.234-.598.234-.984 0-.188-.043-.332-.125-.438a.369.369 0 00-.328-.172c-.219 0-.406.137-.562.406-.157.262-.235.579-.235.954 0 .199.04.355.125.468.094.118.211.172.36.172zm-.625 0L.969 0H.14L1-4.438h.828L1.5-2.718a1.26 1.26 0 01.406-.407c.164-.094.336-.14.516-.14.281 0 .5.105.656.312.164.21.25.492.25.844 0 .25-.031.5-.094.75A2.71 2.71 0 013-.703c-.137.25-.305.445-.5.578-.2.133-.414.203-.64.203a.768.768 0 01-.516-.172.808.808 0 01-.25-.5zm0 0"/></symbol><symbol overflow="visible" id="f"><path d="M1.469-1.906h-.453l.156-.735h.437c.239 0 .43-.05.579-.156.144-.113.218-.25.218-.406a.356.356 0 00-.172-.313c-.105-.07-.257-.109-.453-.109-.156 0-.336.023-.531.063a6.11 6.11 0 00-.594.171l.156-.765c.196-.063.383-.11.563-.14.188-.032.363-.048.531-.048.395 0 .707.094.938.282.238.187.36.433.36.734a.915.915 0 01-.282.672c-.18.187-.422.308-.735.36.25.073.438.187.563.343.125.156.188.36.188.61 0 .437-.157.788-.47 1.046-.312.25-.734.375-1.265.375-.2 0-.406-.023-.625-.062a6.283 6.283 0 01-.672-.141l.157-.781c.187.094.378.168.578.219.195.042.394.062.593.062.29 0 .516-.063.672-.188.157-.132.235-.328.235-.578a.445.445 0 00-.188-.375.791.791 0 00-.484-.14zm0 0"/></symbol><symbol overflow="visible" id="v"><path d="M1.016-.734h1.75L2.625 0H-.078l.14-.719.782-.703c.101-.094.242-.219.422-.375.757-.664 1.14-1.144 1.14-1.437a.37.37 0 00-.156-.313c-.105-.082-.25-.125-.438-.125-.156 0-.335.031-.53.094-.2.055-.415.133-.641.234l.14-.765c.207-.07.41-.13.61-.172.207-.04.41-.063.609-.063.363 0 .66.094.89.282.227.18.344.414.344.703 0 .468-.433 1.074-1.296 1.812l-.11.094zm0 0"/></symbol><symbol overflow="visible" id="w"><path d="M1.234-1.047h.907l-.157.766-.78 1.094h-.61l.5-1.094zm0 0"/></symbol><symbol overflow="visible" id="x"><path d="M1.39-2.125c0-.102.036-.188.11-.25a.35.35 0 01.25-.11c.102 0 .188.04.25.11.07.063.11.148.11.25a.35.35 0 01-.11.25.312.312 0 01-.25.11.369.369 0 01-.25-.094.35.35 0 01-.11-.266zm-.296.875c0 .21.031.367.093.469.063.105.16.156.297.156a.505.505 0 00.344-.14c.102-.102.188-.25.25-.438.102-.29.188-.602.25-.938.063-.332.094-.617.094-.859 0-.219-.031-.375-.094-.469a.329.329 0 00-.297-.156.484.484 0 00-.344.156.954.954 0 00-.25.422c-.105.281-.187.59-.25.922a4.852 4.852 0 00-.093.875zm2.172-1.813c0 .407-.055.82-.157 1.235a4.78 4.78 0 01-.375 1.094 1.699 1.699 0 01-.562.609 1.48 1.48 0 01-.75.203c-.367 0-.652-.11-.86-.328C.353-.477.25-.797.25-1.203c0-.395.047-.8.14-1.219.102-.426.235-.785.391-1.078.145-.258.332-.46.563-.61.226-.156.476-.234.75-.234.363 0 .648.117.86.344.206.23.312.543.312.938zm0 0"/></symbol><symbol overflow="visible" id="j"><path d="M2.125-3.297a.55.55 0 01.172-.406.532.532 0 01.812 0c.125.117.188.25.188.406a.574.574 0 01-.172.422.572.572 0 01-.422.172.56.56 0 01-.578-.594zm.578-2.687c-.406 0-.715.226-.922.671-.199.45-.297 1.125-.297 2.032 0 .918.098 1.601.297 2.047.207.437.516.656.922.656.414 0 .723-.219.922-.656.207-.446.313-1.13.313-2.047 0-.906-.106-1.582-.313-2.031-.2-.446-.508-.672-.922-.672zm0-.704c.695 0 1.223.293 1.578.875.364.575.547 1.418.547 2.532 0 1.125-.183 1.976-.547 2.547-.355.574-.883.859-1.578.859-.7 0-1.23-.285-1.594-.86C.754-1.304.58-2.155.58-3.28c0-1.114.175-1.957.53-2.531.364-.583.895-.875 1.594-.875zm0 0"/></symbol><symbol overflow="visible" id="k"><path d="M.61-6.563h4.124v.375L2.391 0h-.922L3.75-5.813H.61zm0 0"/></symbol><symbol overflow="visible" id="l"><path d="M3.406-3.516c.438.118.766.32.985.61.226.293.343.656.343 1.094 0 .605-.203 1.078-.609 1.421-.398.344-.953.516-1.672.516-.305 0-.61-.031-.922-.094A5.407 5.407 0 01.61-.203v-.875a3.632 3.632 0 001.735.453c.488 0 .863-.11 1.125-.328.258-.219.39-.535.39-.953 0-.375-.132-.672-.39-.89-.262-.227-.617-.345-1.063-.345h-.672v-.734h.672c.414 0 .735-.086.953-.266.227-.175.344-.425.344-.75 0-.332-.105-.586-.312-.765-.211-.188-.512-.282-.907-.282-.261 0-.53.032-.812.094a6.498 6.498 0 00-.875.266v-.828c.351-.094.664-.16.937-.203.282-.051.532-.079.75-.079.633 0 1.145.165 1.532.485.382.324.578.75.578 1.281 0 .367-.106.668-.313.906-.199.243-.492.407-.875.5zm0 0"/></symbol><symbol overflow="visible" id="m"><path d="M3.234-5.75L1.156-2.281h2.078zm-.156-.813H4.11v4.282h.875v.719H4.11V0h-.875v-1.563H.454v-.843zm0 0"/></symbol><symbol overflow="visible" id="n"><path d="M2.156-1.344H3.25V0H2.156zm0 0"/></symbol><symbol overflow="visible" id="o"><path d="M1.188-.75h1.375v-5.016l-1.485.344v-.812l1.484-.329h.891V-.75h1.36V0H1.188zm0 0"/></symbol><symbol overflow="visible" id="p"><path d="M4.36-6.422v.828a2.258 2.258 0 00-.594-.25 2.298 2.298 0 00-.657-.093c-.562 0-.992.214-1.28.64-.282.43-.423 1.055-.423 1.875.133-.3.328-.531.578-.687.25-.157.536-.235.86-.235.633 0 1.125.2 1.469.594.343.387.515.934.515 1.64 0 .712-.18 1.262-.531 1.657-.356.387-.856.578-1.5.578-.774 0-1.336-.27-1.688-.813C.754-1.238.58-2.101.58-3.28c0-1.102.21-1.946.64-2.531.426-.583 1.047-.875 1.86-.875.218 0 .429.027.64.078.219.043.43.105.64.187zM2.765-3.64c-.375 0-.672.137-.891.407-.21.273-.313.648-.313 1.125 0 .48.102.859.313 1.14.219.274.516.406.89.406.395 0 .692-.128.891-.39.196-.258.297-.645.297-1.156 0-.508-.101-.891-.297-1.141-.199-.258-.496-.39-.89-.39zm0 0"/></symbol><symbol overflow="visible" id="q"><path d="M.906-6.563h3.328v.75H1.72v1.61c.125-.04.25-.07.375-.094a1.72 1.72 0 01.39-.047c.676 0 1.211.203 1.61.61.406.398.61.937.61 1.625 0 .699-.212 1.246-.626 1.64-.418.399-.992.594-1.719.594-.343 0-.664-.027-.953-.078a3.303 3.303 0 01-.781-.203v-.906c.27.156.54.273.813.343.269.063.55.094.843.094.489 0 .864-.125 1.125-.375.27-.258.406-.629.406-1.11 0-.468-.14-.831-.421-1.093-.274-.258-.653-.39-1.141-.39-.242 0-.477.03-.703.093a3.237 3.237 0 00-.64.234zm0 0"/></symbol><symbol overflow="visible" id="r"><path d="M1.64-.75h3.016V0H.672v-.75c.539-.57 1.015-1.078 1.422-1.516.414-.445.703-.765.86-.953.288-.351.487-.64.593-.86a1.61 1.61 0 00.156-.687c0-.363-.11-.648-.328-.859-.219-.207-.516-.313-.89-.313-.262 0-.54.055-.829.157a4.724 4.724 0 00-.937.437v-.906c.3-.133.597-.238.89-.313.29-.082.579-.125.86-.125.644 0 1.16.172 1.547.516.394.344.593.793.593 1.344 0 .281-.07.562-.203.844-.125.28-.336.593-.625.937-.168.188-.406.453-.719.797-.312.336-.789.836-1.421 1.5zm0 0"/></symbol><symbol overflow="visible" id="s"><path d="M2.703-3.11c-.398 0-.703.11-.922.329-.21.219-.312.531-.312.937 0 .407.11.727.328.953.219.22.52.329.906.329.406 0 .711-.11.922-.329.219-.226.328-.546.328-.953 0-.406-.11-.718-.328-.937-.219-.219-.527-.328-.922-.328zm-.765-.374c-.387-.094-.684-.27-.891-.532-.211-.27-.313-.593-.313-.968 0-.52.176-.93.532-1.235.351-.312.832-.468 1.437-.468.613 0 1.098.156 1.453.468.352.305.532.715.532 1.235 0 .375-.11.699-.329.968-.21.262-.5.438-.875.532.438.093.77.289 1 .578.239.293.36.672.36 1.14 0 .594-.196 1.059-.578 1.391-.375.336-.899.5-1.563.5-.668 0-1.187-.164-1.562-.5C.766-.707.578-1.165.578-1.75c0-.469.113-.848.344-1.14.238-.301.578-.5 1.015-.594zm-.329-1.407c0 .344.094.61.282.797.187.188.457.282.812.282.363 0 .64-.094.828-.282.188-.187.281-.453.281-.797 0-.363-.093-.64-.28-.828C3.343-5.906 3.065-6 2.702-6c-.355 0-.625.102-.812.297-.188.187-.282.46-.282.812zm0 0"/></symbol><symbol overflow="visible" id="t"><path d="M2.625-2.906c.375 0 .664-.133.875-.406.219-.282.328-.66.328-1.141 0-.477-.11-.852-.328-1.125-.21-.27-.5-.406-.875-.406-.398 0-.695.132-.89.39-.2.262-.298.64-.298 1.14 0 .513.098.9.297 1.157.196.262.493.39.891.39zM1.031-.141v-.812c.188.105.383.187.594.25.207.055.426.078.656.078.563 0 .985-.207 1.266-.625.289-.426.437-1.05.437-1.875a1.528 1.528 0 01-.578.672c-.25.156-.539.234-.86.234-.636 0-1.124-.191-1.468-.578C.734-3.19.562-3.742.562-4.453c0-.707.176-1.254.532-1.64.351-.395.86-.595 1.515-.595.758 0 1.317.278 1.672.829.352.554.532 1.414.532 2.578 0 1.105-.215 1.949-.641 2.531-.43.586-1.047.875-1.86.875-.218 0-.437-.027-.656-.078a3.364 3.364 0 01-.625-.188zm0 0"/></symbol><symbol overflow="visible" id="u"><path d="M5.031-3.422v.766a2.696 2.696 0 01-.64.375 1.72 1.72 0 01-.657.125c-.273 0-.574-.078-.906-.235a3.595 3.595 0 00-.703-.25 1.761 1.761 0 00-.453-.062c-.23 0-.45.047-.656.14-.211.086-.418.22-.625.407v-.766c.226-.176.445-.3.656-.375.219-.082.445-.125.687-.125.157 0 .305.016.454.047.144.031.328.094.546.188.032.011.079.03.141.062.344.156.648.234.922.234.207 0 .41-.039.61-.125.195-.093.405-.226.624-.406zm0 0"/></symbol><symbol overflow="visible" id="z"><path d="M2.703-5.781l-.937 3.36H3.64zm-.531-.782H3.25L5.25 0h-.906l-.485-1.703H1.563L1.078 0H.156zm0 0"/></symbol><symbol overflow="visible" id="A"><path d="M4.719-.234c-.23.125-.465.214-.703.265-.23.063-.48.094-.75.094-.844 0-1.5-.297-1.97-.89C.837-1.36.61-2.196.61-3.282c0-1.063.235-1.895.704-2.5.468-.602 1.117-.907 1.953-.907.27 0 .52.032.75.094.238.063.472.157.703.282v.906a2.552 2.552 0 00-.703-.407c-.25-.093-.5-.14-.75-.14-.575 0-1.008.226-1.297.672-.293.437-.438 1.105-.438 2 0 .906.145 1.586.438 2.031.289.438.722.656 1.297.656.257 0 .507-.047.75-.14.25-.094.484-.227.703-.407zm0 0"/></symbol><symbol overflow="visible" id="B"><path d="M.203-6.563H5.22v.75H3.156V0h-.89v-5.813H.203zm0 0"/></symbol><symbol overflow="visible" id="C"><path d="M4.86-.547a2.54 2.54 0 01-.813.5 2.67 2.67 0 01-.969.172c-.824 0-1.469-.297-1.937-.89C.68-1.36.453-2.196.453-3.282c0-1.063.234-1.895.703-2.5.469-.602 1.117-.907 1.953-.907.27 0 .532.043.782.125.257.075.504.196.734.36v.906a2.53 2.53 0 00-.734-.5 1.992 1.992 0 00-.782-.156c-.586 0-1.023.226-1.312.672-.281.437-.422 1.105-.422 2 0 .918.14 1.594.422 2.031.281.438.707.656 1.281.656.195 0 .367-.02.516-.062.156-.051.289-.125.406-.219v-1.766h-.953v-.718h1.812zm0 0"/></symbol><symbol overflow="visible" id="D"><path d="M3.047-2.547V-.64c.32-.007.57-.097.75-.265.176-.176.265-.41.265-.703 0-.27-.085-.477-.25-.625-.156-.157-.414-.258-.765-.313zm-.438-.844v-1.812c-.312.012-.558.101-.734.266-.168.167-.25.386-.25.656 0 .261.078.465.234.61.164.148.414.241.75.28zm.438 4.72h-.438L2.594 0a5.042 5.042 0 01-.89-.11 5.375 5.375 0 01-.876-.296v-.797c.3.187.598.328.89.422.302.094.598.148.891.156v-2.016c-.593-.082-1.043-.257-1.343-.53-.293-.27-.438-.626-.438-1.063 0-.457.156-.82.469-1.094.312-.281.75-.442 1.312-.484v-1.032h.438v1.032c.226.023.46.054.703.093.238.043.477.106.719.188v.75a3.811 3.811 0 00-.735-.282c-.23-.07-.46-.113-.687-.125v1.891c.601.094 1.062.281 1.375.563.312.28.469.652.469 1.109 0 .45-.172.824-.516 1.125-.336.305-.777.465-1.328.484zm0 0"/></symbol><symbol overflow="visible" id="E"><path d="M1.938-.688v2.563H.655v-6.797h1.281v.734c.133-.28.313-.492.532-.64a1.38 1.38 0 01.781-.219c.563 0 .992.23 1.297.688.312.449.469 1.086.469 1.906 0 .836-.157 1.476-.47 1.922-.312.437-.76.656-1.343.656-.262 0-.496-.07-.703-.203-.21-.133-.398-.336-.563-.61zm1.796-1.78c0-.47-.078-.837-.234-1.11-.156-.27-.375-.406-.656-.406s-.508.136-.672.406c-.156.273-.235.64-.235 1.11 0 .48.079.855.235 1.124.164.274.39.407.672.407.281 0 .5-.133.656-.407.156-.27.234-.644.234-1.125zm0 0"/></symbol><symbol overflow="visible" id="F"><path d="M3.078-2.313c-.48 0-.82.063-1.015.188-.188.125-.282.336-.282.625 0 .23.067.414.203.547.133.125.313.187.532.187.343 0 .609-.125.796-.375.188-.257.282-.617.282-1.078v-.094zm1.797-.5V0H3.594v-.547c-.156.219-.36.387-.61.5a1.858 1.858 0 01-.796.172c-.563 0-1-.145-1.313-.438-.313-.3-.469-.718-.469-1.25 0-.57.188-.992.563-1.265.375-.27.953-.406 1.734-.406h.89v-.22a.529.529 0 00-.234-.468c-.148-.113-.367-.172-.656-.172-.312 0-.617.043-.906.125-.281.074-.578.2-.89.375v-1.11c.28-.112.566-.194.859-.25.289-.062.601-.093.937-.093.79 0 1.348.168 1.672.5.332.324.5.902.5 1.734zm0 0"/></symbol><symbol overflow="visible" id="G"><path d="M5.063-3.563a1.504 1.504 0 00-.5-.28 1.778 1.778 0 00-.625-.11c-.274 0-.512.047-.72.14-.198.094-.355.235-.468.422a1.46 1.46 0 00-.14.407 4.022 4.022 0 00-.047.718V0H1.28v-4.922h1.282v.766c.124-.282.316-.5.578-.657.257-.156.566-.234.921-.234.176 0 .348.027.516.078.164.043.328.102.484.172zm0 0"/></symbol><symbol overflow="visible" id="H"><path d="M3.031-6.313v1.391H4.72v.984H3.03v2.329c0 .218.051.382.156.484.114.094.297.14.547.14h.985V0H3.64c-.743 0-1.243-.113-1.5-.344-.262-.238-.391-.68-.391-1.328v-2.266H.484v-.984H1.75v-1.39zm0 0"/></symbol><symbol overflow="visible" id="I"><path d="M.969-4.922h2.547v3.938h1.609V0h-4.5v-.984h1.61v-2.954H.968zm1.265-2.39h1.282v1.5H2.234zm0 0"/></symbol><symbol overflow="visible" id="J"><path d="M2.703-4c-.305 0-.543.137-.719.406-.18.274-.265.653-.265 1.14 0 .481.086.856.265 1.126.176.273.414.406.72.406.312 0 .554-.133.733-.406.176-.27.266-.645.266-1.125 0-.488-.09-.867-.265-1.14-.18-.27-.422-.407-.735-.407zM.438-2.453c0-.79.203-1.422.609-1.89.414-.47.969-.704 1.656-.704.695 0 1.25.234 1.656.703.414.469.625 1.102.625 1.89 0 .794-.21 1.423-.625 1.892-.406.46-.96.687-1.656.687-.687 0-1.242-.227-1.656-.688C.64-1.03.437-1.66.437-2.452zm0 0"/></symbol><symbol overflow="visible" id="K"><path d="M4.703-3.188V0H3.422v-3c0-.352-.055-.61-.156-.766C3.172-3.922 3.008-4 2.78-4a.622.622 0 00-.547.313c-.136.21-.203.5-.203.874V0H.75v-4.922h1.281v.734c.094-.269.25-.476.469-.625.219-.156.484-.234.797-.234.469 0 .816.156 1.047.469.238.312.36.777.36 1.39zm0 0"/></symbol><symbol overflow="visible" id="P"><path d="M1.14-2.953h2.75l-.562-.578.516-.531 1.281 1.28v.626L3.844-.875l-.516-.531.563-.563H1.14v1.094H.297v-3.188h.844zm0 0"/></symbol><clipPath id="a"><path d="M187 0h128v241.793H187zm0 0"/></clipPath><clipPath id="O"><path d="M0 0h315.387v241.793H0zm0 0"/></clipPath></defs><g clip-path="url(#a)"><path d="M187.371.586h127.281v240.45h-127.28zm0 0" fill-rule="evenodd" fill="#00f" fill-opacity=".095"/></g><path d="M18.422 17.918h128.797v218.191H18.422zm0 0" fill-rule="evenodd" fill="#00f" fill-opacity=".095"/><use xlink:href="#b" x="256.982" y="47.631"/><use xlink:href="#c" x="262.4" y="47.631"/><use xlink:href="#d" x="267.818" y="47.631"/><use xlink:href="#e" x="273.238" y="49.431"/><use xlink:href="#f" x="276.76" y="51.231"/><use xlink:href="#g" x="293.608" y="47.631"/><use xlink:href="#h" x="299.026" y="47.631"/><use xlink:href="#i" x="304.444" y="47.631"/><path d="M266.383 52.328h38.07" fill="none" stroke-width=".75" stroke="#000"/><use xlink:href="#j" x="275.125" y="63.071"/><use xlink:href="#k" x="275.217" y="125.982"/><use xlink:href="#l" x="275.217" y="90.16"/><use xlink:href="#m" x="274.971" y="99.02"/><use xlink:href="#n" x="265.866" y="206.868"/><use xlink:href="#n" x="271.284" y="206.868"/><use xlink:href="#n" x="276.702" y="206.868"/><use xlink:href="#o" x="264.363" y="215.855"/><use xlink:href="#p" x="269.781" y="215.855"/><use xlink:href="#l" x="275.199" y="215.855"/><use xlink:href="#q" x="292.817" y="152.944"/><use xlink:href="#p" x="292.365" y="188.893"/><use xlink:href="#r" x="297.783" y="188.893"/><use xlink:href="#k" x="292.365" y="197.88"/><use xlink:href="#l" x="297.783" y="197.88"/><use xlink:href="#k" x="292.365" y="170.919"/><use xlink:href="#r" x="297.783" y="170.919"/><use xlink:href="#s" x="292.365" y="161.931"/><use xlink:href="#t" x="297.783" y="161.931"/><use xlink:href="#l" x="292.778" y="215.855"/><use xlink:href="#t" x="298.196" y="215.855"/><use xlink:href="#t" x="292.778" y="224.842"/><use xlink:href="#r" x="298.196" y="224.842"/><use xlink:href="#m" x="292.844" y="233.83"/><use xlink:href="#m" x="298.262" y="233.83"/><g fill="maroon"><use xlink:href="#m" x="292.844" y="179.906"/><use xlink:href="#r" x="298.262" y="179.906"/></g><use xlink:href="#m" x="292.998" y="143.957"/><use xlink:href="#o" x="298.416" y="143.957"/><use xlink:href="#l" x="292.817" y="108.008"/><use xlink:href="#q" x="298.235" y="108.008"/><use xlink:href="#l" x="292.817" y="99.02"/><use xlink:href="#t" x="298.235" y="99.02"/><use xlink:href="#p" x="292.861" y="116.995"/><use xlink:href="#o" x="298.279" y="116.995"/><use xlink:href="#p" x="292.861" y="90.033"/><use xlink:href="#k" x="298.279" y="90.033"/><use xlink:href="#k" x="292.835" y="81.046"/><use xlink:href="#o" x="298.253" y="81.046"/><use xlink:href="#l" x="292.835" y="63.071"/><use xlink:href="#k" x="298.253" y="63.071"/><use xlink:href="#t" x="292.835" y="72.058"/><use xlink:href="#r" x="298.253" y="72.058"/><use xlink:href="#t" x="292.888" y="134.969"/><use xlink:href="#k" x="298.306" y="134.969"/><use xlink:href="#n" x="291.297" y="206.868"/><use xlink:href="#n" x="296.715" y="206.868"/><use xlink:href="#n" x="302.133" y="206.868"/><use xlink:href="#k" x="275.217" y="134.969"/><use xlink:href="#o" x="269.707" y="163.148"/><use xlink:href="#j" x="275.125" y="163.148"/><path d="M289.227 55.863h-2.688v24.492h2.688M289.227 81.855h-2.688v7.993h2.688M289.227 91.348h-2.688v25.992h2.688M289.227 128.332h-2.688v24.492h2.688M289.227 154.324h-2.688v45.492h2.688" fill="none" stroke-width=".672" stroke="#000"/><use xlink:href="#u" x="285.006" y="207.968"/><path d="M289.227 208.816h-2.688v25.993h2.688M299.75 125.871l-6.066-6.066m0 6.066l6.066-6.066" fill="none" stroke-width=".672" stroke="#000"/><use xlink:href="#b" x="220.964" y="8.92"/><use xlink:href="#c" x="226.382" y="8.92"/><use xlink:href="#d" x="231.8" y="8.92"/><use xlink:href="#e" x="237.22" y="10.72"/><use xlink:href="#v" x="240.742" y="12.52"/><use xlink:href="#w" x="244.264" y="10.72"/><use xlink:href="#x" x="247.786" y="10.72"/><path d="M197.55 12.117h38.071" fill="none" stroke-width=".75" stroke="#000"/><use xlink:href="#y" x="204.919" y="8.92"/><use xlink:href="#v" x="210.338" y="10.72"/><use xlink:href="#j" x="220.442" y="22.062"/><use xlink:href="#z" x="197.483" y="22.062"/><use xlink:href="#z" x="202.901" y="22.062"/><use xlink:href="#z" x="208.319" y="22.062"/><use xlink:href="#k" x="220.415" y="51.153"/><use xlink:href="#z" x="198.023" y="51.153"/><use xlink:href="#z" x="203.441" y="51.153"/><use xlink:href="#A" x="208.859" y="51.153"/><use xlink:href="#l" x="220.424" y="31.759"/><use xlink:href="#z" x="197.528" y="31.759"/><use xlink:href="#z" x="202.946" y="31.759"/><use xlink:href="#B" x="208.364" y="31.759"/><use xlink:href="#m" x="220.578" y="41.456"/><g fill="maroon"><use xlink:href="#z" x="197.891" y="41.456"/><use xlink:href="#z" x="203.309" y="41.456"/><use xlink:href="#C" x="208.727" y="41.456"/></g><use xlink:href="#n" x="218.877" y="80.371"/><use xlink:href="#n" x="224.295" y="80.371"/><use xlink:href="#n" x="229.713" y="80.371"/><use xlink:href="#n" x="197.538" y="80.371"/><use xlink:href="#n" x="202.956" y="80.371"/><use xlink:href="#n" x="208.374" y="80.371"/><use xlink:href="#o" x="219.945" y="89.94"/><use xlink:href="#q" x="225.363" y="89.94"/><use xlink:href="#t" x="230.781" y="89.94"/><use xlink:href="#B" x="197.526" y="89.94"/><use xlink:href="#B" x="202.944" y="89.94"/><use xlink:href="#B" x="208.362" y="89.94"/><use xlink:href="#k" x="220.415" y="60.977"/><use xlink:href="#z" x="197.483" y="60.977"/><use xlink:href="#B" x="202.901" y="60.977"/><use xlink:href="#z" x="208.319" y="60.977"/><use xlink:href="#o" x="219.945" y="70.547"/><use xlink:href="#j" x="225.363" y="70.547"/><g fill="maroon"><use xlink:href="#z" x="197.487" y="70.547"/><use xlink:href="#B" x="202.905" y="70.547"/><use xlink:href="#B" x="208.323" y="70.547"/></g><use xlink:href="#o" x="219.945" y="98.442"/><use xlink:href="#p" x="225.363" y="98.442"/><use xlink:href="#j" x="230.781" y="98.442"/><use xlink:href="#D" x="208.686" y="98.442"/><use xlink:href="#b" x="85.352" y="40.228"/><use xlink:href="#c" x="90.77" y="40.228"/><use xlink:href="#d" x="96.188" y="40.228"/><use xlink:href="#e" x="101.607" y="42.028"/><use xlink:href="#f" x="105.129" y="43.828"/><use xlink:href="#b" x="121.754" y="40.228"/><use xlink:href="#c" x="127.172" y="40.228"/><use xlink:href="#d" x="132.59" y="40.228"/><use xlink:href="#e" x="138.009" y="42.028"/><use xlink:href="#v" x="141.531" y="43.828"/><path d="M94.75 44.926h38.07" fill="none" stroke-width=".75" stroke="#000"/><use xlink:href="#j" x="103.495" y="55.668"/><use xlink:href="#k" x="103.587" y="118.579"/><use xlink:href="#l" x="103.587" y="82.757"/><use xlink:href="#m" x="103.341" y="91.617"/><use xlink:href="#n" x="94.235" y="199.464"/><use xlink:href="#n" x="99.653" y="199.464"/><use xlink:href="#n" x="105.071" y="199.464"/><use xlink:href="#o" x="92.732" y="208.452"/><use xlink:href="#q" x="98.15" y="208.452"/><use xlink:href="#k" x="103.568" y="208.452"/><g fill="maroon"><use xlink:href="#o" x="120.734" y="145.541"/><use xlink:href="#r" x="126.152" y="145.541"/></g><use xlink:href="#o" x="120.734" y="181.49"/><use xlink:href="#o" x="126.152" y="181.49"/><use xlink:href="#o" x="120.734" y="190.477"/><use xlink:href="#l" x="126.152" y="190.477"/><use xlink:href="#o" x="120.734" y="163.515"/><use xlink:href="#k" x="126.152" y="163.515"/><use xlink:href="#o" x="120.734" y="154.528"/><use xlink:href="#t" x="126.152" y="154.528"/><use xlink:href="#r" x="121.148" y="208.452"/><use xlink:href="#l" x="126.566" y="208.452"/><use xlink:href="#r" x="121.148" y="217.439"/><use xlink:href="#t" x="126.566" y="217.439"/><use xlink:href="#l" x="121.213" y="226.426"/><use xlink:href="#o" x="126.631" y="226.426"/><use xlink:href="#l" x="121.213" y="172.503"/><use xlink:href="#k" x="126.631" y="172.503"/><use xlink:href="#q" x="121.187" y="136.553" fill="maroon"/><use xlink:href="#q" x="121.187" y="100.604"/><use xlink:href="#l" x="126.605" y="100.604"/><use xlink:href="#q" x="121.187" y="91.617"/><use xlink:href="#t" x="126.605" y="91.617"/><use xlink:href="#p" x="121.231" y="109.591"/><use xlink:href="#o" x="126.649" y="109.591"/><use xlink:href="#p" x="121.231" y="82.63"/><use xlink:href="#k" x="126.649" y="82.63"/><use xlink:href="#k" x="121.205" y="73.642"/><use xlink:href="#o" x="126.623" y="73.642"/><g><use xlink:href="#k" x="121.205" y="55.668"/><use xlink:href="#l" x="126.623" y="55.668"/></g><g><use xlink:href="#k" x="121.205" y="64.655"/><use xlink:href="#t" x="126.623" y="64.655"/></g><g fill="maroon"><use xlink:href="#m" x="121.367" y="127.566"/></g><g><use xlink:href="#n" x="119.667" y="199.464"/><use xlink:href="#n" x="125.085" y="199.464"/><use xlink:href="#n" x="130.503" y="199.464"/></g><g fill="maroon"><use xlink:href="#k" x="103.587" y="127.566"/></g><g><use xlink:href="#o" x="98.076" y="155.744"/><use xlink:href="#j" x="103.494" y="155.744"/></g><path d="M117.598 48.457h-2.688v24.492h2.688M117.598 74.45h-2.688v7.991h2.688M117.598 83.941h-2.688v25.993h2.688" fill="none" stroke-width=".672" stroke="#000"/><path d="M117.598 120.926h-2.688v24.492h2.688" fill="none" stroke-width=".672" stroke="maroon"/><path d="M117.598 146.918h-2.688v45.492h2.688" fill="none" stroke-width=".672" stroke="#000"/><g><use xlink:href="#u" x="113.375" y="200.564"/></g><path d="M117.598 201.41h-2.688v25.992h2.688M128.121 118.469l-6.066-6.067m0 6.067l6.066-6.067" fill="none" stroke-width=".672" stroke="#000"/><g><use xlink:href="#b" x="47.834" y="70.388"/><use xlink:href="#c" x="53.252" y="70.388"/><use xlink:href="#d" x="58.67" y="70.388"/></g><g><use xlink:href="#e" x="64.09" y="72.188"/></g><g><use xlink:href="#f" x="67.612" y="73.988"/></g><g><use xlink:href="#w" x="71.134" y="72.188"/><use xlink:href="#x" x="74.655" y="72.188"/></g><path d="M24.422 73.586h38.07" fill="none" stroke-width=".75" stroke="#000"/><g><use xlink:href="#y" x="31.832" y="70.388"/></g><g><use xlink:href="#f" x="37.25" y="72.188"/></g><g><use xlink:href="#j" x="47.311" y="83.529"/></g><g><use xlink:href="#z" x="24.352" y="83.529"/><use xlink:href="#z" x="29.77" y="83.529"/><use xlink:href="#z" x="35.188" y="83.529"/></g><g><use xlink:href="#k" x="47.285" y="112.62"/></g><g><use xlink:href="#z" x="24.893" y="112.62"/><use xlink:href="#z" x="30.311" y="112.62"/><use xlink:href="#A" x="35.729" y="112.62"/></g><g><use xlink:href="#l" x="47.294" y="93.226"/></g><g><use xlink:href="#z" x="24.398" y="93.226"/><use xlink:href="#z" x="29.816" y="93.226"/><use xlink:href="#B" x="35.234" y="93.226"/></g><g><use xlink:href="#m" x="47.447" y="102.923"/></g><g><use xlink:href="#z" x="24.758" y="102.923"/><use xlink:href="#z" x="30.176" y="102.923"/><use xlink:href="#C" x="35.594" y="102.923"/></g><g><use xlink:href="#n" x="45.747" y="141.838"/><use xlink:href="#n" x="51.165" y="141.838"/><use xlink:href="#n" x="56.583" y="141.838"/></g><g><use xlink:href="#n" x="24.408" y="141.838"/><use xlink:href="#n" x="29.826" y="141.838"/><use xlink:href="#n" x="35.244" y="141.838"/></g><g><use xlink:href="#o" x="46.815" y="151.407"/><use xlink:href="#q" x="52.233" y="151.407"/><use xlink:href="#k" x="57.651" y="151.407"/></g><g><use xlink:href="#B" x="24.396" y="151.407"/><use xlink:href="#B" x="29.814" y="151.407"/><use xlink:href="#B" x="35.232" y="151.407"/></g><g fill="maroon"><use xlink:href="#k" x="47.285" y="122.444"/></g><g fill="maroon"><use xlink:href="#z" x="24.353" y="122.444"/><use xlink:href="#B" x="29.771" y="122.444"/><use xlink:href="#z" x="35.189" y="122.444"/></g><g><use xlink:href="#o" x="46.815" y="132.014"/><use xlink:href="#j" x="52.233" y="132.014"/></g><g><use xlink:href="#z" x="24.36" y="132.014"/><use xlink:href="#B" x="29.778" y="132.014"/><use xlink:href="#B" x="35.196" y="132.014"/></g><g><use xlink:href="#o" x="46.815" y="159.909"/><use xlink:href="#p" x="52.233" y="159.909"/><use xlink:href="#j" x="57.651" y="159.909"/></g><g><use xlink:href="#D" x="35.556" y="159.909"/></g><path d="M60.246 119.445c20.121 0 16.547 5.121 37.34 5.121" fill="none" stroke-width=".75" stroke-linecap="round" stroke="maroon"/><path d="M94.586 124.566l-1.5 1.5 5.25-1.5-5.25-1.5zm0 0" fill-rule="evenodd" fill="maroon" stroke-width=".4" stroke="maroon"/><path d="M135.098 124.36c25.332 0 17.308-85.61 59.093-85.61" fill="none" stroke-width=".75" stroke="maroon"/><path d="M191.191 38.75l-1.5 1.5 5.25-1.5-5.25-1.5zm0 0" fill-rule="evenodd" fill="maroon" stroke-width=".4" stroke="maroon"/><path d="M135.098 133.832c30.191 0 15.304-95.082 59.093-95.082" fill="none" stroke-width=".75" stroke="maroon"/><path d="M191.191 38.75l-1.5 1.5 5.25-1.5-5.25-1.5zm0 0" fill-rule="evenodd" fill="maroon" stroke-width=".4" stroke="maroon"/><path d="M135.098 142.543c34.168 0 22.886-74.625 59.093-74.625" fill="none" stroke-width=".75" stroke="maroon"/><path d="M191.191 67.918l-1.5 1.5 5.25-1.5-5.25-1.5zm0 0" fill-rule="evenodd" fill="maroon" stroke-width=".4" stroke="maroon"/><path d="M135.098 142.543c46.484 0 92.218 32.578 138.64 32.578" fill="none" stroke-width=".75" stroke="maroon"/><path d="M270.738 175.121l-1.5 1.5 5.25-1.5-5.25-1.5zm0 0" fill-rule="evenodd" fill="maroon" stroke-width=".4" stroke="maroon"/><g><use xlink:href="#E" x="2.861" y="9.143"/><use xlink:href="#F" x="8.279" y="9.143"/><use xlink:href="#G" x="13.697" y="9.143"/><use xlink:href="#H" x="19.115" y="9.143"/><use xlink:href="#I" x="24.533" y="9.143"/><use xlink:href="#H" x="29.951" y="9.143"/><use xlink:href="#I" x="35.369" y="9.143"/><use xlink:href="#J" x="40.787" y="9.143"/><use xlink:href="#K" x="46.205" y="9.143"/></g><g><use xlink:href="#L" x="51.623" y="9.143"/><use xlink:href="#y" x="57.041" y="9.143"/><use xlink:href="#M" x="62.459" y="9.143"/><use xlink:href="#L" x="67.877" y="9.143"/><use xlink:href="#N" x="73.295" y="9.143"/><use xlink:href="#L" x="78.713" y="9.143"/></g><g fill="maroon"><use xlink:href="#A" x="84.138" y="9.143"/><use xlink:href="#C" x="89.556" y="9.143"/><use xlink:href="#z" x="94.974" y="9.143"/></g><g clip-path="url(#O)"><path d="M.621.621H314.77v240.555H.62zm0 0" fill="none" stroke-width=".672" stroke-linecap="round" stroke="maroon"/></g><g><use xlink:href="#y" x="21.179" y="231.232"/></g><g><use xlink:href="#f" x="26.598" y="233.032"/></g><g><use xlink:href="#P" x="30.12" y="231.232"/></g><g><use xlink:href="#Q" x="35.538" y="231.232"/><use xlink:href="#b" x="40.956" y="231.232"/><use xlink:href="#c" x="46.374" y="231.232"/><use xlink:href="#d" x="51.792" y="231.232"/></g><g><use xlink:href="#e" x="57.212" y="233.032"/></g><g><use xlink:href="#v" x="60.734" y="234.832"/></g><g><use xlink:href="#R" x="64.256" y="231.232"/></g><g><use xlink:href="#y" x="188.848" y="222.728"/></g><g><use xlink:href="#v" x="194.266" y="224.528"/></g><g><use xlink:href="#P" x="197.788" y="222.728"/></g><g><use xlink:href="#Q" x="203.206" y="222.728"/><use xlink:href="#g" x="208.624" y="222.728"/><use xlink:href="#h" x="214.042" y="222.728"/><use xlink:href="#i" x="219.46" y="222.728"/><use xlink:href="#R" x="224.878" y="222.728"/></g><g><use xlink:href="#b" x="188.848" y="237.728"/><use xlink:href="#c" x="194.266" y="237.728"/><use xlink:href="#d" x="199.684" y="237.728"/></g><g><use xlink:href="#e" x="205.103" y="239.528"/><use xlink:href="#v" x="208.625" y="239.528"/></g><g><use xlink:href="#P" x="212.147" y="237.728"/></g><g><use xlink:href="#S" x="217.565" y="237.728"/><use xlink:href="#y" x="222.983" y="237.728"/></g><g><use xlink:href="#v" x="228.402" y="239.528"/></g><g><use xlink:href="#T" x="231.924" y="237.728"/><use xlink:href="#g" x="237.342" y="237.728"/><use xlink:href="#h" x="242.76" y="237.728"/><use xlink:href="#i" x="248.178" y="237.728"/><use xlink:href="#U" x="253.596" y="237.728"/></g></svg>