<?xml version="1.0" encoding="UTF-8" standalone="no"?>
<svg
   xmlns:dc="http://purl.org/dc/elements/1.1/"
   xmlns:cc="http://creativecommons.org/ns#"
   xmlns:rdf="http://www.w3.org/1999/02/22-rdf-syntax-ns#"
   xmlns:svg="http://www.w3.org/2000/svg"
   xmlns="http://www.w3.org/2000/svg"
   viewBox="0 0 1475.1527 563.62939"
   height="563.62939"
   width="1475.1527"
   xml:space="preserve"
   id="svg2"
   version="1.1"><metadata
     id="metadata8"><rdf:RDF><cc:Work
         rdf:about=""><dc:format>image/svg+xml</dc:format><dc:type
           rdf:resource="http://purl.org/dc/dcmitype/StillImage" /><dc:title></dc:title></cc:Work></rdf:RDF></metadata><defs
     id="defs6" /><g
     transform="matrix(1.3333333,0,0,-1.3333333,-106.66666,1214.9519)"
     id="g10"><g
       transform="matrix(1,0,0,-1,0,1080)"
       id="g66"><g
         transform="matrix(2.3681908,0,0,2.3681908,8.9542748,97.740361)"
         id="g68"><g
           id="g70"><g
             id="g72"><g
               id="g74"><g
                 id="g76"><g
                   id="g78"><g
                     transform="matrix(1.5,0,0,1.5,30,0)"
                     id="g80" /></g><g
                   id="g82"><g
                     transform="matrix(1.5,0,0,1.5,30,0)"
                     id="g84"><path
                       id="path86"
                       style="fill:none;stroke:#619ccc;stroke-width:3;stroke-linecap:butt;stroke-linejoin:miter;stroke-miterlimit:4;stroke-dasharray:none;stroke-opacity:1"
                       d="M 127.45141,66.5 H 144 c 4.41827,0 8,3.581718 8,8 v 13 c 0,4.418282 3.58173,8 8,8 h 24" /></g></g><g
                   id="g88"><g
                     id="g90"><text
                       id="text94"
                       style="font-variant:normal;font-weight:normal;font-size:15px;font-family:Helvetica;-inkscape-font-specification:Helvetica;writing-mode:lr-tb;fill:#000000;fill-opacity:1;fill-rule:nonzero;stroke:none"
                       transform="translate(288.75,162)"><tspan
                         id="tspan92"
                         y="0"
                         x="0">*</tspan></text>
</g></g><g
                   id="g96"><g
                     id="g98"><text
                       id="text102"
                       style="font-variant:normal;font-weight:normal;font-size:15px;font-family:Helvetica;-inkscape-font-specification:Helvetica;writing-mode:lr-tb;fill:#000000;fill-opacity:1;fill-rule:nonzero;stroke:none"
                       transform="translate(230.17711,91.5)"><tspan
                         id="tspan100"
                         y="0"
                         x="0">1</tspan></text>
</g></g></g></g><g
               id="g104"><g
                 id="g106"><g
                   id="g108"><g
                     id="g110"><g
                       transform="matrix(1.5,0,0,1.5,30,30)"
                       id="g112"><path
                         id="path114"
                         style="fill:#306996;fill-opacity:1;fill-rule:nonzero;stroke:none"
                         d="m 0,0 h 127.45141 c 0,0 0,0 0,0 v 32 c 0,0 0,0 0,0 H 0 c 0,0 0,0 0,0 V 0 c 0,0 0,0 0,0 z" /></g></g><g
                     id="g116"><g
                       id="g118"><text
                         id="text122"
                         style="font-variant:normal;font-weight:bold;font-size:19.5px;font-family:Helvetica;-inkscape-font-specification:Helvetica-Bold;writing-mode:lr-tb;fill:#ffffff;fill-opacity:1;fill-rule:nonzero;stroke:none"
                         transform="translate(49.5,60.825)"><tspan
                           id="tspan120"
                           y="0"
                           x="0 11.9145 22.7565">b2s</tspan></text>
</g></g><g
                     id="g124" /></g><g
                   id="g126"><g
                     id="g128"><g
                       transform="matrix(1.5,0,0,1.5,30,78)"
                       id="g130"><path
                         id="path132"
                         style="fill:#deedf2;fill-opacity:1;fill-rule:nonzero;stroke:none"
                         d="m 0,0 h 127.45141 c 0,0 0,0 0,0 v 29 c 0,0 0,0 0,0 H 0 c 0,0 0,0 0,0 V 0 c 0,0 0,0 0,0 z" /></g></g><g
                     id="g134"><g
                       id="g136"><text
                         id="text140"
                         style="font-variant:normal;font-weight:normal;font-size:18px;font-family:Helvetica;-inkscape-font-specification:Helvetica;writing-mode:lr-tb;fill:#000000;fill-opacity:1;fill-rule:nonzero;stroke:none"
                         transform="translate(49.5,106.05)"><tspan
                           id="tspan138"
                           y="0"
                           x="0">i</tspan></text>
</g></g><g
                     id="g142"><g
                       id="g144"><text
                         id="text148"
                         style="font-variant:normal;font-weight:normal;font-size:18px;font-family:Helvetica;-inkscape-font-specification:Helvetica;writing-mode:lr-tb;fill:#999999;fill-opacity:1;fill-rule:nonzero;stroke:none"
                         transform="translate(174.67711,106.05)"><tspan
                           id="tspan146"
                           y="0"
                           x="0 3.9960001 14.004">int</tspan></text>
</g></g><g
                     id="g150" /></g><g
                   id="g152"><g
                     id="g154"><g
                       transform="matrix(1.5,0,0,1.5,30,121.5)"
                       id="g156"><path
                         id="path158"
                         style="fill:#f5f5f5;fill-opacity:1;fill-rule:nonzero;stroke:none"
                         d="m 0,0 h 127.45141 c 0,0 0,0 0,0 v 29 c 0,0 0,0 0,0 H 0 c 0,0 0,0 0,0 V 0 c 0,0 0,0 0,0 z" /></g></g><g
                     id="g160"><g
                       id="g162"><text
                         id="text166"
                         style="font-variant:normal;font-weight:normal;font-size:18px;font-family:Helvetica;-inkscape-font-specification:Helvetica;writing-mode:lr-tb;fill:#6f6f6f;fill-opacity:1;fill-rule:nonzero;stroke:none"
                         transform="translate(49.5,149.55)"><tspan
                           id="tspan164"
                           y="0"
                           x="0 10.008">b2</tspan></text>
</g></g><g
                     id="g168"><g
                       id="g170"><text
                         id="text174"
                         style="font-variant:normal;font-weight:normal;font-size:18px;font-family:Helvetica;-inkscape-font-specification:Helvetica;writing-mode:lr-tb;fill:#999999;fill-opacity:1;fill-rule:nonzero;stroke:none"
                         transform="translate(156.67711,149.55)"><tspan
                           id="tspan172"
                           y="0"
                           x="0 9 23.993999 34.001999">kmer</tspan></text>
</g></g><g
                     id="g176" /></g><g
                   id="g178"><g
                     id="g180"><g
                       transform="matrix(1.5,0,0,1.5,30,165)"
                       id="g182"><path
                         id="path184"
                         style="fill:#f5f5f5;fill-opacity:1;fill-rule:nonzero;stroke:none"
                         d="m 0,0 h 127.45141 c 0,0 0,0 0,0 v 29 c 0,0 0,0 0,0 H 0 c 0,0 0,0 0,0 V 0 c 0,0 0,0 0,0 z" /></g></g><g
                     id="g186"><g
                       id="g188"><text
                         id="text192"
                         style="font-variant:normal;font-weight:normal;font-size:18px;font-family:Helvetica;-inkscape-font-specification:Helvetica;writing-mode:lr-tb;fill:#6f6f6f;fill-opacity:1;fill-rule:nonzero;stroke:none"
                         transform="translate(49.5,193.05)"><tspan
                           id="tspan190"
                           y="0"
                           x="0 10.008 20.016001">pos</tspan></text>
</g></g><g
                     id="g194"><g
                       id="g196"><text
                         id="text200"
                         style="font-variant:normal;font-weight:normal;font-size:18px;font-family:Helvetica;-inkscape-font-specification:Helvetica;writing-mode:lr-tb;fill:#999999;fill-opacity:1;fill-rule:nonzero;stroke:none"
                         transform="translate(179.17711,193.05)"><tspan
                           id="tspan198"
                           y="0"
                           x="0 3.9960001 14.004">int</tspan></text>
</g></g><g
                     id="g202" /></g></g><g
                 id="g204"><g
                   id="g206"><g
                     id="g208"><g
                       transform="matrix(1.5,0,0,1.5,306,30)"
                       id="g210"><path
                         id="path212"
                         style="fill:#306996;fill-opacity:1;fill-rule:nonzero;stroke:none"
                         d="m 0,0 h 127.45141 c 0,0 0,0 0,0 v 32 c 0,0 0,0 0,0 H 0 c 0,0 0,0 0,0 V 0 c 0,0 0,0 0,0 z" /></g></g><g
                     id="g214"><g
                       id="g216"><text
                         id="text220"
                         style="font-variant:normal;font-weight:bold;font-size:19.5px;font-family:Helvetica;-inkscape-font-specification:Helvetica-Bold;writing-mode:lr-tb;fill:#ffffff;fill-opacity:1;fill-rule:nonzero;stroke:none"
                         transform="translate(325.5,60.825)"><tspan
                           id="tspan218"
                           y="0"
                           x="0 11.9145 22.7565">b3s</tspan></text>
</g></g><g
                     id="g222" /></g><g
                   id="g224"><g
                     id="g226"><g
                       transform="matrix(1.5,0,0,1.5,306,78)"
                       id="g228"><path
                         id="path230"
                         style="fill:#f5f5f5;fill-opacity:1;fill-rule:nonzero;stroke:none"
                         d="m 0,0 h 127.45141 c 0,0 0,0 0,0 v 29 c 0,0 0,0 0,0 H 0 c 0,0 0,0 0,0 V 0 c 0,0 0,0 0,0 z" /></g></g><g
                     id="g232"><g
                       id="g234"><text
                         id="text238"
                         style="font-variant:normal;font-weight:normal;font-size:18px;font-family:Helvetica;-inkscape-font-specification:Helvetica;writing-mode:lr-tb;fill:#6f6f6f;fill-opacity:1;fill-rule:nonzero;stroke:none"
                         transform="translate(325.5,106.05)"><tspan
                           id="tspan236"
                           y="0"
                           x="0 10.008">b3</tspan></text>
</g></g><g
                     id="g240"><g
                       id="g242"><text
                         id="text246"
                         style="font-variant:normal;font-weight:normal;font-size:18px;font-family:Helvetica;-inkscape-font-specification:Helvetica;writing-mode:lr-tb;fill:#999999;fill-opacity:1;fill-rule:nonzero;stroke:none"
                         transform="translate(432.67711,106.05)"><tspan
                           id="tspan244"
                           y="0"
                           x="0 9 23.993999 34.001999">kmer</tspan></text>
</g></g><g
                     id="g248" /></g><g
                   id="g250"><g
                     id="g252"><g
                       transform="matrix(1.5,0,0,1.5,306,121.5)"
                       id="g254"><path
                         id="path256"
                         style="fill:#deedf2;fill-opacity:1;fill-rule:nonzero;stroke:none"
                         d="m 0,0 h 127.45141 c 0,0 0,0 0,0 v 29 c 0,0 0,0 0,0 H 0 c 0,0 0,0 0,0 V 0 c 0,0 0,0 0,0 z" /></g></g><g
                     id="g258"><g
                       id="g260"><text
                         id="text264"
                         style="font-variant:normal;font-weight:normal;font-size:18px;font-family:Helvetica;-inkscape-font-specification:Helvetica;writing-mode:lr-tb;fill:#6f6f6f;fill-opacity:1;fill-rule:nonzero;stroke:none"
                         transform="translate(325.5,149.55)"><tspan
                           id="tspan262"
                           y="0"
                           x="0">i</tspan></text>
</g></g><g
                     id="g266"><g
                       id="g268"><text
                         id="text272"
                         style="font-variant:normal;font-weight:normal;font-size:18px;font-family:Helvetica;-inkscape-font-specification:Helvetica;writing-mode:lr-tb;fill:#999999;fill-opacity:1;fill-rule:nonzero;stroke:none"
                         transform="translate(455.17711,149.55)"><tspan
                           id="tspan270"
                           y="0"
                           x="0 3.9960001 14.004">int</tspan></text>
</g></g><g
                     id="g274" /></g></g></g><g
               id="g276" /></g></g></g></g></g></svg>