<svg xmlns="http://www.w3.org/2000/svg" xmlns:xlink="http://www.w3.org/1999/xlink" width="209.183" height="263.1" viewBox="0 0 156.888 197.325"><defs><symbol overflow="visible" id="a"><path d="M1.36-4.922h2.546L3.141-.984h1.593L4.547 0H.063L.25-.984h1.61l.577-2.954H1.173zm1.718-2.39h1.297l-.297 1.5H2.797zm0 0"/></symbol><symbol overflow="visible" id="c"><path d="M3.766-5.25l-.079.328h1.516l-.187.984H3.5L2.734 0h-1.28l.765-3.938H1.016l.187-.984h1.203l.063-.344c.125-.613.32-1.03.594-1.25.269-.218.753-.328 1.453-.328h1.062l-.187 1H4.375c-.188 0-.328.043-.422.125-.086.074-.148.23-.187.469zm0 0"/></symbol><symbol overflow="visible" id="d"><path d="M4.734-6.828c-.68.918-1.187 1.82-1.53 2.703a7.1 7.1 0 00-.517 2.61c0 .417.04.85.126 1.296.082.446.207.914.374 1.407h-.984a8.067 8.067 0 01-.547-1.47 6.202 6.202 0 01-.172-1.452c0-.844.188-1.692.563-2.547C2.43-5.133 3-5.984 3.75-6.828zm0 0"/></symbol><symbol overflow="visible" id="e"><path d="M.5 1.188C1.176.27 1.688-.625 2.031-1.5a7.195 7.195 0 00.516-2.625c0-.414-.043-.848-.125-1.297-.086-.445-.211-.914-.375-1.406h1c.226.5.398.996.515 1.484.126.48.188.953.188 1.422 0 .856-.195 1.711-.578 2.563-.375.855-.938 1.703-1.688 2.546zm0 0"/></symbol><symbol overflow="visible" id="q"><path d="M2.281-1.078c.344 0 .633-.192.875-.578.25-.395.375-.864.375-1.407 0-.289-.062-.519-.187-.687A.565.565 0 002.859-4c-.343 0-.64.2-.89.594-.242.386-.36.851-.36 1.39 0 .305.055.54.172.704.125.156.29.234.5.234zm2.063.703c-.157.813-.438 1.383-.844 1.719-.406.343-1.012.515-1.813.515-.28 0-.558-.023-.828-.062a5.54 5.54 0 01-.78-.188L.311.438C.532.57.758.671 1 .734c.25.063.5.094.75.094.363 0 .648-.086.86-.25.206-.168.347-.433.421-.797l.11-.594c-.157.25-.352.438-.579.563-.23.117-.484.172-.765.172-.461 0-.824-.149-1.094-.453C.43-.832.297-1.242.297-1.766c0-.406.062-.816.187-1.234.125-.414.29-.781.5-1.094.207-.3.457-.535.75-.703.301-.176.602-.266.907-.266.312 0 .566.086.765.25.196.157.32.387.375.688l.156-.797h1.297zm0 0"/></symbol><symbol overflow="visible" id="r"><path d="M1.688-6.844h1.28l-.671 3.438 1.781-1.516h1.625L3.484-3.078 4.86 0H3.5l-.984-2.297-.5.422L1.64 0H.359zm0 0"/></symbol><symbol overflow="visible" id="f"><path d="M2.125-3.297a.55.55 0 01.172-.406.532.532 0 01.812 0c.125.117.188.25.188.406a.574.574 0 01-.172.422.572.572 0 01-.422.172.56.56 0 01-.578-.594zm.578-2.687c-.406 0-.715.226-.922.671-.199.45-.297 1.125-.297 2.032 0 .918.098 1.601.297 2.047.207.437.516.656.922.656.414 0 .723-.219.922-.656.207-.446.313-1.13.313-2.047 0-.906-.106-1.582-.313-2.031-.2-.446-.508-.672-.922-.672zm0-.704c.695 0 1.223.293 1.578.875.364.575.547 1.418.547 2.532 0 1.125-.183 1.976-.547 2.547-.355.574-.883.859-1.578.859-.7 0-1.23-.285-1.594-.86C.754-1.304.58-2.155.58-3.28c0-1.114.175-1.957.53-2.531.364-.583.895-.875 1.594-.875zm0 0"/></symbol><symbol overflow="visible" id="g"><path d="M.61-6.563h4.124v.375L2.391 0h-.922L3.75-5.813H.61zm0 0"/></symbol><symbol overflow="visible" id="h"><path d="M3.406-3.516c.438.118.766.32.985.61.226.293.343.656.343 1.094 0 .605-.203 1.078-.609 1.421-.398.344-.953.516-1.672.516-.305 0-.61-.031-.922-.094A5.407 5.407 0 01.61-.203v-.875a3.632 3.632 0 001.735.453c.488 0 .863-.11 1.125-.328.258-.219.39-.535.39-.953 0-.375-.132-.672-.39-.89-.262-.227-.617-.345-1.063-.345h-.672v-.734h.672c.414 0 .735-.086.953-.266.227-.175.344-.425.344-.75 0-.332-.105-.586-.312-.765-.211-.188-.512-.282-.907-.282-.261 0-.53.032-.812.094a6.498 6.498 0 00-.875.266v-.828c.351-.094.664-.16.937-.203.282-.051.532-.079.75-.079.633 0 1.145.165 1.532.485.382.324.578.75.578 1.281 0 .367-.106.668-.313.906-.199.243-.492.407-.875.5zm0 0"/></symbol><symbol overflow="visible" id="i"><path d="M3.234-5.75L1.156-2.281h2.078zm-.156-.813H4.11v4.282h.875v.719H4.11V0h-.875v-1.563H.454v-.843zm0 0"/></symbol><symbol overflow="visible" id="j"><path d="M2.156-1.344H3.25V0H2.156zm0 0"/></symbol><symbol overflow="visible" id="k"><path d="M1.188-.75h1.375v-5.016l-1.485.344v-.812l1.484-.329h.891V-.75h1.36V0H1.188zm0 0"/></symbol><symbol overflow="visible" id="l"><path d="M.906-6.563h3.328v.75H1.72v1.61c.125-.04.25-.07.375-.094a1.72 1.72 0 01.39-.047c.676 0 1.211.203 1.61.61.406.398.61.937.61 1.625 0 .699-.212 1.246-.626 1.64-.418.399-.992.594-1.719.594-.343 0-.664-.027-.953-.078a3.303 3.303 0 01-.781-.203v-.906c.27.156.54.273.813.343.269.063.55.094.843.094.489 0 .864-.125 1.125-.375.27-.258.406-.629.406-1.11 0-.468-.14-.831-.421-1.093-.274-.258-.653-.39-1.141-.39-.242 0-.477.03-.703.093a3.237 3.237 0 00-.64.234zm0 0"/></symbol><symbol overflow="visible" id="m"><path d="M2.625-2.906c.375 0 .664-.133.875-.406.219-.282.328-.66.328-1.141 0-.477-.11-.852-.328-1.125-.21-.27-.5-.406-.875-.406-.398 0-.695.132-.89.39-.2.262-.298.64-.298 1.14 0 .513.098.9.297 1.157.196.262.493.39.891.39zM1.031-.141v-.812c.188.105.383.187.594.25.207.055.426.078.656.078.563 0 .985-.207 1.266-.625.289-.426.437-1.05.437-1.875a1.528 1.528 0 01-.578.672c-.25.156-.539.234-.86.234-.636 0-1.124-.191-1.468-.578C.734-3.19.562-3.742.562-4.453c0-.707.176-1.254.532-1.64.351-.395.86-.595 1.515-.595.758 0 1.317.278 1.672.829.352.554.532 1.414.532 2.578 0 1.105-.215 1.949-.641 2.531-.43.586-1.047.875-1.86.875-.218 0-.437-.027-.656-.078a3.364 3.364 0 01-.625-.188zm0 0"/></symbol><symbol overflow="visible" id="n"><path d="M1.64-.75h3.016V0H.672v-.75c.539-.57 1.015-1.078 1.422-1.516.414-.445.703-.765.86-.953.288-.351.487-.64.593-.86a1.61 1.61 0 00.156-.687c0-.363-.11-.648-.328-.859-.219-.207-.516-.313-.89-.313-.262 0-.54.055-.829.157a4.724 4.724 0 00-.937.437v-.906c.3-.133.597-.238.89-.313.29-.082.579-.125.86-.125.644 0 1.16.172 1.547.516.394.344.593.793.593 1.344 0 .281-.07.562-.203.844-.125.28-.336.593-.625.937-.168.188-.406.453-.719.797-.312.336-.789.836-1.421 1.5zm0 0"/></symbol><symbol overflow="visible" id="o"><path d="M4.36-6.422v.828a2.258 2.258 0 00-.594-.25 2.298 2.298 0 00-.657-.093c-.562 0-.992.214-1.28.64-.282.43-.423 1.055-.423 1.875.133-.3.328-.531.578-.687.25-.157.536-.235.86-.235.633 0 1.125.2 1.469.594.343.387.515.934.515 1.64 0 .712-.18 1.262-.531 1.657-.356.387-.856.578-1.5.578-.774 0-1.336-.27-1.688-.813C.754-1.238.58-2.101.58-3.28c0-1.102.21-1.946.64-2.531.426-.583 1.047-.875 1.86-.875.218 0 .429.027.64.078.219.043.43.105.64.187zM2.765-3.64c-.375 0-.672.137-.891.407-.21.273-.313.648-.313 1.125 0 .48.102.859.313 1.14.219.274.516.406.89.406.395 0 .692-.128.891-.39.196-.258.297-.645.297-1.156 0-.508-.101-.891-.297-1.141-.199-.258-.496-.39-.89-.39zm0 0"/></symbol><symbol overflow="visible" id="p"><path d="M5.031-3.422v.766a2.696 2.696 0 01-.64.375 1.72 1.72 0 01-.657.125c-.273 0-.574-.078-.906-.235a3.595 3.595 0 00-.703-.25 1.761 1.761 0 00-.453-.062c-.23 0-.45.047-.656.14-.211.086-.418.22-.625.407v-.766c.226-.176.445-.3.656-.375.219-.082.445-.125.687-.125.157 0 .305.016.454.047.144.031.328.094.546.188.032.011.079.03.141.062.344.156.648.234.922.234.207 0 .41-.039.61-.125.195-.093.405-.226.624-.406zm0 0"/></symbol><symbol overflow="visible" id="s"><path d="M2.703-5.781l-.937 3.36H3.64zm-.531-.782H3.25L5.25 0h-.906l-.485-1.703H1.563L1.078 0H.156zm0 0"/></symbol><symbol overflow="visible" id="t"><path d="M4.719-.234c-.23.125-.465.214-.703.265-.23.063-.48.094-.75.094-.844 0-1.5-.297-1.97-.89C.837-1.36.61-2.196.61-3.282c0-1.063.235-1.895.704-2.5.468-.602 1.117-.907 1.953-.907.27 0 .52.032.75.094.238.063.472.157.703.282v.906a2.552 2.552 0 00-.703-.407c-.25-.093-.5-.14-.75-.14-.575 0-1.008.226-1.297.672-.293.437-.438 1.105-.438 2 0 .906.145 1.586.438 2.031.289.438.722.656 1.297.656.257 0 .507-.047.75-.14.25-.094.484-.227.703-.407zm0 0"/></symbol><symbol overflow="visible" id="u"><path d="M.203-6.563H5.22v.75H3.156V0h-.89v-5.813H.203zm0 0"/></symbol><symbol overflow="visible" id="v"><path d="M4.86-.547a2.54 2.54 0 01-.813.5 2.67 2.67 0 01-.969.172c-.824 0-1.469-.297-1.937-.89C.68-1.36.453-2.196.453-3.282c0-1.063.234-1.895.703-2.5.469-.602 1.117-.907 1.953-.907.27 0 .532.043.782.125.257.075.504.196.734.36v.906a2.53 2.53 0 00-.734-.5 1.992 1.992 0 00-.782-.156c-.586 0-1.023.226-1.312.672-.281.437-.422 1.105-.422 2 0 .918.14 1.594.422 2.031.281.438.707.656 1.281.656.195 0 .367-.02.516-.062.156-.051.289-.125.406-.219v-1.766h-.953v-.718h1.812zm0 0"/></symbol><symbol overflow="visible" id="w"><path d="M3.047-2.547V-.64c.32-.007.57-.097.75-.265.176-.176.265-.41.265-.703 0-.27-.085-.477-.25-.625-.156-.157-.414-.258-.765-.313zm-.438-.844v-1.812c-.312.012-.558.101-.734.266-.168.167-.25.386-.25.656 0 .261.078.465.234.61.164.148.414.241.75.28zm.438 4.72h-.438L2.594 0a5.042 5.042 0 01-.89-.11 5.375 5.375 0 01-.876-.296v-.797c.3.187.598.328.89.422.302.094.598.148.891.156v-2.016c-.593-.082-1.043-.257-1.343-.53-.293-.27-.438-.626-.438-1.063 0-.457.156-.82.469-1.094.312-.281.75-.442 1.312-.484v-1.032h.438v1.032c.226.023.46.054.703.093.238.043.477.106.719.188v.75a3.811 3.811 0 00-.735-.282c-.23-.07-.46-.113-.687-.125v1.891c.601.094 1.062.281 1.375.563.312.28.469.652.469 1.109 0 .45-.172.824-.516 1.125-.336.305-.777.465-1.328.484zm0 0"/></symbol><clipPath id="b"><path d="M137 0h19.887v9H137zm0 0"/></clipPath><clipPath id="x"><path d="M40 118h69v79.324H40zm0 0"/></clipPath><clipPath id="y"><path d="M97 191h11v6.324H97zm0 0"/></clipPath></defs><use xlink:href="#a" x="119.666" y="7.317"/><g clip-path="url(#b)"><use xlink:href="#c" x="136.883" y="7.317"/><use xlink:href="#d" x="142.301" y="7.317"/><use xlink:href="#a" x="147.719" y="7.317"/><use xlink:href="#e" x="153.137" y="7.317"/></g><path d="M110.832 10.516h38.07" fill="none" stroke-width=".75" stroke="#000"/><use xlink:href="#f" x="119.574" y="21.257"/><use xlink:href="#g" x="119.666" y="84.168"/><use xlink:href="#h" x="119.666" y="48.346"/><use xlink:href="#i" x="119.42" y="57.206"/><use xlink:href="#j" x="110.314" y="165.053"/><use xlink:href="#j" x="115.732" y="165.053"/><use xlink:href="#j" x="121.15" y="165.053"/><use xlink:href="#k" x="108.811" y="174.041"/><use xlink:href="#l" x="114.229" y="174.041"/><use xlink:href="#g" x="119.647" y="174.041"/><use xlink:href="#l" x="137.266" y="111.13"/><use xlink:href="#k" x="136.813" y="147.079"/><use xlink:href="#k" x="142.231" y="147.079"/><use xlink:href="#k" x="136.813" y="156.066"/><use xlink:href="#h" x="142.231" y="156.066"/><use xlink:href="#k" x="136.813" y="129.104"/><use xlink:href="#g" x="142.231" y="129.104"/><use xlink:href="#k" x="136.813" y="120.117"/><use xlink:href="#m" x="142.231" y="120.117"/><use xlink:href="#n" x="137.226" y="174.041"/><use xlink:href="#h" x="142.644" y="174.041"/><use xlink:href="#n" x="137.226" y="183.028"/><use xlink:href="#m" x="142.644" y="183.028"/><use xlink:href="#h" x="137.292" y="192.015"/><use xlink:href="#k" x="142.71" y="192.015"/><use xlink:href="#h" x="137.292" y="138.091"/><use xlink:href="#g" x="142.71" y="138.091"/><use xlink:href="#i" x="137.446" y="102.142"/><use xlink:href="#k" x="142.864" y="102.142"/><use xlink:href="#l" x="137.266" y="66.193"/><use xlink:href="#h" x="142.684" y="66.193"/><use xlink:href="#l" x="137.266" y="57.206"/><use xlink:href="#m" x="142.684" y="57.206"/><use xlink:href="#o" x="137.31" y="75.18"/><use xlink:href="#k" x="142.728" y="75.18"/><use xlink:href="#o" x="137.31" y="48.219"/><use xlink:href="#g" x="142.728" y="48.219"/><use xlink:href="#g" x="137.284" y="39.231"/><use xlink:href="#k" x="142.702" y="39.231"/><use xlink:href="#g" x="137.284" y="21.257"/><use xlink:href="#h" x="142.702" y="21.257"/><use xlink:href="#g" x="137.284" y="30.244"/><use xlink:href="#m" x="142.702" y="30.244"/><use xlink:href="#m" x="137.336" y="93.155"/><use xlink:href="#g" x="142.754" y="93.155"/><use xlink:href="#j" x="135.745" y="165.053"/><use xlink:href="#j" x="141.163" y="165.053"/><use xlink:href="#j" x="146.581" y="165.053"/><use xlink:href="#g" x="119.666" y="93.155"/><use xlink:href="#k" x="114.155" y="121.333"/><use xlink:href="#f" x="119.573" y="121.333"/><path d="M133.676 14.047h-2.688v24.492h2.688M133.676 40.04h-2.688v7.991h2.688M133.676 49.531h-2.688v25.992h2.688M133.676 86.516h-2.688v24.492h2.688M133.676 112.508h-2.688V158h2.688" fill="none" stroke-width=".672" stroke="#000"/><use xlink:href="#p" x="129.454" y="166.153"/><path d="M133.676 167h-2.688v25.992h2.688M144.2 84.059l-6.067-6.07m0 6.07l6.066-6.07" fill="none" stroke-width=".672" stroke="#000"/><use xlink:href="#q" x="23.395" y="35.976"/><use xlink:href="#d" x="28.813" y="35.976"/><use xlink:href="#r" x="34.231" y="35.976"/><use xlink:href="#e" x="39.649" y="35.976"/><path d="M0 39.176h38.07" fill="none" stroke-width=".75" stroke="#000"/><use xlink:href="#r" x="10.324" y="35.976"/><use xlink:href="#f" x="22.89" y="49.118"/><use xlink:href="#s" x="-.069" y="49.118"/><use xlink:href="#s" x="5.349" y="49.118"/><use xlink:href="#s" x="10.767" y="49.118"/><use xlink:href="#g" x="22.864" y="78.209"/><use xlink:href="#s" x=".472" y="78.209"/><use xlink:href="#s" x="5.89" y="78.209"/><use xlink:href="#t" x="11.308" y="78.209"/><g><use xlink:href="#h" x="22.872" y="58.815"/></g><g><use xlink:href="#s" x="-.024" y="58.815"/><use xlink:href="#s" x="5.394" y="58.815"/><use xlink:href="#u" x="10.812" y="58.815"/></g><g><use xlink:href="#i" x="23.026" y="68.512"/></g><g><use xlink:href="#s" x=".337" y="68.512"/><use xlink:href="#s" x="5.755" y="68.512"/><use xlink:href="#v" x="11.173" y="68.512"/></g><g><use xlink:href="#j" x="21.326" y="107.427"/><use xlink:href="#j" x="26.744" y="107.427"/><use xlink:href="#j" x="32.162" y="107.427"/></g><g><use xlink:href="#j" x="-.013" y="107.427"/><use xlink:href="#j" x="5.405" y="107.427"/><use xlink:href="#j" x="10.823" y="107.427"/></g><g><use xlink:href="#k" x="22.393" y="116.996"/><use xlink:href="#l" x="27.811" y="116.996"/><use xlink:href="#g" x="33.229" y="116.996"/></g><g><use xlink:href="#u" x="-.026" y="116.996"/><use xlink:href="#u" x="5.392" y="116.996"/><use xlink:href="#u" x="10.81" y="116.996"/></g><g><use xlink:href="#g" x="22.864" y="88.033"/></g><g><use xlink:href="#s" x="-.068" y="88.033"/><use xlink:href="#u" x="5.35" y="88.033"/><use xlink:href="#s" x="10.768" y="88.033"/></g><g><use xlink:href="#k" x="22.393" y="97.603"/><use xlink:href="#f" x="27.811" y="97.603"/></g><g><use xlink:href="#s" x="-.062" y="97.603"/><use xlink:href="#u" x="5.356" y="97.603"/><use xlink:href="#s" x="10.774" y="97.603"/></g><g><use xlink:href="#k" x="22.393" y="125.498"/><use xlink:href="#o" x="27.811" y="125.498"/><use xlink:href="#f" x="33.229" y="125.498"/></g><g><use xlink:href="#w" x="11.134" y="125.498"/></g><path d="M44.219 46.117c23.277 0 39.36-27.86 60.445-27.86" fill="none" stroke-width=".75" stroke-linecap="round" stroke="#000"/><path d="M101.664 18.258l-1.5 1.5 5.25-1.5-5.25-1.5zm0 0" fill-rule="evenodd" stroke-width=".4" stroke="#000"/><path d="M44.313 55.816c20.539 0 38.312-10.468 60.351-10.468" fill="none" stroke-width=".75" stroke-linecap="round" stroke="#000"/><path d="M101.664 45.348l-1.5 1.5 5.25-1.5-5.25-1.5zm0 0" fill-rule="evenodd" stroke-width=".4" stroke="#000"/><path d="M44.066 65.512c20.579 0 40.579-11.305 60.598-11.305" fill="none" stroke-width=".75" stroke-linecap="round" stroke="#000"/><path d="M101.664 54.207l-1.5 1.5 5.25-1.5-5.25-1.5zm0 0" fill-rule="evenodd" stroke-width=".4" stroke="#000"/><path d="M44.313 75.207c20.597 0 39.59 5.961 60.351 5.961" fill="none" stroke-width=".75" stroke-linecap="round" stroke="#000"/><path d="M101.664 81.168l-1.5 1.5 5.25-1.5-5.25-1.5zm0 0" fill-rule="evenodd" stroke-width=".4" stroke="#000"/><path d="M44.313 85.031c20.12 0 39.558 5.125 60.351 5.125" fill="none" stroke-width=".75" stroke-linecap="round" stroke="#000"/><path d="M101.664 90.156l-1.5 1.5 5.25-1.5-5.25-1.5zm0 0" fill-rule="evenodd" stroke-width=".4" stroke="#000"/><path d="M44.219 94.602c21.476 0 37.68 23.73 60.445 23.73" fill="none" stroke-width=".75" stroke-linecap="round" stroke="#000"/><path d="M101.664 118.332l-1.5 1.5 5.25-1.5-5.25-1.5zm0 0" fill-rule="evenodd" stroke-width=".4" stroke="#000"/><path d="M44.313 113.996c21.011 0 38.273 57.043 60.351 57.043" fill="none" stroke-width=".75" stroke-linecap="round" stroke="#000"/><path d="M101.664 171.04l-1.5 1.5 5.25-1.5-5.25-1.5zm0 0" fill-rule="evenodd" stroke-width=".4" stroke="#000"/><g clip-path="url(#x)"><path d="M44.313 122.496c20.5 0 35.68 72.926 60.351 72.926" fill="none" stroke-width=".75" stroke-linecap="round" stroke="#000"/></g><path d="M101.664 195.422l-1.5 1.5 5.25-1.5-5.25-1.5zm0 0" fill-rule="evenodd"/><g clip-path="url(#y)"><path d="M101.664 195.422l-1.5 1.5 5.25-1.5-5.25-1.5zm0 0" fill="none" stroke-width=".4" stroke="#000"/></g></svg>