<svg xmlns="http://www.w3.org/2000/svg" xmlns:xlink="http://www.w3.org/1999/xlink" width="209.183" height="263.1" viewBox="0 0 156.888 197.325"><defs><symbol overflow="visible" id="a"><path d="M1.016-9.125h1.718v4.797l2.063-2.234h2.078L4.391-4.11 7.016 0H5.125L3.328-3.078l-.594.562V0H1.016zm0 0"/></symbol><symbol overflow="visible" id="b"><path d="M6.75-6.563L4.672 0h-2.11L.47-6.563h1.734L3.61-1.438l1.407-5.125zm0 0"/></symbol><symbol overflow="visible" id="c"><path d="M2.703-5.781l-.937 3.36H3.64zm-.531-.782H3.25L5.25 0h-.906l-.485-1.703H1.563L1.078 0H.156zm0 0"/></symbol><symbol overflow="visible" id="d"><path d="M4.719-.234c-.23.125-.465.214-.703.265-.23.063-.48.094-.75.094-.844 0-1.5-.297-1.97-.89C.837-1.36.61-2.196.61-3.282c0-1.063.235-1.895.704-2.5.468-.602 1.117-.907 1.953-.907.27 0 .52.032.75.094.238.063.472.157.703.282v.906a2.552 2.552 0 00-.703-.407c-.25-.093-.5-.14-.75-.14-.575 0-1.008.226-1.297.672-.293.437-.438 1.105-.438 2 0 .906.145 1.586.438 2.031.289.438.722.656 1.297.656.257 0 .507-.047.75-.14.25-.094.484-.227.703-.407zm0 0"/></symbol><symbol overflow="visible" id="e"><path d="M.203-6.563H5.22v.75H3.156V0h-.89v-5.813H.203zm0 0"/></symbol><symbol overflow="visible" id="f"><path d="M4.86-.547a2.54 2.54 0 01-.813.5 2.67 2.67 0 01-.969.172c-.824 0-1.469-.297-1.937-.89C.68-1.36.453-2.196.453-3.282c0-1.063.234-1.895.703-2.5.469-.602 1.117-.907 1.953-.907.27 0 .532.043.782.125.257.075.504.196.734.36v.906a2.53 2.53 0 00-.734-.5 1.992 1.992 0 00-.782-.156c-.586 0-1.023.226-1.312.672-.281.437-.422 1.105-.422 2 0 .918.14 1.594.422 2.031.281.438.707.656 1.281.656.195 0 .367-.02.516-.062.156-.051.289-.125.406-.219v-1.766h-.953v-.718h1.812zm0 0"/></symbol><symbol overflow="visible" id="g"><path d="M2.156-1.344H3.25V0H2.156zm0 0"/></symbol><symbol overflow="visible" id="h"><path d="M.906-6.563h3.328v.75H1.72v1.61c.125-.04.25-.07.375-.094a1.72 1.72 0 01.39-.047c.676 0 1.211.203 1.61.61.406.398.61.937.61 1.625 0 .699-.212 1.246-.626 1.64-.418.399-.992.594-1.719.594-.343 0-.664-.027-.953-.078a3.303 3.303 0 01-.781-.203v-.906c.27.156.54.273.813.343.269.063.55.094.843.094.489 0 .864-.125 1.125-.375.27-.258.406-.629.406-1.11 0-.468-.14-.831-.421-1.093-.274-.258-.653-.39-1.141-.39-.242 0-.477.03-.703.093a3.237 3.237 0 00-.64.234zm0 0"/></symbol><symbol overflow="visible" id="i"><path d="M1.188-.75h1.375v-5.016l-1.485.344v-.812l1.484-.329h.891V-.75h1.36V0H1.188zm0 0"/></symbol><symbol overflow="visible" id="j"><path d="M3.406-3.516c.438.118.766.32.985.61.226.293.343.656.343 1.094 0 .605-.203 1.078-.609 1.421-.398.344-.953.516-1.672.516-.305 0-.61-.031-.922-.094A5.407 5.407 0 01.61-.203v-.875a3.632 3.632 0 001.735.453c.488 0 .863-.11 1.125-.328.258-.219.39-.535.39-.953 0-.375-.132-.672-.39-.89-.262-.227-.617-.345-1.063-.345h-.672v-.734h.672c.414 0 .735-.086.953-.266.227-.175.344-.425.344-.75 0-.332-.105-.586-.312-.765-.211-.188-.512-.282-.907-.282-.261 0-.53.032-.812.094a6.498 6.498 0 00-.875.266v-.828c.351-.094.664-.16.937-.203.282-.051.532-.079.75-.079.633 0 1.145.165 1.532.485.382.324.578.75.578 1.281 0 .367-.106.668-.313.906-.199.243-.492.407-.875.5zm0 0"/></symbol><symbol overflow="visible" id="k"><path d="M.61-6.563h4.124v.375L2.391 0h-.922L3.75-5.813H.61zm0 0"/></symbol><symbol overflow="visible" id="l"><path d="M2.625-2.906c.375 0 .664-.133.875-.406.219-.282.328-.66.328-1.141 0-.477-.11-.852-.328-1.125-.21-.27-.5-.406-.875-.406-.398 0-.695.132-.89.39-.2.262-.298.64-.298 1.14 0 .513.098.9.297 1.157.196.262.493.39.891.39zM1.031-.141v-.812c.188.105.383.187.594.25.207.055.426.078.656.078.563 0 .985-.207 1.266-.625.289-.426.437-1.05.437-1.875a1.528 1.528 0 01-.578.672c-.25.156-.539.234-.86.234-.636 0-1.124-.191-1.468-.578C.734-3.19.562-3.742.562-4.453c0-.707.176-1.254.532-1.64.351-.395.86-.595 1.515-.595.758 0 1.317.278 1.672.829.352.554.532 1.414.532 2.578 0 1.105-.215 1.949-.641 2.531-.43.586-1.047.875-1.86.875-.218 0-.437-.027-.656-.078a3.364 3.364 0 01-.625-.188zm0 0"/></symbol><symbol overflow="visible" id="m"><path d="M1.64-.75h3.016V0H.672v-.75c.539-.57 1.015-1.078 1.422-1.516.414-.445.703-.765.86-.953.288-.351.487-.64.593-.86a1.61 1.61 0 00.156-.687c0-.363-.11-.648-.328-.859-.219-.207-.516-.313-.89-.313-.262 0-.54.055-.829.157a4.724 4.724 0 00-.937.437v-.906c.3-.133.597-.238.89-.313.29-.082.579-.125.86-.125.644 0 1.16.172 1.547.516.394.344.593.793.593 1.344 0 .281-.07.562-.203.844-.125.28-.336.593-.625.937-.168.188-.406.453-.719.797-.312.336-.789.836-1.421 1.5zm0 0"/></symbol><symbol overflow="visible" id="n"><path d="M3.234-5.75L1.156-2.281h2.078zm-.156-.813H4.11v4.282h.875v.719H4.11V0h-.875v-1.563H.454v-.843zm0 0"/></symbol><symbol overflow="visible" id="o"><path d="M4.36-6.422v.828a2.258 2.258 0 00-.594-.25 2.298 2.298 0 00-.657-.093c-.562 0-.992.214-1.28.64-.282.43-.423 1.055-.423 1.875.133-.3.328-.531.578-.687.25-.157.536-.235.86-.235.633 0 1.125.2 1.469.594.343.387.515.934.515 1.64 0 .712-.18 1.262-.531 1.657-.356.387-.856.578-1.5.578-.774 0-1.336-.27-1.688-.813C.754-1.238.58-2.101.58-3.28c0-1.102.21-1.946.64-2.531.426-.583 1.047-.875 1.86-.875.218 0 .429.027.64.078.219.043.43.105.64.187zM2.765-3.64c-.375 0-.672.137-.891.407-.21.273-.313.648-.313 1.125 0 .48.102.859.313 1.14.219.274.516.406.89.406.395 0 .692-.128.891-.39.196-.258.297-.645.297-1.156 0-.508-.101-.891-.297-1.141-.199-.258-.496-.39-.89-.39zm0 0"/></symbol><symbol overflow="visible" id="p"><path d="M5.031-3.422v.766a2.696 2.696 0 01-.64.375 1.72 1.72 0 01-.657.125c-.273 0-.574-.078-.906-.235a3.595 3.595 0 00-.703-.25 1.761 1.761 0 00-.453-.062c-.23 0-.45.047-.656.14-.211.086-.418.22-.625.407v-.766c.226-.176.445-.3.656-.375.219-.082.445-.125.687-.125.157 0 .305.016.454.047.144.031.328.094.546.188.032.011.079.03.141.062.344.156.648.234.922.234.207 0 .41-.039.61-.125.195-.093.405-.226.624-.406zm0 0"/></symbol></defs><use xlink:href="#a" x="117.841" y="10.317"/><use xlink:href="#b" x="137.425" y="10.317"/><use xlink:href="#c" x="108.767" y="24.257"/><use xlink:href="#c" x="114.185" y="24.257"/><use xlink:href="#c" x="119.603" y="24.257"/><use xlink:href="#c" x="109.308" y="87.168"/><use xlink:href="#c" x="114.726" y="87.168"/><use xlink:href="#d" x="120.144" y="87.168"/><use xlink:href="#c" x="108.811" y="51.346"/><use xlink:href="#c" x="114.229" y="51.346"/><use xlink:href="#e" x="119.647" y="51.346"/><use xlink:href="#c" x="109.172" y="60.206"/><use xlink:href="#c" x="114.59" y="60.206"/><use xlink:href="#f" x="120.008" y="60.206"/><use xlink:href="#g" x="108.818" y="168.053"/><use xlink:href="#g" x="114.236" y="168.053"/><use xlink:href="#g" x="119.654" y="168.053"/><use xlink:href="#e" x="108.811" y="177.041"/><use xlink:href="#e" x="114.229" y="177.041"/><use xlink:href="#e" x="119.647" y="177.041"/><use xlink:href="#h" x="137.266" y="114.13"/><use xlink:href="#i" x="136.813" y="150.079"/><use xlink:href="#i" x="142.231" y="150.079"/><use xlink:href="#i" x="136.813" y="159.066"/><use xlink:href="#j" x="142.231" y="159.066"/><use xlink:href="#i" x="136.813" y="132.104"/><use xlink:href="#k" x="142.231" y="132.104"/><use xlink:href="#i" x="136.813" y="123.117"/><use xlink:href="#l" x="142.231" y="123.117"/><use xlink:href="#m" x="137.226" y="177.041"/><use xlink:href="#j" x="142.644" y="177.041"/><use xlink:href="#m" x="137.226" y="186.028"/><use xlink:href="#l" x="142.644" y="186.028"/><use xlink:href="#j" x="137.292" y="195.015"/><use xlink:href="#i" x="142.71" y="195.015"/><use xlink:href="#j" x="137.292" y="141.091"/><use xlink:href="#k" x="142.71" y="141.091"/><use xlink:href="#n" x="137.446" y="105.142"/><use xlink:href="#i" x="142.864" y="105.142"/><g><use xlink:href="#h" x="137.266" y="69.193"/><use xlink:href="#j" x="142.684" y="69.193"/></g><g><use xlink:href="#h" x="137.266" y="60.206"/><use xlink:href="#l" x="142.684" y="60.206"/></g><g><use xlink:href="#o" x="137.31" y="78.18"/><use xlink:href="#i" x="142.728" y="78.18"/></g><g><use xlink:href="#o" x="137.31" y="51.219"/><use xlink:href="#k" x="142.728" y="51.219"/></g><g><use xlink:href="#k" x="137.284" y="42.231"/><use xlink:href="#i" x="142.702" y="42.231"/></g><g><use xlink:href="#k" x="137.284" y="24.257"/><use xlink:href="#j" x="142.702" y="24.257"/></g><g><use xlink:href="#k" x="137.284" y="33.244"/><use xlink:href="#l" x="142.702" y="33.244"/></g><g><use xlink:href="#l" x="137.336" y="96.155"/><use xlink:href="#k" x="142.754" y="96.155"/></g><g><use xlink:href="#g" x="135.745" y="168.053"/><use xlink:href="#g" x="141.163" y="168.053"/><use xlink:href="#g" x="146.581" y="168.053"/></g><g><use xlink:href="#c" x="108.767" y="96.155"/><use xlink:href="#e" x="114.185" y="96.155"/><use xlink:href="#c" x="119.603" y="96.155"/></g><g><use xlink:href="#c" x="108.767" y="124.333"/><use xlink:href="#e" x="114.185" y="124.333"/><use xlink:href="#c" x="119.603" y="124.333"/></g><path d="M133.676 17.047h-2.688v24.492h2.688M133.676 43.04h-2.688v7.991h2.688M133.676 52.531h-2.688v25.992h2.688M133.676 89.516h-2.688v24.492h2.688M133.676 115.508h-2.688V161h2.688" fill="none" stroke-width=".672" stroke="#000"/><g><use xlink:href="#p" x="129.454" y="169.153"/></g><path d="M133.676 170h-2.688v25.992h2.688" fill="none" stroke-width=".672" stroke="#000"/><path d="M110.348 13.516h38.07" fill="none" stroke-width=".75" stroke="#000"/><path d="M144.2 87.059l-6.067-6.07m0 6.07l6.066-6.07" fill="none" stroke-width=".672" stroke="#000"/></svg>