<svg xmlns="http://www.w3.org/2000/svg" xmlns:xlink="http://www.w3.org/1999/xlink" width="329.712" height="205.576" viewBox="0 0 247.284 154.182"><defs><symbol overflow="visible" id="a"><path d="M6.328-.25a3.898 3.898 0 0 1-.86.313c-.304.07-.616.109-.937.109-1.187 0-2.093-.383-2.718-1.156C1.195-1.766.89-2.891.89-4.36c0-1.477.304-2.602.921-3.375.625-.782 1.532-1.172 2.72-1.172.32 0 .632.039.937.11.312.062.597.167.86.312v1.921a3.247 3.247 0 0 0-.86-.593 2.007 2.007 0 0 0-.86-.203c-.636 0-1.117.257-1.437.765-.324.5-.485 1.246-.485 2.235 0 .98.16 1.718.485 2.218.32.5.8.75 1.437.75.29 0 .579-.062.86-.187s.566-.32.86-.594zm0 0"/></symbol><symbol overflow="visible" id="b"><path d="M3.61-7.172l-.813 3.578h1.64zM2.562-8.75h2.109L7.032 0H5.296l-.531-2.156H2.453L1.922 0H.188zm0 0"/></symbol><symbol overflow="visible" id="c"><path d="M4.484 0H2.75v-7.234H.531V-8.75h6.172v1.516H4.484zm0 0"/></symbol><symbol overflow="visible" id="d"><path d="M5.11-1.578V-3.25H3.921v-1.453h2.703v4a3.416 3.416 0 0 1-1.11.656 3.724 3.724 0 0 1-1.28.219C3.097.172 2.222-.218 1.608-1 .992-1.79.688-2.91.688-4.36c0-1.476.312-2.6.937-3.374.625-.782 1.52-1.172 2.688-1.172.351 0 .695.054 1.03.156.345.094.665.234.97.422v1.922a2.395 2.395 0 0 0-.844-.703 2.187 2.187 0 0 0-1.032-.25c-.656 0-1.148.25-1.468.75-.324.492-.485 1.242-.485 2.25 0 .968.157 1.71.47 2.218.312.5.765.75 1.358.75.188 0 .344-.015.47-.046a.905.905 0 0 0 .327-.141zm0 0"/></symbol><symbol overflow="visible" id="e"><path d="M1.344-8.75h1.578l.64 4.438L5.985-8.75h1.594L5.86 0H4.781l1.5-7.781L3.75-3.125h-.828L2.25-7.781.75 0H-.344zm0 0"/></symbol><symbol overflow="visible" id="i"><path d="M5.203-4.703c0 .336-.062.625-.187.875s-.305.453-.532.61a2.293 2.293 0 0 1-.734.374c-.273.074-.555.11-.844.11h-.703v1.89a.66.66 0 0 0 .047.266c.031.074.102.133.219.172.05.023.14.043.265.062.133.024.258.031.375.031V0H.438v-.313C.5-.32.598-.332.734-.343a.679.679 0 0 0 .282-.063.353.353 0 0 0 .187-.156.577.577 0 0 0 .063-.282v-4.5a.817.817 0 0 0-.047-.281c-.032-.082-.102-.145-.203-.188a6.134 6.134 0 0 0-.344-.078 1.545 1.545 0 0 0-.266-.03v-.313H3.25c.582 0 1.05.14 1.406.421.364.282.547.653.547 1.11zM3.875-3.641c.094-.132.156-.273.188-.421.03-.157.046-.297.046-.422 0-.164-.023-.332-.062-.5a.983.983 0 0 0-.203-.454.924.924 0 0 0-.406-.312 1.378 1.378 0 0 0-.61-.125h-.625v2.75h.453c.313 0 .567-.047.766-.14a1.25 1.25 0 0 0 .453-.376zm0 0"/></symbol><symbol overflow="visible" id="j"><path d="M4.422-.078a4.53 4.53 0 0 1-.36.125 1.272 1.272 0 0 1-.359.047c-.23 0-.414-.055-.547-.157a.79.79 0 0 1-.265-.484h-.016c-.2.219-.406.387-.625.5-.219.102-.48.156-.781.156-.324 0-.59-.101-.797-.296C.46-.384.359-.645.359-.97c0-.164.02-.316.063-.453.05-.133.125-.254.219-.36A.963.963 0 0 1 .92-2c.126-.07.24-.129.345-.172.125-.05.39-.144.796-.281.407-.133.676-.238.813-.313v-.437c0-.04-.012-.113-.031-.219a.832.832 0 0 0-.094-.312 1.2 1.2 0 0 0-.25-.282c-.105-.082-.258-.125-.453-.125a.907.907 0 0 0-.375.079.69.69 0 0 0-.25.14c0 .055.016.137.047.25.031.117.047.227.047.328 0 .106-.047.2-.141.281-.094.086-.227.126-.39.126-.15 0-.258-.051-.329-.157a.675.675 0 0 1-.094-.36c0-.124.047-.25.141-.374a1.29 1.29 0 0 1 .375-.328c.133-.082.297-.149.484-.203.188-.063.368-.094.547-.094.239 0 .454.016.641.047.188.031.352.105.5.218.145.106.254.25.328.438.082.188.125.43.125.719 0 .418-.008.793-.015 1.125-.012.324-.016.672-.016 1.047 0 .117.02.21.062.28a.54.54 0 0 0 .188.173c.039.023.11.039.203.047h.297zM2.89-2.406c-.25.074-.47.148-.657.219a3.372 3.372 0 0 0-.53.265 1.243 1.243 0 0 0-.345.36.886.886 0 0 0-.125.484c0 .242.063.418.188.531a.708.708 0 0 0 .484.172c.207 0 .39-.047.547-.14.164-.102.3-.227.406-.376zm0 0"/></symbol><symbol overflow="visible" id="k"><path d="M3-.188c-.2.075-.383.137-.547.188a1.8 1.8 0 0 1-.625.094c-.367 0-.621-.09-.766-.266C.914-.359.845-.617.845-.953v-2.938H.063v-.421h.796v-1.36h.797v1.36h1.25v.421H1.672v2.422c0 .18.004.328.016.453.007.125.039.23.093.313.04.086.11.152.203.203a.958.958 0 0 0 .391.063c.07 0 .176-.004.313-.016.144-.02.25-.04.312-.063zm0 0"/></symbol><symbol overflow="visible" id="l"><path d="M4.172-1.016a2.36 2.36 0 0 1-.734.829A1.897 1.897 0 0 1 2.39.108c-.356 0-.664-.058-.922-.171a1.704 1.704 0 0 1-.64-.516 1.927 1.927 0 0 1-.391-.735 3.03 3.03 0 0 1-.126-.89c0-.281.04-.555.126-.828.093-.27.226-.516.406-.735a1.835 1.835 0 0 1 1.453-.687c.312 0 .582.055.812.156.227.094.41.23.547.406.133.157.235.352.297.579.07.218.11.46.11.718v.297H1.188c0 .281.023.54.078.766.062.23.148.433.265.61.114.179.258.312.438.405.187.094.41.141.672.141.257 0 .484-.055.671-.172.188-.125.368-.344.547-.656zm-.984-1.656c0-.164-.016-.344-.047-.531a1.458 1.458 0 0 0-.125-.469A.813.813 0 0 0 2.734-4a.742.742 0 0 0-.437-.125c-.313 0-.574.133-.781.39-.2.25-.309.606-.329 1.063zm0 0"/></symbol><symbol overflow="visible" id="m"><path d="M3.64-3.781a.76.76 0 0 1-.109.406c-.074.117-.187.172-.344.172-.167 0-.292-.04-.374-.125a.375.375 0 0 1-.126-.281c0-.063.004-.118.016-.172.008-.063.016-.117.016-.172-.137 0-.297.058-.485.172-.18.117-.336.273-.468.469v2.53c0 .106.02.188.062.25.04.063.102.11.188.141.07.032.164.059.28.079.114.011.22.015.313.015V0H.313v-.297H.53A.66.66 0 0 0 .72-.344.306.306 0 0 0 .89-.469c.039-.07.062-.16.062-.265v-2.688a.605.605 0 0 0-.062-.25.573.573 0 0 0-.172-.219.563.563 0 0 0-.203-.078A.972.972 0 0 0 .266-4v-.297l1.437-.094.063.063v.61h.03c.177-.227.376-.407.595-.532.226-.125.437-.188.625-.188.175 0 .32.063.437.188a.612.612 0 0 1 .188.469zm0 0"/></symbol><symbol overflow="visible" id="n"><path d="M5.11 0H2.983v-.297h.22a.677.677 0 0 0 .202-.047.244.244 0 0 0 .172-.125c.04-.07.063-.16.063-.265V-2.97c0-.3-.075-.535-.22-.703a.695.695 0 0 0-.53-.25c-.157 0-.297.027-.422.078a1.415 1.415 0 0 0-.344.172.969.969 0 0 0-.234.219c-.055.074-.094.133-.125.172v2.5c0 .094.02.18.062.25.04.062.102.11.188.14.062.032.129.059.203.079.07.011.144.015.219.015V0H.312v-.297h.22a.66.66 0 0 0 .187-.047.306.306 0 0 0 .172-.125c.039-.07.062-.16.062-.265v-2.688a.63.63 0 0 0-.062-.265.62.62 0 0 0-.172-.204.563.563 0 0 0-.203-.078A.972.972 0 0 0 .266-4v-.297l1.437-.094.063.063v.61h.03l.266-.235c.102-.102.204-.188.297-.25.102-.07.227-.129.375-.172a1.66 1.66 0 0 1 .516-.078c.414 0 .723.133.922.39.195.262.297.606.297 1.032v2.25a.56.56 0 0 0 .047.25.42.42 0 0 0 .187.156.75.75 0 0 0 .188.063c.05.011.125.015.218.015zm0 0"/></symbol><symbol overflow="visible" id="o"><path d="M5.11-3H.671v-.547h4.437zm0 1.64H.671v-.562h4.437zm0 0"/></symbol><symbol overflow="visible" id="p"><path d="M6.469-2.484c-.074 0-.172.011-.297.03-.117.024-.211.048-.281.079a.49.49 0 0 0-.188.203.687.687 0 0 0-.047.266V-.703c.008.125.016.226.016.297-.387.18-.777.312-1.172.406-.387.094-.762.14-1.125.14-.406 0-.793-.074-1.156-.218a2.815 2.815 0 0 1-.969-.64 3.073 3.073 0 0 1-.672-1.016 3.576 3.576 0 0 1-.234-1.329c0-.476.078-.921.234-1.328a2.96 2.96 0 0 1 .672-1.046c.27-.301.598-.532.984-.688.383-.164.797-.25 1.235-.25.351 0 .66.043.922.125.257.086.488.188.687.313l.188-.297h.343l.047 2.171h-.36a5.707 5.707 0 0 0-.234-.703 2.43 2.43 0 0 0-.343-.625A1.589 1.589 0 0 0 3.453-6c-.312 0-.594.07-.844.203-.25.125-.464.313-.64.563-.18.242-.32.543-.422.906-.094.367-.14.773-.14 1.219 0 .398.046.773.14 1.125.101.343.242.648.422.906.176.262.398.465.672.61.28.148.593.218.937.218.258 0 .492-.035.703-.11.207-.081.36-.163.453-.25.02-.156.032-.312.032-.468v-.735c0-.125-.016-.234-.047-.328a.337.337 0 0 0-.203-.203 1.205 1.205 0 0 0-.391-.11 3.701 3.701 0 0 0-.39-.03v-.329h2.734zm0 0"/></symbol><symbol overflow="visible" id="q"><path d="M2.313 0H.39v-.203c.05 0 .132-.004.25-.016.125-.02.21-.035.265-.047.051-.02.094-.05.125-.093.032-.04.047-.102.047-.188v-2H.375v-.25h.156c.207 0 .39-.035.547-.11a.91.91 0 0 0 .36-.25h.234a9.56 9.56 0 0 0-.031.438v2.141c0 .062.015.121.046.172a.32.32 0 0 0 .125.125c.051.023.13.043.235.062.113.012.203.016.265.016zm0 0"/></symbol><symbol overflow="visible" id="r"><path d="M2.984 0H.313v-.39c.05-.051.124-.114.218-.188.094-.082.203-.164.328-.25.07-.05.16-.102.266-.156a7.97 7.97 0 0 1 .36-.204 1.97 1.97 0 0 0 .577-.437.803.803 0 0 0 .094-.219c.031-.093.047-.222.047-.39 0-.227-.062-.399-.187-.516a.72.72 0 0 0-.5-.172.875.875 0 0 0-.36.078.446.446 0 0 0-.234.203c.008.063.023.137.047.22.02.085.031.163.031.233 0 .075-.031.141-.094.204-.054.054-.14.078-.265.078A.267.267 0 0 1 .42-2a.42.42 0 0 1-.077-.266c0-.101.023-.207.078-.312.062-.102.144-.195.25-.281.113-.094.242-.164.39-.22.157-.05.32-.077.5-.077.395 0 .708.09.938.265.227.18.344.414.344.704 0 .136-.024.261-.063.374a.71.71 0 0 1-.203.297 1.503 1.503 0 0 1-.36.266l-.609.281a5.24 5.24 0 0 0-.468.235C1.004-.66.89-.582.797-.5h2.187zm0 0"/></symbol><symbol overflow="visible" id="s"><path d="M1.39 1.047c-.18 0-.343-.027-.5-.078A1.282 1.282 0 0 1 .517.797a1.117 1.117 0 0 1-.25-.281.583.583 0 0 1-.079-.297c0-.094.02-.18.063-.25.04-.07.113-.11.219-.11.113 0 .203.032.265.094.063.05.094.113.094.188 0 .062-.012.14-.031.234L.75.563c.008.019.031.039.063.062.039.031.085.063.14.094.05.02.11.039.172.062.07.02.172.031.297.031A.941.941 0 0 0 1.75.75a.933.933 0 0 0 .281-.188A.835.835 0 0 0 2.22.25c.05-.117.078-.266.078-.453 0-.102-.012-.203-.031-.297a.62.62 0 0 0-.125-.266.694.694 0 0 0-.25-.171A.985.985 0 0 0 1.516-1H1.14v-.328h.25c.257 0 .445-.07.562-.219.113-.144.172-.363.172-.656 0-.238-.059-.414-.172-.531-.105-.125-.262-.188-.469-.188a.56.56 0 0 0-.25.047c-.062.023-.117.043-.156.063a.359.359 0 0 0-.11.093l-.062.063c.008.062.02.14.031.234.02.086.032.168.032.25 0 .063-.031.125-.094.188-.055.054-.137.078-.25.078-.105 0-.184-.035-.234-.11a.476.476 0 0 1-.063-.25c0-.093.024-.191.078-.296a1.33 1.33 0 0 1 .25-.297 1.58 1.58 0 0 1 .406-.204c.157-.062.333-.093.532-.093.238 0 .43.039.578.11.156.073.273.155.36.25.093.093.155.198.187.312a.976.976 0 0 1 .047.265c0 .094-.016.196-.047.297a.72.72 0 0 1-.125.266 1.212 1.212 0 0 1-.281.234 1.454 1.454 0 0 1-.391.188v.03c.101.013.21.04.328.079.125.043.234.102.328.172a.813.813 0 0 1 .25.297c.063.125.094.281.094.469 0 .363-.149.66-.438.89-.293.227-.656.344-1.093.344zm0 0"/></symbol><symbol overflow="visible" id="t"><path d="M1.469-2.031h2.578V-9.61l-2.39.593v-2.078l2.405-.578h2.235v9.64h2.578V0H1.469zm0 0"/></symbol><symbol overflow="visible" id="u"><path d="M3.844-5.828c0-.27.094-.5.281-.688a.931.931 0 0 1 .688-.28c.28 0 .515.093.703.28a.937.937 0 0 1 .28.688c0 .273-.093.5-.28.687a.954.954 0 0 1-.704.282.949.949 0 0 1-.687-.266.954.954 0 0 1-.281-.703zm.969-4.094c-.532 0-.922.328-1.172.985-.243.648-.36 1.683-.36 3.109 0 1.43.117 2.469.36 3.125.25.648.64.969 1.171.969.54 0 .93-.32 1.172-.97.25-.655.375-1.694.375-3.124 0-1.426-.125-2.461-.375-3.11-.242-.656-.632-.984-1.171-.984zM.969-5.828c0-2.02.316-3.531.953-4.531.644-1.008 1.61-1.516 2.89-1.516 1.29 0 2.254.508 2.891 1.516.645 1 .969 2.511.969 4.53 0 2.024-.324 3.54-.969 4.548C7.066-.27 6.102.234 4.813.234 3.53.234 2.566-.27 1.921-1.28 1.285-2.29.969-3.805.969-5.828zm0 0"/></symbol><clipPath id="f"><path d="M45 115h53v39.184H45zm0 0"/></clipPath><clipPath id="g"><path d="M102 115h53v39.184h-53zm0 0"/></clipPath><clipPath id="h"><path d="M158 115h54v39.184h-54zm0 0"/></clipPath><clipPath id="v"><path d="M239 31h8.285v13H239zm0 0"/></clipPath><clipPath id="w"><path d="M239 79h8.285v13H239zm0 0"/></clipPath><clipPath id="x"><path d="M239 127h8.285v13H239zm0 0"/></clipPath></defs><use xlink:href="#a" x="161.984" y="31.583"/><use xlink:href="#b" x="174.836" y="31.583"/><use xlink:href="#c" x="187.676" y="31.583"/><use xlink:href="#d" x="200.528" y="31.583"/><path d="M159.523 20.246h51.024v36.848h-51.024zm0 0" fill="none" stroke-width="1.417" stroke="#2aa198" stroke-opacity=".99"/><use xlink:href="#a" x="162.172" y="54.261"/><use xlink:href="#b" x="175.024" y="54.261"/><use xlink:href="#c" x="187.864" y="54.261"/><use xlink:href="#d" x="200.716" y="54.261"/><path d="M166.695 34.418v8.504M178.922 34.418v8.504M191.148 34.418v8.504M203.379 34.418v8.504" fill="none" stroke-width=".75" stroke="#000"/><use xlink:href="#d" x="48.433" y="31.418"/><use xlink:href="#c" x="61.285" y="31.418"/><use xlink:href="#b" x="74.125" y="31.418"/><use xlink:href="#d" x="86.977" y="31.418"/><path d="M46.137 20.246h51.027v36.848H46.137zm0 0" fill="none" stroke-width="1.417" stroke="#dc322f" stroke-opacity=".99"/><use xlink:href="#d" x="48.62" y="54.095"/><use xlink:href="#d" x="61.47" y="54.095" fill="#dc322f"/><use xlink:href="#b" x="74.32" y="54.095"/><use xlink:href="#d" x="87.172" y="54.095"/><path d="M52.86 34.43v8.504M77.313 34.43v8.504M89.543 34.43v8.504" fill="none" stroke-width=".75" stroke="#000"/><use xlink:href="#e" x="61.941" y="42.933" fill="#dc322f"/><use xlink:href="#d" x="48.433" y="79.607"/><use xlink:href="#c" x="61.285" y="79.607"/><use xlink:href="#b" x="74.125" y="79.607"/><use xlink:href="#d" x="86.977" y="79.607"/><path d="M46.137 68.434h51.027v36.851H46.137zm0 0" fill="none" stroke-width="1.417" stroke="#2aa198" stroke-opacity=".99"/><use xlink:href="#d" x="48.62" y="102.284"/><use xlink:href="#c" x="61.472" y="102.284"/><use xlink:href="#b" x="74.312" y="102.284"/><use xlink:href="#d" x="87.164" y="102.284"/><path d="M53.309 82.441v8.504M65.535 82.441v8.504M77.766 82.441v8.504M89.992 82.441v8.504" fill="none" stroke-width=".75" stroke="#000"/><use xlink:href="#a" x="161.984" y="79.772"/><use xlink:href="#b" x="174.836" y="79.772"/><use xlink:href="#c" x="187.676" y="79.772"/><use xlink:href="#d" x="200.528" y="79.772"/><path d="M159.523 68.434h51.024v36.851h-51.024zm0 0" fill="none" stroke-width="1.417" stroke="#2aa198" stroke-opacity=".99"/><use xlink:href="#a" x="162.172" y="102.45"/><use xlink:href="#b" x="175.024" y="102.45"/><use xlink:href="#c" x="187.864" y="102.45"/><use xlink:href="#d" x="200.716" y="102.45"/><path d="M166.695 82.605v8.504M178.922 82.605v8.504M191.148 82.605v8.504M203.379 82.605v8.504" fill="none" stroke-width=".75" stroke="#000"/><use xlink:href="#d" x="105.479" y="79.772"/><use xlink:href="#c" x="118.331" y="79.772"/><use xlink:href="#c" x="131.171" y="79.772"/><use xlink:href="#a" x="144.023" y="79.772"/><path d="M102.832 68.434h51.023v36.851h-51.023zm0 0" fill="none" stroke-width="1.417" stroke="#dc322f" stroke-opacity=".99"/><use xlink:href="#d" x="105.479" y="102.45"/><use xlink:href="#d" x="118.328" y="102.45" fill="#dc322f"/><use xlink:href="#c" x="131.178" y="102.45"/><use xlink:href="#a" x="144.03" y="102.45"/><path d="M110 82.605v8.504M134.457 82.605v8.504M146.688 82.605v8.504" fill="none" stroke-width=".75" stroke="#000"/><use xlink:href="#e" x="119.084" y="91.111" fill="#dc322f"/><use xlink:href="#d" x="48.433" y="127.796"/><use xlink:href="#c" x="61.285" y="127.796"/><use xlink:href="#b" x="74.125" y="127.796"/><use xlink:href="#d" x="86.977" y="127.796"/><g clip-path="url(#f)"><path d="M46.137 116.621h51.027v36.852H46.137zm0 0" fill="none" stroke-width="1.417" stroke="#2aa198" stroke-opacity=".99"/></g><use xlink:href="#d" x="48.62" y="150.473"/><use xlink:href="#c" x="61.472" y="150.473"/><use xlink:href="#b" x="74.312" y="150.473"/><use xlink:href="#d" x="87.164" y="150.473"/><path d="M53.309 130.629v8.504M65.535 130.629v8.504M77.766 130.629v8.504M89.992 130.629v8.504" fill="none" stroke-width=".75" stroke="#000"/><use xlink:href="#d" x="105.479" y="31.583"/><use xlink:href="#c" x="118.331" y="31.583"/><use xlink:href="#c" x="131.171" y="31.583"/><use xlink:href="#a" x="144.023" y="31.583"/><path d="M102.832 20.246h51.023v36.848h-51.023zm0 0" fill="none" stroke-width="1.417" stroke="#2aa198" stroke-opacity=".99"/><use xlink:href="#d" x="105.479" y="54.261"/><use xlink:href="#c" x="118.331" y="54.261"/><use xlink:href="#c" x="131.171" y="54.261"/><use xlink:href="#a" x="144.023" y="54.261"/><path d="M109.574 34.371v8.504M121.8 34.371v8.504M134.031 34.371v8.504M146.258 34.371v8.504" fill="none" stroke-width=".75" stroke="#000"/><use xlink:href="#d" x="105.479" y="127.961"/><use xlink:href="#c" x="118.331" y="127.961"/><use xlink:href="#c" x="131.171" y="127.961"/><use xlink:href="#a" x="144.023" y="127.961"/><g clip-path="url(#g)"><path d="M102.832 116.621h51.023v36.852h-51.023zm0 0" fill="none" stroke-width="1.417" stroke="#2aa198" stroke-opacity=".99"/></g><use xlink:href="#d" x="105.479" y="150.639"/><use xlink:href="#c" x="118.331" y="150.639"/><use xlink:href="#c" x="131.171" y="150.639"/><use xlink:href="#a" x="144.023" y="150.639"/><path d="M109.816 130.746v8.504M122.047 130.746v8.504M134.273 130.746v8.504M146.504 130.746v8.504" fill="none" stroke-width=".75" stroke="#000"/><use xlink:href="#a" x="161.984" y="127.961"/><use xlink:href="#b" x="174.836" y="127.961"/><use xlink:href="#c" x="187.676" y="127.961"/><use xlink:href="#d" x="200.528" y="127.961"/><g clip-path="url(#h)"><path d="M159.523 116.621h51.024v36.852h-51.024zm0 0" fill="none" stroke-width="1.417" stroke="#dc322f" stroke-opacity=".99"/></g><use xlink:href="#a" x="162.172" y="150.639"/><use xlink:href="#b" x="175.024" y="150.639"/><use xlink:href="#d" x="187.871" y="150.639" fill="#dc322f"/><use xlink:href="#d" x="200.72" y="150.639"/><path d="M166.762 130.887v8.504M178.992 130.887v8.504M203.45 130.887v8.504" fill="none" stroke-width=".75" stroke="#000"/><use xlink:href="#e" x="187.608" y="139.389" fill="#dc322f"/><use xlink:href="#i" x="34.98" y="31.583"/><use xlink:href="#i" x="34.98" y="79.772"/><use xlink:href="#i" x="34.98" y="127.961"/><use xlink:href="#d" x="49.58" y="8.906"/><use xlink:href="#c" x="63.176" y="8.906"/><use xlink:href="#b" x="76.784" y="8.906"/><use xlink:href="#d" x="90.38" y="8.906"/><use xlink:href="#d" x="103.976" y="8.906"/><use xlink:href="#c" x="117.572" y="8.906"/><use xlink:href="#c" x="131.18" y="8.906"/><use xlink:href="#a" x="144.776" y="8.906"/><use xlink:href="#a" x="158.372" y="8.906"/><use xlink:href="#b" x="171.968" y="8.906"/><use xlink:href="#c" x="185.576" y="8.906"/><use xlink:href="#d" x="199.172" y="8.906"/><use xlink:href="#i" x="-.4" y="8.906"/><use xlink:href="#j" x="5.081" y="8.906"/><use xlink:href="#k" x="9.608" y="8.906"/><use xlink:href="#k" x="12.713" y="8.906"/><use xlink:href="#l" x="15.818" y="8.906"/><use xlink:href="#m" x="20.165" y="8.906"/><use xlink:href="#n" x="23.846" y="8.906"/><use xlink:href="#o" x="29.156" y="8.906"/><use xlink:href="#i" x="34.943" y="8.906"/><use xlink:href="#p" x="31.43" y="51.426"/><use xlink:href="#q" x="37.956" y="53.226"/><use xlink:href="#p" x="30.676" y="99.615"/><use xlink:href="#r" x="37.201" y="101.415"/><use xlink:href="#p" x="30.716" y="147.804"/><use xlink:href="#s" x="37.241" y="149.604"/><use xlink:href="#t" x="217.651" y="42.922"/><g><use xlink:href="#u" x="228.035" y="42.922"/></g><g clip-path="url(#v)"><use xlink:href="#u" x="238.419" y="42.922"/></g><g><use xlink:href="#u" x="217.651" y="91.111"/></g><g><use xlink:href="#t" x="228.035" y="91.111"/></g><g clip-path="url(#w)"><use xlink:href="#u" x="238.419" y="91.111"/></g><g><use xlink:href="#u" x="217.651" y="139.3"/></g><g><use xlink:href="#u" x="228.035" y="139.3"/></g><g clip-path="url(#x)"><use xlink:href="#t" x="238.419" y="139.3"/></g></svg>