<?xml version="1.0" encoding="UTF-8" standalone="no"?>
<!-- Created with Inkscape (http://www.inkscape.org/) -->

<svg
   xmlns:dc="http://purl.org/dc/elements/1.1/"
   xmlns:cc="http://creativecommons.org/ns#"
   xmlns:rdf="http://www.w3.org/1999/02/22-rdf-syntax-ns#"
   xmlns:svg="http://www.w3.org/2000/svg"
   xmlns="http://www.w3.org/2000/svg"
   xmlns:sodipodi="http://sodipodi.sourceforge.net/DTD/sodipodi-0.dtd"
   xmlns:inkscape="http://www.inkscape.org/namespaces/inkscape"
   width="106.38752mm"
   height="87.145958mm"
   viewBox="0 0 106.38752 87.145961"
   version="1.1"
   id="svg5948"
   inkscape:version="0.92.2 2405546, 2018-03-11"
   sodipodi:docname="bloom_critical.svg">
  <defs
     id="defs5942">
    <clipPath
       clipPathUnits="userSpaceOnUse"
       id="clipPath5215">
      <path
         d="m 530.84,700.318 h -467 V 238.335 h 467 z"
         id="path5213"
         inkscape:connector-curvature="0" />
    </clipPath>
    <clipPath
       clipPathUnits="userSpaceOnUse"
       id="clipPath5199">
      <path
         d="m 530.84,700.318 h -467 V 238.335 h 467 z"
         id="path5197"
         inkscape:connector-curvature="0" />
    </clipPath>
    <clipPath
       clipPathUnits="userSpaceOnUse"
       id="clipPath4935">
      <path
         d="m 530.84,700.318 h -467 V 238.335 h 467 z"
         id="path4933"
         inkscape:connector-curvature="0" />
    </clipPath>
    <clipPath
       clipPathUnits="userSpaceOnUse"
       id="clipPath4911">
      <path
         d="m 530.84,700.318 h -467 V 238.335 h 467 z"
         id="path4909"
         inkscape:connector-curvature="0" />
    </clipPath>
    <clipPath
       clipPathUnits="userSpaceOnUse"
       id="clipPath4887">
      <path
         d="m 530.84,700.318 h -467 V 238.335 h 467 z"
         id="path4885"
         inkscape:connector-curvature="0" />
    </clipPath>
    <clipPath
       clipPathUnits="userSpaceOnUse"
       id="clipPath4863">
      <path
         d="m 530.84,700.318 h -467 V 238.335 h 467 z"
         id="path4861"
         inkscape:connector-curvature="0" />
    </clipPath>
  </defs>
  <sodipodi:namedview
     id="base"
     pagecolor="#ffffff"
     bordercolor="#666666"
     borderopacity="1.0"
     inkscape:pageopacity="0.0"
     inkscape:pageshadow="2"
     inkscape:zoom="0.69999999"
     inkscape:cx="-253.36089"
     inkscape:cy="-257.11024"
     inkscape:document-units="mm"
     inkscape:current-layer="layer1"
     showgrid="false"
     fit-margin-top="0.1"
     fit-margin-left="0.1"
     fit-margin-right="0.1"
     fit-margin-bottom="0.1"
     inkscape:window-width="1920"
     inkscape:window-height="1080"
     inkscape:window-x="0"
     inkscape:window-y="0"
     inkscape:window-maximized="1" />
  <metadata
     id="metadata5945">
    <rdf:RDF>
      <cc:Work
         rdf:about="">
        <dc:format>image/svg+xml</dc:format>
        <dc:type
           rdf:resource="http://purl.org/dc/dcmitype/StillImage" />
        <dc:title></dc:title>
      </cc:Work>
    </rdf:RDF>
  </metadata>
  <g
     inkscape:label="Layer 1"
     inkscape:groupmode="layer"
     id="layer1"
     transform="translate(-42.466844,-51.199035)">
    <g
       id="g1899">
      <g
         transform="matrix(0.35277777,0,0,-0.35277777,93.932525,127.73169)"
         id="g4573">
        <path
           inkscape:connector-curvature="0"
           id="path4575"
           style="fill:none;stroke:#000000;stroke-width:0.33899999;stroke-linecap:butt;stroke-linejoin:bevel;stroke-miterlimit:10;stroke-dasharray:none;stroke-opacity:1"
           d="m 0,0 c 0,4.473 -7.237,8.099 -16.164,8.099 -8.927,0 -16.164,-3.626 -16.164,-8.099 0,-4.472 7.237,-8.098 16.164,-8.098 C -7.237,-8.098 0,-4.472 0,0 Z" />
      </g>
      <g
         transform="matrix(0.35277777,0,0,-0.35277777,87.188465,126.72768)"
         id="g4577">
        <path
           inkscape:connector-curvature="0"
           id="path4579"
           style="fill:#000000;fill-opacity:1;fill-rule:nonzero;stroke:none"
           d="m 0,0 h -5.184 l -0.161,-1.909 h 0.211 c 0.12,1.365 0.247,1.645 1.528,1.645 0.154,0 0.373,0 0.458,-0.016 0.179,-0.034 0.179,-0.128 0.179,-0.323 v -4.471 c 0,-0.289 0,-0.407 -0.892,-0.407 H -4.2 v -0.263 c 0.348,0.025 1.214,0.025 1.604,0.025 0.391,0 1.264,0 1.612,-0.025 v 0.263 h -0.34 c -0.89,0 -0.89,0.118 -0.89,0.407 v 4.471 c 0,0.17 0,0.289 0.153,0.323 0.093,0.016 0.322,0.016 0.483,0.016 1.281,0 1.408,-0.28 1.528,-1.645 H 0.161 Z M 3.149,0.161 C 3.106,0.271 3.09,0.331 2.954,0.331 2.818,0.331 2.793,0.279 2.75,0.161 L 0.994,-4.914 C 0.842,-5.346 0.502,-5.474 0.044,-5.481 v -0.263 c 0.195,0.008 0.559,0.025 0.865,0.025 0.264,0 0.705,-0.017 0.975,-0.025 v 0.263 c -0.423,0 -0.635,0.211 -0.635,0.432 l 0.016,0.127 0.39,1.111 h 2.097 l 0.449,-1.297 0.026,-0.12 c 0,-0.253 -0.475,-0.253 -0.705,-0.253 v -0.263 c 0.305,0.025 0.901,0.025 1.223,0.025 0.364,0 0.755,-0.009 1.11,-0.025 v 0.263 H 5.703 c -0.509,0 -0.628,0.059 -0.721,0.338 z M 2.7,-0.789 3.658,-3.547 H 1.749 Z M 11.073,0 H 5.888 L 5.727,-1.909 h 0.212 c 0.119,1.365 0.247,1.645 1.528,1.645 0.153,0 0.374,0 0.458,-0.016 0.178,-0.034 0.178,-0.128 0.178,-0.323 v -4.471 c 0,-0.289 0,-0.407 -0.89,-0.407 h -0.34 v -0.263 c 0.348,0.025 1.214,0.025 1.604,0.025 0.39,0 1.265,0 1.612,-0.025 v 0.263 H 9.75 c -0.892,0 -0.892,0.118 -0.892,0.407 v 4.471 c 0,0.17 0,0.289 0.152,0.323 0.095,0.016 0.324,0.016 0.485,0.016 1.281,0 1.408,-0.28 1.527,-1.645 h 0.212 L 11.073,0" />
      </g>
      <path
         inkscape:connector-curvature="0"
         id="path4581"
         style="fill:none;stroke:#00ff00;stroke-width:0.11959165;stroke-linecap:butt;stroke-linejoin:bevel;stroke-miterlimit:10;stroke-dasharray:0.89788998, 0.89788998;stroke-dashoffset:0;stroke-opacity:1"
         d="m 144.54202,54.215985 c 0,-1.57798 -2.76331,-2.857152 -6.17255,-2.857152 -3.40889,0 -6.17255,1.279172 -6.17255,2.857152 0,1.57797 2.76366,2.85714 6.17255,2.85714 3.40924,0 6.17255,-1.27917 6.17255,-2.85714 z" />
      <g
         transform="matrix(0.35277777,0,0,-0.35277777,136.19248,53.155882)"
         id="g4583">
        <path
           inkscape:connector-curvature="0"
           id="path4585"
           style="fill:#000000;fill-opacity:1;fill-rule:nonzero;stroke:none"
           d="M 0,0 C -0.042,0.109 -0.06,0.169 -0.195,0.169 -0.331,0.169 -0.357,0.118 -0.4,0 l -1.754,-5.075 c -0.154,-0.433 -0.493,-0.56 -0.952,-0.569 v -0.262 c 0.197,0.009 0.56,0.025 0.866,0.025 0.263,0 0.705,-0.016 0.976,-0.025 v 0.262 c -0.424,0 -0.636,0.213 -0.636,0.433 l 0.016,0.127 0.39,1.112 H 0.602 L 1.053,-5.27 1.078,-5.39 c 0,-0.254 -0.476,-0.254 -0.705,-0.254 v -0.262 c 0.306,0.025 0.9,0.025 1.222,0.025 0.365,0 0.755,-0.008 1.111,-0.025 v 0.262 H 2.554 c -0.508,0 -0.628,0.06 -0.721,0.34 z M -0.449,-0.951 0.51,-3.708 H -1.4 Z M 6.363,0 C 6.32,0.109 6.303,0.169 6.168,0.169 6.032,0.169 6.006,0.118 5.965,0 L 4.208,-5.075 C 4.056,-5.508 3.716,-5.635 3.258,-5.644 v -0.262 c 0.195,0.009 0.559,0.025 0.866,0.025 0.263,0 0.703,-0.016 0.975,-0.025 v 0.262 c -0.424,0 -0.637,0.213 -0.637,0.433 l 0.017,0.127 0.391,1.112 H 6.965 L 7.415,-5.27 7.44,-5.39 c 0,-0.254 -0.475,-0.254 -0.703,-0.254 v -0.262 c 0.305,0.025 0.899,0.025 1.222,0.025 0.363,0 0.755,-0.008 1.111,-0.025 v 0.262 H 8.918 c -0.51,0 -0.628,0.06 -0.723,0.34 z M 5.913,-0.951 6.872,-3.708 H 4.963 Z M 12.725,0 C 12.683,0.109 12.667,0.169 12.531,0.169 12.394,0.169 12.37,0.118 12.327,0 L 10.57,-5.075 c -0.152,-0.433 -0.492,-0.56 -0.95,-0.569 v -0.262 c 0.195,0.009 0.561,0.025 0.866,0.025 0.263,0 0.703,-0.016 0.975,-0.025 v 0.262 c -0.424,0 -0.635,0.213 -0.635,0.433 l 0.016,0.127 0.39,1.112 h 2.096 l 0.449,-1.298 0.026,-0.12 c 0,-0.254 -0.475,-0.254 -0.703,-0.254 v -0.262 c 0.305,0.025 0.899,0.025 1.221,0.025 0.365,0 0.755,-0.008 1.112,-0.025 v 0.262 H 15.28 c -0.51,0 -0.628,0.06 -0.722,0.34 z m -0.449,-0.951 0.959,-2.757 h -1.91 l 0.951,2.757" />
      </g>
      <g
         transform="matrix(0.35277777,0,0,-0.35277777,71.046415,135.32805)"
         id="g4587">
        <path
           inkscape:connector-curvature="0"
           id="path4589"
           style="fill:none;stroke:#000000;stroke-width:0.33899999;stroke-linecap:butt;stroke-linejoin:bevel;stroke-miterlimit:10;stroke-dasharray:none;stroke-opacity:1"
           d="m 0,0 c 0,4.473 -7.46,8.098 -16.663,8.098 -9.203,0 -16.664,-3.625 -16.664,-8.098 0,-4.473 7.461,-8.099 16.664,-8.099 C -7.46,-8.099 0,-4.473 0,0 Z" />
      </g>
      <g
         transform="matrix(0.35277777,0,0,-0.35277777,63.199934,134.26725)"
         id="g4591">
        <path
           inkscape:connector-curvature="0"
           id="path4593"
           style="fill:#000000;fill-opacity:1;fill-rule:nonzero;stroke:none"
           d="M 0,0 C -0.042,0.109 -0.06,0.17 -0.195,0.17 -0.331,0.17 -0.357,0.118 -0.399,0 l -1.757,-5.075 c -0.152,-0.433 -0.491,-0.56 -0.949,-0.569 v -0.262 c 0.195,0.008 0.559,0.026 0.865,0.026 0.263,0 0.704,-0.018 0.976,-0.026 v 0.262 c -0.425,0 -0.637,0.213 -0.637,0.433 l 0.017,0.129 0.391,1.11 H 0.603 L 1.052,-5.27 1.078,-5.388 c 0,-0.256 -0.475,-0.256 -0.704,-0.256 v -0.262 c 0.305,0.026 0.899,0.026 1.221,0.026 0.365,0 0.755,-0.009 1.112,-0.026 v 0.262 H 2.554 c -0.509,0 -0.628,0.061 -0.721,0.34 z M -0.45,-0.95 0.509,-3.708 H -1.4 Z m 8.383,0.789 H 2.748 l -0.161,-1.91 h 0.212 c 0.119,1.366 0.246,1.645 1.528,1.645 0.153,0 0.373,0 0.458,-0.015 0.178,-0.035 0.178,-0.128 0.178,-0.323 v -4.471 c 0,-0.289 0,-0.409 -0.891,-0.409 H 3.733 v -0.262 c 0.348,0.026 1.213,0.026 1.603,0.026 0.39,0 1.264,0 1.612,-0.026 v 0.262 H 6.609 c -0.891,0 -0.891,0.12 -0.891,0.409 v 4.471 c 0,0.17 0,0.288 0.153,0.323 0.093,0.015 0.322,0.015 0.483,0.015 1.282,0 1.409,-0.279 1.528,-1.645 h 0.212 z m 6.118,0.034 c 0,0.144 0,0.202 -0.093,0.202 l -0.136,-0.1 -0.424,-0.628 c -0.314,0.304 -0.747,0.728 -1.561,0.728 -1.587,0 -2.954,-1.348 -2.954,-3.079 0,-1.757 1.375,-3.089 2.954,-3.089 1.382,0 2.214,1.179 2.214,2.164 l -0.11,0.144 -0.102,-0.136 c -0.068,-1.213 -0.976,-1.909 -1.9,-1.909 -0.518,0 -2.181,0.289 -2.181,2.817 0,2.537 1.654,2.825 2.172,2.825 0.925,0 1.68,-0.771 1.849,-2.01 0.018,-0.118 0.018,-0.144 0.136,-0.144 0.136,0 0.136,0.026 0.136,0.204 v 2.011" />
      </g>
      <path
         inkscape:connector-curvature="0"
         id="path4595"
         style="fill:none;stroke:#ff0000;stroke-width:0.11959165;stroke-linecap:butt;stroke-linejoin:bevel;stroke-miterlimit:10;stroke-dasharray:0.89788998, 0.89788998;stroke-dashoffset:0;stroke-opacity:1"
         d="m 80.126915,82.426565 h 8.74995 v -4.04072 h -8.74995 z" />
      <g
         transform="matrix(0.35277777,0,0,-0.35277777,83.114235,79.390905)"
         id="g4597">
        <path
           inkscape:connector-curvature="0"
           id="path4599"
           style="fill:#000000;fill-opacity:1;fill-rule:nonzero;stroke:none"
           d="M 0,0 C 0,0.145 0,0.204 -0.093,0.204 L -0.229,0.102 -0.653,-0.526 c -0.315,0.305 -0.747,0.73 -1.562,0.73 -1.586,0 -2.952,-1.35 -2.952,-3.081 0,-1.756 1.375,-3.088 2.952,-3.088 1.383,0 2.215,1.18 2.215,2.163 l -0.109,0.145 -0.102,-0.136 c -0.068,-1.213 -0.977,-1.908 -1.901,-1.908 -0.518,0 -2.181,0.288 -2.181,2.815 0,2.538 1.654,2.826 2.173,2.826 0.925,0 1.679,-0.772 1.849,-2.01 0.017,-0.119 0.017,-0.145 0.135,-0.145 C 0,-2.215 0,-2.189 0,-2.011 Z m 5.516,-5.243 c 0.111,-0.188 0.45,-0.526 0.543,-0.526 0.077,0 0.077,0.068 0.077,0.195 v 1.475 c 0,0.331 0.034,0.374 0.585,0.374 v 0.263 c -0.313,-0.009 -0.78,-0.025 -1.036,-0.025 -0.338,0 -1.059,0 -1.365,0.025 v -0.263 h 0.272 c 0.762,0 0.789,-0.093 0.789,-0.408 v -0.542 c 0,-0.951 -1.078,-1.026 -1.315,-1.026 -0.552,0 -2.232,0.297 -2.232,2.824 0,2.537 1.671,2.817 2.181,2.817 0.908,0 1.679,-0.763 1.849,-2.01 0.018,-0.119 0.018,-0.145 0.136,-0.145 0.136,0 0.136,0.026 0.136,0.204 V 0 c 0,0.145 0,0.204 -0.093,0.204 L 5.907,0.102 5.482,-0.526 c -0.271,0.271 -0.729,0.73 -1.569,0.73 -1.578,0 -2.952,-1.342 -2.952,-3.081 0,-1.738 1.356,-3.088 2.969,-3.088 0.619,0 1.297,0.221 1.586,0.722 z m 5.002,5.37 c -0.042,0.11 -0.059,0.17 -0.195,0.17 -0.136,0 -0.161,-0.051 -0.202,-0.17 L 8.364,-4.946 C 8.211,-5.379 7.872,-5.507 7.413,-5.516 v -0.262 c 0.196,0.009 0.561,0.025 0.866,0.025 0.263,0 0.704,-0.016 0.976,-0.025 v 0.262 c -0.424,0 -0.637,0.213 -0.637,0.434 l 0.017,0.127 0.391,1.112 h 2.095 l 0.45,-1.299 0.026,-0.119 c 0,-0.255 -0.476,-0.255 -0.705,-0.255 v -0.262 c 0.306,0.025 0.9,0.025 1.222,0.025 0.364,0 0.755,-0.009 1.112,-0.025 v 0.262 h -0.153 c -0.509,0 -0.628,0.06 -0.722,0.34 z m -0.449,-0.95 0.959,-2.758 H 9.119 l 0.95,2.758" />
      </g>
      <g
         transform="matrix(0.35277777,0,0,-0.35277777,54.883551,72.303955)"
         id="g4601">
        <path
           inkscape:connector-curvature="0"
           id="path4603"
           style="fill:none;stroke:#000000;stroke-width:0.33899999;stroke-linecap:butt;stroke-linejoin:bevel;stroke-miterlimit:10;stroke-dasharray:none;stroke-opacity:1"
           d="m 0,0 c 0,4.473 -7.777,8.099 -17.372,8.099 -9.594,0 -17.372,-3.626 -17.372,-8.099 0,-4.473 7.778,-8.099 17.372,-8.099 C -7.777,-8.099 0,-4.473 0,0 Z" />
      </g>
      <g
         transform="matrix(0.35277777,0,0,-0.35277777,47.409603,71.289015)"
         id="g4605">
        <path
           inkscape:connector-curvature="0"
           id="path4607"
           style="fill:#000000;fill-opacity:1;fill-rule:nonzero;stroke:none"
           d="M 0,0 C 0,0.145 0,0.204 -0.093,0.204 L -0.229,0.102 -0.653,-0.526 c -0.314,0.304 -0.747,0.73 -1.562,0.73 -1.586,0 -2.952,-1.35 -2.952,-3.08 0,-1.757 1.375,-3.09 2.952,-3.09 1.384,0 2.215,1.181 2.215,2.164 l -0.11,0.144 -0.102,-0.135 c -0.068,-1.214 -0.976,-1.909 -1.901,-1.909 -0.517,0 -2.18,0.289 -2.18,2.817 0,2.536 1.654,2.826 2.172,2.826 0.925,0 1.68,-0.773 1.85,-2.012 0.017,-0.118 0.017,-0.144 0.136,-0.144 C 0,-2.215 0,-2.189 0,-2.011 Z m 5.516,-5.243 c 0.111,-0.188 0.45,-0.528 0.543,-0.528 0.077,0 0.077,0.069 0.077,0.197 v 1.475 c 0,0.331 0.034,0.374 0.585,0.374 v 0.263 c -0.314,-0.009 -0.78,-0.026 -1.035,-0.026 -0.34,0 -1.06,0 -1.367,0.026 v -0.263 h 0.272 c 0.764,0 0.789,-0.092 0.789,-0.407 v -0.544 c 0,-0.95 -1.077,-1.026 -1.315,-1.026 -0.551,0 -2.231,0.297 -2.231,2.826 0,2.536 1.671,2.817 2.18,2.817 0.908,0 1.68,-0.764 1.85,-2.012 0.017,-0.118 0.017,-0.144 0.136,-0.144 0.136,0 0.136,0.026 0.136,0.204 V 0 c 0,0.145 0,0.204 -0.094,0.204 L 5.906,0.102 5.482,-0.526 c -0.271,0.272 -0.729,0.73 -1.569,0.73 -1.578,0 -2.953,-1.342 -2.953,-3.08 0,-1.739 1.357,-3.09 2.969,-3.09 0.62,0 1.299,0.222 1.587,0.723 z M 12.785,0 c 0,0.145 0,0.204 -0.094,0.204 L 12.555,0.102 12.131,-0.526 c -0.314,0.304 -0.747,0.73 -1.561,0.73 -1.587,0 -2.953,-1.35 -2.953,-3.08 0,-1.757 1.374,-3.09 2.953,-3.09 1.383,0 2.215,1.181 2.215,2.164 l -0.111,0.144 -0.102,-0.135 c -0.068,-1.214 -0.975,-1.909 -1.9,-1.909 -0.518,0 -2.181,0.289 -2.181,2.817 0,2.536 1.655,2.826 2.172,2.826 0.925,0 1.68,-0.773 1.85,-2.012 0.017,-0.118 0.017,-0.144 0.135,-0.144 0.137,0 0.137,0.026 0.137,0.204 V 0" />
      </g>
      <path
         inkscape:connector-curvature="0"
         id="path4609"
         style="fill:none;stroke:#ff0000;stroke-width:0.11959165;stroke-linecap:butt;stroke-linejoin:bevel;stroke-miterlimit:10;stroke-dasharray:0.89788998, 0.89788998;stroke-dashoffset:0;stroke-opacity:1"
         d="m 86.023595,56.809605 h 8.66669 v -4.040366 h -8.66669 z" />
      <g
         transform="matrix(0.35277777,0,0,-0.35277777,88.211875,53.730205)"
         id="g4611">
        <path
           inkscape:connector-curvature="0"
           id="path4613"
           style="fill:#000000;fill-opacity:1;fill-rule:nonzero;stroke:none"
           d="M 0,0 C -0.043,0.111 -0.059,0.17 -0.195,0.17 -0.331,0.17 -0.356,0.12 -0.399,0 l -1.756,-5.073 c -0.153,-0.433 -0.492,-0.56 -0.95,-0.569 v -0.263 c 0.195,0.009 0.559,0.025 0.865,0.025 0.264,0 0.705,-0.016 0.975,-0.025 v 0.263 c -0.423,0 -0.635,0.212 -0.635,0.433 l 0.016,0.127 0.39,1.111 h 2.097 l 0.449,-1.298 0.026,-0.119 c 0,-0.254 -0.475,-0.254 -0.705,-0.254 v -0.263 c 0.306,0.025 0.901,0.025 1.223,0.025 0.364,0 0.755,-0.009 1.11,-0.025 v 0.263 H 2.554 c -0.509,0 -0.628,0.059 -0.721,0.34 z M -0.449,-0.949 0.51,-3.708 H -1.399 Z M 7.78,-5.37 c 0.11,-0.188 0.45,-0.526 0.543,-0.526 0.076,0 0.076,0.068 0.076,0.195 v 1.476 c 0,0.331 0.035,0.373 0.585,0.373 v 0.264 C 8.671,-3.597 8.204,-3.613 7.95,-3.613 c -0.34,0 -1.06,0 -1.366,0.025 v -0.264 h 0.272 c 0.763,0 0.789,-0.092 0.789,-0.407 v -0.543 c 0,-0.951 -1.079,-1.026 -1.317,-1.026 -0.551,0 -2.23,0.297 -2.23,2.825 0,2.536 1.671,2.817 2.18,2.817 0.909,0 1.68,-0.763 1.85,-2.01 0.018,-0.12 0.018,-0.146 0.136,-0.146 0.135,0 0.135,0.026 0.135,0.204 v 2.011 c 0,0.145 0,0.204 -0.092,0.204 L 8.17,-0.024 7.746,-0.652 c -0.271,0.271 -0.729,0.729 -1.57,0.729 -1.578,0 -2.953,-1.342 -2.953,-3.08 0,-1.739 1.359,-3.088 2.97,-3.088 0.62,0 1.298,0.22 1.587,0.721 z m 7.268,5.243 c 0,0.145 0,0.204 -0.093,0.204 l -0.136,-0.101 -0.424,-0.628 c -0.315,0.305 -0.747,0.729 -1.561,0.729 -1.587,0 -2.953,-1.348 -2.953,-3.08 0,-1.757 1.375,-3.088 2.953,-3.088 1.383,0 2.214,1.179 2.214,2.163 l -0.11,0.145 -0.102,-0.136 c -0.068,-1.214 -0.976,-1.909 -1.9,-1.909 -0.519,0 -2.181,0.288 -2.181,2.816 0,2.537 1.654,2.826 2.172,2.826 0.925,0 1.68,-0.772 1.849,-2.01 0.018,-0.12 0.018,-0.146 0.136,-0.146 0.136,0 0.136,0.026 0.136,0.204 v 2.011" />
      </g>
      <path
         inkscape:connector-curvature="0"
         id="path4615"
         style="fill:none;stroke:#ff0000;stroke-width:0.11959165;stroke-linecap:butt;stroke-linejoin:bevel;stroke-miterlimit:10;stroke-dasharray:0.89788998, 0.89788998;stroke-dashoffset:0;stroke-opacity:1"
         d="m 108.15758,136.91273 h 8.31392 v -4.04036 h -8.31392 z" />
      <g
         transform="matrix(0.35277777,0,0,-0.35277777,110.34551,133.83227)"
         id="g4617">
        <path
           inkscape:connector-curvature="0"
           id="path4619"
           style="fill:#000000;fill-opacity:1;fill-rule:nonzero;stroke:none"
           d="M 0,0 C -0.043,0.112 -0.058,0.17 -0.195,0.17 -0.331,0.17 -0.356,0.12 -0.398,0 l -1.757,-5.073 c -0.152,-0.433 -0.492,-0.559 -0.95,-0.568 v -0.263 c 0.195,0.008 0.56,0.024 0.866,0.024 0.263,0 0.703,-0.016 0.975,-0.024 v 0.263 c -0.424,0 -0.637,0.212 -0.637,0.432 l 0.018,0.127 0.39,1.113 h 2.096 l 0.449,-1.299 0.025,-0.119 c 0,-0.254 -0.474,-0.254 -0.703,-0.254 v -0.263 c 0.306,0.024 0.9,0.024 1.222,0.024 0.365,0 0.755,-0.008 1.111,-0.024 v 0.263 H 2.555 c -0.51,0 -0.628,0.058 -0.722,0.34 z M -0.449,-0.949 0.51,-3.708 H -1.4 Z M 7.933,-0.16 H 2.749 L 2.588,-2.069 h 0.211 c 0.12,1.366 0.247,1.646 1.528,1.646 0.153,0 0.373,0 0.458,-0.017 0.179,-0.033 0.179,-0.127 0.179,-0.323 v -4.471 c 0,-0.289 0,-0.407 -0.891,-0.407 h -0.34 v -0.263 c 0.347,0.024 1.214,0.024 1.603,0.024 0.392,0 1.265,0 1.614,-0.024 v 0.263 H 6.61 c -0.891,0 -0.891,0.118 -0.891,0.407 v 4.471 c 0,0.17 0,0.29 0.152,0.323 0.093,0.017 0.324,0.017 0.485,0.017 1.28,0 1.407,-0.28 1.526,-1.646 h 0.212 z m 6.128,0 H 8.876 L 8.714,-2.069 h 0.213 c 0.118,1.366 0.246,1.646 1.527,1.646 0.153,0 0.372,0 0.458,-0.017 0.179,-0.033 0.179,-0.127 0.179,-0.323 v -4.471 c 0,-0.289 0,-0.407 -0.892,-0.407 H 9.861 v -0.263 c 0.346,0.024 1.213,0.024 1.602,0.024 0.392,0 1.265,0 1.613,-0.024 v 0.263 h -0.339 c -0.891,0 -0.891,0.118 -0.891,0.407 v 4.471 c 0,0.17 0,0.29 0.152,0.323 0.093,0.017 0.323,0.017 0.485,0.017 1.28,0 1.408,-0.28 1.526,-1.646 h 0.212 l -0.16,1.909" />
      </g>
      <path
         inkscape:connector-curvature="0"
         id="path4621"
         style="fill:none;stroke:#00ff00;stroke-width:0.11959165;stroke-linecap:butt;stroke-linejoin:bevel;stroke-miterlimit:10;stroke-dasharray:0.89788998, 0.89788998;stroke-dashoffset:0;stroke-opacity:1"
         d="m 137.32278,77.350795 c 0,-1.57762 -2.82963,-2.85644 -6.31966,-2.85644 -3.49039,0 -6.31896,1.27882 -6.31896,2.85644 0,1.57762 2.82857,2.85679 6.31896,2.85679 3.49003,0 6.31966,-1.27917 6.31966,-2.85679 z" />
      <g
         transform="matrix(0.35277777,0,0,-0.35277777,129.30625,78.185465)"
         id="g4623">
        <path
           inkscape:connector-curvature="0"
           id="path4625"
           style="fill:#000000;fill-opacity:1;fill-rule:nonzero;stroke:none"
           d="m 0,0 c 0.11,-0.187 0.45,-0.526 0.542,-0.526 0.078,0 0.078,0.067 0.078,0.195 v 1.476 c 0,0.331 0.033,0.374 0.584,0.374 V 1.781 C 0.891,1.772 0.424,1.756 0.17,1.756 c -0.34,0 -1.061,0 -1.367,0.025 V 1.519 h 0.273 c 0.763,0 0.789,-0.094 0.789,-0.409 V 0.568 c 0,-0.95 -1.079,-1.027 -1.316,-1.027 -0.552,0 -2.232,0.298 -2.232,2.825 0,2.538 1.673,2.818 2.18,2.818 0.909,0 1.68,-0.764 1.85,-2.011 0.018,-0.118 0.018,-0.144 0.136,-0.144 0.137,0 0.137,0.026 0.137,0.203 v 2.012 c 0,0.144 0,0.202 -0.094,0.202 L 0.39,5.345 -0.034,4.717 c -0.271,0.271 -0.729,0.729 -1.57,0.729 -1.578,0 -2.952,-1.34 -2.952,-3.08 0,-1.738 1.356,-3.088 2.969,-3.088 0.62,0 1.297,0.221 1.587,0.722 z m 6.658,0 c 0.109,-0.187 0.449,-0.526 0.542,-0.526 0.077,0 0.077,0.067 0.077,0.195 v 1.476 c 0,0.331 0.034,0.374 0.585,0.374 V 1.781 C 7.548,1.772 7.081,1.756 6.827,1.756 c -0.339,0 -1.06,0 -1.367,0.025 V 1.519 h 0.273 c 0.762,0 0.789,-0.094 0.789,-0.409 V 0.568 c 0,-0.95 -1.078,-1.027 -1.317,-1.027 -0.55,0 -2.23,0.298 -2.23,2.825 0,2.538 1.671,2.818 2.18,2.818 0.909,0 1.68,-0.764 1.85,-2.011 0.016,-0.118 0.016,-0.144 0.136,-0.144 0.136,0 0.136,0.026 0.136,0.203 v 2.012 c 0,0.144 0,0.202 -0.094,0.202 L 7.047,5.345 6.623,4.717 C 6.352,4.988 5.894,5.446 5.053,5.446 3.475,5.446 2.1,4.106 2.1,2.366 c 0,-1.738 1.357,-3.088 2.971,-3.088 0.619,0 1.298,0.221 1.587,0.722 z m 5.003,5.371 c -0.043,0.109 -0.061,0.17 -0.197,0.17 -0.136,0 -0.161,-0.052 -0.204,-0.17 L 9.505,0.297 C 9.352,-0.137 9.013,-0.264 8.554,-0.272 v -0.263 c 0.194,0.009 0.56,0.026 0.865,0.026 0.263,0 0.705,-0.017 0.977,-0.026 v 0.263 c -0.424,0 -0.637,0.212 -0.637,0.433 l 0.017,0.128 0.39,1.111 h 2.096 l 0.45,-1.298 0.026,-0.119 c 0,-0.255 -0.476,-0.255 -0.705,-0.255 v -0.263 c 0.305,0.026 0.899,0.026 1.221,0.026 0.366,0 0.755,-0.009 1.112,-0.026 v 0.263 h -0.153 c -0.51,0 -0.628,0.06 -0.72,0.339 z M 11.21,4.42 12.168,1.663 H 10.26 l 0.95,2.757" />
      </g>
      <g
         transform="matrix(0.35277777,0,0,-0.35277777,87.643555,102.67)"
         id="g4627">
        <path
           inkscape:connector-curvature="0"
           id="path4629"
           style="fill:none;stroke:#000000;stroke-width:0.33899999;stroke-linecap:butt;stroke-linejoin:bevel;stroke-miterlimit:10;stroke-dasharray:none;stroke-opacity:1"
           d="m 0,0 c 0,4.473 -7.46,8.098 -16.663,8.098 -9.203,0 -16.663,-3.625 -16.663,-8.098 0,-4.471 7.46,-8.097 16.663,-8.097 C -7.46,-8.097 0,-4.471 0,0 Z" />
      </g>
      <g
         transform="matrix(0.35277777,0,0,-0.35277777,80.596115,101.65471)"
         id="g4631">
        <path
           inkscape:connector-curvature="0"
           id="path4633"
           style="fill:#000000;fill-opacity:1;fill-rule:nonzero;stroke:none"
           d="M 0,0 C 0,0.145 0,0.204 -0.094,0.204 L -0.229,0.103 -0.654,-0.525 c -0.314,0.305 -0.746,0.729 -1.561,0.729 -1.587,0 -2.953,-1.349 -2.953,-3.08 0,-1.757 1.375,-3.089 2.953,-3.089 1.383,0 2.215,1.179 2.215,2.164 l -0.111,0.144 -0.102,-0.136 c -0.067,-1.213 -0.975,-1.909 -1.9,-1.909 -0.518,0 -2.181,0.288 -2.181,2.817 0,2.538 1.655,2.827 2.172,2.827 0.925,0 1.68,-0.773 1.85,-2.012 0.017,-0.118 0.017,-0.144 0.136,-0.144 C 0,-2.214 0,-2.188 0,-2.011 Z M 6.135,-0.033 H 0.951 L 0.789,-1.942 h 0.212 c 0.119,1.365 0.247,1.645 1.528,1.645 0.153,0 0.374,0 0.458,-0.017 0.178,-0.033 0.178,-0.127 0.178,-0.321 v -4.473 c 0,-0.288 0,-0.406 -0.89,-0.406 h -0.34 v -0.263 c 0.348,0.025 1.214,0.025 1.603,0.025 0.391,0 1.266,0 1.613,-0.025 v 0.263 h -0.34 c -0.89,0 -0.89,0.118 -0.89,0.406 v 4.473 c 0,0.168 0,0.288 0.152,0.321 0.094,0.017 0.323,0.017 0.484,0.017 1.281,0 1.408,-0.28 1.527,-1.645 H 6.296 Z M 9.283,0.128 C 9.242,0.239 9.225,0.298 9.089,0.298 8.953,0.298 8.928,0.246 8.885,0.128 L 7.128,-4.947 C 6.976,-5.38 6.636,-5.507 6.178,-5.514 v -0.263 c 0.195,0.008 0.56,0.025 0.866,0.025 0.263,0 0.704,-0.017 0.976,-0.025 v 0.263 c -0.425,0 -0.636,0.212 -0.636,0.431 l 0.017,0.127 0.389,1.113 h 2.097 l 0.449,-1.298 0.026,-0.119 c 0,-0.254 -0.475,-0.254 -0.705,-0.254 v -0.263 c 0.306,0.025 0.9,0.025 1.222,0.025 0.365,0 0.755,-0.008 1.111,-0.025 v 0.263 h -0.152 c -0.51,0 -0.628,0.059 -0.721,0.338 z M 8.834,-0.822 9.793,-3.58 h -1.91 l 0.951,2.758" />
      </g>
      <path
         inkscape:connector-curvature="0"
         id="path4635"
         style="fill:none;stroke:#00ff00;stroke-width:0.11959165;stroke-linecap:butt;stroke-linejoin:bevel;stroke-miterlimit:10;stroke-dasharray:0.89788998, 0.89788998;stroke-dashoffset:0;stroke-opacity:1"
         d="m 114.01476,68.359545 c 0,-1.57797 -2.80283,-2.85715 -6.2604,-2.85715 -3.45793,0 -6.26075,1.27918 -6.26075,2.85715 0,1.57798 2.80282,2.85715 6.26075,2.85715 3.45757,0 6.2604,-1.27917 6.2604,-2.85715 z" />
      <g
         transform="matrix(0.35277777,0,0,-0.35277777,106.09877,69.194215)"
         id="g4637">
        <path
           inkscape:connector-curvature="0"
           id="path4639"
           style="fill:#000000;fill-opacity:1;fill-rule:nonzero;stroke:none"
           d="m 0,0 c 0.11,-0.187 0.449,-0.526 0.543,-0.526 0.076,0 0.076,0.068 0.076,0.195 v 1.476 c 0,0.331 0.035,0.374 0.585,0.374 V 1.781 C 0.891,1.773 0.424,1.757 0.169,1.757 c -0.339,0 -1.059,0 -1.365,0.024 V 1.519 h 0.271 c 0.763,0 0.789,-0.093 0.789,-0.408 V 0.568 c 0,-0.951 -1.078,-1.026 -1.314,-1.026 -0.553,0 -2.232,0.297 -2.232,2.825 0,2.536 1.67,2.817 2.18,2.817 0.908,0 1.68,-0.764 1.85,-2.011 0.017,-0.119 0.017,-0.145 0.136,-0.145 0.135,0 0.135,0.026 0.135,0.204 v 2.011 c 0,0.145 0,0.204 -0.092,0.204 L 0.391,5.345 -0.034,4.717 c -0.271,0.272 -0.729,0.73 -1.57,0.73 -1.577,0 -2.951,-1.341 -2.951,-3.08 0,-1.739 1.356,-3.088 2.967,-3.088 0.62,0 1.299,0.22 1.588,0.721 z M 5.002,5.37 C 4.96,5.481 4.943,5.54 4.807,5.54 4.671,5.54 4.646,5.489 4.605,5.37 L 2.848,0.297 C 2.695,-0.136 2.356,-0.263 1.897,-0.271 v -0.264 c 0.196,0.009 0.559,0.025 0.865,0.025 0.264,0 0.705,-0.016 0.976,-0.025 v 0.264 c -0.423,0 -0.636,0.211 -0.636,0.432 L 3.118,0.288 3.51,1.399 h 2.095 l 0.45,-1.297 0.025,-0.12 c 0,-0.253 -0.475,-0.253 -0.704,-0.253 v -0.264 c 0.306,0.025 0.9,0.025 1.222,0.025 0.364,0 0.755,-0.008 1.112,-0.025 v 0.264 H 7.557 c -0.509,0 -0.628,0.058 -0.722,0.338 z M 4.553,4.42 5.512,1.662 H 3.603 Z M 12.782,0 c 0.11,-0.187 0.45,-0.526 0.544,-0.526 0.076,0 0.076,0.068 0.076,0.195 v 1.476 c 0,0.331 0.034,0.374 0.585,0.374 V 1.781 C 13.673,1.773 13.206,1.757 12.952,1.757 c -0.339,0 -1.06,0 -1.366,0.024 V 1.519 h 0.272 c 0.763,0 0.789,-0.093 0.789,-0.408 V 0.568 c 0,-0.951 -1.077,-1.026 -1.316,-1.026 -0.551,0 -2.231,0.297 -2.231,2.825 0,2.536 1.672,2.817 2.18,2.817 0.909,0 1.681,-0.764 1.85,-2.011 0.018,-0.119 0.018,-0.145 0.136,-0.145 0.136,0 0.136,0.026 0.136,0.204 v 2.011 c 0,0.145 0,0.204 -0.093,0.204 L 13.173,5.345 12.748,4.717 c -0.271,0.272 -0.729,0.73 -1.57,0.73 -1.577,0 -2.952,-1.341 -2.952,-3.08 0,-1.739 1.358,-3.088 2.97,-3.088 0.619,0 1.298,0.22 1.586,0.721" />
      </g>
      <path
         inkscape:connector-curvature="0"
         id="path4641"
         style="fill:none;stroke:#00ff00;stroke-width:0.11959165;stroke-linecap:butt;stroke-linejoin:bevel;stroke-miterlimit:10;stroke-dasharray:0.89788998, 0.89788998;stroke-dashoffset:0;stroke-opacity:1"
         d="m 148.69457,99.798045 c 0,-1.57798 -2.80282,-2.85715 -6.2604,-2.85715 -3.45792,0 -6.26074,1.27917 -6.26074,2.85715 0,1.577965 2.80282,2.856785 6.26074,2.856785 3.45758,0 6.2604,-1.27882 6.2604,-2.856785 z" />
      <g
         transform="matrix(0.35277777,0,0,-0.35277777,140.9966,98.794745)"
         id="g4643">
        <path
           inkscape:connector-curvature="0"
           id="path4645"
           style="fill:#000000;fill-opacity:1;fill-rule:nonzero;stroke:none"
           d="m 0,0 h -5.185 l -0.16,-1.909 h 0.212 c 0.118,1.367 0.246,1.646 1.527,1.646 0.153,0 0.374,0 0.459,-0.017 0.177,-0.034 0.177,-0.127 0.177,-0.322 v -4.472 c 0,-0.288 0,-0.407 -0.89,-0.407 H -4.2 v -0.263 c 0.348,0.025 1.214,0.025 1.604,0.025 0.39,0 1.265,0 1.612,-0.025 v 0.263 h -0.338 c -0.893,0 -0.893,0.119 -0.893,0.407 v 4.472 c 0,0.169 0,0.288 0.154,0.322 0.093,0.017 0.322,0.017 0.483,0.017 1.281,0 1.409,-0.279 1.527,-1.646 h 0.213 z m 5.508,-5.209 c 0.11,-0.187 0.449,-0.527 0.544,-0.527 0.075,0 0.075,0.069 0.075,0.196 v 1.476 c 0,0.33 0.034,0.373 0.586,0.373 v 0.263 c -0.315,-0.009 -0.78,-0.024 -1.035,-0.024 -0.34,0 -1.061,0 -1.366,0.024 v -0.263 h 0.271 c 0.764,0 0.789,-0.093 0.789,-0.407 v -0.543 c 0,-0.951 -1.077,-1.026 -1.314,-1.026 -0.552,0 -2.233,0.297 -2.233,2.825 0,2.537 1.672,2.816 2.182,2.816 0.907,0 1.68,-0.763 1.85,-2.01 0.016,-0.119 0.016,-0.145 0.134,-0.145 0.136,0 0.136,0.026 0.136,0.204 v 2.011 c 0,0.144 0,0.204 -0.093,0.204 L 5.898,0.135 5.474,-0.492 c -0.272,0.272 -0.73,0.73 -1.569,0.73 -1.579,0 -2.953,-1.341 -2.953,-3.08 0,-1.739 1.358,-3.088 2.969,-3.088 0.619,0 1.299,0.22 1.587,0.721 z m 6.657,0 c 0.111,-0.187 0.45,-0.527 0.543,-0.527 0.076,0 0.076,0.069 0.076,0.196 v 1.476 c 0,0.33 0.034,0.373 0.586,0.373 v 0.263 c -0.313,-0.009 -0.78,-0.024 -1.035,-0.024 -0.34,0 -1.061,0 -1.366,0.024 v -0.263 h 0.271 c 0.764,0 0.789,-0.093 0.789,-0.407 v -0.543 c 0,-0.951 -1.077,-1.026 -1.314,-1.026 -0.553,0 -2.233,0.297 -2.233,2.825 0,2.537 1.672,2.816 2.181,2.816 0.908,0 1.68,-0.763 1.85,-2.01 0.017,-0.119 0.017,-0.145 0.135,-0.145 0.136,0 0.136,0.026 0.136,0.204 v 2.011 c 0,0.144 0,0.204 -0.093,0.204 L 12.556,0.135 12.132,-0.492 c -0.273,0.272 -0.731,0.73 -1.57,0.73 -1.579,0 -2.953,-1.341 -2.953,-3.08 0,-1.739 1.358,-3.088 2.97,-3.088 0.619,0 1.297,0.22 1.586,0.721" />
      </g>
      <g
         transform="matrix(0.35277777,0,0,-0.35277777,62.91348,92.014355)"
         id="g4647">
        <path
           inkscape:connector-curvature="0"
           id="path4649"
           style="fill:none;stroke:#000000;stroke-width:0.33899999;stroke-linecap:butt;stroke-linejoin:bevel;stroke-miterlimit:10;stroke-dasharray:none;stroke-opacity:1"
           d="m 0,0 c 0,4.473 -7.777,8.098 -17.371,8.098 -9.595,0 -17.372,-3.625 -17.372,-8.098 0,-4.472 7.777,-8.098 17.372,-8.098 C -7.777,-8.098 0,-4.472 0,0 Z" />
      </g>
      <g
         transform="matrix(0.35277777,0,0,-0.35277777,55.439882,90.999065)"
         id="g4651">
        <path
           inkscape:connector-curvature="0"
           id="path4653"
           style="fill:#000000;fill-opacity:1;fill-rule:nonzero;stroke:none"
           d="m 0,0 c 0,0.144 0,0.203 -0.093,0.203 l -0.136,-0.1 -0.424,-0.628 c -0.314,0.305 -0.746,0.728 -1.561,0.728 -1.587,0 -2.953,-1.348 -2.953,-3.079 0,-1.756 1.374,-3.089 2.953,-3.089 1.383,0 2.214,1.179 2.214,2.165 l -0.11,0.143 -0.102,-0.136 c -0.068,-1.213 -0.975,-1.909 -1.9,-1.909 -0.518,0 -2.181,0.288 -2.181,2.818 0,2.537 1.654,2.825 2.172,2.825 0.925,0 1.68,-0.772 1.85,-2.011 0.017,-0.119 0.017,-0.144 0.135,-0.144 C 0,-2.214 0,-2.189 0,-2.011 Z m 6.127,0 c 0,0.144 0,0.203 -0.094,0.203 L 5.898,0.103 5.473,-0.525 C 5.159,-0.22 4.727,0.203 3.912,0.203 2.326,0.203 0.96,-1.145 0.96,-2.876 c 0,-1.756 1.374,-3.089 2.952,-3.089 1.383,0 2.215,1.179 2.215,2.165 L 6.016,-3.657 5.914,-3.793 c -0.068,-1.213 -0.975,-1.909 -1.9,-1.909 -0.517,0 -2.181,0.288 -2.181,2.818 0,2.537 1.655,2.825 2.172,2.825 0.925,0 1.68,-0.772 1.85,-2.011 0.017,-0.119 0.017,-0.144 0.136,-0.144 0.136,0 0.136,0.025 0.136,0.203 z m 5.516,-5.244 c 0.111,-0.186 0.449,-0.525 0.543,-0.525 0.076,0 0.076,0.067 0.076,0.194 v 1.478 c 0,0.331 0.034,0.372 0.585,0.372 v 0.263 c -0.314,-0.007 -0.78,-0.025 -1.034,-0.025 -0.34,0 -1.061,0 -1.367,0.025 v -0.263 h 0.272 c 0.764,0 0.789,-0.093 0.789,-0.407 v -0.543 c 0,-0.95 -1.077,-1.027 -1.315,-1.027 -0.552,0 -2.232,0.297 -2.232,2.826 0,2.537 1.672,2.817 2.181,2.817 0.908,0 1.68,-0.763 1.849,-2.011 0.017,-0.119 0.017,-0.144 0.137,-0.144 0.135,0 0.135,0.025 0.135,0.203 V 0 c 0,0.144 0,0.203 -0.093,0.203 l -0.136,-0.1 -0.424,-0.628 c -0.271,0.27 -0.729,0.728 -1.57,0.728 -1.578,0 -2.952,-1.339 -2.952,-3.079 0,-1.74 1.357,-3.089 2.969,-3.089 0.619,0 1.299,0.22 1.587,0.721" />
      </g>
      <path
         inkscape:connector-curvature="0"
         id="path4655"
         style="fill:none;stroke:#00ff00;stroke-width:0.11959165;stroke-linecap:butt;stroke-linejoin:bevel;stroke-miterlimit:10;stroke-dasharray:0.89788998, 0.89788998;stroke-dashoffset:0;stroke-opacity:1"
         d="m 140.92605,123.7767 c 0,-1.57798 -2.74391,-2.85715 -6.12846,-2.85715 -3.38455,0 -6.12845,1.27917 -6.12845,2.85715 0,1.57762 2.7439,2.85679 6.12845,2.85679 3.38455,0 6.12846,-1.27917 6.12846,-2.85679 z" />
      <g
         transform="matrix(0.35277777,0,0,-0.35277777,133.45422,122.77304)"
         id="g4657">
        <path
           inkscape:connector-curvature="0"
           id="path4659"
           style="fill:#000000;fill-opacity:1;fill-rule:nonzero;stroke:none"
           d="m 0,0 h -5.185 l -0.162,-1.909 h 0.213 c 0.119,1.365 0.246,1.645 1.528,1.645 0.152,0 0.373,0 0.458,-0.017 0.177,-0.033 0.177,-0.127 0.177,-0.323 v -4.471 c 0,-0.288 0,-0.406 -0.89,-0.406 H -4.2 v -0.263 c 0.348,0.024 1.213,0.024 1.603,0.024 0.39,0 1.264,0 1.612,-0.024 v 0.263 h -0.34 c -0.89,0 -0.89,0.118 -0.89,0.406 v 4.471 c 0,0.17 0,0.29 0.153,0.323 0.093,0.017 0.322,0.017 0.483,0.017 1.282,0 1.409,-0.28 1.527,-1.645 H 0.161 Z M 6.126,0 H 0.942 L 0.78,-1.909 h 0.213 c 0.119,1.365 0.246,1.645 1.527,1.645 0.153,0 0.374,0 0.459,-0.017 0.177,-0.033 0.177,-0.127 0.177,-0.323 v -4.471 c 0,-0.288 0,-0.406 -0.89,-0.406 h -0.34 v -0.263 c 0.349,0.024 1.214,0.024 1.604,0.024 0.39,0 1.265,0 1.612,-0.024 v 0.263 H 4.804 c -0.893,0 -0.893,0.118 -0.893,0.406 v 4.471 c 0,0.17 0,0.29 0.154,0.323 0.093,0.017 0.322,0.017 0.483,0.017 1.281,0 1.409,-0.28 1.527,-1.645 h 0.213 z m 5.508,-5.21 c 0.11,-0.187 0.449,-0.525 0.544,-0.525 0.075,0 0.075,0.066 0.075,0.194 v 1.477 c 0,0.331 0.034,0.373 0.585,0.373 v 0.263 c -0.313,-0.009 -0.78,-0.025 -1.034,-0.025 -0.34,0 -1.061,0 -1.366,0.025 v -0.263 h 0.271 c 0.764,0 0.789,-0.093 0.789,-0.408 v -0.542 c 0,-0.951 -1.077,-1.028 -1.314,-1.028 -0.552,0 -2.233,0.297 -2.233,2.826 0,2.537 1.672,2.818 2.181,2.818 0.908,0 1.681,-0.764 1.85,-2.011 0.017,-0.12 0.017,-0.145 0.135,-0.145 0.136,0 0.136,0.025 0.136,0.203 v 2.011 c 0,0.145 0,0.204 -0.093,0.204 L 12.025,0.136 11.6,-0.492 c -0.272,0.271 -0.73,0.729 -1.569,0.729 -1.579,0 -2.953,-1.34 -2.953,-3.08 0,-1.739 1.358,-3.088 2.969,-3.088 0.619,0 1.299,0.22 1.587,0.721" />
      </g>
      <g
         transform="matrix(0.35277777,0,0,-0.35277777,55.280074,116.27206)"
         id="g4661">
        <path
           inkscape:connector-curvature="0"
           id="path4663"
           style="fill:none;stroke:#000000;stroke-width:0.33899999;stroke-linecap:butt;stroke-linejoin:bevel;stroke-miterlimit:10;stroke-dasharray:none;stroke-opacity:1"
           d="m 0,0 c 0,4.472 -7.61,8.098 -16.998,8.098 -9.386,0 -16.996,-3.626 -16.996,-8.098 0,-4.473 7.61,-8.097 16.996,-8.097 C -7.61,-8.097 0,-4.473 0,0 Z" />
      </g>
      <g
         transform="matrix(0.35277777,0,0,-0.35277777,48.035078,115.2684)"
         id="g4665">
        <path
           inkscape:connector-curvature="0"
           id="path4667"
           style="fill:#000000;fill-opacity:1;fill-rule:nonzero;stroke:none"
           d="m 0,0 h -5.185 l -0.161,-1.909 h 0.212 c 0.119,1.365 0.246,1.647 1.528,1.647 0.152,0 0.373,0 0.458,-0.017 0.178,-0.035 0.178,-0.128 0.178,-0.323 v -4.471 c 0,-0.289 0,-0.408 -0.891,-0.408 H -4.2 v -0.263 c 0.348,0.026 1.213,0.026 1.603,0.026 0.39,0 1.265,0 1.613,-0.026 v 0.263 h -0.34 c -0.891,0 -0.891,0.119 -0.891,0.408 v 4.471 c 0,0.17 0,0.288 0.153,0.323 0.093,0.017 0.322,0.017 0.483,0.017 1.282,0 1.409,-0.282 1.528,-1.647 h 0.212 z m 6.118,0.035 c 0,0.144 0,0.203 -0.094,0.203 L 5.889,0.136 5.465,-0.492 c -0.314,0.306 -0.747,0.73 -1.561,0.73 -1.587,0 -2.953,-1.349 -2.953,-3.08 0,-1.756 1.374,-3.089 2.953,-3.089 1.383,0 2.214,1.18 2.214,2.164 l -0.11,0.143 -0.102,-0.134 c -0.068,-1.214 -0.975,-1.911 -1.9,-1.911 -0.518,0 -2.181,0.291 -2.181,2.818 0,2.537 1.654,2.826 2.172,2.826 0.925,0 1.68,-0.772 1.85,-2.011 0.017,-0.119 0.017,-0.144 0.135,-0.144 0.136,0 0.136,0.025 0.136,0.204 z m 6.128,0 c 0,0.144 0,0.203 -0.094,0.203 L 12.016,0.136 11.592,-0.492 c -0.314,0.306 -0.747,0.73 -1.562,0.73 -1.586,0 -2.952,-1.349 -2.952,-3.08 0,-1.756 1.375,-3.089 2.952,-3.089 1.384,0 2.216,1.18 2.216,2.164 l -0.111,0.143 -0.102,-0.134 c -0.068,-1.214 -0.976,-1.911 -1.901,-1.911 -0.517,0 -2.18,0.291 -2.18,2.818 0,2.537 1.654,2.826 2.172,2.826 0.925,0 1.68,-0.772 1.85,-2.011 0.017,-0.119 0.017,-0.144 0.135,-0.144 0.137,0 0.137,0.025 0.137,0.204 v 2.011" />
      </g>
      <g
         transform="matrix(0.35277777,0,0,-0.35277777,78.806115,73.836065)"
         id="g4669">
        <path
           inkscape:connector-curvature="0"
           id="path4671"
           style="fill:none;stroke:#000000;stroke-width:0.33899999;stroke-linecap:butt;stroke-linejoin:bevel;stroke-miterlimit:10;stroke-dasharray:none;stroke-opacity:1"
           d="m 0,0 c 0,4.473 -7.778,8.099 -17.372,8.099 -9.595,0 -17.372,-3.626 -17.372,-8.099 0,-4.472 7.777,-8.099 17.372,-8.099 C -7.778,-8.099 0,-4.472 0,0 Z" />
      </g>
      <g
         transform="matrix(0.35277777,0,0,-0.35277777,71.116265,74.670745)"
         id="g4673">
        <path
           inkscape:connector-curvature="0"
           id="path4675"
           style="fill:#000000;fill-opacity:1;fill-rule:nonzero;stroke:none"
           d="m 0,0 c 0.11,-0.187 0.449,-0.526 0.543,-0.526 0.076,0 0.076,0.068 0.076,0.195 v 1.475 c 0,0.332 0.034,0.375 0.586,0.375 V 1.781 C 0.892,1.772 0.425,1.757 0.17,1.757 c -0.34,0 -1.061,0 -1.366,0.024 V 1.519 h 0.271 c 0.764,0 0.789,-0.093 0.789,-0.407 V 0.568 c 0,-0.95 -1.077,-1.026 -1.314,-1.026 -0.552,0 -2.232,0.297 -2.232,2.826 0,2.536 1.671,2.816 2.181,2.816 0.907,0 1.68,-0.764 1.85,-2.011 0.015,-0.118 0.015,-0.144 0.135,-0.144 0.135,0 0.135,0.026 0.135,0.203 v 2.012 c 0,0.144 0,0.203 -0.093,0.203 L 0.391,5.345 -0.033,4.717 c -0.273,0.272 -0.731,0.73 -1.57,0.73 -1.579,0 -2.953,-1.341 -2.953,-3.079 0,-1.74 1.357,-3.09 2.97,-3.09 0.619,0 1.298,0.221 1.586,0.722 z m 7.269,5.244 c 0,0.144 0,0.203 -0.094,0.203 L 7.039,5.345 6.615,4.717 c -0.314,0.305 -0.747,0.73 -1.561,0.73 -1.587,0 -2.953,-1.349 -2.953,-3.079 0,-1.757 1.375,-3.09 2.953,-3.09 1.383,0 2.215,1.18 2.215,2.165 L 7.158,1.587 7.056,1.45 C 6.988,0.237 6.08,-0.458 5.155,-0.458 c -0.516,0 -2.18,0.288 -2.18,2.817 0,2.537 1.655,2.825 2.173,2.825 0.924,0 1.679,-0.772 1.849,-2.011 0.017,-0.118 0.017,-0.144 0.135,-0.144 0.137,0 0.137,0.026 0.137,0.203 z M 13.404,5.21 H 8.22 L 8.059,3.301 h 0.212 c 0.119,1.366 0.246,1.646 1.527,1.646 0.152,0 0.373,0 0.458,-0.017 0.178,-0.034 0.178,-0.127 0.178,-0.323 V 0.136 c 0,-0.288 0,-0.407 -0.891,-0.407 H 9.204 v -0.264 c 0.348,0.026 1.213,0.026 1.604,0.026 0.389,0 1.263,0 1.612,-0.026 v 0.264 h -0.34 c -0.891,0 -0.891,0.119 -0.891,0.407 v 4.471 c 0,0.17 0,0.289 0.153,0.323 0.094,0.017 0.322,0.017 0.483,0.017 1.283,0 1.409,-0.28 1.529,-1.646 h 0.212 L 13.404,5.21" />
      </g>
      <g
         transform="matrix(0.35277777,0,0,-0.35277777,88.426365,56.869575)"
         id="g4677">
        <path
           inkscape:connector-curvature="0"
           id="path4679"
           style="fill:none;stroke:#000000;stroke-width:0.33899999;stroke-linecap:butt;stroke-linejoin:bevel;stroke-miterlimit:10;stroke-dasharray:none;stroke-opacity:1"
           d="M 0,0 C -12.657,-13.632 -19.597,-21.108 -35.506,-38.251" />
      </g>
      <g
         transform="matrix(0.35277777,0,0,-0.35277777,75.164745,71.156725)"
         id="g4681">
        <path
           inkscape:connector-curvature="0"
           id="path4683"
           style="fill:#000000;fill-opacity:1;fill-rule:nonzero;stroke:none"
           d="M 0,0 C 0.742,0.55 2.121,1.285 3.254,1.629 L 1.381,3.367 C 1.122,2.213 0.493,0.782 0,0" />
      </g>
      <g
         transform="matrix(0.35277777,0,0,-0.35277777,140.98638,96.955005)"
         id="g4685">
        <path
           inkscape:connector-curvature="0"
           id="path4687"
           style="fill:none;stroke:#000000;stroke-width:0.33899999;stroke-linecap:butt;stroke-linejoin:bevel;stroke-miterlimit:10;stroke-dasharray:none;stroke-opacity:1"
           d="M 0,0 C -7.418,14.568 -12.434,24.42 -22.804,44.782" />
      </g>
      <g
         transform="matrix(0.35277777,0,0,-0.35277777,132.45056,80.193475)"
         id="g4689">
        <path
           inkscape:connector-curvature="0"
           id="path4691"
           style="fill:#000000;fill-opacity:1;fill-rule:nonzero;stroke:none"
           d="m 0,0 c 0.261,-0.887 0.476,-2.434 0.409,-3.615 l 2.276,1.159 C 1.69,-1.815 0.565,-0.732 0,0" />
      </g>
      <g
         transform="matrix(0.35277777,0,0,-0.35277777,88.514915,78.326225)"
         id="g4693">
        <path
           inkscape:connector-curvature="0"
           id="path4695"
           style="fill:none;stroke:#000000;stroke-width:0.33899999;stroke-linecap:butt;stroke-linejoin:bevel;stroke-miterlimit:10;stroke-dasharray:none;stroke-opacity:1"
           d="M 0,0 C 13.865,7.184 20.839,10.795 39.894,20.666" />
      </g>
      <g
         transform="matrix(0.35277777,0,0,-0.35277777,103.54854,70.538305)"
         id="g4697">
        <path
           inkscape:connector-curvature="0"
           id="path4699"
           style="fill:#000000;fill-opacity:1;fill-rule:nonzero;stroke:none"
           d="M 0,0 C -0.884,-0.267 -2.43,-0.492 -3.61,-0.433 L -2.436,-2.7 c 0.633,1 1.708,2.131 2.436,2.7" />
      </g>
      <g
         transform="matrix(0.35277777,0,0,-0.35277777,73.588185,76.724615)"
         id="g4701">
        <path
           inkscape:connector-curvature="0"
           id="path4703"
           style="fill:none;stroke:#000000;stroke-width:0.33899999;stroke-linecap:butt;stroke-linejoin:bevel;stroke-miterlimit:10;stroke-dasharray:none;stroke-opacity:1"
           d="M 0,0 C 6.045,-19.173 11.351,-36.026 19.682,-62.452" />
      </g>
      <g
         transform="matrix(0.35277777,0,0,-0.35277777,80.855755,99.785695)"
         id="g4705">
        <path
           inkscape:connector-curvature="0"
           id="path4707"
           style="fill:#000000;fill-opacity:1;fill-rule:nonzero;stroke:none"
           d="M 0,0 C -0.111,0.916 -0.067,2.475 0.194,3.625 L -2.238,2.859 C -1.364,2.065 -0.434,0.814 0,0" />
      </g>
      <g
         transform="matrix(0.35277777,0,0,-0.35277777,82.512405,105.56596)"
         id="g4709">
        <path
           inkscape:connector-curvature="0"
           id="path4711"
           style="fill:none;stroke:#000000;stroke-width:0.33899999;stroke-linecap:butt;stroke-linejoin:bevel;stroke-miterlimit:10;stroke-dasharray:none;stroke-opacity:1"
           d="M 0,0 C 4.276,-16.576 7.41,-28.734 13.328,-51.67" />
      </g>
      <g
         transform="matrix(0.35277777,0,0,-0.35277777,87.484095,124.83891)"
         id="g4713">
        <path
           inkscape:connector-curvature="0"
           id="path4715"
           style="fill:#000000;fill-opacity:1;fill-rule:nonzero;stroke:none"
           d="M 0,0 C -0.063,0.919 0.063,2.473 0.384,3.611 L -2.084,2.973 C -1.253,2.133 -0.391,0.835 0,0" />
      </g>
      <g
         transform="matrix(0.35277777,0,0,-0.35277777,126.11855,75.461665)"
         id="g4717">
        <path
           inkscape:connector-curvature="0"
           id="path4719"
           style="fill:none;stroke:#000000;stroke-width:0.33899999;stroke-linecap:butt;stroke-linejoin:bevel;stroke-miterlimit:10;stroke-dasharray:none;stroke-opacity:1"
           d="M 0,0 C -12.441,4.812 -17.509,6.771 -35.415,13.696" />
      </g>
      <g
         transform="matrix(0.35277777,0,0,-0.35277777,112.61776,70.240205)"
         id="g4721">
        <path
           inkscape:connector-curvature="0"
           id="path4723"
           style="fill:#000000;fill-opacity:1;fill-rule:nonzero;stroke:none"
           d="m 0,0 c 0.784,-0.486 1.974,-1.493 2.713,-2.417 l 0.92,2.379 C 2.466,-0.226 0.907,-0.169 0,0" />
      </g>
      <g
         transform="matrix(0.35277777,0,0,-0.35277777,104.53385,65.847415)"
         id="g4725">
        <path
           inkscape:connector-curvature="0"
           id="path4727"
           style="fill:none;stroke:#000000;stroke-width:0.33899999;stroke-linecap:butt;stroke-linejoin:bevel;stroke-miterlimit:10;stroke-dasharray:none;stroke-opacity:1"
           d="M 0,0 C -10.075,7.858 -13.966,10.898 -30.206,23.562" />
      </g>
      <g
         transform="matrix(0.35277777,0,0,-0.35277777,93.024115,56.869575)"
         id="g4729">
        <path
           inkscape:connector-curvature="0"
           id="path4731"
           style="fill:#000000;fill-opacity:1;fill-rule:nonzero;stroke:none"
           d="m 0,0 c 0.611,-0.694 1.463,-2.006 1.902,-3.105 l 1.573,2.016 C 2.301,-0.931 0.822,-0.425 0,0" />
      </g>
      <g
         transform="matrix(0.35277777,0,0,-0.35277777,93.214615,129.21336)"
         id="g4733">
        <path
           inkscape:connector-curvature="0"
           id="path4735"
           style="fill:none;stroke:#000000;stroke-width:0.33899999;stroke-linecap:butt;stroke-linejoin:bevel;stroke-miterlimit:10;stroke-dasharray:none;stroke-opacity:1"
           d="M 0,0 C 12.704,-3.777 18.384,-5.468 39.255,-11.676" />
      </g>
      <g
         transform="matrix(0.35277777,0,0,-0.35277777,108.09761,133.64001)"
         id="g4737">
        <path
           inkscape:connector-curvature="0"
           id="path4739"
           style="fill:#000000;fill-opacity:1;fill-rule:nonzero;stroke:none"
           d="M 0,0 C -0.82,0.422 -2.087,1.331 -2.895,2.193 L -3.623,-0.253 C -2.475,0.028 -0.918,0.097 0,0" />
      </g>
      <g
         transform="matrix(0.35277777,0,0,-0.35277777,135.71623,120.89203)"
         id="g4741">
        <path
           inkscape:connector-curvature="0"
           id="path4743"
           style="fill:none;stroke:#000000;stroke-width:0.33899999;stroke-linecap:butt;stroke-linejoin:bevel;stroke-miterlimit:10;stroke-dasharray:none;stroke-opacity:1"
           d="M 0,0 C 4.975,15.619 8.517,26.761 15.505,48.688" />
      </g>
      <g
         transform="matrix(0.35277777,0,0,-0.35277777,141.51413,102.68658)"
         id="g4745">
        <path
           inkscape:connector-curvature="0"
           id="path4747"
           style="fill:#000000;fill-opacity:1;fill-rule:nonzero;stroke:none"
           d="M 0,0 C -0.438,-0.812 -1.371,-2.062 -2.248,-2.854 L 0.181,-3.628 C -0.075,-2.475 -0.114,-0.917 0,0" />
      </g>
      <g
         transform="matrix(0.35277777,0,0,-0.35277777,61.430755,90.068785)"
         id="g4749">
        <path
           inkscape:connector-curvature="0"
           id="path4751"
           style="fill:none;stroke:#000000;stroke-width:0.33899999;stroke-linecap:butt;stroke-linejoin:bevel;stroke-miterlimit:10;stroke-dasharray:none;stroke-opacity:1"
           d="M 0,0 C 16.087,6.739 26.874,11.262 50.001,20.945" />
      </g>
      <g
         transform="matrix(0.35277777,0,0,-0.35277777,80.066945,82.262515)"
         id="g4753">
        <path
           inkscape:connector-curvature="0"
           id="path4755"
           style="fill:#000000;fill-opacity:1;fill-rule:nonzero;stroke:none"
           d="m 0,0 c -0.902,-0.193 -2.461,-0.292 -3.633,-0.137 l 0.987,-2.354 C -1.934,-1.548 -0.771,-0.507 0,0" />
      </g>
      <g
         transform="matrix(0.35277777,0,0,-0.35277777,54.891665,72.696945)"
         id="g4757">
        <path
           inkscape:connector-curvature="0"
           id="path4759"
           style="fill:none;stroke:#000000;stroke-width:0.33899999;stroke-linecap:butt;stroke-linejoin:bevel;stroke-miterlimit:10;stroke-dasharray:none;stroke-opacity:1"
           d="M 0,0 C 10.258,-0.657 13.97,-0.896 29.973,-1.921" />
      </g>
      <g
         transform="matrix(0.35277777,0,0,-0.35277777,66.541092,73.443425)"
         id="g4761">
        <path
           inkscape:connector-curvature="0"
           id="path4763"
           style="fill:#000000;fill-opacity:1;fill-rule:nonzero;stroke:none"
           d="M 0,0 C -0.893,0.227 -2.328,0.83 -3.307,1.488 L -3.469,-1.053 C -2.415,-0.525 -0.915,-0.111 0,0" />
      </g>
      <g
         transform="matrix(0.35277777,0,0,-0.35277777,83.398935,129.32236)"
         id="g4765">
        <path
           inkscape:connector-curvature="0"
           id="path4767"
           style="fill:none;stroke:#000000;stroke-width:0.33899999;stroke-linecap:butt;stroke-linejoin:bevel;stroke-miterlimit:10;stroke-dasharray:none;stroke-opacity:1"
           d="M 0,0 C -12.227,-4.029 -17.073,-5.624 -34.785,-11.459" />
      </g>
      <g
         transform="matrix(0.35277777,0,0,-0.35277777,70.101325,133.70245)"
         id="g4769">
        <path
           inkscape:connector-curvature="0"
           id="path4771"
           style="fill:#000000;fill-opacity:1;fill-rule:nonzero;stroke:none"
           d="M 0,0 C 0.916,0.122 2.476,0.098 3.632,-0.149 L 2.833,2.275 C 2.05,1.39 0.809,0.444 0,0" />
      </g>
      <g
         transform="matrix(0.35277777,0,0,-0.35277777,116.52124,132.81239)"
         id="g4773">
        <path
           inkscape:connector-curvature="0"
           id="path4775"
           style="fill:none;stroke:#000000;stroke-width:0.33899999;stroke-linecap:butt;stroke-linejoin:bevel;stroke-miterlimit:10;stroke-dasharray:none;stroke-opacity:1"
           d="M 0,0 C 12.796,6.323 19.013,9.401 36.937,18.262" />
      </g>
      <g
         transform="matrix(0.35277777,0,0,-0.35277777,130.5191,125.8916)"
         id="g4777">
        <path
           inkscape:connector-curvature="0"
           id="path4779"
           style="fill:#000000;fill-opacity:1;fill-rule:nonzero;stroke:none"
           d="m 0,0 c -0.888,-0.249 -2.435,-0.444 -3.612,-0.363 l 1.129,-2.285 C -1.831,-1.664 -0.736,-0.554 0,0" />
      </g>
      <g
         transform="matrix(0.35277777,0,0,-0.35277777,55.617682,89.149095)"
         id="g4781">
        <path
           inkscape:connector-curvature="0"
           id="path4783"
           style="fill:none;stroke:#000000;stroke-width:0.33899999;stroke-linecap:butt;stroke-linejoin:bevel;stroke-miterlimit:10;stroke-dasharray:none;stroke-opacity:1"
           d="M 0,0 C -5.035,12.359 -7.632,18.738 -14.988,36.792" />
      </g>
      <g
         transform="matrix(0.35277777,0,0,-0.35277777,49.922439,75.169565)"
         id="g4785">
        <path
           inkscape:connector-curvature="0"
           id="path4787"
           style="fill:#000000;fill-opacity:1;fill-rule:nonzero;stroke:none"
           d="M 0,0 C 0.185,-0.904 0.269,-2.462 0.102,-3.632 L 2.465,-2.67 C 1.529,-1.949 0.5,-0.776 0,0" />
      </g>
      <g
         transform="matrix(0.35277777,0,0,-0.35277777,50.177145,113.38316)"
         id="g4789">
        <path
           inkscape:connector-curvature="0"
           id="path4791"
           style="fill:none;stroke:#000000;stroke-width:0.33899999;stroke-linecap:butt;stroke-linejoin:bevel;stroke-miterlimit:10;stroke-dasharray:none;stroke-opacity:1"
           d="M 0,0 C 4.913,15.883 8.398,27.158 15.295,49.46" />
      </g>
      <g
         transform="matrix(0.35277777,0,0,-0.35277777,55.892142,94.902545)"
         id="g4793">
        <path
           inkscape:connector-curvature="0"
           id="path4795"
           style="fill:#000000;fill-opacity:1;fill-rule:nonzero;stroke:none"
           d="M 0,0 C -0.431,-0.817 -1.354,-2.074 -2.224,-2.873 L 0.214,-3.628 C -0.054,-2.477 -0.106,-0.917 0,0" />
      </g>
      <g
         transform="matrix(0.35277777,0,0,-0.35277777,62.910657,132.62013)"
         id="g4797">
        <path
           inkscape:connector-curvature="0"
           id="path4799"
           style="fill:none;stroke:#000000;stroke-width:0.33899999;stroke-linecap:butt;stroke-linejoin:bevel;stroke-miterlimit:10;stroke-dasharray:none;stroke-opacity:1"
           d="M 0,0 C -9.938,11.923 -15.883,19.056 -30.269,36.314" />
      </g>
      <g
         transform="matrix(0.35277777,0,0,-0.35277777,51.541334,118.97998)"
         id="g4801">
        <path
           inkscape:connector-curvature="0"
           id="path4803"
           style="fill:#000000;fill-opacity:1;fill-rule:nonzero;stroke:none"
           d="m 0,0 c 0.45,-0.805 1.001,-2.264 1.197,-3.428 l 1.959,1.634 C 2.046,-1.393 0.711,-0.587 0,0" />
      </g>
    </g>
  </g>
</svg>
