<?xml version="1.0" encoding="UTF-8" standalone="no"?>
<!-- Created with Inkscape (http://www.inkscape.org/) -->

<svg
   xmlns:dc="http://purl.org/dc/elements/1.1/"
   xmlns:cc="http://creativecommons.org/ns#"
   xmlns:rdf="http://www.w3.org/1999/02/22-rdf-syntax-ns#"
   xmlns:svg="http://www.w3.org/2000/svg"
   xmlns="http://www.w3.org/2000/svg"
   xmlns:sodipodi="http://sodipodi.sourceforge.net/DTD/sodipodi-0.dtd"
   xmlns:inkscape="http://www.inkscape.org/namespaces/inkscape"
   width="106.38752mm"
   height="87.145958mm"
   viewBox="0 0 106.38752 87.145961"
   version="1.1"
   id="svg5948"
   inkscape:version="0.92.2 2405546, 2018-03-11"
   sodipodi:docname="debruijn.svg">
  <defs
     id="defs5942">
    <clipPath
       clipPathUnits="userSpaceOnUse"
       id="clipPath5215">
      <path
         d="m 530.84,700.318 h -467 V 238.335 h 467 z"
         id="path5213"
         inkscape:connector-curvature="0" />
    </clipPath>
    <clipPath
       clipPathUnits="userSpaceOnUse"
       id="clipPath5199">
      <path
         d="m 530.84,700.318 h -467 V 238.335 h 467 z"
         id="path5197"
         inkscape:connector-curvature="0" />
    </clipPath>
    <clipPath
       clipPathUnits="userSpaceOnUse"
       id="clipPath4935">
      <path
         d="m 530.84,700.318 h -467 V 238.335 h 467 z"
         id="path4933"
         inkscape:connector-curvature="0" />
    </clipPath>
    <clipPath
       clipPathUnits="userSpaceOnUse"
       id="clipPath4911">
      <path
         d="m 530.84,700.318 h -467 V 238.335 h 467 z"
         id="path4909"
         inkscape:connector-curvature="0" />
    </clipPath>
    <clipPath
       clipPathUnits="userSpaceOnUse"
       id="clipPath4887">
      <path
         d="m 530.84,700.318 h -467 V 238.335 h 467 z"
         id="path4885"
         inkscape:connector-curvature="0" />
    </clipPath>
    <clipPath
       clipPathUnits="userSpaceOnUse"
       id="clipPath4863">
      <path
         d="m 530.84,700.318 h -467 V 238.335 h 467 z"
         id="path4861"
         inkscape:connector-curvature="0" />
    </clipPath>
  </defs>
  <sodipodi:namedview
     id="base"
     pagecolor="#ffffff"
     bordercolor="#666666"
     borderopacity="1.0"
     inkscape:pageopacity="0.0"
     inkscape:pageshadow="2"
     inkscape:zoom="1.28"
     inkscape:cx="209.45434"
     inkscape:cy="75.466705"
     inkscape:document-units="mm"
     inkscape:current-layer="layer1"
     showgrid="false"
     fit-margin-top="0.1"
     fit-margin-left="0.1"
     fit-margin-right="0.1"
     fit-margin-bottom="0.1"
     inkscape:window-width="1920"
     inkscape:window-height="1080"
     inkscape:window-x="0"
     inkscape:window-y="0"
     inkscape:window-maximized="1"
     inkscape:snap-nodes="false"
     inkscape:snap-page="true"
     inkscape:snap-bbox="true"
     inkscape:bbox-paths="true"
     inkscape:bbox-nodes="true" />
  <metadata
     id="metadata5945">
    <rdf:RDF>
      <cc:Work
         rdf:about="">
        <dc:format>image/svg+xml</dc:format>
        <dc:type
           rdf:resource="http://purl.org/dc/dcmitype/StillImage" />
        <dc:title></dc:title>
      </cc:Work>
    </rdf:RDF>
  </metadata>
  <g
     inkscape:label="Layer 1"
     inkscape:groupmode="layer"
     id="layer1"
     transform="translate(-20.445927,-108.89417)">
    <g
       id="g4573"
       transform="matrix(0.35277777,0,0,-0.35277777,71.811608,185.52682)">
      <path
         d="m 0,0 c 0,4.473 -7.237,8.099 -16.164,8.099 -8.927,0 -16.164,-3.626 -16.164,-8.099 0,-4.472 7.237,-8.098 16.164,-8.098 C -7.237,-8.098 0,-4.472 0,0 Z"
         style="fill:none;stroke:#000000;stroke-width:0.33899999;stroke-linecap:butt;stroke-linejoin:bevel;stroke-miterlimit:10;stroke-dasharray:none;stroke-opacity:1"
         id="path4575"
         inkscape:connector-curvature="0" />
    </g>
    <g
       id="g4577"
       transform="matrix(0.35277777,0,0,-0.35277777,65.067548,184.52281)">
      <path
         d="m 0,0 h -5.184 l -0.161,-1.909 h 0.211 c 0.12,1.365 0.247,1.645 1.528,1.645 0.154,0 0.373,0 0.458,-0.016 0.179,-0.034 0.179,-0.128 0.179,-0.323 v -4.471 c 0,-0.289 0,-0.407 -0.892,-0.407 H -4.2 v -0.263 c 0.348,0.025 1.214,0.025 1.604,0.025 0.391,0 1.264,0 1.612,-0.025 v 0.263 h -0.34 c -0.89,0 -0.89,0.118 -0.89,0.407 v 4.471 c 0,0.17 0,0.289 0.153,0.323 0.093,0.016 0.322,0.016 0.483,0.016 1.281,0 1.408,-0.28 1.528,-1.645 H 0.161 Z M 3.149,0.161 C 3.106,0.271 3.09,0.331 2.954,0.331 2.818,0.331 2.793,0.279 2.75,0.161 L 0.994,-4.914 C 0.842,-5.346 0.502,-5.474 0.044,-5.481 v -0.263 c 0.195,0.008 0.559,0.025 0.865,0.025 0.264,0 0.705,-0.017 0.975,-0.025 v 0.263 c -0.423,0 -0.635,0.211 -0.635,0.432 l 0.016,0.127 0.39,1.111 h 2.097 l 0.449,-1.297 0.026,-0.12 c 0,-0.253 -0.475,-0.253 -0.705,-0.253 v -0.263 c 0.305,0.025 0.901,0.025 1.223,0.025 0.364,0 0.755,-0.009 1.11,-0.025 v 0.263 H 5.703 c -0.509,0 -0.628,0.059 -0.721,0.338 z M 2.7,-0.789 3.658,-3.547 H 1.749 Z M 11.073,0 H 5.888 L 5.727,-1.909 h 0.212 c 0.119,1.365 0.247,1.645 1.528,1.645 0.153,0 0.374,0 0.458,-0.016 0.178,-0.034 0.178,-0.128 0.178,-0.323 v -4.471 c 0,-0.289 0,-0.407 -0.89,-0.407 h -0.34 v -0.263 c 0.348,0.025 1.214,0.025 1.604,0.025 0.39,0 1.265,0 1.612,-0.025 v 0.263 H 9.75 c -0.892,0 -0.892,0.118 -0.892,0.407 v 4.471 c 0,0.17 0,0.289 0.152,0.323 0.095,0.016 0.324,0.016 0.485,0.016 1.281,0 1.408,-0.28 1.527,-1.645 h 0.212 L 11.073,0"
         style="fill:#000000;fill-opacity:1;fill-rule:nonzero;stroke:none"
         id="path4579"
         inkscape:connector-curvature="0" />
    </g>
    <g
       id="g4587"
       transform="matrix(0.35277777,0,0,-0.35277777,48.925498,193.12318)">
      <path
         d="m 0,0 c 0,4.473 -7.46,8.098 -16.663,8.098 -9.203,0 -16.664,-3.625 -16.664,-8.098 0,-4.473 7.461,-8.099 16.664,-8.099 C -7.46,-8.099 0,-4.473 0,0 Z"
         style="fill:none;stroke:#000000;stroke-width:0.33899999;stroke-linecap:butt;stroke-linejoin:bevel;stroke-miterlimit:10;stroke-dasharray:none;stroke-opacity:1"
         id="path4589"
         inkscape:connector-curvature="0" />
    </g>
    <g
       id="g4591"
       transform="matrix(0.35277777,0,0,-0.35277777,41.079017,192.06238)">
      <path
         d="M 0,0 C -0.042,0.109 -0.06,0.17 -0.195,0.17 -0.331,0.17 -0.357,0.118 -0.399,0 l -1.757,-5.075 c -0.152,-0.433 -0.491,-0.56 -0.949,-0.569 v -0.262 c 0.195,0.008 0.559,0.026 0.865,0.026 0.263,0 0.704,-0.018 0.976,-0.026 v 0.262 c -0.425,0 -0.637,0.213 -0.637,0.433 l 0.017,0.129 0.391,1.11 H 0.603 L 1.052,-5.27 1.078,-5.388 c 0,-0.256 -0.475,-0.256 -0.704,-0.256 v -0.262 c 0.305,0.026 0.899,0.026 1.221,0.026 0.365,0 0.755,-0.009 1.112,-0.026 v 0.262 H 2.554 c -0.509,0 -0.628,0.061 -0.721,0.34 z M -0.45,-0.95 0.509,-3.708 H -1.4 Z m 8.383,0.789 H 2.748 l -0.161,-1.91 h 0.212 c 0.119,1.366 0.246,1.645 1.528,1.645 0.153,0 0.373,0 0.458,-0.015 0.178,-0.035 0.178,-0.128 0.178,-0.323 v -4.471 c 0,-0.289 0,-0.409 -0.891,-0.409 H 3.733 v -0.262 c 0.348,0.026 1.213,0.026 1.603,0.026 0.39,0 1.264,0 1.612,-0.026 v 0.262 H 6.609 c -0.891,0 -0.891,0.12 -0.891,0.409 v 4.471 c 0,0.17 0,0.288 0.153,0.323 0.093,0.015 0.322,0.015 0.483,0.015 1.282,0 1.409,-0.279 1.528,-1.645 h 0.212 z m 6.118,0.034 c 0,0.144 0,0.202 -0.093,0.202 l -0.136,-0.1 -0.424,-0.628 c -0.314,0.304 -0.747,0.728 -1.561,0.728 -1.587,0 -2.954,-1.348 -2.954,-3.079 0,-1.757 1.375,-3.089 2.954,-3.089 1.382,0 2.214,1.179 2.214,2.164 l -0.11,0.144 -0.102,-0.136 c -0.068,-1.213 -0.976,-1.909 -1.9,-1.909 -0.518,0 -2.181,0.289 -2.181,2.817 0,2.537 1.654,2.825 2.172,2.825 0.925,0 1.68,-0.771 1.849,-2.01 0.018,-0.118 0.018,-0.144 0.136,-0.144 0.136,0 0.136,0.026 0.136,0.204 v 2.011"
         style="fill:#000000;fill-opacity:1;fill-rule:nonzero;stroke:none"
         id="path4593"
         inkscape:connector-curvature="0" />
    </g>
    <g
       id="g4601"
       transform="matrix(0.35277777,0,0,-0.35277777,32.762634,130.09909)">
      <path
         d="m 0,0 c 0,4.473 -7.777,8.099 -17.372,8.099 -9.594,0 -17.372,-3.626 -17.372,-8.099 0,-4.473 7.778,-8.099 17.372,-8.099 C -7.777,-8.099 0,-4.473 0,0 Z"
         style="fill:none;stroke:#000000;stroke-width:0.33899999;stroke-linecap:butt;stroke-linejoin:bevel;stroke-miterlimit:10;stroke-dasharray:none;stroke-opacity:1"
         id="path4603"
         inkscape:connector-curvature="0" />
    </g>
    <g
       id="g4605"
       transform="matrix(0.35277777,0,0,-0.35277777,25.288686,129.08415)">
      <path
         d="M 0,0 C 0,0.145 0,0.204 -0.093,0.204 L -0.229,0.102 -0.653,-0.526 c -0.314,0.304 -0.747,0.73 -1.562,0.73 -1.586,0 -2.952,-1.35 -2.952,-3.08 0,-1.757 1.375,-3.09 2.952,-3.09 1.384,0 2.215,1.181 2.215,2.164 l -0.11,0.144 -0.102,-0.135 c -0.068,-1.214 -0.976,-1.909 -1.901,-1.909 -0.517,0 -2.18,0.289 -2.18,2.817 0,2.536 1.654,2.826 2.172,2.826 0.925,0 1.68,-0.773 1.85,-2.012 0.017,-0.118 0.017,-0.144 0.136,-0.144 C 0,-2.215 0,-2.189 0,-2.011 Z m 5.516,-5.243 c 0.111,-0.188 0.45,-0.528 0.543,-0.528 0.077,0 0.077,0.069 0.077,0.197 v 1.475 c 0,0.331 0.034,0.374 0.585,0.374 v 0.263 c -0.314,-0.009 -0.78,-0.026 -1.035,-0.026 -0.34,0 -1.06,0 -1.367,0.026 v -0.263 h 0.272 c 0.764,0 0.789,-0.092 0.789,-0.407 v -0.544 c 0,-0.95 -1.077,-1.026 -1.315,-1.026 -0.551,0 -2.231,0.297 -2.231,2.826 0,2.536 1.671,2.817 2.18,2.817 0.908,0 1.68,-0.764 1.85,-2.012 0.017,-0.118 0.017,-0.144 0.136,-0.144 0.136,0 0.136,0.026 0.136,0.204 V 0 c 0,0.145 0,0.204 -0.094,0.204 L 5.906,0.102 5.482,-0.526 c -0.271,0.272 -0.729,0.73 -1.569,0.73 -1.578,0 -2.953,-1.342 -2.953,-3.08 0,-1.739 1.357,-3.09 2.969,-3.09 0.62,0 1.299,0.222 1.587,0.723 z M 12.785,0 c 0,0.145 0,0.204 -0.094,0.204 L 12.555,0.102 12.131,-0.526 c -0.314,0.304 -0.747,0.73 -1.561,0.73 -1.587,0 -2.953,-1.35 -2.953,-3.08 0,-1.757 1.374,-3.09 2.953,-3.09 1.383,0 2.215,1.181 2.215,2.164 l -0.111,0.144 -0.102,-0.135 c -0.068,-1.214 -0.975,-1.909 -1.9,-1.909 -0.518,0 -2.181,0.289 -2.181,2.817 0,2.536 1.655,2.826 2.172,2.826 0.925,0 1.68,-0.773 1.85,-2.012 0.017,-0.118 0.017,-0.144 0.135,-0.144 0.137,0 0.137,0.026 0.137,0.204 V 0"
         style="fill:#000000;fill-opacity:1;fill-rule:nonzero;stroke:none"
         id="path4607"
         inkscape:connector-curvature="0" />
    </g>
    <g
       id="g4627"
       transform="matrix(0.35277777,0,0,-0.35277777,65.522638,160.46513)">
      <path
         d="m 0,0 c 0,4.473 -7.46,8.098 -16.663,8.098 -9.203,0 -16.663,-3.625 -16.663,-8.098 0,-4.471 7.46,-8.097 16.663,-8.097 C -7.46,-8.097 0,-4.471 0,0 Z"
         style="fill:none;stroke:#000000;stroke-width:0.33899999;stroke-linecap:butt;stroke-linejoin:bevel;stroke-miterlimit:10;stroke-dasharray:none;stroke-opacity:1"
         id="path4629"
         inkscape:connector-curvature="0" />
    </g>
    <g
       id="g4631"
       transform="matrix(0.35277777,0,0,-0.35277777,58.475198,159.44984)">
      <path
         d="M 0,0 C 0,0.145 0,0.204 -0.094,0.204 L -0.229,0.103 -0.654,-0.525 c -0.314,0.305 -0.746,0.729 -1.561,0.729 -1.587,0 -2.953,-1.349 -2.953,-3.08 0,-1.757 1.375,-3.089 2.953,-3.089 1.383,0 2.215,1.179 2.215,2.164 l -0.111,0.144 -0.102,-0.136 c -0.067,-1.213 -0.975,-1.909 -1.9,-1.909 -0.518,0 -2.181,0.288 -2.181,2.817 0,2.538 1.655,2.827 2.172,2.827 0.925,0 1.68,-0.773 1.85,-2.012 0.017,-0.118 0.017,-0.144 0.136,-0.144 C 0,-2.214 0,-2.188 0,-2.011 Z M 6.135,-0.033 H 0.951 L 0.789,-1.942 h 0.212 c 0.119,1.365 0.247,1.645 1.528,1.645 0.153,0 0.374,0 0.458,-0.017 0.178,-0.033 0.178,-0.127 0.178,-0.321 v -4.473 c 0,-0.288 0,-0.406 -0.89,-0.406 h -0.34 v -0.263 c 0.348,0.025 1.214,0.025 1.603,0.025 0.391,0 1.266,0 1.613,-0.025 v 0.263 h -0.34 c -0.89,0 -0.89,0.118 -0.89,0.406 v 4.473 c 0,0.168 0,0.288 0.152,0.321 0.094,0.017 0.323,0.017 0.484,0.017 1.281,0 1.408,-0.28 1.527,-1.645 H 6.296 Z M 9.283,0.128 C 9.242,0.239 9.225,0.298 9.089,0.298 8.953,0.298 8.928,0.246 8.885,0.128 L 7.128,-4.947 C 6.976,-5.38 6.636,-5.507 6.178,-5.514 v -0.263 c 0.195,0.008 0.56,0.025 0.866,0.025 0.263,0 0.704,-0.017 0.976,-0.025 v 0.263 c -0.425,0 -0.636,0.212 -0.636,0.431 l 0.017,0.127 0.389,1.113 h 2.097 l 0.449,-1.298 0.026,-0.119 c 0,-0.254 -0.475,-0.254 -0.705,-0.254 v -0.263 c 0.306,0.025 0.9,0.025 1.222,0.025 0.365,0 0.755,-0.008 1.111,-0.025 v 0.263 h -0.152 c -0.51,0 -0.628,0.059 -0.721,0.338 z M 8.834,-0.822 9.793,-3.58 h -1.91 l 0.951,2.758"
         style="fill:#000000;fill-opacity:1;fill-rule:nonzero;stroke:none"
         id="path4633"
         inkscape:connector-curvature="0" />
    </g>
    <g
       id="g4647"
       transform="matrix(0.35277777,0,0,-0.35277777,40.792563,149.80949)">
      <path
         d="m 0,0 c 0,4.473 -7.777,8.098 -17.371,8.098 -9.595,0 -17.372,-3.625 -17.372,-8.098 0,-4.472 7.777,-8.098 17.372,-8.098 C -7.777,-8.098 0,-4.472 0,0 Z"
         style="fill:none;stroke:#000000;stroke-width:0.33899999;stroke-linecap:butt;stroke-linejoin:bevel;stroke-miterlimit:10;stroke-dasharray:none;stroke-opacity:1"
         id="path4649"
         inkscape:connector-curvature="0" />
    </g>
    <g
       id="g4651"
       transform="matrix(0.35277777,0,0,-0.35277777,33.318965,148.7942)">
      <path
         d="m 0,0 c 0,0.144 0,0.203 -0.093,0.203 l -0.136,-0.1 -0.424,-0.628 c -0.314,0.305 -0.746,0.728 -1.561,0.728 -1.587,0 -2.953,-1.348 -2.953,-3.079 0,-1.756 1.374,-3.089 2.953,-3.089 1.383,0 2.214,1.179 2.214,2.165 l -0.11,0.143 -0.102,-0.136 c -0.068,-1.213 -0.975,-1.909 -1.9,-1.909 -0.518,0 -2.181,0.288 -2.181,2.818 0,2.537 1.654,2.825 2.172,2.825 0.925,0 1.68,-0.772 1.85,-2.011 0.017,-0.119 0.017,-0.144 0.135,-0.144 C 0,-2.214 0,-2.189 0,-2.011 Z m 6.127,0 c 0,0.144 0,0.203 -0.094,0.203 L 5.898,0.103 5.473,-0.525 C 5.159,-0.22 4.727,0.203 3.912,0.203 2.326,0.203 0.96,-1.145 0.96,-2.876 c 0,-1.756 1.374,-3.089 2.952,-3.089 1.383,0 2.215,1.179 2.215,2.165 L 6.016,-3.657 5.914,-3.793 c -0.068,-1.213 -0.975,-1.909 -1.9,-1.909 -0.517,0 -2.181,0.288 -2.181,2.818 0,2.537 1.655,2.825 2.172,2.825 0.925,0 1.68,-0.772 1.85,-2.011 0.017,-0.119 0.017,-0.144 0.136,-0.144 0.136,0 0.136,0.025 0.136,0.203 z m 5.516,-5.244 c 0.111,-0.186 0.449,-0.525 0.543,-0.525 0.076,0 0.076,0.067 0.076,0.194 v 1.478 c 0,0.331 0.034,0.372 0.585,0.372 v 0.263 c -0.314,-0.007 -0.78,-0.025 -1.034,-0.025 -0.34,0 -1.061,0 -1.367,0.025 v -0.263 h 0.272 c 0.764,0 0.789,-0.093 0.789,-0.407 v -0.543 c 0,-0.95 -1.077,-1.027 -1.315,-1.027 -0.552,0 -2.232,0.297 -2.232,2.826 0,2.537 1.672,2.817 2.181,2.817 0.908,0 1.68,-0.763 1.849,-2.011 0.017,-0.119 0.017,-0.144 0.137,-0.144 0.135,0 0.135,0.025 0.135,0.203 V 0 c 0,0.144 0,0.203 -0.093,0.203 l -0.136,-0.1 -0.424,-0.628 c -0.271,0.27 -0.729,0.728 -1.57,0.728 -1.578,0 -2.952,-1.339 -2.952,-3.079 0,-1.74 1.357,-3.089 2.969,-3.089 0.619,0 1.299,0.22 1.587,0.721"
         style="fill:#000000;fill-opacity:1;fill-rule:nonzero;stroke:none"
         id="path4653"
         inkscape:connector-curvature="0" />
    </g>
    <g
       id="g4661"
       transform="matrix(0.35277777,0,0,-0.35277777,33.159157,174.06719)">
      <path
         d="m 0,0 c 0,4.472 -7.61,8.098 -16.998,8.098 -9.386,0 -16.996,-3.626 -16.996,-8.098 0,-4.473 7.61,-8.097 16.996,-8.097 C -7.61,-8.097 0,-4.473 0,0 Z"
         style="fill:none;stroke:#000000;stroke-width:0.33899999;stroke-linecap:butt;stroke-linejoin:bevel;stroke-miterlimit:10;stroke-dasharray:none;stroke-opacity:1"
         id="path4663"
         inkscape:connector-curvature="0" />
    </g>
    <g
       id="g4665"
       transform="matrix(0.35277777,0,0,-0.35277777,25.914161,173.06353)">
      <path
         d="m 0,0 h -5.185 l -0.161,-1.909 h 0.212 c 0.119,1.365 0.246,1.647 1.528,1.647 0.152,0 0.373,0 0.458,-0.017 0.178,-0.035 0.178,-0.128 0.178,-0.323 v -4.471 c 0,-0.289 0,-0.408 -0.891,-0.408 H -4.2 v -0.263 c 0.348,0.026 1.213,0.026 1.603,0.026 0.39,0 1.265,0 1.613,-0.026 v 0.263 h -0.34 c -0.891,0 -0.891,0.119 -0.891,0.408 v 4.471 c 0,0.17 0,0.288 0.153,0.323 0.093,0.017 0.322,0.017 0.483,0.017 1.282,0 1.409,-0.282 1.528,-1.647 h 0.212 z m 6.118,0.035 c 0,0.144 0,0.203 -0.094,0.203 L 5.889,0.136 5.465,-0.492 c -0.314,0.306 -0.747,0.73 -1.561,0.73 -1.587,0 -2.953,-1.349 -2.953,-3.08 0,-1.756 1.374,-3.089 2.953,-3.089 1.383,0 2.214,1.18 2.214,2.164 l -0.11,0.143 -0.102,-0.134 c -0.068,-1.214 -0.975,-1.911 -1.9,-1.911 -0.518,0 -2.181,0.291 -2.181,2.818 0,2.537 1.654,2.826 2.172,2.826 0.925,0 1.68,-0.772 1.85,-2.011 0.017,-0.119 0.017,-0.144 0.135,-0.144 0.136,0 0.136,0.025 0.136,0.204 z m 6.128,0 c 0,0.144 0,0.203 -0.094,0.203 L 12.016,0.136 11.592,-0.492 c -0.314,0.306 -0.747,0.73 -1.562,0.73 -1.586,0 -2.952,-1.349 -2.952,-3.08 0,-1.756 1.375,-3.089 2.952,-3.089 1.384,0 2.216,1.18 2.216,2.164 l -0.111,0.143 -0.102,-0.134 c -0.068,-1.214 -0.976,-1.911 -1.901,-1.911 -0.517,0 -2.18,0.291 -2.18,2.818 0,2.537 1.654,2.826 2.172,2.826 0.925,0 1.68,-0.772 1.85,-2.011 0.017,-0.119 0.017,-0.144 0.135,-0.144 0.137,0 0.137,0.025 0.137,0.204 v 2.011"
         style="fill:#000000;fill-opacity:1;fill-rule:nonzero;stroke:none"
         id="path4667"
         inkscape:connector-curvature="0" />
    </g>
    <g
       id="g4669"
       transform="matrix(0.35277777,0,0,-0.35277777,56.685198,131.6312)">
      <path
         d="m 0,0 c 0,4.473 -7.778,8.099 -17.372,8.099 -9.595,0 -17.372,-3.626 -17.372,-8.099 0,-4.472 7.777,-8.099 17.372,-8.099 C -7.778,-8.099 0,-4.472 0,0 Z"
         style="fill:none;stroke:#000000;stroke-width:0.33899999;stroke-linecap:butt;stroke-linejoin:bevel;stroke-miterlimit:10;stroke-dasharray:none;stroke-opacity:1"
         id="path4671"
         inkscape:connector-curvature="0" />
    </g>
    <g
       id="g4673"
       transform="matrix(0.35277777,0,0,-0.35277777,48.995348,132.46588)">
      <path
         d="m 0,0 c 0.11,-0.187 0.449,-0.526 0.543,-0.526 0.076,0 0.076,0.068 0.076,0.195 v 1.475 c 0,0.332 0.034,0.375 0.586,0.375 V 1.781 C 0.892,1.772 0.425,1.757 0.17,1.757 c -0.34,0 -1.061,0 -1.366,0.024 V 1.519 h 0.271 c 0.764,0 0.789,-0.093 0.789,-0.407 V 0.568 c 0,-0.95 -1.077,-1.026 -1.314,-1.026 -0.552,0 -2.232,0.297 -2.232,2.826 0,2.536 1.671,2.816 2.181,2.816 0.907,0 1.68,-0.764 1.85,-2.011 0.015,-0.118 0.015,-0.144 0.135,-0.144 0.135,0 0.135,0.026 0.135,0.203 v 2.012 c 0,0.144 0,0.203 -0.093,0.203 L 0.391,5.345 -0.033,4.717 c -0.273,0.272 -0.731,0.73 -1.57,0.73 -1.579,0 -2.953,-1.341 -2.953,-3.079 0,-1.74 1.357,-3.09 2.97,-3.09 0.619,0 1.298,0.221 1.586,0.722 z m 7.269,5.244 c 0,0.144 0,0.203 -0.094,0.203 L 7.039,5.345 6.615,4.717 c -0.314,0.305 -0.747,0.73 -1.561,0.73 -1.587,0 -2.953,-1.349 -2.953,-3.079 0,-1.757 1.375,-3.09 2.953,-3.09 1.383,0 2.215,1.18 2.215,2.165 L 7.158,1.587 7.056,1.45 C 6.988,0.237 6.08,-0.458 5.155,-0.458 c -0.516,0 -2.18,0.288 -2.18,2.817 0,2.537 1.655,2.825 2.173,2.825 0.924,0 1.679,-0.772 1.849,-2.011 0.017,-0.118 0.017,-0.144 0.135,-0.144 0.137,0 0.137,0.026 0.137,0.203 z M 13.404,5.21 H 8.22 L 8.059,3.301 h 0.212 c 0.119,1.366 0.246,1.646 1.527,1.646 0.152,0 0.373,0 0.458,-0.017 0.178,-0.034 0.178,-0.127 0.178,-0.323 V 0.136 c 0,-0.288 0,-0.407 -0.891,-0.407 H 9.204 v -0.264 c 0.348,0.026 1.213,0.026 1.604,0.026 0.389,0 1.263,0 1.612,-0.026 v 0.264 h -0.34 c -0.891,0 -0.891,0.119 -0.891,0.407 v 4.471 c 0,0.17 0,0.289 0.153,0.323 0.094,0.017 0.322,0.017 0.483,0.017 1.283,0 1.409,-0.28 1.529,-1.646 h 0.212 L 13.404,5.21"
         style="fill:#000000;fill-opacity:1;fill-rule:nonzero;stroke:none"
         id="path4675"
         inkscape:connector-curvature="0" />
    </g>
    <g
       id="g4701"
       transform="matrix(0.35277777,0,0,-0.35277777,51.467268,134.51975)">
      <path
         d="M 0,0 C 6.045,-19.173 11.351,-36.026 19.682,-62.452"
         style="fill:none;stroke:#000000;stroke-width:0.33899999;stroke-linecap:butt;stroke-linejoin:bevel;stroke-miterlimit:10;stroke-dasharray:none;stroke-opacity:1"
         id="path4703"
         inkscape:connector-curvature="0" />
    </g>
    <g
       id="g4705"
       transform="matrix(0.35277777,0,0,-0.35277777,58.734838,157.58083)">
      <path
         d="M 0,0 C -0.111,0.916 -0.067,2.475 0.194,3.625 L -2.238,2.859 C -1.364,2.065 -0.434,0.814 0,0"
         style="fill:#000000;fill-opacity:1;fill-rule:nonzero;stroke:none"
         id="path4707"
         inkscape:connector-curvature="0" />
    </g>
    <g
       id="g4709"
       transform="matrix(0.35277777,0,0,-0.35277777,60.391488,163.36109)">
      <path
         d="M 0,0 C 4.276,-16.576 7.41,-28.734 13.328,-51.67"
         style="fill:none;stroke:#000000;stroke-width:0.33899999;stroke-linecap:butt;stroke-linejoin:bevel;stroke-miterlimit:10;stroke-dasharray:none;stroke-opacity:1"
         id="path4711"
         inkscape:connector-curvature="0" />
    </g>
    <g
       id="g4713"
       transform="matrix(0.35277777,0,0,-0.35277777,65.363178,182.63404)">
      <path
         d="M 0,0 C -0.063,0.919 0.063,2.473 0.384,3.611 L -2.084,2.973 C -1.253,2.133 -0.391,0.835 0,0"
         style="fill:#000000;fill-opacity:1;fill-rule:nonzero;stroke:none"
         id="path4715"
         inkscape:connector-curvature="0" />
    </g>
    <g
       id="g4757"
       transform="matrix(0.35277777,0,0,-0.35277777,32.770748,130.49208)">
      <path
         d="M 0,0 C 10.258,-0.657 13.97,-0.896 29.973,-1.921"
         style="fill:none;stroke:#000000;stroke-width:0.33899999;stroke-linecap:butt;stroke-linejoin:bevel;stroke-miterlimit:10;stroke-dasharray:none;stroke-opacity:1"
         id="path4759"
         inkscape:connector-curvature="0" />
    </g>
    <g
       id="g4761"
       transform="matrix(0.35277777,0,0,-0.35277777,44.420175,131.23856)">
      <path
         d="M 0,0 C -0.893,0.227 -2.328,0.83 -3.307,1.488 L -3.469,-1.053 C -2.415,-0.525 -0.915,-0.111 0,0"
         style="fill:#000000;fill-opacity:1;fill-rule:nonzero;stroke:none"
         id="path4763"
         inkscape:connector-curvature="0" />
    </g>
    <g
       id="g4765"
       transform="matrix(0.35277777,0,0,-0.35277777,61.278018,187.11749)">
      <path
         d="M 0,0 C -12.227,-4.029 -17.073,-5.624 -34.785,-11.459"
         style="fill:none;stroke:#000000;stroke-width:0.33899999;stroke-linecap:butt;stroke-linejoin:bevel;stroke-miterlimit:10;stroke-dasharray:none;stroke-opacity:1"
         id="path4767"
         inkscape:connector-curvature="0" />
    </g>
    <g
       id="g4769"
       transform="matrix(0.35277777,0,0,-0.35277777,47.980408,191.49758)">
      <path
         d="M 0,0 C 0.916,0.122 2.476,0.098 3.632,-0.149 L 2.833,2.275 C 2.05,1.39 0.809,0.444 0,0"
         style="fill:#000000;fill-opacity:1;fill-rule:nonzero;stroke:none"
         id="path4771"
         inkscape:connector-curvature="0" />
    </g>
    <g
       id="g4781"
       transform="matrix(0.35277777,0,0,-0.35277777,33.496765,146.94423)">
      <path
         d="M 0,0 C -5.035,12.359 -7.632,18.738 -14.988,36.792"
         style="fill:none;stroke:#000000;stroke-width:0.33899999;stroke-linecap:butt;stroke-linejoin:bevel;stroke-miterlimit:10;stroke-dasharray:none;stroke-opacity:1"
         id="path4783"
         inkscape:connector-curvature="0" />
    </g>
    <g
       id="g4785"
       transform="matrix(0.35277777,0,0,-0.35277777,27.801522,132.9647)">
      <path
         d="M 0,0 C 0.185,-0.904 0.269,-2.462 0.102,-3.632 L 2.465,-2.67 C 1.529,-1.949 0.5,-0.776 0,0"
         style="fill:#000000;fill-opacity:1;fill-rule:nonzero;stroke:none"
         id="path4787"
         inkscape:connector-curvature="0" />
    </g>
    <g
       id="g4789"
       transform="matrix(0.35277777,0,0,-0.35277777,28.056228,171.17829)">
      <path
         d="M 0,0 C 4.913,15.883 8.398,27.158 15.295,49.46"
         style="fill:none;stroke:#000000;stroke-width:0.33899999;stroke-linecap:butt;stroke-linejoin:bevel;stroke-miterlimit:10;stroke-dasharray:none;stroke-opacity:1"
         id="path4791"
         inkscape:connector-curvature="0" />
    </g>
    <g
       id="g4793"
       transform="matrix(0.35277777,0,0,-0.35277777,33.771225,152.69768)">
      <path
         d="M 0,0 C -0.431,-0.817 -1.354,-2.074 -2.224,-2.873 L 0.214,-3.628 C -0.054,-2.477 -0.106,-0.917 0,0"
         style="fill:#000000;fill-opacity:1;fill-rule:nonzero;stroke:none"
         id="path4795"
         inkscape:connector-curvature="0" />
    </g>
    <g
       id="g4797"
       transform="matrix(0.35277777,0,0,-0.35277777,40.78974,190.41526)">
      <path
         d="M 0,0 C -9.938,11.923 -15.883,19.056 -30.269,36.314"
         style="fill:none;stroke:#000000;stroke-width:0.33899999;stroke-linecap:butt;stroke-linejoin:bevel;stroke-miterlimit:10;stroke-dasharray:none;stroke-opacity:1"
         id="path4799"
         inkscape:connector-curvature="0" />
    </g>
    <g
       id="g4801"
       transform="matrix(0.35277777,0,0,-0.35277777,29.420417,176.77511)">
      <path
         d="m 0,0 c 0.45,-0.805 1.001,-2.264 1.197,-3.428 l 1.959,1.634 C 2.046,-1.393 0.711,-0.587 0,0"
         style="fill:#000000;fill-opacity:1;fill-rule:nonzero;stroke:none"
         id="path4803"
         inkscape:connector-curvature="0" />
    </g>
    <text
       xml:space="preserve"
       style="font-style:normal;font-variant:normal;font-weight:normal;font-stretch:normal;font-size:2.82222223px;line-height:1.25;font-family:'Times New Roman';-inkscape-font-specification:'Times New Roman, ';text-align:center;letter-spacing:0px;word-spacing:0px;text-anchor:middle;stroke-width:0.26458332"
       x="99.717781"
       y="120.44543"
       id="text7338"><tspan
         sodipodi:role="line"
         id="tspan7336"
         x="99.717781"
         y="120.44543"
         style="font-size:4.23333311px;stroke-width:0.26458332">CGCTATCCG</tspan></text>
    <g
       id="g7525"
       transform="translate(-41.551256,51.825469)">
      <text
         id="text7338-4"
         y="73.893555"
         x="133.19511"
         style="font-style:normal;font-variant:normal;font-weight:normal;font-stretch:normal;font-size:2.82222223px;line-height:1.25;font-family:'Times New Roman';-inkscape-font-specification:'Times New Roman, ';text-align:center;letter-spacing:0px;word-spacing:0px;text-anchor:middle;stroke-width:0.26458332"
         xml:space="preserve"><tspan
           style="font-size:4.23333311px;stroke-width:0.26458332"
           y="73.893555"
           x="133.19511"
           id="tspan7336-2"
           sodipodi:role="line">CGC</tspan></text>
      <text
         id="text7338-4-3"
         y="78.108803"
         x="135.72516"
         style="font-style:normal;font-variant:normal;font-weight:normal;font-stretch:normal;font-size:2.82222223px;line-height:1.25;font-family:'Times New Roman';-inkscape-font-specification:'Times New Roman, ';text-align:center;letter-spacing:0px;word-spacing:0px;text-anchor:middle;stroke-width:0.26458332"
         xml:space="preserve"><tspan
           style="font-size:4.23333311px;stroke-width:0.26458332"
           y="78.108803"
           x="135.72516"
           id="tspan7336-2-5"
           sodipodi:role="line">GCT</tspan></text>
      <text
         id="text7338-4-3-8"
         y="82.324059"
         x="138.73062"
         style="font-style:normal;font-variant:normal;font-weight:normal;font-stretch:normal;font-size:2.82222223px;line-height:1.25;font-family:'Times New Roman';-inkscape-font-specification:'Times New Roman, ';text-align:center;letter-spacing:0px;word-spacing:0px;text-anchor:middle;stroke-width:0.26458332"
         xml:space="preserve"><tspan
           style="font-size:4.23333311px;stroke-width:0.26458332"
           y="82.324059"
           x="138.73062"
           id="tspan7336-2-5-6"
           sodipodi:role="line">CTA</tspan></text>
      <text
         id="text7338-4-3-8-2"
         y="86.539307"
         x="141.04568"
         style="font-style:normal;font-variant:normal;font-weight:normal;font-stretch:normal;font-size:2.82222223px;line-height:1.25;font-family:'Times New Roman';-inkscape-font-specification:'Times New Roman, ';text-align:center;letter-spacing:0px;word-spacing:0px;text-anchor:middle;stroke-width:0.26458332"
         xml:space="preserve"><tspan
           style="font-size:4.23333311px;stroke-width:0.26458332"
           y="86.539307"
           x="141.04568"
           id="tspan7336-2-5-6-0"
           sodipodi:role="line">TAT</tspan></text>
      <text
         id="text7338-4-3-8-2-6"
         y="90.754555"
         x="143.5468"
         style="font-style:normal;font-variant:normal;font-weight:normal;font-stretch:normal;font-size:2.82222223px;line-height:1.25;font-family:'Times New Roman';-inkscape-font-specification:'Times New Roman, ';text-align:center;letter-spacing:0px;word-spacing:0px;text-anchor:middle;stroke-width:0.26458332"
         xml:space="preserve"><tspan
           style="font-size:4.23333311px;stroke-width:0.26458332"
           y="90.754555"
           x="143.5468"
           id="tspan7336-2-5-6-0-6"
           sodipodi:role="line">ATC</tspan></text>
      <text
         id="text7338-4-3-8-2-7"
         y="94.969803"
         x="146.21326"
         style="font-style:normal;font-variant:normal;font-weight:normal;font-stretch:normal;font-size:2.82222223px;line-height:1.25;font-family:'Times New Roman';-inkscape-font-specification:'Times New Roman, ';text-align:center;letter-spacing:0px;word-spacing:0px;text-anchor:middle;stroke-width:0.26458332"
         xml:space="preserve"><tspan
           style="font-size:4.23333311px;stroke-width:0.26458332"
           y="94.969803"
           x="146.21326"
           id="tspan7336-2-5-6-0-4"
           sodipodi:role="line">TCC</tspan></text>
      <text
         id="text7338-4-3-8-2-1"
         y="99.185059"
         x="149.0699"
         style="font-style:normal;font-variant:normal;font-weight:normal;font-stretch:normal;font-size:2.82222223px;line-height:1.25;font-family:'Times New Roman';-inkscape-font-specification:'Times New Roman, ';text-align:center;letter-spacing:0px;word-spacing:0px;text-anchor:middle;stroke-width:0.26458332"
         xml:space="preserve"><tspan
           style="font-size:4.23333311px;stroke-width:0.26458332"
           y="99.185059"
           x="149.0699"
           id="tspan7336-2-5-6-0-0"
           sodipodi:role="line">CCG</tspan></text>
    </g>
    <text
       xml:space="preserve"
       style="font-style:normal;font-variant:normal;font-weight:normal;font-stretch:normal;font-size:2.82222223px;line-height:1.25;font-family:'Times New Roman';-inkscape-font-specification:'Times New Roman, ';text-align:center;letter-spacing:0px;word-spacing:0px;text-anchor:middle;stroke-width:0.26458332"
       x="75.917709"
       y="120.0248"
       id="text7472"><tspan
         sodipodi:role="line"
         id="tspan7470"
         x="75.917709"
         y="120.0248"
         style="font-size:4.23333311px;stroke-width:0.26458332">Sequence:</tspan></text>
    <text
       xml:space="preserve"
       style="font-style:normal;font-variant:normal;font-weight:normal;font-stretch:normal;font-size:2.82222223px;line-height:1.25;font-family:'Times New Roman';-inkscape-font-specification:'Times New Roman, ';text-align:center;letter-spacing:0px;word-spacing:0px;text-anchor:middle;stroke-width:0.26458332"
       x="78.145988"
       y="138.36478"
       id="text7472-9"><tspan
         sodipodi:role="line"
         id="tspan7470-4"
         x="78.145988"
         y="138.36478"
         style="font-size:4.23333311px;stroke-width:0.26458332">3-mers:</tspan></text>
  </g>
</svg>
