<?xml version="1.0" encoding="utf-8" standalone="no"?>
<!DOCTYPE svg PUBLIC "-//W3C//DTD SVG 1.1//EN"
  "http://www.w3.org/Graphics/SVG/1.1/DTD/svg11.dtd">
<!-- Created with matplotlib (https://matplotlib.org/) -->
<svg height="352.8pt" version="1.1" viewBox="0 0 856.8 352.8" width="856.8pt" xmlns="http://www.w3.org/2000/svg" xmlns:xlink="http://www.w3.org/1999/xlink">
 <defs>
  <style type="text/css">
*{stroke-linecap:butt;stroke-linejoin:round;}
  </style>
 </defs>
 <g id="figure_1">
  <g id="patch_1">
   <path d="M 0 352.8 
L 856.8 352.8 
L 856.8 0 
L 0 0 
z
" style="fill:#ffffff;"/>
  </g>
  <g id="axes_1">
   <g id="patch_2">
    <path d="M 58.345938 308.251875 
L 843.6 308.251875 
L 843.6 13.2 
L 58.345938 13.2 
z
" style="fill:#ffffff;"/>
   </g>
   <g id="matplotlib.axis_1">
    <g id="xtick_1">
     <g id="line2d_1">
      <path clip-path="url(#pff137f445e)" d="M 93.887061 308.251875 
L 93.887061 13.2 
" style="fill:none;stroke:#000000;stroke-linecap:round;stroke-opacity:0.125;stroke-width:0.5;"/>
     </g>
     <g id="line2d_2">
      <defs>
       <path d="M 0 0 
L 0 6 
" id="mf0a3dcafa5" style="stroke:#262626;"/>
      </defs>
      <g>
       <use style="fill:#262626;stroke:#262626;" x="93.887061" xlink:href="#mf0a3dcafa5" y="308.251875"/>
      </g>
     </g>
     <g id="text_1">
      <!-- 0 -->
      <defs>
       <path d="M 31.78125 66.40625 
Q 24.171875 66.40625 20.328125 58.90625 
Q 16.5 51.421875 16.5 36.375 
Q 16.5 21.390625 20.328125 13.890625 
Q 24.171875 6.390625 31.78125 6.390625 
Q 39.453125 6.390625 43.28125 13.890625 
Q 47.125 21.390625 47.125 36.375 
Q 47.125 51.421875 43.28125 58.90625 
Q 39.453125 66.40625 31.78125 66.40625 
z
M 31.78125 74.21875 
Q 44.046875 74.21875 50.515625 64.515625 
Q 56.984375 54.828125 56.984375 36.375 
Q 56.984375 17.96875 50.515625 8.265625 
Q 44.046875 -1.421875 31.78125 -1.421875 
Q 19.53125 -1.421875 13.0625 8.265625 
Q 6.59375 17.96875 6.59375 36.375 
Q 6.59375 54.828125 13.0625 64.515625 
Q 19.53125 74.21875 31.78125 74.21875 
z
" id="DejaVuSans-48"/>
      </defs>
      <g style="fill:#262626;" transform="translate(90.705811 328.850312)scale(0.1 -0.1)">
       <use xlink:href="#DejaVuSans-48"/>
      </g>
     </g>
    </g>
    <g id="xtick_2">
     <g id="line2d_3">
      <path clip-path="url(#pff137f445e)" d="M 246.13004 308.251875 
L 246.13004 13.2 
" style="fill:none;stroke:#000000;stroke-linecap:round;stroke-opacity:0.125;stroke-width:0.5;"/>
     </g>
     <g id="line2d_4">
      <g>
       <use style="fill:#262626;stroke:#262626;" x="246.13004" xlink:href="#mf0a3dcafa5" y="308.251875"/>
      </g>
     </g>
     <g id="text_2">
      <!-- 1000 -->
      <defs>
       <path d="M 12.40625 8.296875 
L 28.515625 8.296875 
L 28.515625 63.921875 
L 10.984375 60.40625 
L 10.984375 69.390625 
L 28.421875 72.90625 
L 38.28125 72.90625 
L 38.28125 8.296875 
L 54.390625 8.296875 
L 54.390625 0 
L 12.40625 0 
z
" id="DejaVuSans-49"/>
      </defs>
      <g style="fill:#262626;" transform="translate(233.40504 328.850312)scale(0.1 -0.1)">
       <use xlink:href="#DejaVuSans-49"/>
       <use x="63.623047" xlink:href="#DejaVuSans-48"/>
       <use x="127.246094" xlink:href="#DejaVuSans-48"/>
       <use x="190.869141" xlink:href="#DejaVuSans-48"/>
      </g>
     </g>
    </g>
    <g id="xtick_3">
     <g id="line2d_5">
      <path clip-path="url(#pff137f445e)" d="M 398.373019 308.251875 
L 398.373019 13.2 
" style="fill:none;stroke:#000000;stroke-linecap:round;stroke-opacity:0.125;stroke-width:0.5;"/>
     </g>
     <g id="line2d_6">
      <g>
       <use style="fill:#262626;stroke:#262626;" x="398.373019" xlink:href="#mf0a3dcafa5" y="308.251875"/>
      </g>
     </g>
     <g id="text_3">
      <!-- 2000 -->
      <defs>
       <path d="M 19.1875 8.296875 
L 53.609375 8.296875 
L 53.609375 0 
L 7.328125 0 
L 7.328125 8.296875 
Q 12.9375 14.109375 22.625 23.890625 
Q 32.328125 33.6875 34.8125 36.53125 
Q 39.546875 41.84375 41.421875 45.53125 
Q 43.3125 49.21875 43.3125 52.78125 
Q 43.3125 58.59375 39.234375 62.25 
Q 35.15625 65.921875 28.609375 65.921875 
Q 23.96875 65.921875 18.8125 64.3125 
Q 13.671875 62.703125 7.8125 59.421875 
L 7.8125 69.390625 
Q 13.765625 71.78125 18.9375 73 
Q 24.125 74.21875 28.421875 74.21875 
Q 39.75 74.21875 46.484375 68.546875 
Q 53.21875 62.890625 53.21875 53.421875 
Q 53.21875 48.921875 51.53125 44.890625 
Q 49.859375 40.875 45.40625 35.40625 
Q 44.1875 33.984375 37.640625 27.21875 
Q 31.109375 20.453125 19.1875 8.296875 
z
" id="DejaVuSans-50"/>
      </defs>
      <g style="fill:#262626;" transform="translate(385.648019 328.850312)scale(0.1 -0.1)">
       <use xlink:href="#DejaVuSans-50"/>
       <use x="63.623047" xlink:href="#DejaVuSans-48"/>
       <use x="127.246094" xlink:href="#DejaVuSans-48"/>
       <use x="190.869141" xlink:href="#DejaVuSans-48"/>
      </g>
     </g>
    </g>
    <g id="xtick_4">
     <g id="line2d_7">
      <path clip-path="url(#pff137f445e)" d="M 550.615999 308.251875 
L 550.615999 13.2 
" style="fill:none;stroke:#000000;stroke-linecap:round;stroke-opacity:0.125;stroke-width:0.5;"/>
     </g>
     <g id="line2d_8">
      <g>
       <use style="fill:#262626;stroke:#262626;" x="550.615999" xlink:href="#mf0a3dcafa5" y="308.251875"/>
      </g>
     </g>
     <g id="text_4">
      <!-- 3000 -->
      <defs>
       <path d="M 40.578125 39.3125 
Q 47.65625 37.796875 51.625 33 
Q 55.609375 28.21875 55.609375 21.1875 
Q 55.609375 10.40625 48.1875 4.484375 
Q 40.765625 -1.421875 27.09375 -1.421875 
Q 22.515625 -1.421875 17.65625 -0.515625 
Q 12.796875 0.390625 7.625 2.203125 
L 7.625 11.71875 
Q 11.71875 9.328125 16.59375 8.109375 
Q 21.484375 6.890625 26.8125 6.890625 
Q 36.078125 6.890625 40.9375 10.546875 
Q 45.796875 14.203125 45.796875 21.1875 
Q 45.796875 27.640625 41.28125 31.265625 
Q 36.765625 34.90625 28.71875 34.90625 
L 20.21875 34.90625 
L 20.21875 43.015625 
L 29.109375 43.015625 
Q 36.375 43.015625 40.234375 45.921875 
Q 44.09375 48.828125 44.09375 54.296875 
Q 44.09375 59.90625 40.109375 62.90625 
Q 36.140625 65.921875 28.71875 65.921875 
Q 24.65625 65.921875 20.015625 65.03125 
Q 15.375 64.15625 9.8125 62.3125 
L 9.8125 71.09375 
Q 15.4375 72.65625 20.34375 73.4375 
Q 25.25 74.21875 29.59375 74.21875 
Q 40.828125 74.21875 47.359375 69.109375 
Q 53.90625 64.015625 53.90625 55.328125 
Q 53.90625 49.265625 50.4375 45.09375 
Q 46.96875 40.921875 40.578125 39.3125 
z
" id="DejaVuSans-51"/>
      </defs>
      <g style="fill:#262626;" transform="translate(537.890999 328.850312)scale(0.1 -0.1)">
       <use xlink:href="#DejaVuSans-51"/>
       <use x="63.623047" xlink:href="#DejaVuSans-48"/>
       <use x="127.246094" xlink:href="#DejaVuSans-48"/>
       <use x="190.869141" xlink:href="#DejaVuSans-48"/>
      </g>
     </g>
    </g>
    <g id="xtick_5">
     <g id="line2d_9">
      <path clip-path="url(#pff137f445e)" d="M 702.858978 308.251875 
L 702.858978 13.2 
" style="fill:none;stroke:#000000;stroke-linecap:round;stroke-opacity:0.125;stroke-width:0.5;"/>
     </g>
     <g id="line2d_10">
      <g>
       <use style="fill:#262626;stroke:#262626;" x="702.858978" xlink:href="#mf0a3dcafa5" y="308.251875"/>
      </g>
     </g>
     <g id="text_5">
      <!-- 4000 -->
      <defs>
       <path d="M 37.796875 64.3125 
L 12.890625 25.390625 
L 37.796875 25.390625 
z
M 35.203125 72.90625 
L 47.609375 72.90625 
L 47.609375 25.390625 
L 58.015625 25.390625 
L 58.015625 17.1875 
L 47.609375 17.1875 
L 47.609375 0 
L 37.796875 0 
L 37.796875 17.1875 
L 4.890625 17.1875 
L 4.890625 26.703125 
z
" id="DejaVuSans-52"/>
      </defs>
      <g style="fill:#262626;" transform="translate(690.133978 328.850312)scale(0.1 -0.1)">
       <use xlink:href="#DejaVuSans-52"/>
       <use x="63.623047" xlink:href="#DejaVuSans-48"/>
       <use x="127.246094" xlink:href="#DejaVuSans-48"/>
       <use x="190.869141" xlink:href="#DejaVuSans-48"/>
      </g>
     </g>
    </g>
    <g id="text_6">
     <!-- $c$: support threshold -->
     <defs>
      <path d="M 53.609375 52.59375 
L 51.8125 43.703125 
Q 48.578125 46.046875 44.9375 47.21875 
Q 41.3125 48.390625 37.40625 48.390625 
Q 33.109375 48.390625 29.21875 46.875 
Q 25.34375 45.359375 22.703125 42.578125 
Q 18.5 38.328125 16.203125 32.609375 
Q 13.921875 26.90625 13.921875 20.796875 
Q 13.921875 13.421875 17.609375 9.8125 
Q 21.296875 6.203125 28.8125 6.203125 
Q 32.515625 6.203125 36.6875 7.328125 
Q 40.875 8.453125 45.40625 10.6875 
L 43.703125 1.8125 
Q 39.796875 0.203125 35.671875 -0.609375 
Q 31.546875 -1.421875 27.203125 -1.421875 
Q 16.3125 -1.421875 10.453125 4.015625 
Q 4.59375 9.46875 4.59375 19.578125 
Q 4.59375 28.078125 7.640625 35.234375 
Q 10.6875 42.390625 16.703125 48.09375 
Q 20.796875 52 26.3125 54 
Q 31.84375 56 38.375 56 
Q 42.1875 56 45.9375 55.140625 
Q 49.703125 54.296875 53.609375 52.59375 
z
" id="DejaVuSans-Oblique-99"/>
      <path d="M 11.71875 12.40625 
L 22.015625 12.40625 
L 22.015625 0 
L 11.71875 0 
z
M 11.71875 51.703125 
L 22.015625 51.703125 
L 22.015625 39.3125 
L 11.71875 39.3125 
z
" id="DejaVuSans-58"/>
      <path id="DejaVuSans-32"/>
      <path d="M 44.28125 53.078125 
L 44.28125 44.578125 
Q 40.484375 46.53125 36.375 47.5 
Q 32.28125 48.484375 27.875 48.484375 
Q 21.1875 48.484375 17.84375 46.4375 
Q 14.5 44.390625 14.5 40.28125 
Q 14.5 37.15625 16.890625 35.375 
Q 19.28125 33.59375 26.515625 31.984375 
L 29.59375 31.296875 
Q 39.15625 29.25 43.1875 25.515625 
Q 47.21875 21.78125 47.21875 15.09375 
Q 47.21875 7.46875 41.1875 3.015625 
Q 35.15625 -1.421875 24.609375 -1.421875 
Q 20.21875 -1.421875 15.453125 -0.5625 
Q 10.6875 0.296875 5.421875 2 
L 5.421875 11.28125 
Q 10.40625 8.6875 15.234375 7.390625 
Q 20.0625 6.109375 24.8125 6.109375 
Q 31.15625 6.109375 34.5625 8.28125 
Q 37.984375 10.453125 37.984375 14.40625 
Q 37.984375 18.0625 35.515625 20.015625 
Q 33.0625 21.96875 24.703125 23.78125 
L 21.578125 24.515625 
Q 13.234375 26.265625 9.515625 29.90625 
Q 5.8125 33.546875 5.8125 39.890625 
Q 5.8125 47.609375 11.28125 51.796875 
Q 16.75 56 26.8125 56 
Q 31.78125 56 36.171875 55.265625 
Q 40.578125 54.546875 44.28125 53.078125 
z
" id="DejaVuSans-115"/>
      <path d="M 8.5 21.578125 
L 8.5 54.6875 
L 17.484375 54.6875 
L 17.484375 21.921875 
Q 17.484375 14.15625 20.5 10.265625 
Q 23.53125 6.390625 29.59375 6.390625 
Q 36.859375 6.390625 41.078125 11.03125 
Q 45.3125 15.671875 45.3125 23.6875 
L 45.3125 54.6875 
L 54.296875 54.6875 
L 54.296875 0 
L 45.3125 0 
L 45.3125 8.40625 
Q 42.046875 3.421875 37.71875 1 
Q 33.40625 -1.421875 27.6875 -1.421875 
Q 18.265625 -1.421875 13.375 4.4375 
Q 8.5 10.296875 8.5 21.578125 
z
M 31.109375 56 
z
" id="DejaVuSans-117"/>
      <path d="M 18.109375 8.203125 
L 18.109375 -20.796875 
L 9.078125 -20.796875 
L 9.078125 54.6875 
L 18.109375 54.6875 
L 18.109375 46.390625 
Q 20.953125 51.265625 25.265625 53.625 
Q 29.59375 56 35.59375 56 
Q 45.5625 56 51.78125 48.09375 
Q 58.015625 40.1875 58.015625 27.296875 
Q 58.015625 14.40625 51.78125 6.484375 
Q 45.5625 -1.421875 35.59375 -1.421875 
Q 29.59375 -1.421875 25.265625 0.953125 
Q 20.953125 3.328125 18.109375 8.203125 
z
M 48.6875 27.296875 
Q 48.6875 37.203125 44.609375 42.84375 
Q 40.53125 48.484375 33.40625 48.484375 
Q 26.265625 48.484375 22.1875 42.84375 
Q 18.109375 37.203125 18.109375 27.296875 
Q 18.109375 17.390625 22.1875 11.75 
Q 26.265625 6.109375 33.40625 6.109375 
Q 40.53125 6.109375 44.609375 11.75 
Q 48.6875 17.390625 48.6875 27.296875 
z
" id="DejaVuSans-112"/>
      <path d="M 30.609375 48.390625 
Q 23.390625 48.390625 19.1875 42.75 
Q 14.984375 37.109375 14.984375 27.296875 
Q 14.984375 17.484375 19.15625 11.84375 
Q 23.34375 6.203125 30.609375 6.203125 
Q 37.796875 6.203125 41.984375 11.859375 
Q 46.1875 17.53125 46.1875 27.296875 
Q 46.1875 37.015625 41.984375 42.703125 
Q 37.796875 48.390625 30.609375 48.390625 
z
M 30.609375 56 
Q 42.328125 56 49.015625 48.375 
Q 55.71875 40.765625 55.71875 27.296875 
Q 55.71875 13.875 49.015625 6.21875 
Q 42.328125 -1.421875 30.609375 -1.421875 
Q 18.84375 -1.421875 12.171875 6.21875 
Q 5.515625 13.875 5.515625 27.296875 
Q 5.515625 40.765625 12.171875 48.375 
Q 18.84375 56 30.609375 56 
z
" id="DejaVuSans-111"/>
      <path d="M 41.109375 46.296875 
Q 39.59375 47.171875 37.8125 47.578125 
Q 36.03125 48 33.890625 48 
Q 26.265625 48 22.1875 43.046875 
Q 18.109375 38.09375 18.109375 28.8125 
L 18.109375 0 
L 9.078125 0 
L 9.078125 54.6875 
L 18.109375 54.6875 
L 18.109375 46.1875 
Q 20.953125 51.171875 25.484375 53.578125 
Q 30.03125 56 36.53125 56 
Q 37.453125 56 38.578125 55.875 
Q 39.703125 55.765625 41.0625 55.515625 
z
" id="DejaVuSans-114"/>
      <path d="M 18.3125 70.21875 
L 18.3125 54.6875 
L 36.8125 54.6875 
L 36.8125 47.703125 
L 18.3125 47.703125 
L 18.3125 18.015625 
Q 18.3125 11.328125 20.140625 9.421875 
Q 21.96875 7.515625 27.59375 7.515625 
L 36.8125 7.515625 
L 36.8125 0 
L 27.59375 0 
Q 17.1875 0 13.234375 3.875 
Q 9.28125 7.765625 9.28125 18.015625 
L 9.28125 47.703125 
L 2.6875 47.703125 
L 2.6875 54.6875 
L 9.28125 54.6875 
L 9.28125 70.21875 
z
" id="DejaVuSans-116"/>
      <path d="M 54.890625 33.015625 
L 54.890625 0 
L 45.90625 0 
L 45.90625 32.71875 
Q 45.90625 40.484375 42.875 44.328125 
Q 39.84375 48.1875 33.796875 48.1875 
Q 26.515625 48.1875 22.3125 43.546875 
Q 18.109375 38.921875 18.109375 30.90625 
L 18.109375 0 
L 9.078125 0 
L 9.078125 75.984375 
L 18.109375 75.984375 
L 18.109375 46.1875 
Q 21.34375 51.125 25.703125 53.5625 
Q 30.078125 56 35.796875 56 
Q 45.21875 56 50.046875 50.171875 
Q 54.890625 44.34375 54.890625 33.015625 
z
" id="DejaVuSans-104"/>
      <path d="M 56.203125 29.59375 
L 56.203125 25.203125 
L 14.890625 25.203125 
Q 15.484375 15.921875 20.484375 11.0625 
Q 25.484375 6.203125 34.421875 6.203125 
Q 39.59375 6.203125 44.453125 7.46875 
Q 49.3125 8.734375 54.109375 11.28125 
L 54.109375 2.78125 
Q 49.265625 0.734375 44.1875 -0.34375 
Q 39.109375 -1.421875 33.890625 -1.421875 
Q 20.796875 -1.421875 13.15625 6.1875 
Q 5.515625 13.8125 5.515625 26.8125 
Q 5.515625 40.234375 12.765625 48.109375 
Q 20.015625 56 32.328125 56 
Q 43.359375 56 49.78125 48.890625 
Q 56.203125 41.796875 56.203125 29.59375 
z
M 47.21875 32.234375 
Q 47.125 39.59375 43.09375 43.984375 
Q 39.0625 48.390625 32.421875 48.390625 
Q 24.90625 48.390625 20.390625 44.140625 
Q 15.875 39.890625 15.1875 32.171875 
z
" id="DejaVuSans-101"/>
      <path d="M 9.421875 75.984375 
L 18.40625 75.984375 
L 18.40625 0 
L 9.421875 0 
z
" id="DejaVuSans-108"/>
      <path d="M 45.40625 46.390625 
L 45.40625 75.984375 
L 54.390625 75.984375 
L 54.390625 0 
L 45.40625 0 
L 45.40625 8.203125 
Q 42.578125 3.328125 38.25 0.953125 
Q 33.9375 -1.421875 27.875 -1.421875 
Q 17.96875 -1.421875 11.734375 6.484375 
Q 5.515625 14.40625 5.515625 27.296875 
Q 5.515625 40.1875 11.734375 48.09375 
Q 17.96875 56 27.875 56 
Q 33.9375 56 38.25 53.625 
Q 42.578125 51.265625 45.40625 46.390625 
z
M 14.796875 27.296875 
Q 14.796875 17.390625 18.875 11.75 
Q 22.953125 6.109375 30.078125 6.109375 
Q 37.203125 6.109375 41.296875 11.75 
Q 45.40625 17.390625 45.40625 27.296875 
Q 45.40625 37.203125 41.296875 42.84375 
Q 37.203125 48.484375 30.078125 48.484375 
Q 22.953125 48.484375 18.875 42.84375 
Q 14.796875 37.203125 14.796875 27.296875 
z
" id="DejaVuSans-100"/>
     </defs>
     <g style="fill:#262626;" transform="translate(395.422969 343.29)scale(0.11 -0.11)">
      <use transform="translate(0 0.015625)" xlink:href="#DejaVuSans-Oblique-99"/>
      <use transform="translate(54.980469 0.015625)" xlink:href="#DejaVuSans-58"/>
      <use transform="translate(88.671875 0.015625)" xlink:href="#DejaVuSans-32"/>
      <use transform="translate(120.458984 0.015625)" xlink:href="#DejaVuSans-115"/>
      <use transform="translate(172.558594 0.015625)" xlink:href="#DejaVuSans-117"/>
      <use transform="translate(235.9375 0.015625)" xlink:href="#DejaVuSans-112"/>
      <use transform="translate(299.414062 0.015625)" xlink:href="#DejaVuSans-112"/>
      <use transform="translate(362.890625 0.015625)" xlink:href="#DejaVuSans-111"/>
      <use transform="translate(424.072266 0.015625)" xlink:href="#DejaVuSans-114"/>
      <use transform="translate(465.185547 0.015625)" xlink:href="#DejaVuSans-116"/>
      <use transform="translate(504.394531 0.015625)" xlink:href="#DejaVuSans-32"/>
      <use transform="translate(536.181641 0.015625)" xlink:href="#DejaVuSans-116"/>
      <use transform="translate(575.390625 0.015625)" xlink:href="#DejaVuSans-104"/>
      <use transform="translate(638.769531 0.015625)" xlink:href="#DejaVuSans-114"/>
      <use transform="translate(679.882812 0.015625)" xlink:href="#DejaVuSans-101"/>
      <use transform="translate(741.40625 0.015625)" xlink:href="#DejaVuSans-115"/>
      <use transform="translate(793.505859 0.015625)" xlink:href="#DejaVuSans-104"/>
      <use transform="translate(856.884766 0.015625)" xlink:href="#DejaVuSans-111"/>
      <use transform="translate(918.066406 0.015625)" xlink:href="#DejaVuSans-108"/>
      <use transform="translate(945.849609 0.015625)" xlink:href="#DejaVuSans-100"/>
     </g>
    </g>
   </g>
   <g id="matplotlib.axis_2">
    <g id="ytick_1">
     <g id="line2d_11">
      <path clip-path="url(#pff137f445e)" d="M 58.345938 308.251875 
L 843.6 308.251875 
" style="fill:none;stroke:#000000;stroke-linecap:round;stroke-opacity:0.125;stroke-width:0.5;"/>
     </g>
     <g id="line2d_12">
      <defs>
       <path d="M 0 0 
L -6 0 
" id="mfa55ca4aea" style="stroke:#262626;"/>
      </defs>
      <g>
       <use style="fill:#262626;stroke:#262626;" x="58.345938" xlink:href="#mfa55ca4aea" y="308.251875"/>
      </g>
     </g>
     <g id="text_7">
      <!-- $\mathdefault{10^{-1}}$ -->
      <defs>
       <path d="M 10.59375 35.5 
L 73.1875 35.5 
L 73.1875 27.203125 
L 10.59375 27.203125 
z
" id="DejaVuSans-8722"/>
      </defs>
      <g style="fill:#262626;" transform="translate(21.845938 312.051094)scale(0.1 -0.1)">
       <use transform="translate(0 0.684375)" xlink:href="#DejaVuSans-49"/>
       <use transform="translate(63.623047 0.684375)" xlink:href="#DejaVuSans-48"/>
       <use transform="translate(128.203125 38.965625)scale(0.7)" xlink:href="#DejaVuSans-8722"/>
       <use transform="translate(186.855469 38.965625)scale(0.7)" xlink:href="#DejaVuSans-49"/>
      </g>
     </g>
    </g>
    <g id="ytick_2">
     <g id="line2d_13">
      <path clip-path="url(#pff137f445e)" d="M 58.345938 267.670146 
L 843.6 267.670146 
" style="fill:none;stroke:#000000;stroke-linecap:round;stroke-opacity:0.125;stroke-width:0.5;"/>
     </g>
     <g id="line2d_14">
      <g>
       <use style="fill:#262626;stroke:#262626;" x="58.345938" xlink:href="#mfa55ca4aea" y="267.670146"/>
      </g>
     </g>
     <g id="text_8">
      <!-- $\mathdefault{10^{0}}$ -->
      <g style="fill:#262626;" transform="translate(27.745938 271.469365)scale(0.1 -0.1)">
       <use transform="translate(0 0.765625)" xlink:href="#DejaVuSans-49"/>
       <use transform="translate(63.623047 0.765625)" xlink:href="#DejaVuSans-48"/>
       <use transform="translate(128.203125 39.046875)scale(0.7)" xlink:href="#DejaVuSans-48"/>
      </g>
     </g>
    </g>
    <g id="ytick_3">
     <g id="line2d_15">
      <path clip-path="url(#pff137f445e)" d="M 58.345938 227.088417 
L 843.6 227.088417 
" style="fill:none;stroke:#000000;stroke-linecap:round;stroke-opacity:0.125;stroke-width:0.5;"/>
     </g>
     <g id="line2d_16">
      <g>
       <use style="fill:#262626;stroke:#262626;" x="58.345938" xlink:href="#mfa55ca4aea" y="227.088417"/>
      </g>
     </g>
     <g id="text_9">
      <!-- $\mathdefault{10^{1}}$ -->
      <g style="fill:#262626;" transform="translate(27.745938 230.887636)scale(0.1 -0.1)">
       <use transform="translate(0 0.684375)" xlink:href="#DejaVuSans-49"/>
       <use transform="translate(63.623047 0.684375)" xlink:href="#DejaVuSans-48"/>
       <use transform="translate(128.203125 38.965625)scale(0.7)" xlink:href="#DejaVuSans-49"/>
      </g>
     </g>
    </g>
    <g id="ytick_4">
     <g id="line2d_17">
      <path clip-path="url(#pff137f445e)" d="M 58.345938 186.506688 
L 843.6 186.506688 
" style="fill:none;stroke:#000000;stroke-linecap:round;stroke-opacity:0.125;stroke-width:0.5;"/>
     </g>
     <g id="line2d_18">
      <g>
       <use style="fill:#262626;stroke:#262626;" x="58.345938" xlink:href="#mfa55ca4aea" y="186.506688"/>
      </g>
     </g>
     <g id="text_10">
      <!-- $\mathdefault{10^{2}}$ -->
      <g style="fill:#262626;" transform="translate(27.745938 190.305906)scale(0.1 -0.1)">
       <use transform="translate(0 0.765625)" xlink:href="#DejaVuSans-49"/>
       <use transform="translate(63.623047 0.765625)" xlink:href="#DejaVuSans-48"/>
       <use transform="translate(128.203125 39.046875)scale(0.7)" xlink:href="#DejaVuSans-50"/>
      </g>
     </g>
    </g>
    <g id="ytick_5">
     <g id="line2d_19">
      <path clip-path="url(#pff137f445e)" d="M 58.345938 145.924959 
L 843.6 145.924959 
" style="fill:none;stroke:#000000;stroke-linecap:round;stroke-opacity:0.125;stroke-width:0.5;"/>
     </g>
     <g id="line2d_20">
      <g>
       <use style="fill:#262626;stroke:#262626;" x="58.345938" xlink:href="#mfa55ca4aea" y="145.924959"/>
      </g>
     </g>
     <g id="text_11">
      <!-- $\mathdefault{10^{3}}$ -->
      <g style="fill:#262626;" transform="translate(27.745938 149.724177)scale(0.1 -0.1)">
       <use transform="translate(0 0.765625)" xlink:href="#DejaVuSans-49"/>
       <use transform="translate(63.623047 0.765625)" xlink:href="#DejaVuSans-48"/>
       <use transform="translate(128.203125 39.046875)scale(0.7)" xlink:href="#DejaVuSans-51"/>
      </g>
     </g>
    </g>
    <g id="ytick_6">
     <g id="line2d_21">
      <path clip-path="url(#pff137f445e)" d="M 58.345938 105.34323 
L 843.6 105.34323 
" style="fill:none;stroke:#000000;stroke-linecap:round;stroke-opacity:0.125;stroke-width:0.5;"/>
     </g>
     <g id="line2d_22">
      <g>
       <use style="fill:#262626;stroke:#262626;" x="58.345938" xlink:href="#mfa55ca4aea" y="105.34323"/>
      </g>
     </g>
     <g id="text_12">
      <!-- $\mathdefault{10^{4}}$ -->
      <g style="fill:#262626;" transform="translate(27.745938 109.142448)scale(0.1 -0.1)">
       <use transform="translate(0 0.684375)" xlink:href="#DejaVuSans-49"/>
       <use transform="translate(63.623047 0.684375)" xlink:href="#DejaVuSans-48"/>
       <use transform="translate(128.203125 38.965625)scale(0.7)" xlink:href="#DejaVuSans-52"/>
      </g>
     </g>
    </g>
    <g id="ytick_7">
     <g id="line2d_23">
      <path clip-path="url(#pff137f445e)" d="M 58.345938 64.7615 
L 843.6 64.7615 
" style="fill:none;stroke:#000000;stroke-linecap:round;stroke-opacity:0.125;stroke-width:0.5;"/>
     </g>
     <g id="line2d_24">
      <g>
       <use style="fill:#262626;stroke:#262626;" x="58.345938" xlink:href="#mfa55ca4aea" y="64.7615"/>
      </g>
     </g>
     <g id="text_13">
      <!-- $\mathdefault{10^{5}}$ -->
      <defs>
       <path d="M 10.796875 72.90625 
L 49.515625 72.90625 
L 49.515625 64.59375 
L 19.828125 64.59375 
L 19.828125 46.734375 
Q 21.96875 47.46875 24.109375 47.828125 
Q 26.265625 48.1875 28.421875 48.1875 
Q 40.625 48.1875 47.75 41.5 
Q 54.890625 34.8125 54.890625 23.390625 
Q 54.890625 11.625 47.5625 5.09375 
Q 40.234375 -1.421875 26.90625 -1.421875 
Q 22.3125 -1.421875 17.546875 -0.640625 
Q 12.796875 0.140625 7.71875 1.703125 
L 7.71875 11.625 
Q 12.109375 9.234375 16.796875 8.0625 
Q 21.484375 6.890625 26.703125 6.890625 
Q 35.15625 6.890625 40.078125 11.328125 
Q 45.015625 15.765625 45.015625 23.390625 
Q 45.015625 31 40.078125 35.4375 
Q 35.15625 39.890625 26.703125 39.890625 
Q 22.75 39.890625 18.8125 39.015625 
Q 14.890625 38.140625 10.796875 36.28125 
z
" id="DejaVuSans-53"/>
      </defs>
      <g style="fill:#262626;" transform="translate(27.745938 68.560719)scale(0.1 -0.1)">
       <use transform="translate(0 0.684375)" xlink:href="#DejaVuSans-49"/>
       <use transform="translate(63.623047 0.684375)" xlink:href="#DejaVuSans-48"/>
       <use transform="translate(128.203125 38.965625)scale(0.7)" xlink:href="#DejaVuSans-53"/>
      </g>
     </g>
    </g>
    <g id="ytick_8">
     <g id="line2d_25">
      <path clip-path="url(#pff137f445e)" d="M 58.345938 24.179771 
L 843.6 24.179771 
" style="fill:none;stroke:#000000;stroke-linecap:round;stroke-opacity:0.125;stroke-width:0.5;"/>
     </g>
     <g id="line2d_26">
      <g>
       <use style="fill:#262626;stroke:#262626;" x="58.345938" xlink:href="#mfa55ca4aea" y="24.179771"/>
      </g>
     </g>
     <g id="text_14">
      <!-- $\mathdefault{10^{6}}$ -->
      <defs>
       <path d="M 33.015625 40.375 
Q 26.375 40.375 22.484375 35.828125 
Q 18.609375 31.296875 18.609375 23.390625 
Q 18.609375 15.53125 22.484375 10.953125 
Q 26.375 6.390625 33.015625 6.390625 
Q 39.65625 6.390625 43.53125 10.953125 
Q 47.40625 15.53125 47.40625 23.390625 
Q 47.40625 31.296875 43.53125 35.828125 
Q 39.65625 40.375 33.015625 40.375 
z
M 52.59375 71.296875 
L 52.59375 62.3125 
Q 48.875 64.0625 45.09375 64.984375 
Q 41.3125 65.921875 37.59375 65.921875 
Q 27.828125 65.921875 22.671875 59.328125 
Q 17.53125 52.734375 16.796875 39.40625 
Q 19.671875 43.65625 24.015625 45.921875 
Q 28.375 48.1875 33.59375 48.1875 
Q 44.578125 48.1875 50.953125 41.515625 
Q 57.328125 34.859375 57.328125 23.390625 
Q 57.328125 12.15625 50.6875 5.359375 
Q 44.046875 -1.421875 33.015625 -1.421875 
Q 20.359375 -1.421875 13.671875 8.265625 
Q 6.984375 17.96875 6.984375 36.375 
Q 6.984375 53.65625 15.1875 63.9375 
Q 23.390625 74.21875 37.203125 74.21875 
Q 40.921875 74.21875 44.703125 73.484375 
Q 48.484375 72.75 52.59375 71.296875 
z
" id="DejaVuSans-54"/>
      </defs>
      <g style="fill:#262626;" transform="translate(27.745938 27.97899)scale(0.1 -0.1)">
       <use transform="translate(0 0.765625)" xlink:href="#DejaVuSans-49"/>
       <use transform="translate(63.623047 0.765625)" xlink:href="#DejaVuSans-48"/>
       <use transform="translate(128.203125 39.046875)scale(0.7)" xlink:href="#DejaVuSans-54"/>
      </g>
     </g>
    </g>
    <g id="ytick_9">
     <g id="line2d_27">
      <defs>
       <path d="M 0 0 
L -3 0 
" id="m2b8370128c" style="stroke:#262626;stroke-width:0.5;"/>
      </defs>
      <g>
       <use style="fill:#262626;stroke:#262626;stroke-width:0.5;" x="58.345938" xlink:href="#m2b8370128c" y="296.035557"/>
      </g>
     </g>
    </g>
    <g id="ytick_10">
     <g id="line2d_28">
      <g>
       <use style="fill:#262626;stroke:#262626;stroke-width:0.5;" x="58.345938" xlink:href="#m2b8370128c" y="288.889469"/>
      </g>
     </g>
    </g>
    <g id="ytick_11">
     <g id="line2d_29">
      <g>
       <use style="fill:#262626;stroke:#262626;stroke-width:0.5;" x="58.345938" xlink:href="#m2b8370128c" y="283.81924"/>
      </g>
     </g>
    </g>
    <g id="ytick_12">
     <g id="line2d_30">
      <g>
       <use style="fill:#262626;stroke:#262626;stroke-width:0.5;" x="58.345938" xlink:href="#m2b8370128c" y="279.886464"/>
      </g>
     </g>
    </g>
    <g id="ytick_13">
     <g id="line2d_31">
      <g>
       <use style="fill:#262626;stroke:#262626;stroke-width:0.5;" x="58.345938" xlink:href="#m2b8370128c" y="276.673152"/>
      </g>
     </g>
    </g>
    <g id="ytick_14">
     <g id="line2d_32">
      <g>
       <use style="fill:#262626;stroke:#262626;stroke-width:0.5;" x="58.345938" xlink:href="#m2b8370128c" y="273.956335"/>
      </g>
     </g>
    </g>
    <g id="ytick_15">
     <g id="line2d_33">
      <g>
       <use style="fill:#262626;stroke:#262626;stroke-width:0.5;" x="58.345938" xlink:href="#m2b8370128c" y="271.602922"/>
      </g>
     </g>
    </g>
    <g id="ytick_16">
     <g id="line2d_34">
      <g>
       <use style="fill:#262626;stroke:#262626;stroke-width:0.5;" x="58.345938" xlink:href="#m2b8370128c" y="269.527064"/>
      </g>
     </g>
    </g>
    <g id="ytick_17">
     <g id="line2d_35">
      <g>
       <use style="fill:#262626;stroke:#262626;stroke-width:0.5;" x="58.345938" xlink:href="#m2b8370128c" y="255.453828"/>
      </g>
     </g>
    </g>
    <g id="ytick_18">
     <g id="line2d_36">
      <g>
       <use style="fill:#262626;stroke:#262626;stroke-width:0.5;" x="58.345938" xlink:href="#m2b8370128c" y="248.30774"/>
      </g>
     </g>
    </g>
    <g id="ytick_19">
     <g id="line2d_37">
      <g>
       <use style="fill:#262626;stroke:#262626;stroke-width:0.5;" x="58.345938" xlink:href="#m2b8370128c" y="243.23751"/>
      </g>
     </g>
    </g>
    <g id="ytick_20">
     <g id="line2d_38">
      <g>
       <use style="fill:#262626;stroke:#262626;stroke-width:0.5;" x="58.345938" xlink:href="#m2b8370128c" y="239.304735"/>
      </g>
     </g>
    </g>
    <g id="ytick_21">
     <g id="line2d_39">
      <g>
       <use style="fill:#262626;stroke:#262626;stroke-width:0.5;" x="58.345938" xlink:href="#m2b8370128c" y="236.091423"/>
      </g>
     </g>
    </g>
    <g id="ytick_22">
     <g id="line2d_40">
      <g>
       <use style="fill:#262626;stroke:#262626;stroke-width:0.5;" x="58.345938" xlink:href="#m2b8370128c" y="233.374606"/>
      </g>
     </g>
    </g>
    <g id="ytick_23">
     <g id="line2d_41">
      <g>
       <use style="fill:#262626;stroke:#262626;stroke-width:0.5;" x="58.345938" xlink:href="#m2b8370128c" y="231.021193"/>
      </g>
     </g>
    </g>
    <g id="ytick_24">
     <g id="line2d_42">
      <g>
       <use style="fill:#262626;stroke:#262626;stroke-width:0.5;" x="58.345938" xlink:href="#m2b8370128c" y="228.945335"/>
      </g>
     </g>
    </g>
    <g id="ytick_25">
     <g id="line2d_43">
      <g>
       <use style="fill:#262626;stroke:#262626;stroke-width:0.5;" x="58.345938" xlink:href="#m2b8370128c" y="214.872099"/>
      </g>
     </g>
    </g>
    <g id="ytick_26">
     <g id="line2d_44">
      <g>
       <use style="fill:#262626;stroke:#262626;stroke-width:0.5;" x="58.345938" xlink:href="#m2b8370128c" y="207.726011"/>
      </g>
     </g>
    </g>
    <g id="ytick_27">
     <g id="line2d_45">
      <g>
       <use style="fill:#262626;stroke:#262626;stroke-width:0.5;" x="58.345938" xlink:href="#m2b8370128c" y="202.655781"/>
      </g>
     </g>
    </g>
    <g id="ytick_28">
     <g id="line2d_46">
      <g>
       <use style="fill:#262626;stroke:#262626;stroke-width:0.5;" x="58.345938" xlink:href="#m2b8370128c" y="198.723005"/>
      </g>
     </g>
    </g>
    <g id="ytick_29">
     <g id="line2d_47">
      <g>
       <use style="fill:#262626;stroke:#262626;stroke-width:0.5;" x="58.345938" xlink:href="#m2b8370128c" y="195.509694"/>
      </g>
     </g>
    </g>
    <g id="ytick_30">
     <g id="line2d_48">
      <g>
       <use style="fill:#262626;stroke:#262626;stroke-width:0.5;" x="58.345938" xlink:href="#m2b8370128c" y="192.792877"/>
      </g>
     </g>
    </g>
    <g id="ytick_31">
     <g id="line2d_49">
      <g>
       <use style="fill:#262626;stroke:#262626;stroke-width:0.5;" x="58.345938" xlink:href="#m2b8370128c" y="190.439464"/>
      </g>
     </g>
    </g>
    <g id="ytick_32">
     <g id="line2d_50">
      <g>
       <use style="fill:#262626;stroke:#262626;stroke-width:0.5;" x="58.345938" xlink:href="#m2b8370128c" y="188.363606"/>
      </g>
     </g>
    </g>
    <g id="ytick_33">
     <g id="line2d_51">
      <g>
       <use style="fill:#262626;stroke:#262626;stroke-width:0.5;" x="58.345938" xlink:href="#m2b8370128c" y="174.29037"/>
      </g>
     </g>
    </g>
    <g id="ytick_34">
     <g id="line2d_52">
      <g>
       <use style="fill:#262626;stroke:#262626;stroke-width:0.5;" x="58.345938" xlink:href="#m2b8370128c" y="167.144282"/>
      </g>
     </g>
    </g>
    <g id="ytick_35">
     <g id="line2d_53">
      <g>
       <use style="fill:#262626;stroke:#262626;stroke-width:0.5;" x="58.345938" xlink:href="#m2b8370128c" y="162.074052"/>
      </g>
     </g>
    </g>
    <g id="ytick_36">
     <g id="line2d_54">
      <g>
       <use style="fill:#262626;stroke:#262626;stroke-width:0.5;" x="58.345938" xlink:href="#m2b8370128c" y="158.141276"/>
      </g>
     </g>
    </g>
    <g id="ytick_37">
     <g id="line2d_55">
      <g>
       <use style="fill:#262626;stroke:#262626;stroke-width:0.5;" x="58.345938" xlink:href="#m2b8370128c" y="154.927964"/>
      </g>
     </g>
    </g>
    <g id="ytick_38">
     <g id="line2d_56">
      <g>
       <use style="fill:#262626;stroke:#262626;stroke-width:0.5;" x="58.345938" xlink:href="#m2b8370128c" y="152.211148"/>
      </g>
     </g>
    </g>
    <g id="ytick_39">
     <g id="line2d_57">
      <g>
       <use style="fill:#262626;stroke:#262626;stroke-width:0.5;" x="58.345938" xlink:href="#m2b8370128c" y="149.857735"/>
      </g>
     </g>
    </g>
    <g id="ytick_40">
     <g id="line2d_58">
      <g>
       <use style="fill:#262626;stroke:#262626;stroke-width:0.5;" x="58.345938" xlink:href="#m2b8370128c" y="147.781877"/>
      </g>
     </g>
    </g>
    <g id="ytick_41">
     <g id="line2d_59">
      <g>
       <use style="fill:#262626;stroke:#262626;stroke-width:0.5;" x="58.345938" xlink:href="#m2b8370128c" y="133.708641"/>
      </g>
     </g>
    </g>
    <g id="ytick_42">
     <g id="line2d_60">
      <g>
       <use style="fill:#262626;stroke:#262626;stroke-width:0.5;" x="58.345938" xlink:href="#m2b8370128c" y="126.562553"/>
      </g>
     </g>
    </g>
    <g id="ytick_43">
     <g id="line2d_61">
      <g>
       <use style="fill:#262626;stroke:#262626;stroke-width:0.5;" x="58.345938" xlink:href="#m2b8370128c" y="121.492323"/>
      </g>
     </g>
    </g>
    <g id="ytick_44">
     <g id="line2d_62">
      <g>
       <use style="fill:#262626;stroke:#262626;stroke-width:0.5;" x="58.345938" xlink:href="#m2b8370128c" y="117.559547"/>
      </g>
     </g>
    </g>
    <g id="ytick_45">
     <g id="line2d_63">
      <g>
       <use style="fill:#262626;stroke:#262626;stroke-width:0.5;" x="58.345938" xlink:href="#m2b8370128c" y="114.346235"/>
      </g>
     </g>
    </g>
    <g id="ytick_46">
     <g id="line2d_64">
      <g>
       <use style="fill:#262626;stroke:#262626;stroke-width:0.5;" x="58.345938" xlink:href="#m2b8370128c" y="111.629419"/>
      </g>
     </g>
    </g>
    <g id="ytick_47">
     <g id="line2d_65">
      <g>
       <use style="fill:#262626;stroke:#262626;stroke-width:0.5;" x="58.345938" xlink:href="#m2b8370128c" y="109.276005"/>
      </g>
     </g>
    </g>
    <g id="ytick_48">
     <g id="line2d_66">
      <g>
       <use style="fill:#262626;stroke:#262626;stroke-width:0.5;" x="58.345938" xlink:href="#m2b8370128c" y="107.200148"/>
      </g>
     </g>
    </g>
    <g id="ytick_49">
     <g id="line2d_67">
      <g>
       <use style="fill:#262626;stroke:#262626;stroke-width:0.5;" x="58.345938" xlink:href="#m2b8370128c" y="93.126912"/>
      </g>
     </g>
    </g>
    <g id="ytick_50">
     <g id="line2d_68">
      <g>
       <use style="fill:#262626;stroke:#262626;stroke-width:0.5;" x="58.345938" xlink:href="#m2b8370128c" y="85.980824"/>
      </g>
     </g>
    </g>
    <g id="ytick_51">
     <g id="line2d_69">
      <g>
       <use style="fill:#262626;stroke:#262626;stroke-width:0.5;" x="58.345938" xlink:href="#m2b8370128c" y="80.910594"/>
      </g>
     </g>
    </g>
    <g id="ytick_52">
     <g id="line2d_70">
      <g>
       <use style="fill:#262626;stroke:#262626;stroke-width:0.5;" x="58.345938" xlink:href="#m2b8370128c" y="76.977818"/>
      </g>
     </g>
    </g>
    <g id="ytick_53">
     <g id="line2d_71">
      <g>
       <use style="fill:#262626;stroke:#262626;stroke-width:0.5;" x="58.345938" xlink:href="#m2b8370128c" y="73.764506"/>
      </g>
     </g>
    </g>
    <g id="ytick_54">
     <g id="line2d_72">
      <g>
       <use style="fill:#262626;stroke:#262626;stroke-width:0.5;" x="58.345938" xlink:href="#m2b8370128c" y="71.04769"/>
      </g>
     </g>
    </g>
    <g id="ytick_55">
     <g id="line2d_73">
      <g>
       <use style="fill:#262626;stroke:#262626;stroke-width:0.5;" x="58.345938" xlink:href="#m2b8370128c" y="68.694276"/>
      </g>
     </g>
    </g>
    <g id="ytick_56">
     <g id="line2d_74">
      <g>
       <use style="fill:#262626;stroke:#262626;stroke-width:0.5;" x="58.345938" xlink:href="#m2b8370128c" y="66.618419"/>
      </g>
     </g>
    </g>
    <g id="ytick_57">
     <g id="line2d_75">
      <g>
       <use style="fill:#262626;stroke:#262626;stroke-width:0.5;" x="58.345938" xlink:href="#m2b8370128c" y="52.545183"/>
      </g>
     </g>
    </g>
    <g id="ytick_58">
     <g id="line2d_76">
      <g>
       <use style="fill:#262626;stroke:#262626;stroke-width:0.5;" x="58.345938" xlink:href="#m2b8370128c" y="45.399095"/>
      </g>
     </g>
    </g>
    <g id="ytick_59">
     <g id="line2d_77">
      <g>
       <use style="fill:#262626;stroke:#262626;stroke-width:0.5;" x="58.345938" xlink:href="#m2b8370128c" y="40.328865"/>
      </g>
     </g>
    </g>
    <g id="ytick_60">
     <g id="line2d_78">
      <g>
       <use style="fill:#262626;stroke:#262626;stroke-width:0.5;" x="58.345938" xlink:href="#m2b8370128c" y="36.396089"/>
      </g>
     </g>
    </g>
    <g id="ytick_61">
     <g id="line2d_79">
      <g>
       <use style="fill:#262626;stroke:#262626;stroke-width:0.5;" x="58.345938" xlink:href="#m2b8370128c" y="33.182777"/>
      </g>
     </g>
    </g>
    <g id="ytick_62">
     <g id="line2d_80">
      <g>
       <use style="fill:#262626;stroke:#262626;stroke-width:0.5;" x="58.345938" xlink:href="#m2b8370128c" y="30.465961"/>
      </g>
     </g>
    </g>
    <g id="ytick_63">
     <g id="line2d_81">
      <g>
       <use style="fill:#262626;stroke:#262626;stroke-width:0.5;" x="58.345938" xlink:href="#m2b8370128c" y="28.112547"/>
      </g>
     </g>
    </g>
    <g id="ytick_64">
     <g id="line2d_82">
      <g>
       <use style="fill:#262626;stroke:#262626;stroke-width:0.5;" x="58.345938" xlink:href="#m2b8370128c" y="26.036689"/>
      </g>
     </g>
    </g>
    <g id="text_15">
     <!-- # introns -->
     <defs>
      <path d="M 51.125 44 
L 36.921875 44 
L 32.8125 27.6875 
L 47.125 27.6875 
z
M 43.796875 71.78125 
L 38.71875 51.515625 
L 52.984375 51.515625 
L 58.109375 71.78125 
L 65.921875 71.78125 
L 60.890625 51.515625 
L 76.125 51.515625 
L 76.125 44 
L 58.984375 44 
L 54.984375 27.6875 
L 70.515625 27.6875 
L 70.515625 20.21875 
L 53.078125 20.21875 
L 48 0 
L 40.1875 0 
L 45.21875 20.21875 
L 30.90625 20.21875 
L 25.875 0 
L 18.015625 0 
L 23.09375 20.21875 
L 7.71875 20.21875 
L 7.71875 27.6875 
L 24.90625 27.6875 
L 29 44 
L 13.28125 44 
L 13.28125 51.515625 
L 30.90625 51.515625 
L 35.890625 71.78125 
z
" id="DejaVuSans-35"/>
      <path d="M 9.421875 54.6875 
L 18.40625 54.6875 
L 18.40625 0 
L 9.421875 0 
z
M 9.421875 75.984375 
L 18.40625 75.984375 
L 18.40625 64.59375 
L 9.421875 64.59375 
z
" id="DejaVuSans-105"/>
      <path d="M 54.890625 33.015625 
L 54.890625 0 
L 45.90625 0 
L 45.90625 32.71875 
Q 45.90625 40.484375 42.875 44.328125 
Q 39.84375 48.1875 33.796875 48.1875 
Q 26.515625 48.1875 22.3125 43.546875 
Q 18.109375 38.921875 18.109375 30.90625 
L 18.109375 0 
L 9.078125 0 
L 9.078125 54.6875 
L 18.109375 54.6875 
L 18.109375 46.1875 
Q 21.34375 51.125 25.703125 53.5625 
Q 30.078125 56 35.796875 56 
Q 45.21875 56 50.046875 50.171875 
Q 54.890625 44.34375 54.890625 33.015625 
z
" id="DejaVuSans-110"/>
     </defs>
     <g style="fill:#262626;" transform="translate(15.558281 186.227891)rotate(-90)scale(0.11 -0.11)">
      <use xlink:href="#DejaVuSans-35"/>
      <use x="83.789062" xlink:href="#DejaVuSans-32"/>
      <use x="115.576172" xlink:href="#DejaVuSans-105"/>
      <use x="143.359375" xlink:href="#DejaVuSans-110"/>
      <use x="206.738281" xlink:href="#DejaVuSans-116"/>
      <use x="245.947266" xlink:href="#DejaVuSans-114"/>
      <use x="287.029297" xlink:href="#DejaVuSans-111"/>
      <use x="348.210938" xlink:href="#DejaVuSans-110"/>
      <use x="411.589844" xlink:href="#DejaVuSans-115"/>
     </g>
    </g>
   </g>
   <g id="patch_3">
    <path clip-path="url(#pff137f445e)" d="M 94.039304 308.251875 
L 94.039304 27.250089 
L 101.177977 27.250089 
L 101.177977 116.262 
L 108.316651 116.262 
L 108.316651 132.085021 
L 115.455324 132.085021 
L 115.455324 141.450705 
L 122.593997 141.450705 
L 122.593997 148.851575 
L 129.73267 148.851575 
L 129.73267 155.134792 
L 136.871344 155.134792 
L 136.871344 160.636252 
L 144.010017 160.636252 
L 144.010017 165.787888 
L 151.14869 165.787888 
L 151.14869 169.330638 
L 158.287364 169.330638 
L 158.287364 172.85257 
L 165.426037 172.85257 
L 165.426037 176.948536 
L 172.56471 176.948536 
L 172.56471 180.080064 
L 179.703384 180.080064 
L 179.703384 183.002056 
L 186.842057 183.002056 
L 186.842057 185.150294 
L 193.98073 185.150294 
L 193.98073 188.759677 
L 201.119403 188.759677 
L 201.119403 191.11309 
L 208.258077 191.11309 
L 208.258077 193.04647 
L 215.39675 193.04647 
L 215.39675 194.931792 
L 222.535423 194.931792 
L 222.535423 196.725653 
L 229.674097 196.725653 
L 229.674097 199.079066 
L 243.951443 199.079066 
L 243.951443 200.975995 
L 251.090116 200.975995 
L 251.090116 202.220588 
L 258.22879 202.220588 
L 258.22879 204.029808 
L 265.367463 204.029808 
L 265.367463 205.009195 
L 272.506136 205.009195 
L 272.506136 206.588557 
L 279.64481 206.588557 
L 279.64481 208.323507 
L 286.783483 208.323507 
L 286.783483 209.582929 
L 293.922156 209.582929 
L 293.922156 210.248081 
L 315.338176 210.248081 
L 315.338176 210.939323 
L 322.476849 210.939323 
L 322.476849 212.408876 
L 329.615523 212.408876 
L 329.615523 214.012201 
L 336.754196 214.012201 
L 336.754196 216.729017 
L 343.892869 216.729017 
L 343.892869 217.736401 
L 351.031543 217.736401 
L 351.031543 219.942329 
L 365.308889 219.942329 
L 365.308889 221.158288 
L 379.586236 221.158288 
L 379.586236 225.40863 
L 393.863582 225.40863 
L 393.863582 236.091423 
L 401.002256 236.091423 
L 401.002256 239.304735 
L 408.140929 239.304735 
L 408.140929 243.23751 
L 443.834295 243.23751 
L 443.834295 248.30774 
L 450.972969 248.30774 
L 450.972969 255.453828 
L 458.111642 255.453828 
L 458.111642 267.670146 
L 465.250315 267.670146 
L 465.250315 308.251875 
L 807.906634 308.251875 
L 807.906634 308.251875 
" style="fill:none;stroke:#000000;stroke-linejoin:miter;"/>
   </g>
   <g id="patch_4">
    <path clip-path="url(#pff137f445e)" d="M 94.039304 308.251875 
L 94.039304 47.272928 
L 101.177977 47.272928 
L 101.177977 107.610244 
L 108.316651 107.610244 
L 108.316651 121.682811 
L 115.455324 121.682811 
L 115.455324 130.196788 
L 122.593997 130.196788 
L 122.593997 137.249263 
L 129.73267 137.249263 
L 129.73267 141.978089 
L 136.871344 141.978089 
L 136.871344 145.819528 
L 144.010017 145.819528 
L 144.010017 149.769832 
L 151.14869 149.769832 
L 151.14869 153.544393 
L 158.287364 153.544393 
L 158.287364 157.688897 
L 165.426037 157.688897 
L 165.426037 161.005578 
L 172.56471 161.005578 
L 172.56471 163.93097 
L 179.703384 163.93097 
L 179.703384 166.340423 
L 186.842057 166.340423 
L 186.842057 168.550094 
L 193.98073 168.550094 
L 193.98073 170.785739 
L 201.119403 170.785739 
L 201.119403 172.058543 
L 208.258077 172.058543 
L 208.258077 174.027967 
L 215.39675 174.027967 
L 215.39675 175.952541 
L 222.535423 175.952541 
L 222.535423 178.333644 
L 229.674097 178.333644 
L 229.674097 180.080064 
L 236.81277 180.080064 
L 236.81277 181.613589 
L 243.951443 181.613589 
L 243.951443 184.043464 
L 251.090116 184.043464 
L 251.090116 186.506688 
L 258.22879 186.506688 
L 258.22879 189.37099 
L 265.367463 189.37099 
L 265.367463 191.11309 
L 272.506136 191.11309 
L 272.506136 193.564873 
L 279.64481 193.564873 
L 279.64481 193.829907 
L 293.922156 193.829907 
L 293.922156 194.37224 
L 301.06083 194.37224 
L 301.06083 195.218374 
L 315.338176 195.218374 
L 315.338176 196.107189 
L 322.476849 196.107189 
L 322.476849 197.366612 
L 329.615523 197.366612 
L 329.615523 198.031763 
L 336.754196 198.031763 
L 336.754196 199.442469 
L 343.892869 199.442469 
L 343.892869 199.813524 
L 351.031543 199.813524 
L 351.031543 200.975995 
L 358.170216 200.975995 
L 358.170216 201.795883 
L 365.308889 201.795883 
L 365.308889 202.220588 
L 379.586236 202.220588 
L 379.586236 202.655781 
L 386.724909 202.655781 
L 386.724909 203.101993 
L 393.863582 203.101993 
L 393.863582 203.559796 
L 401.002256 203.559796 
L 401.002256 204.029808 
L 408.140929 204.029808 
L 408.140929 204.512699 
L 415.279602 204.512699 
L 415.279602 206.046225 
L 450.972969 206.046225 
L 450.972969 206.588557 
L 458.111642 206.588557 
L 458.111642 207.726011 
L 465.250315 207.726011 
L 465.250315 208.323507 
L 479.527662 208.323507 
L 479.527662 208.941971 
L 486.666335 208.941971 
L 486.666335 209.582929 
L 500.943682 209.582929 
L 500.943682 210.248081 
L 508.082355 210.248081 
L 508.082355 211.658787 
L 515.221028 211.658787 
L 515.221028 213.192312 
L 522.359702 213.192312 
L 522.359702 214.872099 
L 536.637048 214.872099 
L 536.637048 215.776114 
L 543.775722 215.776114 
L 543.775722 216.729017 
L 550.914395 216.729017 
L 550.914395 218.804875 
L 565.191741 218.804875 
L 565.191741 219.942329 
L 572.330415 219.942329 
L 572.330415 222.464399 
L 579.469088 222.464399 
L 579.469088 227.088417 
L 608.023781 227.088417 
L 608.023781 231.021193 
L 622.301128 231.021193 
L 622.301128 233.374606 
L 672.271841 233.374606 
L 672.271841 236.091423 
L 729.381227 236.091423 
L 729.381227 239.304735 
L 750.797247 239.304735 
L 750.797247 248.30774 
L 757.93592 248.30774 
L 757.93592 255.453828 
L 786.490614 255.453828 
L 786.490614 267.670146 
L 793.629287 267.670146 
L 793.629287 308.251875 
L 807.906634 308.251875 
L 807.906634 308.251875 
" style="fill:none;stroke:#b43535;stroke-linejoin:miter;"/>
   </g>
   <g id="patch_5">
    <path clip-path="url(#pff137f445e)" d="M 94.039304 308.251875 
L 94.039304 51.83057 
L 101.177977 51.83057 
L 101.177977 106.371983 
L 108.316651 106.371983 
L 108.316651 120.275189 
L 115.455324 120.275189 
L 115.455324 128.848954 
L 122.593997 128.848954 
L 122.593997 135.703174 
L 129.73267 135.703174 
L 129.73267 140.15925 
L 136.871344 140.15925 
L 136.871344 144.245172 
L 144.010017 144.245172 
L 144.010017 148.098018 
L 151.14869 148.098018 
L 151.14869 151.375245 
L 158.287364 151.375245 
L 158.287364 155.616857 
L 165.426037 155.616857 
L 165.426037 158.354049 
L 172.56471 158.354049 
L 172.56471 161.638859 
L 179.703384 161.638859 
L 179.703384 163.93097 
L 186.842057 163.93097 
L 186.842057 166.509619 
L 193.98073 166.509619 
L 193.98073 169.0012 
L 201.119403 169.0012 
L 201.119403 170.930797 
L 208.258077 170.930797 
L 208.258077 172.451085 
L 215.39675 172.451085 
L 215.39675 173.94136 
L 222.535423 173.94136 
L 222.535423 175.474885 
L 229.674097 175.474885 
L 229.674097 176.744783 
L 236.81277 176.744783 
L 236.81277 179.01159 
L 243.951443 179.01159 
L 243.951443 180.958331 
L 251.090116 180.958331 
L 251.090116 183.440861 
L 258.22879 183.440861 
L 258.22879 185.479732 
L 265.367463 185.479732 
L 265.367463 188.961101 
L 272.506136 188.961101 
L 272.506136 190.661157 
L 279.64481 190.661157 
L 279.64481 193.303766 
L 286.783483 193.303766 
L 286.783483 193.564873 
L 293.922156 193.564873 
L 293.922156 194.098987 
L 308.199503 194.098987 
L 308.199503 194.649795 
L 315.338176 194.649795 
L 315.338176 194.931792 
L 322.476849 194.931792 
L 322.476849 195.509694 
L 329.615523 195.509694 
L 329.615523 195.805909 
L 336.754196 195.805909 
L 336.754196 197.366612 
L 343.892869 197.366612 
L 343.892869 198.723005 
L 351.031543 198.723005 
L 351.031543 199.442469 
L 358.170216 199.442469 
L 358.170216 200.975995 
L 365.308889 200.975995 
L 365.308889 201.795883 
L 372.447563 201.795883 
L 372.447563 202.220588 
L 401.002256 202.220588 
L 401.002256 202.655781 
L 415.279602 202.655781 
L 415.279602 203.559796 
L 422.418276 203.559796 
L 422.418276 204.029808 
L 429.556949 204.029808 
L 429.556949 204.512699 
L 436.695622 204.512699 
L 436.695622 205.009195 
L 479.527662 205.009195 
L 479.527662 206.046225 
L 486.666335 206.046225 
L 486.666335 206.588557 
L 493.805009 206.588557 
L 493.805009 207.14811 
L 500.943682 207.14811 
L 500.943682 208.941971 
L 522.359702 208.941971 
L 522.359702 210.248081 
L 529.498375 210.248081 
L 529.498375 213.192312 
L 543.775722 213.192312 
L 543.775722 214.012201 
L 558.053068 214.012201 
L 558.053068 214.872099 
L 565.191741 214.872099 
L 565.191741 215.776114 
L 572.330415 215.776114 
L 572.330415 217.736401 
L 579.469088 217.736401 
L 579.469088 218.804875 
L 586.607761 218.804875 
L 586.607761 219.942329 
L 593.746435 219.942329 
L 593.746435 221.158288 
L 600.885108 221.158288 
L 600.885108 223.875105 
L 608.023781 223.875105 
L 608.023781 225.40863 
L 615.162455 225.40863 
L 615.162455 227.088417 
L 622.301128 227.088417 
L 622.301128 228.945335 
L 636.578474 228.945335 
L 636.578474 231.021193 
L 657.994494 231.021193 
L 657.994494 233.374606 
L 679.410514 233.374606 
L 679.410514 236.091423 
L 772.213267 236.091423 
L 772.213267 243.23751 
L 779.35194 243.23751 
L 779.35194 248.30774 
L 786.490614 248.30774 
L 786.490614 255.453828 
L 807.906634 255.453828 
L 807.906634 308.251875 
L 807.906634 308.251875 
" style="fill:none;stroke:#3535b4;stroke-linejoin:miter;"/>
   </g>
   <g id="patch_6">
    <path clip-path="url(#pff137f445e)" d="M 94.039304 308.251875 
L 94.039304 50.771755 
L 101.177977 50.771755 
L 101.177977 106.510788 
L 108.316651 106.510788 
L 108.316651 120.482002 
L 115.455324 120.482002 
L 115.455324 128.963028 
L 122.593997 128.963028 
L 122.593997 135.951619 
L 129.73267 135.951619 
L 129.73267 140.299583 
L 136.871344 140.299583 
L 136.871344 144.438495 
L 144.010017 144.438495 
L 144.010017 148.298526 
L 151.14869 148.298526 
L 151.14869 151.763677 
L 158.287364 151.763677 
L 158.287364 155.801086 
L 165.426037 155.801086 
L 165.426037 158.461406 
L 172.56471 158.461406 
L 172.56471 161.811649 
L 179.703384 161.811649 
L 179.703384 164.327041 
L 186.842057 164.327041 
L 186.842057 166.73777 
L 193.98073 166.73777 
L 193.98073 169.066597 
L 201.119403 169.066597 
L 201.119403 171.077058 
L 208.258077 171.077058 
L 208.258077 172.85257 
L 215.39675 172.85257 
L 215.39675 174.115001 
L 222.535423 174.115001 
L 222.535423 175.759923 
L 229.674097 175.759923 
L 229.674097 177.051303 
L 236.81277 177.051303 
L 236.81277 179.597173 
L 243.951443 179.597173 
L 243.951443 181.480574 
L 251.090116 181.480574 
L 251.090116 183.589592 
L 258.22879 183.589592 
L 258.22879 186.331319 
L 265.367463 186.331319 
L 265.367463 189.37099 
L 272.506136 189.37099 
L 272.506136 191.343478 
L 279.64481 191.343478 
L 279.64481 193.564873 
L 293.922156 193.564873 
L 293.922156 194.098987 
L 308.199503 194.098987 
L 308.199503 194.649795 
L 315.338176 194.649795 
L 315.338176 194.931792 
L 322.476849 194.931792 
L 322.476849 195.509694 
L 329.615523 195.509694 
L 329.615523 196.107189 
L 336.754196 196.107189 
L 336.754196 197.366612 
L 343.892869 197.366612 
L 343.892869 199.079066 
L 351.031543 199.079066 
L 351.031543 199.813524 
L 358.170216 199.813524 
L 358.170216 201.381172 
L 365.308889 201.381172 
L 365.308889 201.795883 
L 372.447563 201.795883 
L 372.447563 202.220588 
L 401.002256 202.220588 
L 401.002256 202.655781 
L 408.140929 202.655781 
L 408.140929 203.101993 
L 415.279602 203.101993 
L 415.279602 204.029808 
L 422.418276 204.029808 
L 422.418276 204.512699 
L 436.695622 204.512699 
L 436.695622 205.009195 
L 472.388989 205.009195 
L 472.388989 205.520083 
L 479.527662 205.520083 
L 479.527662 206.046225 
L 486.666335 206.046225 
L 486.666335 207.726011 
L 493.805009 207.726011 
L 493.805009 208.323507 
L 500.943682 208.323507 
L 500.943682 208.941971 
L 515.221028 208.941971 
L 515.221028 209.582929 
L 522.359702 209.582929 
L 522.359702 210.939323 
L 529.498375 210.939323 
L 529.498375 212.408876 
L 543.775722 212.408876 
L 543.775722 213.192312 
L 550.914395 213.192312 
L 550.914395 214.012201 
L 558.053068 214.012201 
L 558.053068 215.776114 
L 565.191741 215.776114 
L 565.191741 216.729017 
L 572.330415 216.729017 
L 572.330415 217.736401 
L 579.469088 217.736401 
L 579.469088 218.804875 
L 586.607761 218.804875 
L 586.607761 221.158288 
L 593.746435 221.158288 
L 593.746435 222.464399 
L 600.885108 222.464399 
L 600.885108 225.40863 
L 615.162455 225.40863 
L 615.162455 227.088417 
L 622.301128 227.088417 
L 622.301128 228.945335 
L 636.578474 228.945335 
L 636.578474 231.021193 
L 650.855821 231.021193 
L 650.855821 233.374606 
L 679.410514 233.374606 
L 679.410514 236.091423 
L 765.074594 236.091423 
L 765.074594 239.304735 
L 772.213267 239.304735 
L 772.213267 248.30774 
L 779.35194 248.30774 
L 779.35194 255.453828 
L 807.906634 255.453828 
L 807.906634 308.251875 
L 807.906634 308.251875 
" style="fill:none;stroke:#b435b4;stroke-linejoin:miter;"/>
   </g>
   <g id="patch_7">
    <path d="M 58.345938 308.251875 
L 58.345938 13.2 
" style="fill:none;stroke:#262626;stroke-linecap:square;stroke-linejoin:miter;stroke-width:1.25;"/>
   </g>
   <g id="patch_8">
    <path d="M 843.6 308.251875 
L 843.6 13.2 
" style="fill:none;stroke:#262626;stroke-linecap:square;stroke-linejoin:miter;stroke-width:1.25;"/>
   </g>
   <g id="patch_9">
    <path d="M 58.345938 308.251875 
L 843.6 308.251875 
" style="fill:none;stroke:#262626;stroke-linecap:square;stroke-linejoin:miter;stroke-width:1.25;"/>
   </g>
   <g id="patch_10">
    <path d="M 58.345938 13.2 
L 843.6 13.2 
" style="fill:none;stroke:#262626;stroke-linecap:square;stroke-linejoin:miter;stroke-width:1.25;"/>
   </g>
   <g id="legend_1">
    <g id="patch_11">
     <path d="M 738.39375 79.9125 
L 836.6 79.9125 
Q 838.6 79.9125 838.6 77.9125 
L 838.6 20.2 
Q 838.6 18.2 836.6 18.2 
L 738.39375 18.2 
Q 736.39375 18.2 736.39375 20.2 
L 736.39375 77.9125 
Q 736.39375 79.9125 738.39375 79.9125 
z
" style="fill:#ffffff;stroke:#cccccc;stroke-linejoin:miter;stroke-width:0.3;"/>
    </g>
    <g id="patch_12">
     <path d="M 740.39375 29.798437 
L 760.39375 29.798437 
L 760.39375 22.798437 
L 740.39375 22.798437 
z
" style="fill:none;stroke:#000000;stroke-linejoin:miter;"/>
    </g>
    <g id="text_16">
     <!-- piecewise GP -->
     <defs>
      <path d="M 48.78125 52.59375 
L 48.78125 44.1875 
Q 44.96875 46.296875 41.140625 47.34375 
Q 37.3125 48.390625 33.40625 48.390625 
Q 24.65625 48.390625 19.8125 42.84375 
Q 14.984375 37.3125 14.984375 27.296875 
Q 14.984375 17.28125 19.8125 11.734375 
Q 24.65625 6.203125 33.40625 6.203125 
Q 37.3125 6.203125 41.140625 7.25 
Q 44.96875 8.296875 48.78125 10.40625 
L 48.78125 2.09375 
Q 45.015625 0.34375 40.984375 -0.53125 
Q 36.96875 -1.421875 32.421875 -1.421875 
Q 20.0625 -1.421875 12.78125 6.34375 
Q 5.515625 14.109375 5.515625 27.296875 
Q 5.515625 40.671875 12.859375 48.328125 
Q 20.21875 56 33.015625 56 
Q 37.15625 56 41.109375 55.140625 
Q 45.0625 54.296875 48.78125 52.59375 
z
" id="DejaVuSans-99"/>
      <path d="M 4.203125 54.6875 
L 13.1875 54.6875 
L 24.421875 12.015625 
L 35.59375 54.6875 
L 46.1875 54.6875 
L 57.421875 12.015625 
L 68.609375 54.6875 
L 77.59375 54.6875 
L 63.28125 0 
L 52.6875 0 
L 40.921875 44.828125 
L 29.109375 0 
L 18.5 0 
z
" id="DejaVuSans-119"/>
      <path d="M 59.515625 10.40625 
L 59.515625 29.984375 
L 43.40625 29.984375 
L 43.40625 38.09375 
L 69.28125 38.09375 
L 69.28125 6.78125 
Q 63.578125 2.734375 56.6875 0.65625 
Q 49.8125 -1.421875 42 -1.421875 
Q 24.90625 -1.421875 15.25 8.5625 
Q 5.609375 18.5625 5.609375 36.375 
Q 5.609375 54.25 15.25 64.234375 
Q 24.90625 74.21875 42 74.21875 
Q 49.125 74.21875 55.546875 72.453125 
Q 61.96875 70.703125 67.390625 67.28125 
L 67.390625 56.78125 
Q 61.921875 61.421875 55.765625 63.765625 
Q 49.609375 66.109375 42.828125 66.109375 
Q 29.4375 66.109375 22.71875 58.640625 
Q 16.015625 51.171875 16.015625 36.375 
Q 16.015625 21.625 22.71875 14.15625 
Q 29.4375 6.6875 42.828125 6.6875 
Q 48.046875 6.6875 52.140625 7.59375 
Q 56.25 8.5 59.515625 10.40625 
z
" id="DejaVuSans-71"/>
      <path d="M 19.671875 64.796875 
L 19.671875 37.40625 
L 32.078125 37.40625 
Q 38.96875 37.40625 42.71875 40.96875 
Q 46.484375 44.53125 46.484375 51.125 
Q 46.484375 57.671875 42.71875 61.234375 
Q 38.96875 64.796875 32.078125 64.796875 
z
M 9.8125 72.90625 
L 32.078125 72.90625 
Q 44.34375 72.90625 50.609375 67.359375 
Q 56.890625 61.8125 56.890625 51.125 
Q 56.890625 40.328125 50.609375 34.8125 
Q 44.34375 29.296875 32.078125 29.296875 
L 19.671875 29.296875 
L 19.671875 0 
L 9.8125 0 
z
" id="DejaVuSans-80"/>
     </defs>
     <g style="fill:#262626;" transform="translate(768.39375 29.798437)scale(0.1 -0.1)">
      <use xlink:href="#DejaVuSans-112"/>
      <use x="63.476562" xlink:href="#DejaVuSans-105"/>
      <use x="91.259766" xlink:href="#DejaVuSans-101"/>
      <use x="152.783203" xlink:href="#DejaVuSans-99"/>
      <use x="207.763672" xlink:href="#DejaVuSans-101"/>
      <use x="269.287109" xlink:href="#DejaVuSans-119"/>
      <use x="351.074219" xlink:href="#DejaVuSans-105"/>
      <use x="378.857422" xlink:href="#DejaVuSans-115"/>
      <use x="430.957031" xlink:href="#DejaVuSans-101"/>
      <use x="492.480469" xlink:href="#DejaVuSans-32"/>
      <use x="524.267578" xlink:href="#DejaVuSans-71"/>
      <use x="601.757812" xlink:href="#DejaVuSans-80"/>
     </g>
    </g>
    <g id="patch_13">
     <path d="M 740.39375 44.476562 
L 760.39375 44.476562 
L 760.39375 37.476562 
L 740.39375 37.476562 
z
" style="fill:none;stroke:#b43535;stroke-linejoin:miter;"/>
    </g>
    <g id="text_17">
     <!-- patterns -->
     <defs>
      <path d="M 34.28125 27.484375 
Q 23.390625 27.484375 19.1875 25 
Q 14.984375 22.515625 14.984375 16.5 
Q 14.984375 11.71875 18.140625 8.90625 
Q 21.296875 6.109375 26.703125 6.109375 
Q 34.1875 6.109375 38.703125 11.40625 
Q 43.21875 16.703125 43.21875 25.484375 
L 43.21875 27.484375 
z
M 52.203125 31.203125 
L 52.203125 0 
L 43.21875 0 
L 43.21875 8.296875 
Q 40.140625 3.328125 35.546875 0.953125 
Q 30.953125 -1.421875 24.3125 -1.421875 
Q 15.921875 -1.421875 10.953125 3.296875 
Q 6 8.015625 6 15.921875 
Q 6 25.140625 12.171875 29.828125 
Q 18.359375 34.515625 30.609375 34.515625 
L 43.21875 34.515625 
L 43.21875 35.40625 
Q 43.21875 41.609375 39.140625 45 
Q 35.0625 48.390625 27.6875 48.390625 
Q 23 48.390625 18.546875 47.265625 
Q 14.109375 46.140625 10.015625 43.890625 
L 10.015625 52.203125 
Q 14.9375 54.109375 19.578125 55.046875 
Q 24.21875 56 28.609375 56 
Q 40.484375 56 46.34375 49.84375 
Q 52.203125 43.703125 52.203125 31.203125 
z
" id="DejaVuSans-97"/>
     </defs>
     <g style="fill:#262626;" transform="translate(768.39375 44.476562)scale(0.1 -0.1)">
      <use xlink:href="#DejaVuSans-112"/>
      <use x="63.476562" xlink:href="#DejaVuSans-97"/>
      <use x="124.755859" xlink:href="#DejaVuSans-116"/>
      <use x="163.964844" xlink:href="#DejaVuSans-116"/>
      <use x="203.173828" xlink:href="#DejaVuSans-101"/>
      <use x="264.697266" xlink:href="#DejaVuSans-114"/>
      <use x="305.794922" xlink:href="#DejaVuSans-110"/>
      <use x="369.173828" xlink:href="#DejaVuSans-115"/>
     </g>
    </g>
    <g id="patch_14">
     <path d="M 740.39375 59.154687 
L 760.39375 59.154687 
L 760.39375 52.154687 
L 740.39375 52.154687 
z
" style="fill:none;stroke:#3535b4;stroke-linejoin:miter;"/>
    </g>
    <g id="text_18">
     <!-- annotations -->
     <g style="fill:#262626;" transform="translate(768.39375 59.154687)scale(0.1 -0.1)">
      <use xlink:href="#DejaVuSans-97"/>
      <use x="61.279297" xlink:href="#DejaVuSans-110"/>
      <use x="124.658203" xlink:href="#DejaVuSans-110"/>
      <use x="188.037109" xlink:href="#DejaVuSans-111"/>
      <use x="249.21875" xlink:href="#DejaVuSans-116"/>
      <use x="288.427734" xlink:href="#DejaVuSans-97"/>
      <use x="349.707031" xlink:href="#DejaVuSans-116"/>
      <use x="388.916016" xlink:href="#DejaVuSans-105"/>
      <use x="416.699219" xlink:href="#DejaVuSans-111"/>
      <use x="477.880859" xlink:href="#DejaVuSans-110"/>
      <use x="541.259766" xlink:href="#DejaVuSans-115"/>
     </g>
    </g>
    <g id="patch_15">
     <path d="M 740.39375 73.832812 
L 760.39375 73.832812 
L 760.39375 66.832812 
L 740.39375 66.832812 
z
" style="fill:none;stroke:#b435b4;stroke-linejoin:miter;"/>
    </g>
    <g id="text_19">
     <!-- hybrid -->
     <defs>
      <path d="M 32.171875 -5.078125 
Q 28.375 -14.84375 24.75 -17.8125 
Q 21.140625 -20.796875 15.09375 -20.796875 
L 7.90625 -20.796875 
L 7.90625 -13.28125 
L 13.1875 -13.28125 
Q 16.890625 -13.28125 18.9375 -11.515625 
Q 21 -9.765625 23.484375 -3.21875 
L 25.09375 0.875 
L 2.984375 54.6875 
L 12.5 54.6875 
L 29.59375 11.921875 
L 46.6875 54.6875 
L 56.203125 54.6875 
z
" id="DejaVuSans-121"/>
      <path d="M 48.6875 27.296875 
Q 48.6875 37.203125 44.609375 42.84375 
Q 40.53125 48.484375 33.40625 48.484375 
Q 26.265625 48.484375 22.1875 42.84375 
Q 18.109375 37.203125 18.109375 27.296875 
Q 18.109375 17.390625 22.1875 11.75 
Q 26.265625 6.109375 33.40625 6.109375 
Q 40.53125 6.109375 44.609375 11.75 
Q 48.6875 17.390625 48.6875 27.296875 
z
M 18.109375 46.390625 
Q 20.953125 51.265625 25.265625 53.625 
Q 29.59375 56 35.59375 56 
Q 45.5625 56 51.78125 48.09375 
Q 58.015625 40.1875 58.015625 27.296875 
Q 58.015625 14.40625 51.78125 6.484375 
Q 45.5625 -1.421875 35.59375 -1.421875 
Q 29.59375 -1.421875 25.265625 0.953125 
Q 20.953125 3.328125 18.109375 8.203125 
L 18.109375 0 
L 9.078125 0 
L 9.078125 75.984375 
L 18.109375 75.984375 
z
" id="DejaVuSans-98"/>
     </defs>
     <g style="fill:#262626;" transform="translate(768.39375 73.832812)scale(0.1 -0.1)">
      <use xlink:href="#DejaVuSans-104"/>
      <use x="63.378906" xlink:href="#DejaVuSans-121"/>
      <use x="122.558594" xlink:href="#DejaVuSans-98"/>
      <use x="186.035156" xlink:href="#DejaVuSans-114"/>
      <use x="227.148438" xlink:href="#DejaVuSans-105"/>
      <use x="254.931641" xlink:href="#DejaVuSans-100"/>
     </g>
    </g>
   </g>
  </g>
 </g>
 <defs>
  <clipPath id="pff137f445e">
   <rect height="295.051875" width="785.254063" x="58.345938" y="13.2"/>
  </clipPath>
 </defs>
</svg>
