<?xml version="1.0" encoding="utf-8" standalone="no"?>
<!DOCTYPE svg PUBLIC "-//W3C//DTD SVG 1.1//EN"
  "http://www.w3.org/Graphics/SVG/1.1/DTD/svg11.dtd">
<!-- Created with matplotlib (https://matplotlib.org/) -->
<svg height="496.446963pt" version="1.1" viewBox="0 0 806.809091 496.446963" width="806.809091pt" xmlns="http://www.w3.org/2000/svg" xmlns:xlink="http://www.w3.org/1999/xlink">
 <defs>
  <style type="text/css">
*{stroke-linecap:butt;stroke-linejoin:round;}
  </style>
 </defs>
 <g id="figure_1">
  <g id="patch_1">
   <path d="M 0 496.446963 
L 806.809091 496.446963 
L 806.809091 0 
L 0 0 
z
" style="fill:none;"/>
  </g>
  <g id="axes_1">
   <g id="patch_2">
    <path d="M 44.088125 448.366549 
L 796.109091 448.366549 
L 796.109091 10.7 
L 44.088125 10.7 
z
" style="fill:#fdf6e3;"/>
   </g>
   <g id="matplotlib.axis_1">
    <g id="xtick_1">
     <g id="line2d_1">
      <path clip-path="url(#p759e779f98)" d="M 90.822899 448.366549 
L 90.822899 10.7 
" style="fill:none;stroke:#eee8d5;stroke-width:0.8;"/>
     </g>
     <g id="line2d_2">
      <defs>
       <path d="M 0 0 
L 0 3.5 
" id="m00573a8c3e" style="stroke:#657b83;stroke-width:0.8;"/>
      </defs>
      <g>
       <use style="fill:#657b83;stroke:#657b83;stroke-width:0.8;" x="90.822899" xlink:href="#m00573a8c3e" y="448.366549"/>
      </g>
     </g>
     <g id="text_1">
      <!-- 4K -->
      <defs>
       <path d="M 35.890625 63.921875 
L 12.890625 25.390625 
L 35.890625 25.390625 
z
M 34.28125 72.90625 
L 45.703125 72.90625 
L 45.703125 25.390625 
L 55.421875 25.390625 
L 55.421875 17.390625 
L 45.703125 17.390625 
L 45.703125 0 
L 35.890625 0 
L 35.890625 17.390625 
L 4.984375 17.390625 
L 4.984375 26.703125 
z
" id="DejaVuSansMono-52"/>
       <path d="M 6.6875 72.90625 
L 16.609375 72.90625 
L 16.609375 40.484375 
L 47.40625 72.90625 
L 58.984375 72.90625 
L 30.609375 43.109375 
L 59.8125 0 
L 47.90625 0 
L 24.125 36.53125 
L 16.609375 28.515625 
L 16.609375 0 
L 6.6875 0 
z
" id="DejaVuSansMono-75"/>
      </defs>
      <g style="fill:#657b83;" transform="translate(87.596957 469.093278)rotate(-32.46118)scale(0.09 -0.09)">
       <use xlink:href="#DejaVuSansMono-52"/>
       <use x="60.205078" xlink:href="#DejaVuSansMono-75"/>
      </g>
     </g>
    </g>
    <g id="xtick_2">
     <g id="line2d_3">
      <path clip-path="url(#p759e779f98)" d="M 137.69416 448.366549 
L 137.69416 10.7 
" style="fill:none;stroke:#eee8d5;stroke-width:0.8;"/>
     </g>
     <g id="line2d_4">
      <g>
       <use style="fill:#657b83;stroke:#657b83;stroke-width:0.8;" x="137.69416" xlink:href="#m00573a8c3e" y="448.366549"/>
      </g>
     </g>
     <g id="text_2">
      <!-- 8K -->
      <defs>
       <path d="M 30.078125 34.625 
Q 23.484375 34.625 19.890625 30.9375 
Q 16.3125 27.25 16.3125 20.515625 
Q 16.3125 13.765625 19.9375 10.03125 
Q 23.578125 6.296875 30.078125 6.296875 
Q 36.71875 6.296875 40.296875 9.984375 
Q 43.890625 13.671875 43.890625 20.515625 
Q 43.890625 27.203125 40.25 30.90625 
Q 36.625 34.625 30.078125 34.625 
z
M 21.484375 38.71875 
Q 15.1875 40.328125 11.640625 44.71875 
Q 8.109375 49.125 8.109375 55.328125 
Q 8.109375 64.015625 14.015625 69.109375 
Q 19.921875 74.21875 30.078125 74.21875 
Q 40.28125 74.21875 46.1875 69.109375 
Q 52.09375 64.015625 52.09375 55.328125 
Q 52.09375 49.125 48.546875 44.71875 
Q 45.015625 40.328125 38.71875 38.71875 
Q 46.046875 37.109375 49.921875 32.21875 
Q 53.8125 27.34375 53.8125 19.578125 
Q 53.8125 9.71875 47.515625 4.140625 
Q 41.21875 -1.421875 30.078125 -1.421875 
Q 18.953125 -1.421875 12.671875 4.125 
Q 6.390625 9.671875 6.390625 19.484375 
Q 6.390625 27.296875 10.265625 32.203125 
Q 14.15625 37.109375 21.484375 38.71875 
z
M 17.921875 54.390625 
Q 17.921875 48.53125 21.046875 45.453125 
Q 24.171875 42.390625 30.078125 42.390625 
Q 36.03125 42.390625 39.15625 45.453125 
Q 42.28125 48.53125 42.28125 54.390625 
Q 42.28125 60.359375 39.171875 63.484375 
Q 36.078125 66.609375 30.078125 66.609375 
Q 24.171875 66.609375 21.046875 63.453125 
Q 17.921875 60.296875 17.921875 54.390625 
z
" id="DejaVuSansMono-56"/>
      </defs>
      <g style="fill:#657b83;" transform="translate(134.468218 469.093278)rotate(-32.46118)scale(0.09 -0.09)">
       <use xlink:href="#DejaVuSansMono-56"/>
       <use x="60.205078" xlink:href="#DejaVuSansMono-75"/>
      </g>
     </g>
    </g>
    <g id="xtick_3">
     <g id="line2d_5">
      <path clip-path="url(#p759e779f98)" d="M 184.565421 448.366549 
L 184.565421 10.7 
" style="fill:none;stroke:#eee8d5;stroke-width:0.8;"/>
     </g>
     <g id="line2d_6">
      <g>
       <use style="fill:#657b83;stroke:#657b83;stroke-width:0.8;" x="184.565421" xlink:href="#m00573a8c3e" y="448.366549"/>
      </g>
     </g>
     <g id="text_3">
      <!-- 16K -->
      <defs>
       <path d="M 13.1875 8.296875 
L 28.515625 8.296875 
L 28.515625 64.015625 
L 12.015625 60.296875 
L 12.015625 69.28125 
L 28.421875 72.90625 
L 38.28125 72.90625 
L 38.28125 8.296875 
L 53.421875 8.296875 
L 53.421875 0 
L 13.1875 0 
z
" id="DejaVuSansMono-49"/>
       <path d="M 48.390625 71.296875 
L 48.390625 62.203125 
Q 45.3125 64.015625 41.84375 64.96875 
Q 38.375 65.921875 34.625 65.921875 
Q 25.25 65.921875 20.40625 58.859375 
Q 15.578125 51.8125 15.578125 38.09375 
Q 17.921875 42.96875 22.0625 45.578125 
Q 26.21875 48.1875 31.59375 48.1875 
Q 42.140625 48.1875 47.921875 41.71875 
Q 53.71875 35.25 53.71875 23.390625 
Q 53.71875 11.578125 47.75 5.078125 
Q 41.796875 -1.421875 31 -1.421875 
Q 18.3125 -1.421875 12.40625 7.6875 
Q 6.5 16.796875 6.5 36.375 
Q 6.5 54.828125 13.59375 64.515625 
Q 20.703125 74.21875 34.1875 74.21875 
Q 37.796875 74.21875 41.40625 73.453125 
Q 45.015625 72.703125 48.390625 71.296875 
z
M 30.8125 40.484375 
Q 24.515625 40.484375 20.890625 35.9375 
Q 17.28125 31.390625 17.28125 23.390625 
Q 17.28125 15.375 20.890625 10.828125 
Q 24.515625 6.296875 30.8125 6.296875 
Q 37.359375 6.296875 40.671875 10.609375 
Q 44 14.9375 44 23.390625 
Q 44 31.890625 40.671875 36.1875 
Q 37.359375 40.484375 30.8125 40.484375 
z
" id="DejaVuSansMono-54"/>
      </defs>
      <g style="fill:#657b83;" transform="translate(179.053627 472.001422)rotate(-32.46118)scale(0.09 -0.09)">
       <use xlink:href="#DejaVuSansMono-49"/>
       <use x="60.205078" xlink:href="#DejaVuSansMono-54"/>
       <use x="120.410156" xlink:href="#DejaVuSansMono-75"/>
      </g>
     </g>
    </g>
    <g id="xtick_4">
     <g id="line2d_7">
      <path clip-path="url(#p759e779f98)" d="M 231.436681 448.366549 
L 231.436681 10.7 
" style="fill:none;stroke:#eee8d5;stroke-width:0.8;"/>
     </g>
     <g id="line2d_8">
      <g>
       <use style="fill:#657b83;stroke:#657b83;stroke-width:0.8;" x="231.436681" xlink:href="#m00573a8c3e" y="448.366549"/>
      </g>
     </g>
     <g id="text_4">
      <!-- 32K -->
      <defs>
       <path d="M 37.890625 39.015625 
Q 45.0625 37.109375 48.875 32.25 
Q 52.6875 27.390625 52.6875 20.125 
Q 52.6875 10.0625 45.921875 4.3125 
Q 39.15625 -1.421875 27.203125 -1.421875 
Q 22.171875 -1.421875 16.9375 -0.484375 
Q 11.71875 0.4375 6.6875 2.203125 
L 6.6875 12.015625 
Q 11.671875 9.421875 16.5 8.15625 
Q 21.34375 6.890625 26.125 6.890625 
Q 34.234375 6.890625 38.578125 10.546875 
Q 42.921875 14.203125 42.921875 21.09375 
Q 42.921875 27.4375 38.578125 31.171875 
Q 34.234375 34.90625 26.8125 34.90625 
L 19.28125 34.90625 
L 19.28125 43.015625 
L 26.8125 43.015625 
Q 33.59375 43.015625 37.40625 45.984375 
Q 41.21875 48.96875 41.21875 54.296875 
Q 41.21875 59.90625 37.671875 62.90625 
Q 34.125 65.921875 27.59375 65.921875 
Q 23.25 65.921875 18.609375 64.9375 
Q 13.96875 63.96875 8.890625 62.015625 
L 8.890625 71.09375 
Q 14.796875 72.65625 19.40625 73.4375 
Q 24.03125 74.21875 27.59375 74.21875 
Q 38.234375 74.21875 44.609375 68.875 
Q 50.984375 63.53125 50.984375 54.6875 
Q 50.984375 48.6875 47.625 44.671875 
Q 44.28125 40.671875 37.890625 39.015625 
z
" id="DejaVuSansMono-51"/>
       <path d="M 18.21875 8.296875 
L 51.703125 8.296875 
L 51.703125 0 
L 7.421875 0 
L 7.421875 8.296875 
Q 16.546875 17.921875 23.375 25.296875 
Q 30.21875 32.671875 32.8125 35.6875 
Q 37.703125 41.65625 39.40625 45.34375 
Q 41.109375 49.03125 41.109375 52.875 
Q 41.109375 58.984375 37.515625 62.453125 
Q 33.9375 65.921875 27.6875 65.921875 
Q 23.25 65.921875 18.359375 64.3125 
Q 13.484375 62.703125 8.015625 59.421875 
L 8.015625 69.390625 
Q 13.03125 71.78125 17.890625 73 
Q 22.75 74.21875 27.484375 74.21875 
Q 38.1875 74.21875 44.703125 68.53125 
Q 51.21875 62.84375 51.21875 53.609375 
Q 51.21875 48.921875 49.046875 44.234375 
Q 46.875 39.546875 42 33.890625 
Q 39.265625 30.71875 34.0625 25.09375 
Q 28.859375 19.484375 18.21875 8.296875 
z
" id="DejaVuSansMono-50"/>
      </defs>
      <g style="fill:#657b83;" transform="translate(225.924888 472.001422)rotate(-32.46118)scale(0.09 -0.09)">
       <use xlink:href="#DejaVuSansMono-51"/>
       <use x="60.205078" xlink:href="#DejaVuSansMono-50"/>
       <use x="120.410156" xlink:href="#DejaVuSansMono-75"/>
      </g>
     </g>
    </g>
    <g id="xtick_5">
     <g id="line2d_9">
      <path clip-path="url(#p759e779f98)" d="M 278.307942 448.366549 
L 278.307942 10.7 
" style="fill:none;stroke:#eee8d5;stroke-width:0.8;"/>
     </g>
     <g id="line2d_10">
      <g>
       <use style="fill:#657b83;stroke:#657b83;stroke-width:0.8;" x="278.307942" xlink:href="#m00573a8c3e" y="448.366549"/>
      </g>
     </g>
     <g id="text_5">
      <!-- 64K -->
      <g style="fill:#657b83;" transform="translate(272.796149 472.001422)rotate(-32.46118)scale(0.09 -0.09)">
       <use xlink:href="#DejaVuSansMono-54"/>
       <use x="60.205078" xlink:href="#DejaVuSansMono-52"/>
       <use x="120.410156" xlink:href="#DejaVuSansMono-75"/>
      </g>
     </g>
    </g>
    <g id="xtick_6">
     <g id="line2d_11">
      <path clip-path="url(#p759e779f98)" d="M 325.179203 448.366549 
L 325.179203 10.7 
" style="fill:none;stroke:#eee8d5;stroke-width:0.8;"/>
     </g>
     <g id="line2d_12">
      <g>
       <use style="fill:#657b83;stroke:#657b83;stroke-width:0.8;" x="325.179203" xlink:href="#m00573a8c3e" y="448.366549"/>
      </g>
     </g>
     <g id="text_6">
      <!-- 128K -->
      <g style="fill:#657b83;" transform="translate(317.381558 474.909565)rotate(-32.46118)scale(0.09 -0.09)">
       <use xlink:href="#DejaVuSansMono-49"/>
       <use x="60.205078" xlink:href="#DejaVuSansMono-50"/>
       <use x="120.410156" xlink:href="#DejaVuSansMono-56"/>
       <use x="180.615234" xlink:href="#DejaVuSansMono-75"/>
      </g>
     </g>
    </g>
    <g id="xtick_7">
     <g id="line2d_13">
      <path clip-path="url(#p759e779f98)" d="M 372.050464 448.366549 
L 372.050464 10.7 
" style="fill:none;stroke:#eee8d5;stroke-width:0.8;"/>
     </g>
     <g id="line2d_14">
      <g>
       <use style="fill:#657b83;stroke:#657b83;stroke-width:0.8;" x="372.050464" xlink:href="#m00573a8c3e" y="448.366549"/>
      </g>
     </g>
     <g id="text_7">
      <!-- 256K -->
      <defs>
       <path d="M 10.109375 72.90625 
L 47.015625 72.90625 
L 47.015625 64.59375 
L 19.09375 64.59375 
L 19.09375 46.6875 
Q 21.1875 47.46875 23.3125 47.828125 
Q 25.4375 48.1875 27.59375 48.1875 
Q 38.921875 48.1875 45.5625 41.5 
Q 52.203125 34.8125 52.203125 23.390625 
Q 52.203125 11.859375 45.234375 5.21875 
Q 38.28125 -1.421875 26.21875 -1.421875 
Q 20.40625 -1.421875 15.59375 -0.640625 
Q 10.796875 0.140625 6.984375 1.703125 
L 6.984375 11.71875 
Q 11.46875 9.28125 16.015625 8.078125 
Q 20.5625 6.890625 25.296875 6.890625 
Q 33.453125 6.890625 37.859375 11.1875 
Q 42.28125 15.484375 42.28125 23.390625 
Q 42.28125 31.203125 37.71875 35.546875 
Q 33.15625 39.890625 25 39.890625 
Q 21.046875 39.890625 17.28125 38.984375 
Q 13.53125 38.09375 10.109375 36.28125 
z
" id="DejaVuSansMono-53"/>
      </defs>
      <g style="fill:#657b83;" transform="translate(364.252819 474.909565)rotate(-32.46118)scale(0.09 -0.09)">
       <use xlink:href="#DejaVuSansMono-50"/>
       <use x="60.205078" xlink:href="#DejaVuSansMono-53"/>
       <use x="120.410156" xlink:href="#DejaVuSansMono-54"/>
       <use x="180.615234" xlink:href="#DejaVuSansMono-75"/>
      </g>
     </g>
    </g>
    <g id="xtick_8">
     <g id="line2d_15">
      <path clip-path="url(#p759e779f98)" d="M 418.921725 448.366549 
L 418.921725 10.7 
" style="fill:none;stroke:#eee8d5;stroke-width:0.8;"/>
     </g>
     <g id="line2d_16">
      <g>
       <use style="fill:#657b83;stroke:#657b83;stroke-width:0.8;" x="418.921725" xlink:href="#m00573a8c3e" y="448.366549"/>
      </g>
     </g>
     <g id="text_8">
      <!-- 512K -->
      <g style="fill:#657b83;" transform="translate(411.12408 474.909565)rotate(-32.46118)scale(0.09 -0.09)">
       <use xlink:href="#DejaVuSansMono-53"/>
       <use x="60.205078" xlink:href="#DejaVuSansMono-49"/>
       <use x="120.410156" xlink:href="#DejaVuSansMono-50"/>
       <use x="180.615234" xlink:href="#DejaVuSansMono-75"/>
      </g>
     </g>
    </g>
    <g id="xtick_9">
     <g id="line2d_17">
      <path clip-path="url(#p759e779f98)" d="M 465.792986 448.366549 
L 465.792986 10.7 
" style="fill:none;stroke:#eee8d5;stroke-width:0.8;"/>
     </g>
     <g id="line2d_18">
      <g>
       <use style="fill:#657b83;stroke:#657b83;stroke-width:0.8;" x="465.792986" xlink:href="#m00573a8c3e" y="448.366549"/>
      </g>
     </g>
     <g id="text_9">
      <!-- 1M -->
      <defs>
       <path d="M 4.203125 72.90625 
L 17.390625 72.90625 
L 29.984375 35.796875 
L 42.671875 72.90625 
L 55.90625 72.90625 
L 55.90625 0 
L 46.78125 0 
L 46.78125 64.40625 
L 33.796875 25.984375 
L 26.3125 25.984375 
L 13.28125 64.40625 
L 13.28125 0 
L 4.203125 0 
z
" id="DejaVuSansMono-77"/>
      </defs>
      <g style="fill:#657b83;" transform="translate(462.567044 469.093278)rotate(-32.46118)scale(0.09 -0.09)">
       <use xlink:href="#DejaVuSansMono-49"/>
       <use x="60.205078" xlink:href="#DejaVuSansMono-77"/>
      </g>
     </g>
    </g>
    <g id="xtick_10">
     <g id="line2d_19">
      <path clip-path="url(#p759e779f98)" d="M 512.664246 448.366549 
L 512.664246 10.7 
" style="fill:none;stroke:#eee8d5;stroke-width:0.8;"/>
     </g>
     <g id="line2d_20">
      <g>
       <use style="fill:#657b83;stroke:#657b83;stroke-width:0.8;" x="512.664246" xlink:href="#m00573a8c3e" y="448.366549"/>
      </g>
     </g>
     <g id="text_10">
      <!-- 2M -->
      <g style="fill:#657b83;" transform="translate(509.438305 469.093278)rotate(-32.46118)scale(0.09 -0.09)">
       <use xlink:href="#DejaVuSansMono-50"/>
       <use x="60.205078" xlink:href="#DejaVuSansMono-77"/>
      </g>
     </g>
    </g>
    <g id="xtick_11">
     <g id="line2d_21">
      <path clip-path="url(#p759e779f98)" d="M 559.535507 448.366549 
L 559.535507 10.7 
" style="fill:none;stroke:#eee8d5;stroke-width:0.8;"/>
     </g>
     <g id="line2d_22">
      <g>
       <use style="fill:#657b83;stroke:#657b83;stroke-width:0.8;" x="559.535507" xlink:href="#m00573a8c3e" y="448.366549"/>
      </g>
     </g>
     <g id="text_11">
      <!-- 4M -->
      <g style="fill:#657b83;" transform="translate(556.309566 469.093278)rotate(-32.46118)scale(0.09 -0.09)">
       <use xlink:href="#DejaVuSansMono-52"/>
       <use x="60.205078" xlink:href="#DejaVuSansMono-77"/>
      </g>
     </g>
    </g>
    <g id="xtick_12">
     <g id="line2d_23">
      <path clip-path="url(#p759e779f98)" d="M 606.406768 448.366549 
L 606.406768 10.7 
" style="fill:none;stroke:#eee8d5;stroke-width:0.8;"/>
     </g>
     <g id="line2d_24">
      <g>
       <use style="fill:#657b83;stroke:#657b83;stroke-width:0.8;" x="606.406768" xlink:href="#m00573a8c3e" y="448.366549"/>
      </g>
     </g>
     <g id="text_12">
      <!-- 8M -->
      <g style="fill:#657b83;" transform="translate(603.180826 469.093278)rotate(-32.46118)scale(0.09 -0.09)">
       <use xlink:href="#DejaVuSansMono-56"/>
       <use x="60.205078" xlink:href="#DejaVuSansMono-77"/>
      </g>
     </g>
    </g>
    <g id="xtick_13">
     <g id="line2d_25">
      <path clip-path="url(#p759e779f98)" d="M 653.278029 448.366549 
L 653.278029 10.7 
" style="fill:none;stroke:#eee8d5;stroke-width:0.8;"/>
     </g>
     <g id="line2d_26">
      <g>
       <use style="fill:#657b83;stroke:#657b83;stroke-width:0.8;" x="653.278029" xlink:href="#m00573a8c3e" y="448.366549"/>
      </g>
     </g>
     <g id="text_13">
      <!-- 16M -->
      <g style="fill:#657b83;" transform="translate(647.766236 472.001422)rotate(-32.46118)scale(0.09 -0.09)">
       <use xlink:href="#DejaVuSansMono-49"/>
       <use x="60.205078" xlink:href="#DejaVuSansMono-54"/>
       <use x="120.410156" xlink:href="#DejaVuSansMono-77"/>
      </g>
     </g>
    </g>
    <g id="xtick_14">
     <g id="line2d_27">
      <path clip-path="url(#p759e779f98)" d="M 700.14929 448.366549 
L 700.14929 10.7 
" style="fill:none;stroke:#eee8d5;stroke-width:0.8;"/>
     </g>
     <g id="line2d_28">
      <g>
       <use style="fill:#657b83;stroke:#657b83;stroke-width:0.8;" x="700.14929" xlink:href="#m00573a8c3e" y="448.366549"/>
      </g>
     </g>
     <g id="text_14">
      <!-- 32M -->
      <g style="fill:#657b83;" transform="translate(694.637496 472.001422)rotate(-32.46118)scale(0.09 -0.09)">
       <use xlink:href="#DejaVuSansMono-51"/>
       <use x="60.205078" xlink:href="#DejaVuSansMono-50"/>
       <use x="120.410156" xlink:href="#DejaVuSansMono-77"/>
      </g>
     </g>
    </g>
    <g id="xtick_15">
     <g id="line2d_29">
      <path clip-path="url(#p759e779f98)" d="M 747.020551 448.366549 
L 747.020551 10.7 
" style="fill:none;stroke:#eee8d5;stroke-width:0.8;"/>
     </g>
     <g id="line2d_30">
      <g>
       <use style="fill:#657b83;stroke:#657b83;stroke-width:0.8;" x="747.020551" xlink:href="#m00573a8c3e" y="448.366549"/>
      </g>
     </g>
     <g id="text_15">
      <!-- 64M -->
      <g style="fill:#657b83;" transform="translate(741.508757 472.001422)rotate(-32.46118)scale(0.09 -0.09)">
       <use xlink:href="#DejaVuSansMono-54"/>
       <use x="60.205078" xlink:href="#DejaVuSansMono-52"/>
       <use x="120.410156" xlink:href="#DejaVuSansMono-77"/>
      </g>
     </g>
    </g>
    <g id="text_16">
     <!-- Block size (bytes) -->
     <defs>
      <path d="M 18.015625 34.8125 
L 18.015625 8.109375 
L 29.6875 8.109375 
Q 38.28125 8.109375 41.9375 11.109375 
Q 45.609375 14.109375 45.609375 21 
Q 45.609375 28.125 41.75 31.46875 
Q 37.890625 34.8125 29.6875 34.8125 
z
M 18.015625 64.796875 
L 18.015625 42.828125 
L 29.5 42.828125 
Q 36.625 42.828125 39.8125 45.5625 
Q 43.015625 48.296875 43.015625 54.390625 
Q 43.015625 59.90625 39.859375 62.34375 
Q 36.71875 64.796875 29.5 64.796875 
z
M 8.109375 72.90625 
L 29.6875 72.90625 
Q 40.875 72.90625 46.921875 68.0625 
Q 52.984375 63.234375 52.984375 54.390625 
Q 52.984375 47.703125 49.78125 43.84375 
Q 46.578125 39.984375 40.1875 39.015625 
Q 47.359375 37.9375 51.4375 32.875 
Q 55.515625 27.828125 55.515625 20.015625 
Q 55.515625 10.109375 49.015625 5.046875 
Q 42.53125 0 29.6875 0 
L 8.109375 0 
z
" id="DejaVuSansMono-66"/>
      <path d="M 31.203125 19.828125 
Q 31.203125 13.765625 33.421875 10.6875 
Q 35.640625 7.625 39.984375 7.625 
L 50.484375 7.625 
L 50.484375 0 
L 39.109375 0 
Q 31.0625 0 26.640625 5.171875 
Q 22.21875 10.359375 22.21875 19.828125 
L 22.21875 69.484375 
L 7.8125 69.484375 
L 7.8125 76.515625 
L 31.203125 76.515625 
z
" id="DejaVuSansMono-108"/>
      <path d="M 30.078125 48.390625 
Q 23.25 48.390625 19.734375 43.0625 
Q 16.21875 37.75 16.21875 27.296875 
Q 16.21875 16.890625 19.734375 11.546875 
Q 23.25 6.203125 30.078125 6.203125 
Q 36.96875 6.203125 40.484375 11.546875 
Q 44 16.890625 44 27.296875 
Q 44 37.75 40.484375 43.0625 
Q 36.96875 48.390625 30.078125 48.390625 
z
M 30.078125 56 
Q 41.453125 56 47.484375 48.625 
Q 53.515625 41.265625 53.515625 27.296875 
Q 53.515625 13.28125 47.5 5.921875 
Q 41.5 -1.421875 30.078125 -1.421875 
Q 18.703125 -1.421875 12.6875 5.921875 
Q 6.6875 13.28125 6.6875 27.296875 
Q 6.6875 41.265625 12.6875 48.625 
Q 18.703125 56 30.078125 56 
z
" id="DejaVuSansMono-111"/>
      <path d="M 51.8125 2.78125 
Q 48.1875 0.6875 44.359375 -0.359375 
Q 40.53125 -1.421875 36.53125 -1.421875 
Q 23.828125 -1.421875 16.671875 6.1875 
Q 9.515625 13.8125 9.515625 27.296875 
Q 9.515625 40.765625 16.671875 48.375 
Q 23.828125 56 36.53125 56 
Q 40.484375 56 44.234375 54.96875 
Q 48 53.953125 51.8125 51.8125 
L 51.8125 42.390625 
Q 48.25 45.5625 44.65625 46.96875 
Q 41.0625 48.390625 36.53125 48.390625 
Q 28.078125 48.390625 23.53125 42.921875 
Q 19 37.453125 19 27.296875 
Q 19 17.1875 23.5625 11.6875 
Q 28.125 6.203125 36.53125 6.203125 
Q 41.21875 6.203125 44.921875 7.640625 
Q 48.640625 9.078125 51.8125 12.109375 
z
" id="DejaVuSansMono-99"/>
      <path d="M 11.53125 75.984375 
L 20.796875 75.984375 
L 20.796875 31.984375 
L 44.390625 54.6875 
L 55.328125 54.6875 
L 33.796875 34.078125 
L 58.6875 0 
L 47.703125 0 
L 27.484375 28.21875 
L 20.796875 21.921875 
L 20.796875 0 
L 11.53125 0 
z
" id="DejaVuSansMono-107"/>
      <path id="DejaVuSansMono-32"/>
      <path d="M 47.515625 52.78125 
L 47.515625 44 
Q 43.65625 46.234375 39.75 47.359375 
Q 35.84375 48.484375 31.78125 48.484375 
Q 25.6875 48.484375 22.671875 46.5 
Q 19.671875 44.53125 19.671875 40.484375 
Q 19.671875 36.8125 21.921875 35 
Q 24.171875 33.203125 33.109375 31.5 
L 36.71875 30.8125 
Q 43.40625 29.546875 46.84375 25.734375 
Q 50.296875 21.921875 50.296875 15.828125 
Q 50.296875 7.71875 44.53125 3.140625 
Q 38.765625 -1.421875 28.515625 -1.421875 
Q 24.46875 -1.421875 20.015625 -0.5625 
Q 15.578125 0.296875 10.40625 2 
L 10.40625 11.28125 
Q 15.4375 8.6875 20.015625 7.390625 
Q 24.609375 6.109375 28.71875 6.109375 
Q 34.671875 6.109375 37.9375 8.515625 
Q 41.21875 10.9375 41.21875 15.28125 
Q 41.21875 21.53125 29.25 23.921875 
L 28.859375 24.03125 
L 25.484375 24.703125 
Q 17.71875 26.21875 14.15625 29.8125 
Q 10.59375 33.40625 10.59375 39.59375 
Q 10.59375 47.46875 15.90625 51.734375 
Q 21.234375 56 31.109375 56 
Q 35.5 56 39.546875 55.1875 
Q 43.609375 54.390625 47.515625 52.78125 
z
" id="DejaVuSansMono-115"/>
      <path d="M 12.5 54.6875 
L 35.5 54.6875 
L 35.5 6.984375 
L 53.328125 6.984375 
L 53.328125 0 
L 8.6875 0 
L 8.6875 6.984375 
L 26.515625 6.984375 
L 26.515625 47.703125 
L 12.5 47.703125 
z
M 26.515625 75.984375 
L 35.5 75.984375 
L 35.5 64.59375 
L 26.515625 64.59375 
z
" id="DejaVuSansMono-105"/>
      <path d="M 11.078125 54.78125 
L 50.78125 54.78125 
L 50.78125 46.578125 
L 19.390625 7.328125 
L 50.78125 7.328125 
L 50.78125 0 
L 9.90625 0 
L 9.90625 8.296875 
L 41.3125 47.609375 
L 11.078125 47.609375 
z
" id="DejaVuSansMono-122"/>
      <path d="M 54.296875 29.59375 
L 54.296875 25.203125 
L 15.375 25.203125 
L 15.375 24.90625 
Q 15.375 15.96875 20.03125 11.078125 
Q 24.703125 6.203125 33.203125 6.203125 
Q 37.5 6.203125 42.1875 7.5625 
Q 46.875 8.9375 52.203125 11.71875 
L 52.203125 2.78125 
Q 47.078125 0.6875 42.3125 -0.359375 
Q 37.546875 -1.421875 33.109375 -1.421875 
Q 20.359375 -1.421875 13.171875 6.21875 
Q 6 13.875 6 27.296875 
Q 6 40.375 13.03125 48.1875 
Q 20.0625 56 31.78125 56 
Q 42.234375 56 48.265625 48.921875 
Q 54.296875 41.84375 54.296875 29.59375 
z
M 45.3125 32.234375 
Q 45.125 40.140625 41.578125 44.265625 
Q 38.03125 48.390625 31.390625 48.390625 
Q 24.90625 48.390625 20.703125 44.09375 
Q 16.5 39.796875 15.71875 32.171875 
z
" id="DejaVuSansMono-101"/>
      <path d="M 43.21875 75.875 
Q 36.71875 64.75 33.515625 53.6875 
Q 30.328125 42.625 30.328125 31.390625 
Q 30.328125 20.21875 33.515625 9.125 
Q 36.71875 -1.953125 43.21875 -13.1875 
L 35.40625 -13.1875 
Q 28.03125 -1.5625 24.40625 9.4375 
Q 20.796875 20.453125 20.796875 31.390625 
Q 20.796875 42.28125 24.40625 53.3125 
Q 28.03125 64.359375 35.40625 75.875 
z
" id="DejaVuSansMono-40"/>
      <path d="M 44.828125 27.296875 
Q 44.828125 37.75 41.5 43.0625 
Q 38.1875 48.390625 31.6875 48.390625 
Q 25.140625 48.390625 21.765625 43.046875 
Q 18.40625 37.703125 18.40625 27.296875 
Q 18.40625 16.9375 21.765625 11.5625 
Q 25.140625 6.203125 31.6875 6.203125 
Q 38.1875 6.203125 41.5 11.515625 
Q 44.828125 16.84375 44.828125 27.296875 
z
M 18.40625 47.703125 
Q 20.5625 51.703125 24.34375 53.84375 
Q 28.125 56 33.109375 56 
Q 42.96875 56 48.625 48.40625 
Q 54.296875 40.828125 54.296875 27.484375 
Q 54.296875 13.96875 48.609375 6.265625 
Q 42.921875 -1.421875 33.015625 -1.421875 
Q 28.125 -1.421875 24.390625 0.703125 
Q 20.65625 2.828125 18.40625 6.890625 
L 18.40625 0 
L 9.421875 0 
L 9.421875 75.984375 
L 18.40625 75.984375 
z
" id="DejaVuSansMono-98"/>
      <path d="M 41.890625 17.578125 
Q 39.65625 11.859375 36.1875 2.546875 
Q 31.34375 -10.359375 29.6875 -13.1875 
Q 27.4375 -17 24.0625 -18.890625 
Q 20.703125 -20.796875 16.21875 -20.796875 
L 8.984375 -20.796875 
L 8.984375 -13.28125 
L 14.3125 -13.28125 
Q 18.265625 -13.28125 20.5 -10.984375 
Q 22.75 -8.6875 26.21875 0.875 
L 5.078125 54.6875 
L 14.59375 54.6875 
L 30.8125 11.921875 
L 46.78125 54.6875 
L 56.296875 54.6875 
z
" id="DejaVuSansMono-121"/>
      <path d="M 29.984375 70.21875 
L 29.984375 54.6875 
L 50.390625 54.6875 
L 50.390625 47.703125 
L 29.984375 47.703125 
L 29.984375 18.015625 
Q 29.984375 11.96875 32.28125 9.5625 
Q 34.578125 7.171875 40.28125 7.171875 
L 50.390625 7.171875 
L 50.390625 0 
L 39.40625 0 
Q 29.296875 0 25.140625 4.046875 
Q 21 8.109375 21 18.015625 
L 21 47.703125 
L 6.390625 47.703125 
L 6.390625 54.6875 
L 21 54.6875 
L 21 70.21875 
z
" id="DejaVuSansMono-116"/>
      <path d="M 17 75.875 
L 24.8125 75.875 
Q 32.171875 64.359375 35.78125 53.3125 
Q 39.40625 42.28125 39.40625 31.390625 
Q 39.40625 20.40625 35.78125 9.375 
Q 32.171875 -1.65625 24.8125 -13.1875 
L 17 -13.1875 
Q 23.484375 -1.859375 26.6875 9.21875 
Q 29.890625 20.3125 29.890625 31.390625 
Q 29.890625 42.53125 26.6875 53.609375 
Q 23.484375 64.703125 17 75.875 
z
" id="DejaVuSansMono-41"/>
     </defs>
     <g style="fill:#657b83;" transform="translate(371.334077 487.375244)scale(0.09 -0.09)">
      <use xlink:href="#DejaVuSansMono-66"/>
      <use x="60.205078" xlink:href="#DejaVuSansMono-108"/>
      <use x="120.410156" xlink:href="#DejaVuSansMono-111"/>
      <use x="180.615234" xlink:href="#DejaVuSansMono-99"/>
      <use x="240.820312" xlink:href="#DejaVuSansMono-107"/>
      <use x="301.025391" xlink:href="#DejaVuSansMono-32"/>
      <use x="361.230469" xlink:href="#DejaVuSansMono-115"/>
      <use x="421.435547" xlink:href="#DejaVuSansMono-105"/>
      <use x="481.640625" xlink:href="#DejaVuSansMono-122"/>
      <use x="541.845703" xlink:href="#DejaVuSansMono-101"/>
      <use x="602.050781" xlink:href="#DejaVuSansMono-32"/>
      <use x="662.255859" xlink:href="#DejaVuSansMono-40"/>
      <use x="722.460938" xlink:href="#DejaVuSansMono-98"/>
      <use x="782.666016" xlink:href="#DejaVuSansMono-121"/>
      <use x="842.871094" xlink:href="#DejaVuSansMono-116"/>
      <use x="903.076172" xlink:href="#DejaVuSansMono-101"/>
      <use x="963.28125" xlink:href="#DejaVuSansMono-115"/>
      <use x="1023.486328" xlink:href="#DejaVuSansMono-41"/>
     </g>
    </g>
   </g>
   <g id="matplotlib.axis_2">
    <g id="ytick_1">
     <g id="line2d_31">
      <path clip-path="url(#p759e779f98)" d="M 44.088125 360.873954 
L 796.109091 360.873954 
" style="fill:none;stroke:#eee8d5;stroke-width:0.8;"/>
     </g>
     <g id="line2d_32">
      <defs>
       <path d="M 0 0 
L -3.5 0 
" id="me789c06608" style="stroke:#657b83;stroke-width:0.8;"/>
      </defs>
      <g>
       <use style="fill:#657b83;stroke:#657b83;stroke-width:0.8;" x="44.088125" xlink:href="#me789c06608" y="360.873954"/>
      </g>
     </g>
     <g id="text_17">
      <!-- $\mathdefault{10^{0}}$ -->
      <defs>
       <path d="M 23.578125 36.625 
Q 23.578125 39.3125 25.453125 41.265625 
Q 27.34375 43.21875 29.984375 43.21875 
Q 32.71875 43.21875 34.671875 41.265625 
Q 36.625 39.3125 36.625 36.625 
Q 36.625 33.890625 34.6875 31.984375 
Q 32.765625 30.078125 29.984375 30.078125 
Q 27.25 30.078125 25.40625 31.9375 
Q 23.578125 33.796875 23.578125 36.625 
z
M 30.078125 66.40625 
Q 23.1875 66.40625 19.796875 58.984375 
Q 16.40625 51.5625 16.40625 36.375 
Q 16.40625 21.234375 19.796875 13.8125 
Q 23.1875 6.390625 30.078125 6.390625 
Q 37.015625 6.390625 40.40625 13.8125 
Q 43.796875 21.234375 43.796875 36.375 
Q 43.796875 51.5625 40.40625 58.984375 
Q 37.015625 66.40625 30.078125 66.40625 
z
M 30.078125 74.21875 
Q 41.75 74.21875 47.734375 64.640625 
Q 53.71875 55.078125 53.71875 36.375 
Q 53.71875 17.71875 47.734375 8.140625 
Q 41.75 -1.421875 30.078125 -1.421875 
Q 18.40625 -1.421875 12.453125 8.140625 
Q 6.5 17.71875 6.5 36.375 
Q 6.5 55.078125 12.453125 64.640625 
Q 18.40625 74.21875 30.078125 74.21875 
z
" id="DejaVuSansMono-48"/>
      </defs>
      <g style="fill:#657b83;" transform="translate(19.958125 364.317157)scale(0.09 -0.09)">
       <use transform="translate(0 0.765625)" xlink:href="#DejaVuSansMono-49"/>
       <use transform="translate(60.205078 0.765625)" xlink:href="#DejaVuSansMono-48"/>
       <use transform="translate(121.367188 39.046875)scale(0.7)" xlink:href="#DejaVuSansMono-48"/>
      </g>
     </g>
    </g>
    <g id="ytick_2">
     <g id="line2d_33">
      <path clip-path="url(#p759e779f98)" d="M 44.088125 180.153859 
L 796.109091 180.153859 
" style="fill:none;stroke:#eee8d5;stroke-width:0.8;"/>
     </g>
     <g id="line2d_34">
      <g>
       <use style="fill:#657b83;stroke:#657b83;stroke-width:0.8;" x="44.088125" xlink:href="#me789c06608" y="180.153859"/>
      </g>
     </g>
     <g id="text_18">
      <!-- $\mathdefault{10^{1}}$ -->
      <g style="fill:#657b83;" transform="translate(19.958125 183.597062)scale(0.09 -0.09)">
       <use transform="translate(0 0.684375)" xlink:href="#DejaVuSansMono-49"/>
       <use transform="translate(60.205078 0.684375)" xlink:href="#DejaVuSansMono-48"/>
       <use transform="translate(121.367188 38.965625)scale(0.7)" xlink:href="#DejaVuSansMono-49"/>
      </g>
     </g>
    </g>
    <g id="ytick_3">
     <g id="line2d_35">
      <defs>
       <path d="M 0 0 
L -2 0 
" id="m28f5b9e78d" style="stroke:#657b83;stroke-width:0.4;"/>
      </defs>
      <g>
       <use style="fill:#657b83;stroke:#657b83;stroke-width:0.4;" x="44.088125" xlink:href="#m28f5b9e78d" y="432.78971"/>
      </g>
     </g>
    </g>
    <g id="ytick_4">
     <g id="line2d_36">
      <g>
       <use style="fill:#657b83;stroke:#657b83;stroke-width:0.4;" x="44.088125" xlink:href="#m28f5b9e78d" y="415.276124"/>
      </g>
     </g>
    </g>
    <g id="ytick_5">
     <g id="line2d_37">
      <g>
       <use style="fill:#657b83;stroke:#657b83;stroke-width:0.4;" x="44.088125" xlink:href="#m28f5b9e78d" y="400.966481"/>
      </g>
     </g>
    </g>
    <g id="ytick_6">
     <g id="line2d_38">
      <g>
       <use style="fill:#657b83;stroke:#657b83;stroke-width:0.4;" x="44.088125" xlink:href="#m28f5b9e78d" y="388.867851"/>
      </g>
     </g>
    </g>
    <g id="ytick_7">
     <g id="line2d_39">
      <g>
       <use style="fill:#657b83;stroke:#657b83;stroke-width:0.4;" x="44.088125" xlink:href="#m28f5b9e78d" y="378.387541"/>
      </g>
     </g>
    </g>
    <g id="ytick_8">
     <g id="line2d_40">
      <g>
       <use style="fill:#657b83;stroke:#657b83;stroke-width:0.4;" x="44.088125" xlink:href="#m28f5b9e78d" y="369.143252"/>
      </g>
     </g>
    </g>
    <g id="ytick_9">
     <g id="line2d_41">
      <g>
       <use style="fill:#657b83;stroke:#657b83;stroke-width:0.4;" x="44.088125" xlink:href="#m28f5b9e78d" y="306.471784"/>
      </g>
     </g>
    </g>
    <g id="ytick_10">
     <g id="line2d_42">
      <g>
       <use style="fill:#657b83;stroke:#657b83;stroke-width:0.4;" x="44.088125" xlink:href="#m28f5b9e78d" y="274.648555"/>
      </g>
     </g>
    </g>
    <g id="ytick_11">
     <g id="line2d_43">
      <g>
       <use style="fill:#657b83;stroke:#657b83;stroke-width:0.4;" x="44.088125" xlink:href="#m28f5b9e78d" y="252.069615"/>
      </g>
     </g>
    </g>
    <g id="ytick_12">
     <g id="line2d_44">
      <g>
       <use style="fill:#657b83;stroke:#657b83;stroke-width:0.4;" x="44.088125" xlink:href="#m28f5b9e78d" y="234.556028"/>
      </g>
     </g>
    </g>
    <g id="ytick_13">
     <g id="line2d_45">
      <g>
       <use style="fill:#657b83;stroke:#657b83;stroke-width:0.4;" x="44.088125" xlink:href="#m28f5b9e78d" y="220.246386"/>
      </g>
     </g>
    </g>
    <g id="ytick_14">
     <g id="line2d_46">
      <g>
       <use style="fill:#657b83;stroke:#657b83;stroke-width:0.4;" x="44.088125" xlink:href="#m28f5b9e78d" y="208.147756"/>
      </g>
     </g>
    </g>
    <g id="ytick_15">
     <g id="line2d_47">
      <g>
       <use style="fill:#657b83;stroke:#657b83;stroke-width:0.4;" x="44.088125" xlink:href="#m28f5b9e78d" y="197.667445"/>
      </g>
     </g>
    </g>
    <g id="ytick_16">
     <g id="line2d_48">
      <g>
       <use style="fill:#657b83;stroke:#657b83;stroke-width:0.4;" x="44.088125" xlink:href="#m28f5b9e78d" y="188.423157"/>
      </g>
     </g>
    </g>
    <g id="ytick_17">
     <g id="line2d_49">
      <g>
       <use style="fill:#657b83;stroke:#657b83;stroke-width:0.4;" x="44.088125" xlink:href="#m28f5b9e78d" y="125.751689"/>
      </g>
     </g>
    </g>
    <g id="ytick_18">
     <g id="line2d_50">
      <g>
       <use style="fill:#657b83;stroke:#657b83;stroke-width:0.4;" x="44.088125" xlink:href="#m28f5b9e78d" y="93.92846"/>
      </g>
     </g>
    </g>
    <g id="ytick_19">
     <g id="line2d_51">
      <g>
       <use style="fill:#657b83;stroke:#657b83;stroke-width:0.4;" x="44.088125" xlink:href="#m28f5b9e78d" y="71.34952"/>
      </g>
     </g>
    </g>
    <g id="ytick_20">
     <g id="line2d_52">
      <g>
       <use style="fill:#657b83;stroke:#657b83;stroke-width:0.4;" x="44.088125" xlink:href="#m28f5b9e78d" y="53.835933"/>
      </g>
     </g>
    </g>
    <g id="ytick_21">
     <g id="line2d_53">
      <g>
       <use style="fill:#657b83;stroke:#657b83;stroke-width:0.4;" x="44.088125" xlink:href="#m28f5b9e78d" y="39.52629"/>
      </g>
     </g>
    </g>
    <g id="ytick_22">
     <g id="line2d_54">
      <g>
       <use style="fill:#657b83;stroke:#657b83;stroke-width:0.4;" x="44.088125" xlink:href="#m28f5b9e78d" y="27.42766"/>
      </g>
     </g>
    </g>
    <g id="ytick_23">
     <g id="line2d_55">
      <g>
       <use style="fill:#657b83;stroke:#657b83;stroke-width:0.4;" x="44.088125" xlink:href="#m28f5b9e78d" y="16.94735"/>
      </g>
     </g>
    </g>
    <g id="text_19">
     <!-- Wall-clock overhead -->
     <defs>
      <path d="M 0 72.90625 
L 9.625 72.90625 
L 16.609375 13.71875 
L 24.90625 52.875 
L 35.203125 52.875 
L 43.609375 13.625 
L 50.59375 72.90625 
L 60.203125 72.90625 
L 49.3125 0 
L 39.984375 0 
L 30.078125 43.3125 
L 20.21875 0 
L 10.890625 0 
z
" id="DejaVuSansMono-87"/>
      <path d="M 34.28125 27.484375 
L 31.296875 27.484375 
Q 23.4375 27.484375 19.453125 24.71875 
Q 15.484375 21.96875 15.484375 16.5 
Q 15.484375 11.578125 18.453125 8.84375 
Q 21.4375 6.109375 26.703125 6.109375 
Q 34.125 6.109375 38.375 11.25 
Q 42.625 16.40625 42.671875 25.484375 
L 42.671875 27.484375 
z
M 51.703125 31.203125 
L 51.703125 0 
L 42.671875 0 
L 42.671875 8.109375 
Q 39.796875 3.21875 35.421875 0.890625 
Q 31.0625 -1.421875 24.8125 -1.421875 
Q 16.453125 -1.421875 11.46875 3.296875 
Q 6.5 8.015625 6.5 15.921875 
Q 6.5 25.046875 12.625 29.78125 
Q 18.75 34.515625 30.609375 34.515625 
L 42.671875 34.515625 
L 42.671875 35.9375 
Q 42.625 42.484375 39.34375 45.4375 
Q 36.078125 48.390625 28.90625 48.390625 
Q 24.3125 48.390625 19.625 47.0625 
Q 14.9375 45.75 10.5 43.21875 
L 10.5 52.203125 
Q 15.484375 54.109375 20.046875 55.046875 
Q 24.609375 56 28.90625 56 
Q 35.6875 56 40.5 54 
Q 45.3125 52 48.296875 48 
Q 50.140625 45.5625 50.921875 41.96875 
Q 51.703125 38.375 51.703125 31.203125 
z
" id="DejaVuSansMono-97"/>
      <path d="M 17.390625 31.390625 
L 42.828125 31.390625 
L 42.828125 23.390625 
L 17.390625 23.390625 
z
" id="DejaVuSansMono-45"/>
      <path d="M 4.890625 54.6875 
L 14.203125 54.6875 
L 30.078125 8.796875 
L 46 54.6875 
L 55.328125 54.6875 
L 35.890625 0 
L 24.3125 0 
z
" id="DejaVuSansMono-118"/>
      <path d="M 56.390625 43.40625 
Q 53.515625 45.65625 50.53125 46.671875 
Q 47.5625 47.703125 44 47.703125 
Q 35.59375 47.703125 31.140625 42.421875 
Q 26.703125 37.15625 26.703125 27.203125 
L 26.703125 0 
L 17.671875 0 
L 17.671875 54.6875 
L 26.703125 54.6875 
L 26.703125 44 
Q 28.953125 49.8125 33.609375 52.90625 
Q 38.28125 56 44.671875 56 
Q 48 56 50.875 55.171875 
Q 53.765625 54.34375 56.390625 52.59375 
z
" id="DejaVuSansMono-114"/>
      <path d="M 51.3125 33.890625 
L 51.3125 0 
L 42.28125 0 
L 42.28125 33.890625 
Q 42.28125 41.265625 39.6875 44.71875 
Q 37.109375 48.1875 31.59375 48.1875 
Q 25.296875 48.1875 21.890625 43.71875 
Q 18.5 39.265625 18.5 30.90625 
L 18.5 0 
L 9.515625 0 
L 9.515625 75.984375 
L 18.5 75.984375 
L 18.5 46.484375 
Q 20.90625 51.171875 25 53.578125 
Q 29.109375 56 34.71875 56 
Q 43.0625 56 47.1875 50.5 
Q 51.3125 45.015625 51.3125 33.890625 
z
" id="DejaVuSansMono-104"/>
      <path d="M 41.890625 47.703125 
L 41.890625 75.984375 
L 50.875 75.984375 
L 50.875 0 
L 41.890625 0 
L 41.890625 6.890625 
Q 39.65625 2.828125 35.90625 0.703125 
Q 32.171875 -1.421875 27.296875 -1.421875 
Q 17.390625 -1.421875 11.6875 6.265625 
Q 6 13.96875 6 27.484375 
Q 6 40.828125 11.71875 48.40625 
Q 17.4375 56 27.296875 56 
Q 32.234375 56 35.984375 53.875 
Q 39.75 51.765625 41.890625 47.703125 
z
M 15.484375 27.296875 
Q 15.484375 16.84375 18.796875 11.515625 
Q 22.125 6.203125 28.609375 6.203125 
Q 35.109375 6.203125 38.5 11.5625 
Q 41.890625 16.9375 41.890625 27.296875 
Q 41.890625 37.703125 38.5 43.046875 
Q 35.109375 48.390625 28.609375 48.390625 
Q 22.125 48.390625 18.796875 43.0625 
Q 15.484375 37.75 15.484375 27.296875 
z
" id="DejaVuSansMono-100"/>
     </defs>
     <g style="fill:#657b83;" transform="translate(14.086406 281.006946)rotate(-90)scale(0.09 -0.09)">
      <use xlink:href="#DejaVuSansMono-87"/>
      <use x="60.205078" xlink:href="#DejaVuSansMono-97"/>
      <use x="120.410156" xlink:href="#DejaVuSansMono-108"/>
      <use x="180.615234" xlink:href="#DejaVuSansMono-108"/>
      <use x="240.820312" xlink:href="#DejaVuSansMono-45"/>
      <use x="301.025391" xlink:href="#DejaVuSansMono-99"/>
      <use x="361.230469" xlink:href="#DejaVuSansMono-108"/>
      <use x="421.435547" xlink:href="#DejaVuSansMono-111"/>
      <use x="481.640625" xlink:href="#DejaVuSansMono-99"/>
      <use x="541.845703" xlink:href="#DejaVuSansMono-107"/>
      <use x="602.050781" xlink:href="#DejaVuSansMono-32"/>
      <use x="662.255859" xlink:href="#DejaVuSansMono-111"/>
      <use x="722.460938" xlink:href="#DejaVuSansMono-118"/>
      <use x="782.666016" xlink:href="#DejaVuSansMono-101"/>
      <use x="842.871094" xlink:href="#DejaVuSansMono-114"/>
      <use x="903.076172" xlink:href="#DejaVuSansMono-104"/>
      <use x="963.28125" xlink:href="#DejaVuSansMono-101"/>
      <use x="1023.486328" xlink:href="#DejaVuSansMono-97"/>
      <use x="1083.691406" xlink:href="#DejaVuSansMono-100"/>
     </g>
    </g>
   </g>
   <g id="PathCollection_1">
    <defs>
     <path d="M 0 6.123724 
C 1.624031 6.123724 3.181764 5.47849 4.330127 4.330127 
C 5.47849 3.181764 6.123724 1.624031 6.123724 0 
C 6.123724 -1.624031 5.47849 -3.181764 4.330127 -4.330127 
C 3.181764 -5.47849 1.624031 -6.123724 0 -6.123724 
C -1.624031 -6.123724 -3.181764 -5.47849 -4.330127 -4.330127 
C -5.47849 -3.181764 -6.123724 -1.624031 -6.123724 0 
C -6.123724 1.624031 -5.47849 3.181764 -4.330127 4.330127 
C -3.181764 5.47849 -1.624031 6.123724 0 6.123724 
z
" id="C0_0_90d39edae0"/>
    </defs>
    <g clip-path="url(#p759e779f98)">
     <use style="fill:#ff0000;fill-opacity:0.77;" x="90.07888" xlink:href="#C0_0_90d39edae0" y="77.895109"/>
    </g>
    <g clip-path="url(#p759e779f98)">
     <use style="fill:#ff0000;fill-opacity:0.77;" x="139.998658" xlink:href="#C0_0_90d39edae0" y="131.211844"/>
    </g>
    <g clip-path="url(#p759e779f98)">
     <use style="fill:#ff0000;fill-opacity:0.77;" x="182.996707" xlink:href="#C0_0_90d39edae0" y="163.463336"/>
    </g>
    <g clip-path="url(#p759e779f98)">
     <use style="fill:#ff0000;fill-opacity:0.77;" x="226.992653" xlink:href="#C0_0_90d39edae0" y="185.410826"/>
    </g>
    <g clip-path="url(#p759e779f98)">
     <use style="fill:#ff0000;fill-opacity:0.77;" x="285.669083" xlink:href="#C0_0_90d39edae0" y="205.569593"/>
    </g>
    <g clip-path="url(#p759e779f98)">
     <use style="fill:#ff0000;fill-opacity:0.77;" x="323.518239" xlink:href="#C0_0_90d39edae0" y="220.002413"/>
    </g>
    <g clip-path="url(#p759e779f98)">
     <use style="fill:#ff0000;fill-opacity:0.77;" x="364.740845" xlink:href="#C0_0_90d39edae0" y="231.660302"/>
    </g>
    <g clip-path="url(#p759e779f98)">
     <use style="fill:#ff0000;fill-opacity:0.77;" x="413.80453" xlink:href="#C0_0_90d39edae0" y="244.377855"/>
    </g>
    <g clip-path="url(#p759e779f98)">
     <use style="fill:#ff0000;fill-opacity:0.77;" x="460.290126" xlink:href="#C0_0_90d39edae0" y="258.470691"/>
    </g>
    <g clip-path="url(#p759e779f98)">
     <use style="fill:#ff0000;fill-opacity:0.77;" x="512.091789" xlink:href="#C0_0_90d39edae0" y="250.957539"/>
    </g>
    <g clip-path="url(#p759e779f98)">
     <use style="fill:#ff0000;fill-opacity:0.77;" x="562.402523" xlink:href="#C0_0_90d39edae0" y="245.535619"/>
    </g>
    <g clip-path="url(#p759e779f98)">
     <use style="fill:#ff0000;fill-opacity:0.77;" x="604.921918" xlink:href="#C0_0_90d39edae0" y="256.854318"/>
    </g>
    <g clip-path="url(#p759e779f98)">
     <use style="fill:#ff0000;fill-opacity:0.77;" x="654.726736" xlink:href="#C0_0_90d39edae0" y="264.956723"/>
    </g>
    <g clip-path="url(#p759e779f98)">
     <use style="fill:#ff0000;fill-opacity:0.77;" x="694.757154" xlink:href="#C0_0_90d39edae0" y="254.673783"/>
    </g>
    <g clip-path="url(#p759e779f98)">
     <use style="fill:#ff0000;fill-opacity:0.77;" x="740.78446" xlink:href="#C0_0_90d39edae0" y="239.165274"/>
    </g>
   </g>
   <g id="PathCollection_2">
    <defs>
     <path d="M 0 3.061862 
C 0.812015 3.061862 1.590882 2.739245 2.165064 2.165064 
C 2.739245 1.590882 3.061862 0.812015 3.061862 0 
C 3.061862 -0.812015 2.739245 -1.590882 2.165064 -2.165064 
C 1.590882 -2.739245 0.812015 -3.061862 0 -3.061862 
C -0.812015 -3.061862 -1.590882 -2.739245 -2.165064 -2.165064 
C -2.739245 -1.590882 -3.061862 -0.812015 -3.061862 0 
C -3.061862 0.812015 -2.739245 1.590882 -2.165064 2.165064 
C -1.590882 2.739245 -0.812015 3.061862 0 3.061862 
z
" id="C1_0_1246217dcc"/>
    </defs>
    <g clip-path="url(#p759e779f98)">
     <use style="fill:#ff0000;fill-opacity:0.77;" x="92.008533" xlink:href="#C1_0_1246217dcc" y="32.306282"/>
    </g>
    <g clip-path="url(#p759e779f98)">
     <use style="fill:#ff0000;fill-opacity:0.77;" x="143.78426" xlink:href="#C1_0_1246217dcc" y="101.456642"/>
    </g>
    <g clip-path="url(#p759e779f98)">
     <use style="fill:#ff0000;fill-opacity:0.77;" x="177.11239" xlink:href="#C1_0_1246217dcc" y="195.138231"/>
    </g>
    <g clip-path="url(#p759e779f98)">
     <use style="fill:#ff0000;fill-opacity:0.77;" x="233.037676" xlink:href="#C1_0_1246217dcc" y="368.053792"/>
    </g>
    <g clip-path="url(#p759e779f98)">
     <use style="fill:#ff0000;fill-opacity:0.77;" x="285.876765" xlink:href="#C1_0_1246217dcc" y="398.618602"/>
    </g>
    <g clip-path="url(#p759e779f98)">
     <use style="fill:#ff0000;fill-opacity:0.77;" x="320.43943" xlink:href="#C1_0_1246217dcc" y="413.212629"/>
    </g>
    <g clip-path="url(#p759e779f98)">
     <use style="fill:#ff0000;fill-opacity:0.77;" x="367.640463" xlink:href="#C1_0_1246217dcc" y="426.036792"/>
    </g>
    <g clip-path="url(#p759e779f98)">
     <use style="fill:#ff0000;fill-opacity:0.77;" x="413.961211" xlink:href="#C1_0_1246217dcc" y="426.308519"/>
    </g>
    <g clip-path="url(#p759e779f98)">
     <use style="fill:#ff0000;fill-opacity:0.77;" x="465.287217" xlink:href="#C1_0_1246217dcc" y="426.760268"/>
    </g>
    <g clip-path="url(#p759e779f98)">
     <use style="fill:#ff0000;fill-opacity:0.77;" x="506.738032" xlink:href="#C1_0_1246217dcc" y="412.925705"/>
    </g>
    <g clip-path="url(#p759e779f98)">
     <use style="fill:#ff0000;fill-opacity:0.77;" x="554.252983" xlink:href="#C1_0_1246217dcc" y="402.993828"/>
    </g>
    <g clip-path="url(#p759e779f98)">
     <use style="fill:#ff0000;fill-opacity:0.77;" x="611.367198" xlink:href="#C1_0_1246217dcc" y="387.610985"/>
    </g>
    <g clip-path="url(#p759e779f98)">
     <use style="fill:#ff0000;fill-opacity:0.77;" x="652.957048" xlink:href="#C1_0_1246217dcc" y="380.84055"/>
    </g>
    <g clip-path="url(#p759e779f98)">
     <use style="fill:#ff0000;fill-opacity:0.77;" x="703.289044" xlink:href="#C1_0_1246217dcc" y="356.575115"/>
    </g>
    <g clip-path="url(#p759e779f98)">
     <use style="fill:#ff0000;fill-opacity:0.77;" x="750.642008" xlink:href="#C1_0_1246217dcc" y="308.426679"/>
    </g>
   </g>
   <g id="PathCollection_3">
    <defs>
     <path d="M 0 6.123724 
C 1.624031 6.123724 3.181764 5.47849 4.330127 4.330127 
C 5.47849 3.181764 6.123724 1.624031 6.123724 0 
C 6.123724 -1.624031 5.47849 -3.181764 4.330127 -4.330127 
C 3.181764 -5.47849 1.624031 -6.123724 0 -6.123724 
C -1.624031 -6.123724 -3.181764 -5.47849 -4.330127 -4.330127 
C -5.47849 -3.181764 -6.123724 -1.624031 -6.123724 0 
C -6.123724 1.624031 -5.47849 3.181764 -4.330127 4.330127 
C -3.181764 5.47849 -1.624031 6.123724 0 6.123724 
z
" id="C2_0_75d9743fe7"/>
    </defs>
    <g clip-path="url(#p759e779f98)">
     <use style="fill:#839496;fill-opacity:0.77;" x="87.856374" xlink:href="#C2_0_75d9743fe7" y="299.794518"/>
    </g>
    <g clip-path="url(#p759e779f98)">
     <use style="fill:#839496;fill-opacity:0.77;" x="142.813623" xlink:href="#C2_0_75d9743fe7" y="300.957894"/>
    </g>
    <g clip-path="url(#p759e779f98)">
     <use style="fill:#839496;fill-opacity:0.77;" x="186.577193" xlink:href="#C2_0_75d9743fe7" y="299.639689"/>
    </g>
    <g clip-path="url(#p759e779f98)">
     <use style="fill:#839496;fill-opacity:0.77;" x="238.505163" xlink:href="#C2_0_75d9743fe7" y="300.832157"/>
    </g>
    <g clip-path="url(#p759e779f98)">
     <use style="fill:#839496;fill-opacity:0.77;" x="278.610885" xlink:href="#C2_0_75d9743fe7" y="301.826611"/>
    </g>
    <g clip-path="url(#p759e779f98)">
     <use style="fill:#839496;fill-opacity:0.77;" x="319.929568" xlink:href="#C2_0_75d9743fe7" y="300.994483"/>
    </g>
    <g clip-path="url(#p759e779f98)">
     <use style="fill:#839496;fill-opacity:0.77;" x="375.811109" xlink:href="#C2_0_75d9743fe7" y="247.728806"/>
    </g>
    <g clip-path="url(#p759e779f98)">
     <use style="fill:#839496;fill-opacity:0.77;" x="412.082229" xlink:href="#C2_0_75d9743fe7" y="269.04351"/>
    </g>
    <g clip-path="url(#p759e779f98)">
     <use style="fill:#839496;fill-opacity:0.77;" x="465.552338" xlink:href="#C2_0_75d9743fe7" y="213.885246"/>
    </g>
    <g clip-path="url(#p759e779f98)">
     <use style="fill:#839496;fill-opacity:0.77;" x="512.416348" xlink:href="#C2_0_75d9743fe7" y="225.175351"/>
    </g>
    <g clip-path="url(#p759e779f98)">
     <use style="fill:#839496;fill-opacity:0.77;" x="564.002046" xlink:href="#C2_0_75d9743fe7" y="255.323446"/>
    </g>
    <g clip-path="url(#p759e779f98)">
     <use style="fill:#839496;fill-opacity:0.77;" x="602.250602" xlink:href="#C2_0_75d9743fe7" y="245.196523"/>
    </g>
    <g clip-path="url(#p759e779f98)">
     <use style="fill:#839496;fill-opacity:0.77;" x="650.765614" xlink:href="#C2_0_75d9743fe7" y="229.023995"/>
    </g>
    <g clip-path="url(#p759e779f98)">
     <use style="fill:#839496;fill-opacity:0.77;" x="701.763869" xlink:href="#C2_0_75d9743fe7" y="209.380645"/>
    </g>
    <g clip-path="url(#p759e779f98)">
     <use style="fill:#839496;fill-opacity:0.77;" x="754.620487" xlink:href="#C2_0_75d9743fe7" y="176.446161"/>
    </g>
   </g>
   <g id="PathCollection_4">
    <defs>
     <path d="M 0 6.123724 
C 1.624031 6.123724 3.181764 5.47849 4.330127 4.330127 
C 5.47849 3.181764 6.123724 1.624031 6.123724 0 
C 6.123724 -1.624031 5.47849 -3.181764 4.330127 -4.330127 
C 3.181764 -5.47849 1.624031 -6.123724 0 -6.123724 
C -1.624031 -6.123724 -3.181764 -5.47849 -4.330127 -4.330127 
C -5.47849 -3.181764 -6.123724 -1.624031 -6.123724 0 
C -6.123724 1.624031 -5.47849 3.181764 -4.330127 4.330127 
C -3.181764 5.47849 -1.624031 6.123724 0 6.123724 
z
" id="C3_0_76a0d891d3"/>
    </defs>
    <g clip-path="url(#p759e779f98)">
     <use style="fill:#3636b2;fill-opacity:0.77;" x="91.029231" xlink:href="#C3_0_76a0d891d3" y="346.084403"/>
    </g>
    <g clip-path="url(#p759e779f98)">
     <use style="fill:#3636b2;fill-opacity:0.77;" x="140.906362" xlink:href="#C3_0_76a0d891d3" y="332.239228"/>
    </g>
    <g clip-path="url(#p759e779f98)">
     <use style="fill:#3636b2;fill-opacity:0.77;" x="185.972701" xlink:href="#C3_0_76a0d891d3" y="340.848026"/>
    </g>
    <g clip-path="url(#p759e779f98)">
     <use style="fill:#3636b2;fill-opacity:0.77;" x="239.155488" xlink:href="#C3_0_76a0d891d3" y="344.801327"/>
    </g>
    <g clip-path="url(#p759e779f98)">
     <use style="fill:#3636b2;fill-opacity:0.77;" x="282.632844" xlink:href="#C3_0_76a0d891d3" y="349.061533"/>
    </g>
    <g clip-path="url(#p759e779f98)">
     <use style="fill:#3636b2;fill-opacity:0.77;" x="331.419636" xlink:href="#C3_0_76a0d891d3" y="345.796305"/>
    </g>
    <g clip-path="url(#p759e779f98)">
     <use style="fill:#3636b2;fill-opacity:0.77;" x="373.231076" xlink:href="#C3_0_76a0d891d3" y="339.411529"/>
    </g>
    <g clip-path="url(#p759e779f98)">
     <use style="fill:#3636b2;fill-opacity:0.77;" x="422.304831" xlink:href="#C3_0_76a0d891d3" y="277.751732"/>
    </g>
    <g clip-path="url(#p759e779f98)">
     <use style="fill:#3636b2;fill-opacity:0.77;" x="458.438686" xlink:href="#C3_0_76a0d891d3" y="271.623133"/>
    </g>
    <g clip-path="url(#p759e779f98)">
     <use style="fill:#3636b2;fill-opacity:0.77;" x="515.97619" xlink:href="#C3_0_76a0d891d3" y="231.174718"/>
    </g>
    <g clip-path="url(#p759e779f98)">
     <use style="fill:#3636b2;fill-opacity:0.77;" x="557.452954" xlink:href="#C3_0_76a0d891d3" y="254.569942"/>
    </g>
    <g clip-path="url(#p759e779f98)">
     <use style="fill:#3636b2;fill-opacity:0.77;" x="614.117619" xlink:href="#C3_0_76a0d891d3" y="251.664173"/>
    </g>
    <g clip-path="url(#p759e779f98)">
     <use style="fill:#3636b2;fill-opacity:0.77;" x="647.616522" xlink:href="#C3_0_76a0d891d3" y="239.675985"/>
    </g>
    <g clip-path="url(#p759e779f98)">
     <use style="fill:#3636b2;fill-opacity:0.77;" x="699.091527" xlink:href="#C3_0_76a0d891d3" y="208.417087"/>
    </g>
    <g clip-path="url(#p759e779f98)">
     <use style="fill:#3636b2;fill-opacity:0.77;" x="754.640786" xlink:href="#C3_0_76a0d891d3" y="182.84556"/>
    </g>
   </g>
   <g id="PathCollection_5">
    <defs>
     <path d="M 0 3.061862 
C 0.812015 3.061862 1.590882 2.739245 2.165064 2.165064 
C 2.739245 1.590882 3.061862 0.812015 3.061862 0 
C 3.061862 -0.812015 2.739245 -1.590882 2.165064 -2.165064 
C 1.590882 -2.739245 0.812015 -3.061862 0 -3.061862 
C -0.812015 -3.061862 -1.590882 -2.739245 -2.165064 -2.165064 
C -2.739245 -1.590882 -3.061862 -0.812015 -3.061862 0 
C -3.061862 0.812015 -2.739245 1.590882 -2.165064 2.165064 
C -1.590882 2.739245 -0.812015 3.061862 0 3.061862 
z
" id="C4_0_ae2ab9a67c"/>
    </defs>
    <g clip-path="url(#p759e779f98)">
     <use style="fill:#839496;fill-opacity:0.77;" x="87.295492" xlink:href="#C4_0_ae2ab9a67c" y="293.483922"/>
    </g>
    <g clip-path="url(#p759e779f98)">
     <use style="fill:#839496;fill-opacity:0.77;" x="132.587606" xlink:href="#C4_0_ae2ab9a67c" y="307.965362"/>
    </g>
    <g clip-path="url(#p759e779f98)">
     <use style="fill:#839496;fill-opacity:0.77;" x="177.518578" xlink:href="#C4_0_ae2ab9a67c" y="367.113402"/>
    </g>
    <g clip-path="url(#p759e779f98)">
     <use style="fill:#839496;fill-opacity:0.77;" x="231.365936" xlink:href="#C4_0_ae2ab9a67c" y="374.328693"/>
    </g>
    <g clip-path="url(#p759e779f98)">
     <use style="fill:#839496;fill-opacity:0.77;" x="285.778918" xlink:href="#C4_0_ae2ab9a67c" y="376.539546"/>
    </g>
    <g clip-path="url(#p759e779f98)">
     <use style="fill:#839496;fill-opacity:0.77;" x="319.87757" xlink:href="#C4_0_ae2ab9a67c" y="368.925538"/>
    </g>
    <g clip-path="url(#p759e779f98)">
     <use style="fill:#839496;fill-opacity:0.77;" x="366.442404" xlink:href="#C4_0_ae2ab9a67c" y="365.853962"/>
    </g>
    <g clip-path="url(#p759e779f98)">
     <use style="fill:#839496;fill-opacity:0.77;" x="421.001966" xlink:href="#C4_0_ae2ab9a67c" y="357.248201"/>
    </g>
    <g clip-path="url(#p759e779f98)">
     <use style="fill:#839496;fill-opacity:0.77;" x="471.915448" xlink:href="#C4_0_ae2ab9a67c" y="368.937714"/>
    </g>
    <g clip-path="url(#p759e779f98)">
     <use style="fill:#839496;fill-opacity:0.77;" x="516.475126" xlink:href="#C4_0_ae2ab9a67c" y="358.514396"/>
    </g>
    <g clip-path="url(#p759e779f98)">
     <use style="fill:#839496;fill-opacity:0.77;" x="556.127946" xlink:href="#C4_0_ae2ab9a67c" y="357.40724"/>
    </g>
    <g clip-path="url(#p759e779f98)">
     <use style="fill:#839496;fill-opacity:0.77;" x="607.264215" xlink:href="#C4_0_ae2ab9a67c" y="352.134993"/>
    </g>
    <g clip-path="url(#p759e779f98)">
     <use style="fill:#839496;fill-opacity:0.77;" x="650.498404" xlink:href="#C4_0_ae2ab9a67c" y="349.530163"/>
    </g>
    <g clip-path="url(#p759e779f98)">
     <use style="fill:#839496;fill-opacity:0.77;" x="700.561694" xlink:href="#C4_0_ae2ab9a67c" y="340.446489"/>
    </g>
    <g clip-path="url(#p759e779f98)">
     <use style="fill:#839496;fill-opacity:0.77;" x="745.329724" xlink:href="#C4_0_ae2ab9a67c" y="320.376857"/>
    </g>
   </g>
   <g id="PathCollection_6">
    <defs>
     <path d="M 0 3.061862 
C 0.812015 3.061862 1.590882 2.739245 2.165064 2.165064 
C 2.739245 1.590882 3.061862 0.812015 3.061862 0 
C 3.061862 -0.812015 2.739245 -1.590882 2.165064 -2.165064 
C 1.590882 -2.739245 0.812015 -3.061862 0 -3.061862 
C -0.812015 -3.061862 -1.590882 -2.739245 -2.165064 -2.165064 
C -2.739245 -1.590882 -3.061862 -0.812015 -3.061862 0 
C -3.061862 0.812015 -2.739245 1.590882 -2.165064 2.165064 
C -1.590882 2.739245 -0.812015 3.061862 0 3.061862 
z
" id="C5_0_e232ce3a93"/>
    </defs>
    <g clip-path="url(#p759e779f98)">
     <use style="fill:#3636b2;fill-opacity:0.77;" x="88.94539" xlink:href="#C5_0_e232ce3a93" y="325.909091"/>
    </g>
    <g clip-path="url(#p759e779f98)">
     <use style="fill:#3636b2;fill-opacity:0.77;" x="135.846113" xlink:href="#C5_0_e232ce3a93" y="313.624106"/>
    </g>
    <g clip-path="url(#p759e779f98)">
     <use style="fill:#3636b2;fill-opacity:0.77;" x="179.800786" xlink:href="#C5_0_e232ce3a93" y="267.620234"/>
    </g>
    <g clip-path="url(#p759e779f98)">
     <use style="fill:#3636b2;fill-opacity:0.77;" x="227.970315" xlink:href="#C5_0_e232ce3a93" y="267.031191"/>
    </g>
    <g clip-path="url(#p759e779f98)">
     <use style="fill:#3636b2;fill-opacity:0.77;" x="278.049113" xlink:href="#C5_0_e232ce3a93" y="269.44842"/>
    </g>
    <g clip-path="url(#p759e779f98)">
     <use style="fill:#3636b2;fill-opacity:0.77;" x="330.74272" xlink:href="#C5_0_e232ce3a93" y="265.112726"/>
    </g>
    <g clip-path="url(#p759e779f98)">
     <use style="fill:#3636b2;fill-opacity:0.77;" x="367.905949" xlink:href="#C5_0_e232ce3a93" y="273.789926"/>
    </g>
    <g clip-path="url(#p759e779f98)">
     <use style="fill:#3636b2;fill-opacity:0.77;" x="419.189616" xlink:href="#C5_0_e232ce3a93" y="364.31207"/>
    </g>
    <g clip-path="url(#p759e779f98)">
     <use style="fill:#3636b2;fill-opacity:0.77;" x="472.291023" xlink:href="#C5_0_e232ce3a93" y="361.305239"/>
    </g>
    <g clip-path="url(#p759e779f98)">
     <use style="fill:#3636b2;fill-opacity:0.77;" x="506.696889" xlink:href="#C5_0_e232ce3a93" y="363.587264"/>
    </g>
    <g clip-path="url(#p759e779f98)">
     <use style="fill:#3636b2;fill-opacity:0.77;" x="556.995953" xlink:href="#C5_0_e232ce3a93" y="361.264212"/>
    </g>
    <g clip-path="url(#p759e779f98)">
     <use style="fill:#3636b2;fill-opacity:0.77;" x="605.239032" xlink:href="#C5_0_e232ce3a93" y="354.408903"/>
    </g>
    <g clip-path="url(#p759e779f98)">
     <use style="fill:#3636b2;fill-opacity:0.77;" x="649.500314" xlink:href="#C5_0_e232ce3a93" y="352.402267"/>
    </g>
    <g clip-path="url(#p759e779f98)">
     <use style="fill:#3636b2;fill-opacity:0.77;" x="699.941685" xlink:href="#C5_0_e232ce3a93" y="344.081553"/>
    </g>
    <g clip-path="url(#p759e779f98)">
     <use style="fill:#3636b2;fill-opacity:0.77;" x="747.833587" xlink:href="#C5_0_e232ce3a93" y="320.637772"/>
    </g>
   </g>
   <g id="patch_3">
    <path d="M 44.088125 448.366549 
L 44.088125 10.7 
" style="fill:none;stroke:#fdf6e3;stroke-linecap:square;stroke-linejoin:miter;"/>
   </g>
   <g id="patch_4">
    <path d="M 796.109091 448.366549 
L 796.109091 10.7 
" style="fill:none;stroke:#fdf6e3;stroke-linecap:square;stroke-linejoin:miter;"/>
   </g>
   <g id="patch_5">
    <path d="M 44.088125 448.366549 
L 796.109091 448.366549 
" style="fill:none;stroke:#fdf6e3;stroke-linecap:square;stroke-linejoin:miter;"/>
   </g>
   <g id="patch_6">
    <path d="M 44.088125 10.7 
L 796.109091 10.7 
" style="fill:none;stroke:#fdf6e3;stroke-linecap:square;stroke-linejoin:miter;"/>
   </g>
   <g id="legend_1">
    <g id="patch_7">
     <path d="M 693.413207 90.990788 
L 790.278091 90.990788 
Q 791.944091 90.990788 791.944091 89.324788 
L 791.944091 16.531 
Q 791.944091 14.865 790.278091 14.865 
L 693.413207 14.865 
Q 691.747207 14.865 691.747207 16.531 
L 691.747207 89.324788 
Q 691.747207 90.990788 693.413207 90.990788 
z
" style="fill:#fdf6e3;opacity:0.8;stroke:#cccccc;stroke-linejoin:miter;stroke-width:0.24;"/>
    </g>
    <g id="PathCollection_7">
     <path d="M 703.409207 28.507851 
C 705.033238 28.507851 706.590971 27.862617 707.739334 26.714254 
C 708.887697 25.56589 709.532931 24.008157 709.532931 22.384127 
C 709.532931 20.760096 708.887697 19.202363 707.739334 18.054 
C 706.590971 16.905636 705.033238 16.260402 703.409207 16.260402 
C 701.785176 16.260402 700.227443 16.905636 699.07908 18.054 
C 697.930717 19.202363 697.285483 20.760096 697.285483 22.384127 
C 697.285483 24.008157 697.930717 25.56589 699.07908 26.714254 
C 700.227443 27.862617 701.785176 28.507851 703.409207 28.507851 
z
" style="fill:#ff0000;fill-opacity:0.77;"/>
    </g>
    <g id="text_20">
     <!-- DIO-RS ATI - - - -->
     <defs>
      <path d="M 21.296875 8.109375 
Q 33.734375 8.109375 38.671875 14.234375 
Q 43.609375 20.359375 43.609375 36.375 
Q 43.609375 52.546875 38.703125 58.671875 
Q 33.796875 64.796875 21.296875 64.796875 
L 16.609375 64.796875 
L 16.609375 8.109375 
z
M 21.484375 72.90625 
Q 38.1875 72.90625 46.09375 64.015625 
Q 54 55.125 54 36.375 
Q 54 17.71875 46.09375 8.859375 
Q 38.1875 0 21.484375 0 
L 6.6875 0 
L 6.6875 72.90625 
z
" id="DejaVuSansMono-68"/>
      <path d="M 9.8125 72.90625 
L 50.296875 72.90625 
L 50.296875 64.59375 
L 35.015625 64.59375 
L 35.015625 8.296875 
L 50.296875 8.296875 
L 50.296875 0 
L 9.8125 0 
L 9.8125 8.296875 
L 25.09375 8.296875 
L 25.09375 64.59375 
L 9.8125 64.59375 
z
" id="DejaVuSansMono-73"/>
      <path d="M 44.1875 36.375 
Q 44.1875 52.4375 40.890625 59.328125 
Q 37.59375 66.21875 30.078125 66.21875 
Q 22.609375 66.21875 19.3125 59.328125 
Q 16.015625 52.4375 16.015625 36.375 
Q 16.015625 20.359375 19.3125 13.46875 
Q 22.609375 6.59375 30.078125 6.59375 
Q 37.59375 6.59375 40.890625 13.453125 
Q 44.1875 20.3125 44.1875 36.375 
z
M 54.5 36.375 
Q 54.5 17.328125 48.46875 7.953125 
Q 42.4375 -1.421875 30.078125 -1.421875 
Q 17.71875 -1.421875 11.71875 7.90625 
Q 5.71875 17.234375 5.71875 36.375 
Q 5.71875 55.46875 11.75 64.84375 
Q 17.78125 74.21875 30.078125 74.21875 
Q 42.4375 74.21875 48.46875 64.84375 
Q 54.5 55.46875 54.5 36.375 
z
" id="DejaVuSansMono-79"/>
      <path d="M 37.109375 34.421875 
Q 40.921875 33.453125 43.609375 30.734375 
Q 46.296875 28.03125 50.296875 19.921875 
L 60.203125 0 
L 49.609375 0 
L 40.921875 18.40625 
Q 37.15625 26.265625 34.15625 28.53125 
Q 31.15625 30.8125 26.3125 30.8125 
L 16.890625 30.8125 
L 16.890625 0 
L 6.984375 0 
L 6.984375 72.90625 
L 27.296875 72.90625 
Q 39.3125 72.90625 45.703125 67.484375 
Q 52.09375 62.0625 52.09375 51.8125 
Q 52.09375 44.578125 48.15625 40.015625 
Q 44.234375 35.453125 37.109375 34.421875 
z
M 16.890625 64.796875 
L 16.890625 38.921875 
L 27.6875 38.921875 
Q 34.765625 38.921875 38.234375 42.09375 
Q 41.703125 45.265625 41.703125 51.8125 
Q 41.703125 58.109375 38.015625 61.453125 
Q 34.328125 64.796875 27.296875 64.796875 
z
" id="DejaVuSansMono-82"/>
      <path d="M 49.421875 70.40625 
L 49.421875 60.40625 
Q 44.921875 63.28125 40.40625 64.75 
Q 35.890625 66.21875 31.296875 66.21875 
Q 24.3125 66.21875 20.265625 62.96875 
Q 16.21875 59.71875 16.21875 54.203125 
Q 16.21875 49.359375 18.875 46.8125 
Q 21.53125 44.28125 28.8125 42.578125 
L 33.984375 41.40625 
Q 44.234375 39.015625 48.921875 33.890625 
Q 53.609375 28.765625 53.609375 19.921875 
Q 53.609375 9.515625 47.15625 4.046875 
Q 40.71875 -1.421875 28.421875 -1.421875 
Q 23.296875 -1.421875 18.109375 -0.3125 
Q 12.9375 0.78125 7.71875 2.984375 
L 7.71875 13.484375 
Q 13.328125 9.90625 18.328125 8.25 
Q 23.34375 6.59375 28.421875 6.59375 
Q 35.890625 6.59375 40.03125 9.9375 
Q 44.1875 13.28125 44.1875 19.28125 
Q 44.1875 24.75 41.328125 27.625 
Q 38.484375 30.515625 31.390625 32.078125 
L 26.125 33.296875 
Q 15.96875 35.59375 11.375 40.234375 
Q 6.78125 44.875 6.78125 52.6875 
Q 6.78125 62.453125 13.34375 68.328125 
Q 19.921875 74.21875 30.8125 74.21875 
Q 35.015625 74.21875 39.640625 73.265625 
Q 44.28125 72.3125 49.421875 70.40625 
z
" id="DejaVuSansMono-83"/>
      <path d="M 30.078125 64.203125 
L 19.671875 26.90625 
L 40.484375 26.90625 
z
M 24.125 72.90625 
L 36.078125 72.90625 
L 58.40625 0 
L 48.1875 0 
L 42.828125 19 
L 17.28125 19 
L 12.015625 0 
L 1.8125 0 
z
" id="DejaVuSansMono-65"/>
      <path d="M 2.296875 72.90625 
L 57.90625 72.90625 
L 57.90625 64.59375 
L 35.109375 64.59375 
L 35.109375 0 
L 25.203125 0 
L 25.203125 64.59375 
L 2.296875 64.59375 
z
" id="DejaVuSansMono-84"/>
     </defs>
     <g transform="translate(718.403207 24.570752)scale(0.0833 -0.0833)">
      <use xlink:href="#DejaVuSansMono-68"/>
      <use x="60.205078" xlink:href="#DejaVuSansMono-73"/>
      <use x="120.410156" xlink:href="#DejaVuSansMono-79"/>
      <use x="180.615234" xlink:href="#DejaVuSansMono-45"/>
      <use x="240.820312" xlink:href="#DejaVuSansMono-82"/>
      <use x="301.025391" xlink:href="#DejaVuSansMono-83"/>
      <use x="361.230469" xlink:href="#DejaVuSansMono-32"/>
      <use x="421.435547" xlink:href="#DejaVuSansMono-65"/>
      <use x="481.640625" xlink:href="#DejaVuSansMono-84"/>
      <use x="541.845703" xlink:href="#DejaVuSansMono-73"/>
      <use x="602.050781" xlink:href="#DejaVuSansMono-32"/>
      <use x="662.255859" xlink:href="#DejaVuSansMono-45"/>
      <use x="722.460938" xlink:href="#DejaVuSansMono-45"/>
      <use x="782.666016" xlink:href="#DejaVuSansMono-45"/>
     </g>
    </g>
    <g id="PathCollection_8">
     <path d="M 703.409207 37.71712 
C 704.221222 37.71712 705.000089 37.394503 705.57427 36.820321 
C 706.148452 36.24614 706.471069 35.467273 706.471069 34.655258 
C 706.471069 33.843242 706.148452 33.064376 705.57427 32.490194 
C 705.000089 31.916013 704.221222 31.593396 703.409207 31.593396 
C 702.597192 31.593396 701.818325 31.916013 701.244143 32.490194 
C 700.669962 33.064376 700.347345 33.843242 700.347345 34.655258 
C 700.347345 35.467273 700.669962 36.24614 701.244143 36.820321 
C 701.818325 37.394503 702.597192 37.71712 703.409207 37.71712 
z
" style="fill:#ff0000;fill-opacity:0.77;"/>
    </g>
    <g id="text_21">
     <!-- DIO-RS RRI - - - -->
     <g transform="translate(718.403207 36.841883)scale(0.0833 -0.0833)">
      <use xlink:href="#DejaVuSansMono-68"/>
      <use x="60.205078" xlink:href="#DejaVuSansMono-73"/>
      <use x="120.410156" xlink:href="#DejaVuSansMono-79"/>
      <use x="180.615234" xlink:href="#DejaVuSansMono-45"/>
      <use x="240.820312" xlink:href="#DejaVuSansMono-82"/>
      <use x="301.025391" xlink:href="#DejaVuSansMono-83"/>
      <use x="361.230469" xlink:href="#DejaVuSansMono-32"/>
      <use x="421.435547" xlink:href="#DejaVuSansMono-82"/>
      <use x="481.640625" xlink:href="#DejaVuSansMono-82"/>
      <use x="541.845703" xlink:href="#DejaVuSansMono-73"/>
      <use x="602.050781" xlink:href="#DejaVuSansMono-32"/>
      <use x="662.255859" xlink:href="#DejaVuSansMono-45"/>
      <use x="722.460938" xlink:href="#DejaVuSansMono-45"/>
      <use x="782.666016" xlink:href="#DejaVuSansMono-45"/>
     </g>
    </g>
    <g id="PathCollection_9">
     <path d="M 703.409207 53.050113 
C 705.033238 53.050113 706.590971 52.404879 707.739334 51.256516 
C 708.887697 50.108153 709.532931 48.55042 709.532931 46.926389 
C 709.532931 45.302358 708.887697 43.744625 707.739334 42.596262 
C 706.590971 41.447899 705.033238 40.802665 703.409207 40.802665 
C 701.785176 40.802665 700.227443 41.447899 699.07908 42.596262 
C 697.930717 43.744625 697.285483 45.302358 697.285483 46.926389 
C 697.285483 48.55042 697.930717 50.108153 699.07908 51.256516 
C 700.227443 52.404879 701.785176 53.050113 703.409207 53.050113 
z
" style="fill:#839496;fill-opacity:0.77;"/>
    </g>
    <g id="text_22">
     <!-- RS     ATI - - - -->
     <g transform="translate(718.403207 49.113014)scale(0.0833 -0.0833)">
      <use xlink:href="#DejaVuSansMono-82"/>
      <use x="60.205078" xlink:href="#DejaVuSansMono-83"/>
      <use x="120.410156" xlink:href="#DejaVuSansMono-32"/>
      <use x="180.615234" xlink:href="#DejaVuSansMono-32"/>
      <use x="240.820312" xlink:href="#DejaVuSansMono-32"/>
      <use x="301.025391" xlink:href="#DejaVuSansMono-32"/>
      <use x="361.230469" xlink:href="#DejaVuSansMono-32"/>
      <use x="421.435547" xlink:href="#DejaVuSansMono-65"/>
      <use x="481.640625" xlink:href="#DejaVuSansMono-84"/>
      <use x="541.845703" xlink:href="#DejaVuSansMono-73"/>
      <use x="602.050781" xlink:href="#DejaVuSansMono-32"/>
      <use x="662.255859" xlink:href="#DejaVuSansMono-45"/>
      <use x="722.460938" xlink:href="#DejaVuSansMono-45"/>
      <use x="782.666016" xlink:href="#DejaVuSansMono-45"/>
     </g>
    </g>
    <g id="PathCollection_10">
     <path d="M 703.409207 65.321245 
C 705.033238 65.321245 706.590971 64.67601 707.739334 63.527647 
C 708.887697 62.379284 709.532931 60.821551 709.532931 59.19752 
C 709.532931 57.57349 708.887697 56.015756 707.739334 54.867393 
C 706.590971 53.71903 705.033238 53.073796 703.409207 53.073796 
C 701.785176 53.073796 700.227443 53.71903 699.07908 54.867393 
C 697.930717 56.015756 697.285483 57.57349 697.285483 59.19752 
C 697.285483 60.821551 697.930717 62.379284 699.07908 63.527647 
C 700.227443 64.67601 701.785176 65.321245 703.409207 65.321245 
z
" style="fill:#3636b2;fill-opacity:0.77;"/>
    </g>
    <g id="text_23">
     <!-- RS     ATI S- - -->
     <g transform="translate(718.403207 61.384145)scale(0.0833 -0.0833)">
      <use xlink:href="#DejaVuSansMono-82"/>
      <use x="60.205078" xlink:href="#DejaVuSansMono-83"/>
      <use x="120.410156" xlink:href="#DejaVuSansMono-32"/>
      <use x="180.615234" xlink:href="#DejaVuSansMono-32"/>
      <use x="240.820312" xlink:href="#DejaVuSansMono-32"/>
      <use x="301.025391" xlink:href="#DejaVuSansMono-32"/>
      <use x="361.230469" xlink:href="#DejaVuSansMono-32"/>
      <use x="421.435547" xlink:href="#DejaVuSansMono-65"/>
      <use x="481.640625" xlink:href="#DejaVuSansMono-84"/>
      <use x="541.845703" xlink:href="#DejaVuSansMono-73"/>
      <use x="602.050781" xlink:href="#DejaVuSansMono-32"/>
      <use x="662.255859" xlink:href="#DejaVuSansMono-83"/>
      <use x="722.460938" xlink:href="#DejaVuSansMono-45"/>
      <use x="782.666016" xlink:href="#DejaVuSansMono-45"/>
     </g>
    </g>
    <g id="PathCollection_11">
     <path d="M 703.409207 74.530514 
C 704.221222 74.530514 705.000089 74.207897 705.57427 73.633715 
C 706.148452 73.059534 706.471069 72.280667 706.471069 71.468652 
C 706.471069 70.656636 706.148452 69.87777 705.57427 69.303588 
C 705.000089 68.729406 704.221222 68.406789 703.409207 68.406789 
C 702.597192 68.406789 701.818325 68.729406 701.244143 69.303588 
C 700.669962 69.87777 700.347345 70.656636 700.347345 71.468652 
C 700.347345 72.280667 700.669962 73.059534 701.244143 73.633715 
C 701.818325 74.207897 702.597192 74.530514 703.409207 74.530514 
z
" style="fill:#839496;fill-opacity:0.77;"/>
    </g>
    <g id="text_24">
     <!-- RS     RRI - - - -->
     <g transform="translate(718.403207 73.655277)scale(0.0833 -0.0833)">
      <use xlink:href="#DejaVuSansMono-82"/>
      <use x="60.205078" xlink:href="#DejaVuSansMono-83"/>
      <use x="120.410156" xlink:href="#DejaVuSansMono-32"/>
      <use x="180.615234" xlink:href="#DejaVuSansMono-32"/>
      <use x="240.820312" xlink:href="#DejaVuSansMono-32"/>
      <use x="301.025391" xlink:href="#DejaVuSansMono-32"/>
      <use x="361.230469" xlink:href="#DejaVuSansMono-32"/>
      <use x="421.435547" xlink:href="#DejaVuSansMono-82"/>
      <use x="481.640625" xlink:href="#DejaVuSansMono-82"/>
      <use x="541.845703" xlink:href="#DejaVuSansMono-73"/>
      <use x="602.050781" xlink:href="#DejaVuSansMono-32"/>
      <use x="662.255859" xlink:href="#DejaVuSansMono-45"/>
      <use x="722.460938" xlink:href="#DejaVuSansMono-45"/>
      <use x="782.666016" xlink:href="#DejaVuSansMono-45"/>
     </g>
    </g>
    <g id="PathCollection_12">
     <path d="M 703.409207 86.801645 
C 704.221222 86.801645 705.000089 86.479028 705.57427 85.904846 
C 706.148452 85.330665 706.471069 84.551798 706.471069 83.739783 
C 706.471069 82.927767 706.148452 82.148901 705.57427 81.574719 
C 705.000089 81.000538 704.221222 80.677921 703.409207 80.677921 
C 702.597192 80.677921 701.818325 81.000538 701.244143 81.574719 
C 700.669962 82.148901 700.347345 82.927767 700.347345 83.739783 
C 700.347345 84.551798 700.669962 85.330665 701.244143 85.904846 
C 701.818325 86.479028 702.597192 86.801645 703.409207 86.801645 
z
" style="fill:#3636b2;fill-opacity:0.77;"/>
    </g>
    <g id="text_25">
     <!-- RS     RRI S- - -->
     <g transform="translate(718.403207 85.926408)scale(0.0833 -0.0833)">
      <use xlink:href="#DejaVuSansMono-82"/>
      <use x="60.205078" xlink:href="#DejaVuSansMono-83"/>
      <use x="120.410156" xlink:href="#DejaVuSansMono-32"/>
      <use x="180.615234" xlink:href="#DejaVuSansMono-32"/>
      <use x="240.820312" xlink:href="#DejaVuSansMono-32"/>
      <use x="301.025391" xlink:href="#DejaVuSansMono-32"/>
      <use x="361.230469" xlink:href="#DejaVuSansMono-32"/>
      <use x="421.435547" xlink:href="#DejaVuSansMono-82"/>
      <use x="481.640625" xlink:href="#DejaVuSansMono-82"/>
      <use x="541.845703" xlink:href="#DejaVuSansMono-73"/>
      <use x="602.050781" xlink:href="#DejaVuSansMono-32"/>
      <use x="662.255859" xlink:href="#DejaVuSansMono-83"/>
      <use x="722.460938" xlink:href="#DejaVuSansMono-45"/>
      <use x="782.666016" xlink:href="#DejaVuSansMono-45"/>
     </g>
    </g>
   </g>
  </g>
 </g>
 <defs>
  <clipPath id="p759e779f98">
   <rect height="437.666549" width="752.020966" x="44.088125" y="10.7"/>
  </clipPath>
 </defs>
</svg>
