<?xml version="1.0" encoding="utf-8" standalone="no"?>
<!DOCTYPE svg PUBLIC "-//W3C//DTD SVG 1.1//EN"
  "http://www.w3.org/Graphics/SVG/1.1/DTD/svg11.dtd">
<!-- Created with matplotlib (https://matplotlib.org/) -->
<svg height="496.446963pt" version="1.1" viewBox="0 0 806.809091 496.446963" width="806.809091pt" xmlns="http://www.w3.org/2000/svg" xmlns:xlink="http://www.w3.org/1999/xlink">
 <defs>
  <style type="text/css">
*{stroke-linecap:butt;stroke-linejoin:round;}
  </style>
 </defs>
 <g id="figure_1">
  <g id="patch_1">
   <path d="M 0 496.446963 
L 806.809091 496.446963 
L 806.809091 0 
L 0 0 
z
" style="fill:none;"/>
  </g>
  <g id="axes_1">
   <g id="patch_2">
    <path d="M 44.088125 448.366549 
L 796.109091 448.366549 
L 796.109091 10.7 
L 44.088125 10.7 
z
" style="fill:#fdf6e3;"/>
   </g>
   <g id="matplotlib.axis_1">
    <g id="xtick_1">
     <g id="line2d_1">
      <path clip-path="url(#pd87162e8b3)" d="M 92.901493 448.366549 
L 92.901493 10.7 
" style="fill:none;stroke:#eee8d5;stroke-width:0.8;"/>
     </g>
     <g id="line2d_2">
      <defs>
       <path d="M 0 0 
L 0 3.5 
" id="m8739be7d4d" style="stroke:#657b83;stroke-width:0.8;"/>
      </defs>
      <g>
       <use style="fill:#657b83;stroke:#657b83;stroke-width:0.8;" x="92.901493" xlink:href="#m8739be7d4d" y="448.366549"/>
      </g>
     </g>
     <g id="text_1">
      <!-- 4K -->
      <defs>
       <path d="M 35.890625 63.921875 
L 12.890625 25.390625 
L 35.890625 25.390625 
z
M 34.28125 72.90625 
L 45.703125 72.90625 
L 45.703125 25.390625 
L 55.421875 25.390625 
L 55.421875 17.390625 
L 45.703125 17.390625 
L 45.703125 0 
L 35.890625 0 
L 35.890625 17.390625 
L 4.984375 17.390625 
L 4.984375 26.703125 
z
" id="DejaVuSansMono-52"/>
       <path d="M 6.6875 72.90625 
L 16.609375 72.90625 
L 16.609375 40.484375 
L 47.40625 72.90625 
L 58.984375 72.90625 
L 30.609375 43.109375 
L 59.8125 0 
L 47.90625 0 
L 24.125 36.53125 
L 16.609375 28.515625 
L 16.609375 0 
L 6.6875 0 
z
" id="DejaVuSansMono-75"/>
      </defs>
      <g style="fill:#657b83;" transform="translate(89.675551 469.093278)rotate(-32.46118)scale(0.09 -0.09)">
       <use xlink:href="#DejaVuSansMono-52"/>
       <use x="60.205078" xlink:href="#DejaVuSansMono-75"/>
      </g>
     </g>
    </g>
    <g id="xtick_2">
     <g id="line2d_3">
      <path clip-path="url(#pd87162e8b3)" d="M 139.316204 448.366549 
L 139.316204 10.7 
" style="fill:none;stroke:#eee8d5;stroke-width:0.8;"/>
     </g>
     <g id="line2d_4">
      <g>
       <use style="fill:#657b83;stroke:#657b83;stroke-width:0.8;" x="139.316204" xlink:href="#m8739be7d4d" y="448.366549"/>
      </g>
     </g>
     <g id="text_2">
      <!-- 8K -->
      <defs>
       <path d="M 30.078125 34.625 
Q 23.484375 34.625 19.890625 30.9375 
Q 16.3125 27.25 16.3125 20.515625 
Q 16.3125 13.765625 19.9375 10.03125 
Q 23.578125 6.296875 30.078125 6.296875 
Q 36.71875 6.296875 40.296875 9.984375 
Q 43.890625 13.671875 43.890625 20.515625 
Q 43.890625 27.203125 40.25 30.90625 
Q 36.625 34.625 30.078125 34.625 
z
M 21.484375 38.71875 
Q 15.1875 40.328125 11.640625 44.71875 
Q 8.109375 49.125 8.109375 55.328125 
Q 8.109375 64.015625 14.015625 69.109375 
Q 19.921875 74.21875 30.078125 74.21875 
Q 40.28125 74.21875 46.1875 69.109375 
Q 52.09375 64.015625 52.09375 55.328125 
Q 52.09375 49.125 48.546875 44.71875 
Q 45.015625 40.328125 38.71875 38.71875 
Q 46.046875 37.109375 49.921875 32.21875 
Q 53.8125 27.34375 53.8125 19.578125 
Q 53.8125 9.71875 47.515625 4.140625 
Q 41.21875 -1.421875 30.078125 -1.421875 
Q 18.953125 -1.421875 12.671875 4.125 
Q 6.390625 9.671875 6.390625 19.484375 
Q 6.390625 27.296875 10.265625 32.203125 
Q 14.15625 37.109375 21.484375 38.71875 
z
M 17.921875 54.390625 
Q 17.921875 48.53125 21.046875 45.453125 
Q 24.171875 42.390625 30.078125 42.390625 
Q 36.03125 42.390625 39.15625 45.453125 
Q 42.28125 48.53125 42.28125 54.390625 
Q 42.28125 60.359375 39.171875 63.484375 
Q 36.078125 66.609375 30.078125 66.609375 
Q 24.171875 66.609375 21.046875 63.453125 
Q 17.921875 60.296875 17.921875 54.390625 
z
" id="DejaVuSansMono-56"/>
      </defs>
      <g style="fill:#657b83;" transform="translate(136.090262 469.093278)rotate(-32.46118)scale(0.09 -0.09)">
       <use xlink:href="#DejaVuSansMono-56"/>
       <use x="60.205078" xlink:href="#DejaVuSansMono-75"/>
      </g>
     </g>
    </g>
    <g id="xtick_3">
     <g id="line2d_5">
      <path clip-path="url(#pd87162e8b3)" d="M 185.730914 448.366549 
L 185.730914 10.7 
" style="fill:none;stroke:#eee8d5;stroke-width:0.8;"/>
     </g>
     <g id="line2d_6">
      <g>
       <use style="fill:#657b83;stroke:#657b83;stroke-width:0.8;" x="185.730914" xlink:href="#m8739be7d4d" y="448.366549"/>
      </g>
     </g>
     <g id="text_3">
      <!-- 16K -->
      <defs>
       <path d="M 13.1875 8.296875 
L 28.515625 8.296875 
L 28.515625 64.015625 
L 12.015625 60.296875 
L 12.015625 69.28125 
L 28.421875 72.90625 
L 38.28125 72.90625 
L 38.28125 8.296875 
L 53.421875 8.296875 
L 53.421875 0 
L 13.1875 0 
z
" id="DejaVuSansMono-49"/>
       <path d="M 48.390625 71.296875 
L 48.390625 62.203125 
Q 45.3125 64.015625 41.84375 64.96875 
Q 38.375 65.921875 34.625 65.921875 
Q 25.25 65.921875 20.40625 58.859375 
Q 15.578125 51.8125 15.578125 38.09375 
Q 17.921875 42.96875 22.0625 45.578125 
Q 26.21875 48.1875 31.59375 48.1875 
Q 42.140625 48.1875 47.921875 41.71875 
Q 53.71875 35.25 53.71875 23.390625 
Q 53.71875 11.578125 47.75 5.078125 
Q 41.796875 -1.421875 31 -1.421875 
Q 18.3125 -1.421875 12.40625 7.6875 
Q 6.5 16.796875 6.5 36.375 
Q 6.5 54.828125 13.59375 64.515625 
Q 20.703125 74.21875 34.1875 74.21875 
Q 37.796875 74.21875 41.40625 73.453125 
Q 45.015625 72.703125 48.390625 71.296875 
z
M 30.8125 40.484375 
Q 24.515625 40.484375 20.890625 35.9375 
Q 17.28125 31.390625 17.28125 23.390625 
Q 17.28125 15.375 20.890625 10.828125 
Q 24.515625 6.296875 30.8125 6.296875 
Q 37.359375 6.296875 40.671875 10.609375 
Q 44 14.9375 44 23.390625 
Q 44 31.890625 40.671875 36.1875 
Q 37.359375 40.484375 30.8125 40.484375 
z
" id="DejaVuSansMono-54"/>
      </defs>
      <g style="fill:#657b83;" transform="translate(180.219121 472.001422)rotate(-32.46118)scale(0.09 -0.09)">
       <use xlink:href="#DejaVuSansMono-49"/>
       <use x="60.205078" xlink:href="#DejaVuSansMono-54"/>
       <use x="120.410156" xlink:href="#DejaVuSansMono-75"/>
      </g>
     </g>
    </g>
    <g id="xtick_4">
     <g id="line2d_7">
      <path clip-path="url(#pd87162e8b3)" d="M 232.145625 448.366549 
L 232.145625 10.7 
" style="fill:none;stroke:#eee8d5;stroke-width:0.8;"/>
     </g>
     <g id="line2d_8">
      <g>
       <use style="fill:#657b83;stroke:#657b83;stroke-width:0.8;" x="232.145625" xlink:href="#m8739be7d4d" y="448.366549"/>
      </g>
     </g>
     <g id="text_4">
      <!-- 32K -->
      <defs>
       <path d="M 37.890625 39.015625 
Q 45.0625 37.109375 48.875 32.25 
Q 52.6875 27.390625 52.6875 20.125 
Q 52.6875 10.0625 45.921875 4.3125 
Q 39.15625 -1.421875 27.203125 -1.421875 
Q 22.171875 -1.421875 16.9375 -0.484375 
Q 11.71875 0.4375 6.6875 2.203125 
L 6.6875 12.015625 
Q 11.671875 9.421875 16.5 8.15625 
Q 21.34375 6.890625 26.125 6.890625 
Q 34.234375 6.890625 38.578125 10.546875 
Q 42.921875 14.203125 42.921875 21.09375 
Q 42.921875 27.4375 38.578125 31.171875 
Q 34.234375 34.90625 26.8125 34.90625 
L 19.28125 34.90625 
L 19.28125 43.015625 
L 26.8125 43.015625 
Q 33.59375 43.015625 37.40625 45.984375 
Q 41.21875 48.96875 41.21875 54.296875 
Q 41.21875 59.90625 37.671875 62.90625 
Q 34.125 65.921875 27.59375 65.921875 
Q 23.25 65.921875 18.609375 64.9375 
Q 13.96875 63.96875 8.890625 62.015625 
L 8.890625 71.09375 
Q 14.796875 72.65625 19.40625 73.4375 
Q 24.03125 74.21875 27.59375 74.21875 
Q 38.234375 74.21875 44.609375 68.875 
Q 50.984375 63.53125 50.984375 54.6875 
Q 50.984375 48.6875 47.625 44.671875 
Q 44.28125 40.671875 37.890625 39.015625 
z
" id="DejaVuSansMono-51"/>
       <path d="M 18.21875 8.296875 
L 51.703125 8.296875 
L 51.703125 0 
L 7.421875 0 
L 7.421875 8.296875 
Q 16.546875 17.921875 23.375 25.296875 
Q 30.21875 32.671875 32.8125 35.6875 
Q 37.703125 41.65625 39.40625 45.34375 
Q 41.109375 49.03125 41.109375 52.875 
Q 41.109375 58.984375 37.515625 62.453125 
Q 33.9375 65.921875 27.6875 65.921875 
Q 23.25 65.921875 18.359375 64.3125 
Q 13.484375 62.703125 8.015625 59.421875 
L 8.015625 69.390625 
Q 13.03125 71.78125 17.890625 73 
Q 22.75 74.21875 27.484375 74.21875 
Q 38.1875 74.21875 44.703125 68.53125 
Q 51.21875 62.84375 51.21875 53.609375 
Q 51.21875 48.921875 49.046875 44.234375 
Q 46.875 39.546875 42 33.890625 
Q 39.265625 30.71875 34.0625 25.09375 
Q 28.859375 19.484375 18.21875 8.296875 
z
" id="DejaVuSansMono-50"/>
      </defs>
      <g style="fill:#657b83;" transform="translate(226.633832 472.001422)rotate(-32.46118)scale(0.09 -0.09)">
       <use xlink:href="#DejaVuSansMono-51"/>
       <use x="60.205078" xlink:href="#DejaVuSansMono-50"/>
       <use x="120.410156" xlink:href="#DejaVuSansMono-75"/>
      </g>
     </g>
    </g>
    <g id="xtick_5">
     <g id="line2d_9">
      <path clip-path="url(#pd87162e8b3)" d="M 278.560336 448.366549 
L 278.560336 10.7 
" style="fill:none;stroke:#eee8d5;stroke-width:0.8;"/>
     </g>
     <g id="line2d_10">
      <g>
       <use style="fill:#657b83;stroke:#657b83;stroke-width:0.8;" x="278.560336" xlink:href="#m8739be7d4d" y="448.366549"/>
      </g>
     </g>
     <g id="text_5">
      <!-- 64K -->
      <g style="fill:#657b83;" transform="translate(273.048542 472.001422)rotate(-32.46118)scale(0.09 -0.09)">
       <use xlink:href="#DejaVuSansMono-54"/>
       <use x="60.205078" xlink:href="#DejaVuSansMono-52"/>
       <use x="120.410156" xlink:href="#DejaVuSansMono-75"/>
      </g>
     </g>
    </g>
    <g id="xtick_6">
     <g id="line2d_11">
      <path clip-path="url(#pd87162e8b3)" d="M 324.975047 448.366549 
L 324.975047 10.7 
" style="fill:none;stroke:#eee8d5;stroke-width:0.8;"/>
     </g>
     <g id="line2d_12">
      <g>
       <use style="fill:#657b83;stroke:#657b83;stroke-width:0.8;" x="324.975047" xlink:href="#m8739be7d4d" y="448.366549"/>
      </g>
     </g>
     <g id="text_6">
      <!-- 128K -->
      <g style="fill:#657b83;" transform="translate(317.177401 474.909565)rotate(-32.46118)scale(0.09 -0.09)">
       <use xlink:href="#DejaVuSansMono-49"/>
       <use x="60.205078" xlink:href="#DejaVuSansMono-50"/>
       <use x="120.410156" xlink:href="#DejaVuSansMono-56"/>
       <use x="180.615234" xlink:href="#DejaVuSansMono-75"/>
      </g>
     </g>
    </g>
    <g id="xtick_7">
     <g id="line2d_13">
      <path clip-path="url(#pd87162e8b3)" d="M 371.389757 448.366549 
L 371.389757 10.7 
" style="fill:none;stroke:#eee8d5;stroke-width:0.8;"/>
     </g>
     <g id="line2d_14">
      <g>
       <use style="fill:#657b83;stroke:#657b83;stroke-width:0.8;" x="371.389757" xlink:href="#m8739be7d4d" y="448.366549"/>
      </g>
     </g>
     <g id="text_7">
      <!-- 256K -->
      <defs>
       <path d="M 10.109375 72.90625 
L 47.015625 72.90625 
L 47.015625 64.59375 
L 19.09375 64.59375 
L 19.09375 46.6875 
Q 21.1875 47.46875 23.3125 47.828125 
Q 25.4375 48.1875 27.59375 48.1875 
Q 38.921875 48.1875 45.5625 41.5 
Q 52.203125 34.8125 52.203125 23.390625 
Q 52.203125 11.859375 45.234375 5.21875 
Q 38.28125 -1.421875 26.21875 -1.421875 
Q 20.40625 -1.421875 15.59375 -0.640625 
Q 10.796875 0.140625 6.984375 1.703125 
L 6.984375 11.71875 
Q 11.46875 9.28125 16.015625 8.078125 
Q 20.5625 6.890625 25.296875 6.890625 
Q 33.453125 6.890625 37.859375 11.1875 
Q 42.28125 15.484375 42.28125 23.390625 
Q 42.28125 31.203125 37.71875 35.546875 
Q 33.15625 39.890625 25 39.890625 
Q 21.046875 39.890625 17.28125 38.984375 
Q 13.53125 38.09375 10.109375 36.28125 
z
" id="DejaVuSansMono-53"/>
      </defs>
      <g style="fill:#657b83;" transform="translate(363.592112 474.909565)rotate(-32.46118)scale(0.09 -0.09)">
       <use xlink:href="#DejaVuSansMono-50"/>
       <use x="60.205078" xlink:href="#DejaVuSansMono-53"/>
       <use x="120.410156" xlink:href="#DejaVuSansMono-54"/>
       <use x="180.615234" xlink:href="#DejaVuSansMono-75"/>
      </g>
     </g>
    </g>
    <g id="xtick_8">
     <g id="line2d_15">
      <path clip-path="url(#pd87162e8b3)" d="M 417.804468 448.366549 
L 417.804468 10.7 
" style="fill:none;stroke:#eee8d5;stroke-width:0.8;"/>
     </g>
     <g id="line2d_16">
      <g>
       <use style="fill:#657b83;stroke:#657b83;stroke-width:0.8;" x="417.804468" xlink:href="#m8739be7d4d" y="448.366549"/>
      </g>
     </g>
     <g id="text_8">
      <!-- 512K -->
      <g style="fill:#657b83;" transform="translate(410.006823 474.909565)rotate(-32.46118)scale(0.09 -0.09)">
       <use xlink:href="#DejaVuSansMono-53"/>
       <use x="60.205078" xlink:href="#DejaVuSansMono-49"/>
       <use x="120.410156" xlink:href="#DejaVuSansMono-50"/>
       <use x="180.615234" xlink:href="#DejaVuSansMono-75"/>
      </g>
     </g>
    </g>
    <g id="xtick_9">
     <g id="line2d_17">
      <path clip-path="url(#pd87162e8b3)" d="M 464.219179 448.366549 
L 464.219179 10.7 
" style="fill:none;stroke:#eee8d5;stroke-width:0.8;"/>
     </g>
     <g id="line2d_18">
      <g>
       <use style="fill:#657b83;stroke:#657b83;stroke-width:0.8;" x="464.219179" xlink:href="#m8739be7d4d" y="448.366549"/>
      </g>
     </g>
     <g id="text_9">
      <!-- 1M -->
      <defs>
       <path d="M 4.203125 72.90625 
L 17.390625 72.90625 
L 29.984375 35.796875 
L 42.671875 72.90625 
L 55.90625 72.90625 
L 55.90625 0 
L 46.78125 0 
L 46.78125 64.40625 
L 33.796875 25.984375 
L 26.3125 25.984375 
L 13.28125 64.40625 
L 13.28125 0 
L 4.203125 0 
z
" id="DejaVuSansMono-77"/>
      </defs>
      <g style="fill:#657b83;" transform="translate(460.993237 469.093278)rotate(-32.46118)scale(0.09 -0.09)">
       <use xlink:href="#DejaVuSansMono-49"/>
       <use x="60.205078" xlink:href="#DejaVuSansMono-77"/>
      </g>
     </g>
    </g>
    <g id="xtick_10">
     <g id="line2d_19">
      <path clip-path="url(#pd87162e8b3)" d="M 510.63389 448.366549 
L 510.63389 10.7 
" style="fill:none;stroke:#eee8d5;stroke-width:0.8;"/>
     </g>
     <g id="line2d_20">
      <g>
       <use style="fill:#657b83;stroke:#657b83;stroke-width:0.8;" x="510.63389" xlink:href="#m8739be7d4d" y="448.366549"/>
      </g>
     </g>
     <g id="text_10">
      <!-- 2M -->
      <g style="fill:#657b83;" transform="translate(507.407948 469.093278)rotate(-32.46118)scale(0.09 -0.09)">
       <use xlink:href="#DejaVuSansMono-50"/>
       <use x="60.205078" xlink:href="#DejaVuSansMono-77"/>
      </g>
     </g>
    </g>
    <g id="xtick_11">
     <g id="line2d_21">
      <path clip-path="url(#pd87162e8b3)" d="M 557.0486 448.366549 
L 557.0486 10.7 
" style="fill:none;stroke:#eee8d5;stroke-width:0.8;"/>
     </g>
     <g id="line2d_22">
      <g>
       <use style="fill:#657b83;stroke:#657b83;stroke-width:0.8;" x="557.0486" xlink:href="#m8739be7d4d" y="448.366549"/>
      </g>
     </g>
     <g id="text_11">
      <!-- 4M -->
      <g style="fill:#657b83;" transform="translate(553.822659 469.093278)rotate(-32.46118)scale(0.09 -0.09)">
       <use xlink:href="#DejaVuSansMono-52"/>
       <use x="60.205078" xlink:href="#DejaVuSansMono-77"/>
      </g>
     </g>
    </g>
    <g id="xtick_12">
     <g id="line2d_23">
      <path clip-path="url(#pd87162e8b3)" d="M 603.463311 448.366549 
L 603.463311 10.7 
" style="fill:none;stroke:#eee8d5;stroke-width:0.8;"/>
     </g>
     <g id="line2d_24">
      <g>
       <use style="fill:#657b83;stroke:#657b83;stroke-width:0.8;" x="603.463311" xlink:href="#m8739be7d4d" y="448.366549"/>
      </g>
     </g>
     <g id="text_12">
      <!-- 8M -->
      <g style="fill:#657b83;" transform="translate(600.237369 469.093278)rotate(-32.46118)scale(0.09 -0.09)">
       <use xlink:href="#DejaVuSansMono-56"/>
       <use x="60.205078" xlink:href="#DejaVuSansMono-77"/>
      </g>
     </g>
    </g>
    <g id="xtick_13">
     <g id="line2d_25">
      <path clip-path="url(#pd87162e8b3)" d="M 649.878022 448.366549 
L 649.878022 10.7 
" style="fill:none;stroke:#eee8d5;stroke-width:0.8;"/>
     </g>
     <g id="line2d_26">
      <g>
       <use style="fill:#657b83;stroke:#657b83;stroke-width:0.8;" x="649.878022" xlink:href="#m8739be7d4d" y="448.366549"/>
      </g>
     </g>
     <g id="text_13">
      <!-- 16M -->
      <g style="fill:#657b83;" transform="translate(644.366228 472.001422)rotate(-32.46118)scale(0.09 -0.09)">
       <use xlink:href="#DejaVuSansMono-49"/>
       <use x="60.205078" xlink:href="#DejaVuSansMono-54"/>
       <use x="120.410156" xlink:href="#DejaVuSansMono-77"/>
      </g>
     </g>
    </g>
    <g id="xtick_14">
     <g id="line2d_27">
      <path clip-path="url(#pd87162e8b3)" d="M 696.292733 448.366549 
L 696.292733 10.7 
" style="fill:none;stroke:#eee8d5;stroke-width:0.8;"/>
     </g>
     <g id="line2d_28">
      <g>
       <use style="fill:#657b83;stroke:#657b83;stroke-width:0.8;" x="696.292733" xlink:href="#m8739be7d4d" y="448.366549"/>
      </g>
     </g>
     <g id="text_14">
      <!-- 32M -->
      <g style="fill:#657b83;" transform="translate(690.780939 472.001422)rotate(-32.46118)scale(0.09 -0.09)">
       <use xlink:href="#DejaVuSansMono-51"/>
       <use x="60.205078" xlink:href="#DejaVuSansMono-50"/>
       <use x="120.410156" xlink:href="#DejaVuSansMono-77"/>
      </g>
     </g>
    </g>
    <g id="xtick_15">
     <g id="line2d_29">
      <path clip-path="url(#pd87162e8b3)" d="M 742.707443 448.366549 
L 742.707443 10.7 
" style="fill:none;stroke:#eee8d5;stroke-width:0.8;"/>
     </g>
     <g id="line2d_30">
      <g>
       <use style="fill:#657b83;stroke:#657b83;stroke-width:0.8;" x="742.707443" xlink:href="#m8739be7d4d" y="448.366549"/>
      </g>
     </g>
     <g id="text_15">
      <!-- 64M -->
      <g style="fill:#657b83;" transform="translate(737.19565 472.001422)rotate(-32.46118)scale(0.09 -0.09)">
       <use xlink:href="#DejaVuSansMono-54"/>
       <use x="60.205078" xlink:href="#DejaVuSansMono-52"/>
       <use x="120.410156" xlink:href="#DejaVuSansMono-77"/>
      </g>
     </g>
    </g>
    <g id="text_16">
     <!-- Block size (bytes) -->
     <defs>
      <path d="M 18.015625 34.8125 
L 18.015625 8.109375 
L 29.6875 8.109375 
Q 38.28125 8.109375 41.9375 11.109375 
Q 45.609375 14.109375 45.609375 21 
Q 45.609375 28.125 41.75 31.46875 
Q 37.890625 34.8125 29.6875 34.8125 
z
M 18.015625 64.796875 
L 18.015625 42.828125 
L 29.5 42.828125 
Q 36.625 42.828125 39.8125 45.5625 
Q 43.015625 48.296875 43.015625 54.390625 
Q 43.015625 59.90625 39.859375 62.34375 
Q 36.71875 64.796875 29.5 64.796875 
z
M 8.109375 72.90625 
L 29.6875 72.90625 
Q 40.875 72.90625 46.921875 68.0625 
Q 52.984375 63.234375 52.984375 54.390625 
Q 52.984375 47.703125 49.78125 43.84375 
Q 46.578125 39.984375 40.1875 39.015625 
Q 47.359375 37.9375 51.4375 32.875 
Q 55.515625 27.828125 55.515625 20.015625 
Q 55.515625 10.109375 49.015625 5.046875 
Q 42.53125 0 29.6875 0 
L 8.109375 0 
z
" id="DejaVuSansMono-66"/>
      <path d="M 31.203125 19.828125 
Q 31.203125 13.765625 33.421875 10.6875 
Q 35.640625 7.625 39.984375 7.625 
L 50.484375 7.625 
L 50.484375 0 
L 39.109375 0 
Q 31.0625 0 26.640625 5.171875 
Q 22.21875 10.359375 22.21875 19.828125 
L 22.21875 69.484375 
L 7.8125 69.484375 
L 7.8125 76.515625 
L 31.203125 76.515625 
z
" id="DejaVuSansMono-108"/>
      <path d="M 30.078125 48.390625 
Q 23.25 48.390625 19.734375 43.0625 
Q 16.21875 37.75 16.21875 27.296875 
Q 16.21875 16.890625 19.734375 11.546875 
Q 23.25 6.203125 30.078125 6.203125 
Q 36.96875 6.203125 40.484375 11.546875 
Q 44 16.890625 44 27.296875 
Q 44 37.75 40.484375 43.0625 
Q 36.96875 48.390625 30.078125 48.390625 
z
M 30.078125 56 
Q 41.453125 56 47.484375 48.625 
Q 53.515625 41.265625 53.515625 27.296875 
Q 53.515625 13.28125 47.5 5.921875 
Q 41.5 -1.421875 30.078125 -1.421875 
Q 18.703125 -1.421875 12.6875 5.921875 
Q 6.6875 13.28125 6.6875 27.296875 
Q 6.6875 41.265625 12.6875 48.625 
Q 18.703125 56 30.078125 56 
z
" id="DejaVuSansMono-111"/>
      <path d="M 51.8125 2.78125 
Q 48.1875 0.6875 44.359375 -0.359375 
Q 40.53125 -1.421875 36.53125 -1.421875 
Q 23.828125 -1.421875 16.671875 6.1875 
Q 9.515625 13.8125 9.515625 27.296875 
Q 9.515625 40.765625 16.671875 48.375 
Q 23.828125 56 36.53125 56 
Q 40.484375 56 44.234375 54.96875 
Q 48 53.953125 51.8125 51.8125 
L 51.8125 42.390625 
Q 48.25 45.5625 44.65625 46.96875 
Q 41.0625 48.390625 36.53125 48.390625 
Q 28.078125 48.390625 23.53125 42.921875 
Q 19 37.453125 19 27.296875 
Q 19 17.1875 23.5625 11.6875 
Q 28.125 6.203125 36.53125 6.203125 
Q 41.21875 6.203125 44.921875 7.640625 
Q 48.640625 9.078125 51.8125 12.109375 
z
" id="DejaVuSansMono-99"/>
      <path d="M 11.53125 75.984375 
L 20.796875 75.984375 
L 20.796875 31.984375 
L 44.390625 54.6875 
L 55.328125 54.6875 
L 33.796875 34.078125 
L 58.6875 0 
L 47.703125 0 
L 27.484375 28.21875 
L 20.796875 21.921875 
L 20.796875 0 
L 11.53125 0 
z
" id="DejaVuSansMono-107"/>
      <path id="DejaVuSansMono-32"/>
      <path d="M 47.515625 52.78125 
L 47.515625 44 
Q 43.65625 46.234375 39.75 47.359375 
Q 35.84375 48.484375 31.78125 48.484375 
Q 25.6875 48.484375 22.671875 46.5 
Q 19.671875 44.53125 19.671875 40.484375 
Q 19.671875 36.8125 21.921875 35 
Q 24.171875 33.203125 33.109375 31.5 
L 36.71875 30.8125 
Q 43.40625 29.546875 46.84375 25.734375 
Q 50.296875 21.921875 50.296875 15.828125 
Q 50.296875 7.71875 44.53125 3.140625 
Q 38.765625 -1.421875 28.515625 -1.421875 
Q 24.46875 -1.421875 20.015625 -0.5625 
Q 15.578125 0.296875 10.40625 2 
L 10.40625 11.28125 
Q 15.4375 8.6875 20.015625 7.390625 
Q 24.609375 6.109375 28.71875 6.109375 
Q 34.671875 6.109375 37.9375 8.515625 
Q 41.21875 10.9375 41.21875 15.28125 
Q 41.21875 21.53125 29.25 23.921875 
L 28.859375 24.03125 
L 25.484375 24.703125 
Q 17.71875 26.21875 14.15625 29.8125 
Q 10.59375 33.40625 10.59375 39.59375 
Q 10.59375 47.46875 15.90625 51.734375 
Q 21.234375 56 31.109375 56 
Q 35.5 56 39.546875 55.1875 
Q 43.609375 54.390625 47.515625 52.78125 
z
" id="DejaVuSansMono-115"/>
      <path d="M 12.5 54.6875 
L 35.5 54.6875 
L 35.5 6.984375 
L 53.328125 6.984375 
L 53.328125 0 
L 8.6875 0 
L 8.6875 6.984375 
L 26.515625 6.984375 
L 26.515625 47.703125 
L 12.5 47.703125 
z
M 26.515625 75.984375 
L 35.5 75.984375 
L 35.5 64.59375 
L 26.515625 64.59375 
z
" id="DejaVuSansMono-105"/>
      <path d="M 11.078125 54.78125 
L 50.78125 54.78125 
L 50.78125 46.578125 
L 19.390625 7.328125 
L 50.78125 7.328125 
L 50.78125 0 
L 9.90625 0 
L 9.90625 8.296875 
L 41.3125 47.609375 
L 11.078125 47.609375 
z
" id="DejaVuSansMono-122"/>
      <path d="M 54.296875 29.59375 
L 54.296875 25.203125 
L 15.375 25.203125 
L 15.375 24.90625 
Q 15.375 15.96875 20.03125 11.078125 
Q 24.703125 6.203125 33.203125 6.203125 
Q 37.5 6.203125 42.1875 7.5625 
Q 46.875 8.9375 52.203125 11.71875 
L 52.203125 2.78125 
Q 47.078125 0.6875 42.3125 -0.359375 
Q 37.546875 -1.421875 33.109375 -1.421875 
Q 20.359375 -1.421875 13.171875 6.21875 
Q 6 13.875 6 27.296875 
Q 6 40.375 13.03125 48.1875 
Q 20.0625 56 31.78125 56 
Q 42.234375 56 48.265625 48.921875 
Q 54.296875 41.84375 54.296875 29.59375 
z
M 45.3125 32.234375 
Q 45.125 40.140625 41.578125 44.265625 
Q 38.03125 48.390625 31.390625 48.390625 
Q 24.90625 48.390625 20.703125 44.09375 
Q 16.5 39.796875 15.71875 32.171875 
z
" id="DejaVuSansMono-101"/>
      <path d="M 43.21875 75.875 
Q 36.71875 64.75 33.515625 53.6875 
Q 30.328125 42.625 30.328125 31.390625 
Q 30.328125 20.21875 33.515625 9.125 
Q 36.71875 -1.953125 43.21875 -13.1875 
L 35.40625 -13.1875 
Q 28.03125 -1.5625 24.40625 9.4375 
Q 20.796875 20.453125 20.796875 31.390625 
Q 20.796875 42.28125 24.40625 53.3125 
Q 28.03125 64.359375 35.40625 75.875 
z
" id="DejaVuSansMono-40"/>
      <path d="M 44.828125 27.296875 
Q 44.828125 37.75 41.5 43.0625 
Q 38.1875 48.390625 31.6875 48.390625 
Q 25.140625 48.390625 21.765625 43.046875 
Q 18.40625 37.703125 18.40625 27.296875 
Q 18.40625 16.9375 21.765625 11.5625 
Q 25.140625 6.203125 31.6875 6.203125 
Q 38.1875 6.203125 41.5 11.515625 
Q 44.828125 16.84375 44.828125 27.296875 
z
M 18.40625 47.703125 
Q 20.5625 51.703125 24.34375 53.84375 
Q 28.125 56 33.109375 56 
Q 42.96875 56 48.625 48.40625 
Q 54.296875 40.828125 54.296875 27.484375 
Q 54.296875 13.96875 48.609375 6.265625 
Q 42.921875 -1.421875 33.015625 -1.421875 
Q 28.125 -1.421875 24.390625 0.703125 
Q 20.65625 2.828125 18.40625 6.890625 
L 18.40625 0 
L 9.421875 0 
L 9.421875 75.984375 
L 18.40625 75.984375 
z
" id="DejaVuSansMono-98"/>
      <path d="M 41.890625 17.578125 
Q 39.65625 11.859375 36.1875 2.546875 
Q 31.34375 -10.359375 29.6875 -13.1875 
Q 27.4375 -17 24.0625 -18.890625 
Q 20.703125 -20.796875 16.21875 -20.796875 
L 8.984375 -20.796875 
L 8.984375 -13.28125 
L 14.3125 -13.28125 
Q 18.265625 -13.28125 20.5 -10.984375 
Q 22.75 -8.6875 26.21875 0.875 
L 5.078125 54.6875 
L 14.59375 54.6875 
L 30.8125 11.921875 
L 46.78125 54.6875 
L 56.296875 54.6875 
z
" id="DejaVuSansMono-121"/>
      <path d="M 29.984375 70.21875 
L 29.984375 54.6875 
L 50.390625 54.6875 
L 50.390625 47.703125 
L 29.984375 47.703125 
L 29.984375 18.015625 
Q 29.984375 11.96875 32.28125 9.5625 
Q 34.578125 7.171875 40.28125 7.171875 
L 50.390625 7.171875 
L 50.390625 0 
L 39.40625 0 
Q 29.296875 0 25.140625 4.046875 
Q 21 8.109375 21 18.015625 
L 21 47.703125 
L 6.390625 47.703125 
L 6.390625 54.6875 
L 21 54.6875 
L 21 70.21875 
z
" id="DejaVuSansMono-116"/>
      <path d="M 17 75.875 
L 24.8125 75.875 
Q 32.171875 64.359375 35.78125 53.3125 
Q 39.40625 42.28125 39.40625 31.390625 
Q 39.40625 20.40625 35.78125 9.375 
Q 32.171875 -1.65625 24.8125 -13.1875 
L 17 -13.1875 
Q 23.484375 -1.859375 26.6875 9.21875 
Q 29.890625 20.3125 29.890625 31.390625 
Q 29.890625 42.53125 26.6875 53.609375 
Q 23.484375 64.703125 17 75.875 
z
" id="DejaVuSansMono-41"/>
     </defs>
     <g style="fill:#657b83;" transform="translate(371.334077 487.375244)scale(0.09 -0.09)">
      <use xlink:href="#DejaVuSansMono-66"/>
      <use x="60.205078" xlink:href="#DejaVuSansMono-108"/>
      <use x="120.410156" xlink:href="#DejaVuSansMono-111"/>
      <use x="180.615234" xlink:href="#DejaVuSansMono-99"/>
      <use x="240.820312" xlink:href="#DejaVuSansMono-107"/>
      <use x="301.025391" xlink:href="#DejaVuSansMono-32"/>
      <use x="361.230469" xlink:href="#DejaVuSansMono-115"/>
      <use x="421.435547" xlink:href="#DejaVuSansMono-105"/>
      <use x="481.640625" xlink:href="#DejaVuSansMono-122"/>
      <use x="541.845703" xlink:href="#DejaVuSansMono-101"/>
      <use x="602.050781" xlink:href="#DejaVuSansMono-32"/>
      <use x="662.255859" xlink:href="#DejaVuSansMono-40"/>
      <use x="722.460938" xlink:href="#DejaVuSansMono-98"/>
      <use x="782.666016" xlink:href="#DejaVuSansMono-121"/>
      <use x="842.871094" xlink:href="#DejaVuSansMono-116"/>
      <use x="903.076172" xlink:href="#DejaVuSansMono-101"/>
      <use x="963.28125" xlink:href="#DejaVuSansMono-115"/>
      <use x="1023.486328" xlink:href="#DejaVuSansMono-41"/>
     </g>
    </g>
   </g>
   <g id="matplotlib.axis_2">
    <g id="ytick_1">
     <g id="line2d_31">
      <path clip-path="url(#pd87162e8b3)" d="M 44.088125 395.717436 
L 796.109091 395.717436 
" style="fill:none;stroke:#eee8d5;stroke-width:0.8;"/>
     </g>
     <g id="line2d_32">
      <defs>
       <path d="M 0 0 
L -3.5 0 
" id="me6881c8433" style="stroke:#657b83;stroke-width:0.8;"/>
      </defs>
      <g>
       <use style="fill:#657b83;stroke:#657b83;stroke-width:0.8;" x="44.088125" xlink:href="#me6881c8433" y="395.717436"/>
      </g>
     </g>
     <g id="text_17">
      <!-- $\mathdefault{10^{0}}$ -->
      <defs>
       <path d="M 23.578125 36.625 
Q 23.578125 39.3125 25.453125 41.265625 
Q 27.34375 43.21875 29.984375 43.21875 
Q 32.71875 43.21875 34.671875 41.265625 
Q 36.625 39.3125 36.625 36.625 
Q 36.625 33.890625 34.6875 31.984375 
Q 32.765625 30.078125 29.984375 30.078125 
Q 27.25 30.078125 25.40625 31.9375 
Q 23.578125 33.796875 23.578125 36.625 
z
M 30.078125 66.40625 
Q 23.1875 66.40625 19.796875 58.984375 
Q 16.40625 51.5625 16.40625 36.375 
Q 16.40625 21.234375 19.796875 13.8125 
Q 23.1875 6.390625 30.078125 6.390625 
Q 37.015625 6.390625 40.40625 13.8125 
Q 43.796875 21.234375 43.796875 36.375 
Q 43.796875 51.5625 40.40625 58.984375 
Q 37.015625 66.40625 30.078125 66.40625 
z
M 30.078125 74.21875 
Q 41.75 74.21875 47.734375 64.640625 
Q 53.71875 55.078125 53.71875 36.375 
Q 53.71875 17.71875 47.734375 8.140625 
Q 41.75 -1.421875 30.078125 -1.421875 
Q 18.40625 -1.421875 12.453125 8.140625 
Q 6.5 17.71875 6.5 36.375 
Q 6.5 55.078125 12.453125 64.640625 
Q 18.40625 74.21875 30.078125 74.21875 
z
" id="DejaVuSansMono-48"/>
      </defs>
      <g style="fill:#657b83;" transform="translate(19.958125 399.16064)scale(0.09 -0.09)">
       <use transform="translate(0 0.765625)" xlink:href="#DejaVuSansMono-49"/>
       <use transform="translate(60.205078 0.765625)" xlink:href="#DejaVuSansMono-48"/>
       <use transform="translate(121.367188 39.046875)scale(0.7)" xlink:href="#DejaVuSansMono-48"/>
      </g>
     </g>
    </g>
    <g id="ytick_2">
     <g id="line2d_33">
      <path clip-path="url(#pd87162e8b3)" d="M 44.088125 44.03475 
L 796.109091 44.03475 
" style="fill:none;stroke:#eee8d5;stroke-width:0.8;"/>
     </g>
     <g id="line2d_34">
      <g>
       <use style="fill:#657b83;stroke:#657b83;stroke-width:0.8;" x="44.088125" xlink:href="#me6881c8433" y="44.03475"/>
      </g>
     </g>
     <g id="text_18">
      <!-- $\mathdefault{10^{1}}$ -->
      <g style="fill:#657b83;" transform="translate(19.958125 47.477953)scale(0.09 -0.09)">
       <use transform="translate(0 0.684375)" xlink:href="#DejaVuSansMono-49"/>
       <use transform="translate(60.205078 0.684375)" xlink:href="#DejaVuSansMono-48"/>
       <use transform="translate(121.367188 38.965625)scale(0.7)" xlink:href="#DejaVuSansMono-49"/>
      </g>
     </g>
    </g>
    <g id="ytick_3">
     <g id="line2d_35">
      <defs>
       <path d="M 0 0 
L -2 0 
" id="m536cc12d5a" style="stroke:#657b83;stroke-width:0.4;"/>
      </defs>
      <g>
       <use style="fill:#657b83;stroke:#657b83;stroke-width:0.4;" x="44.088125" xlink:href="#m536cc12d5a" y="429.79901"/>
      </g>
     </g>
    </g>
    <g id="ytick_4">
     <g id="line2d_36">
      <g>
       <use style="fill:#657b83;stroke:#657b83;stroke-width:0.4;" x="44.088125" xlink:href="#m536cc12d5a" y="411.809554"/>
      </g>
     </g>
    </g>
    <g id="ytick_5">
     <g id="line2d_37">
      <g>
       <use style="fill:#657b83;stroke:#657b83;stroke-width:0.4;" x="44.088125" xlink:href="#m536cc12d5a" y="289.850399"/>
      </g>
     </g>
    </g>
    <g id="ytick_6">
     <g id="line2d_38">
      <g>
       <use style="fill:#657b83;stroke:#657b83;stroke-width:0.4;" x="44.088125" xlink:href="#m536cc12d5a" y="227.922152"/>
      </g>
     </g>
    </g>
    <g id="ytick_7">
     <g id="line2d_39">
      <g>
       <use style="fill:#657b83;stroke:#657b83;stroke-width:0.4;" x="44.088125" xlink:href="#m536cc12d5a" y="183.983361"/>
      </g>
     </g>
    </g>
    <g id="ytick_8">
     <g id="line2d_40">
      <g>
       <use style="fill:#657b83;stroke:#657b83;stroke-width:0.4;" x="44.088125" xlink:href="#m536cc12d5a" y="149.901787"/>
      </g>
     </g>
    </g>
    <g id="ytick_9">
     <g id="line2d_41">
      <g>
       <use style="fill:#657b83;stroke:#657b83;stroke-width:0.4;" x="44.088125" xlink:href="#m536cc12d5a" y="122.055114"/>
      </g>
     </g>
    </g>
    <g id="ytick_10">
     <g id="line2d_42">
      <g>
       <use style="fill:#657b83;stroke:#657b83;stroke-width:0.4;" x="44.088125" xlink:href="#m536cc12d5a" y="98.511087"/>
      </g>
     </g>
    </g>
    <g id="ytick_11">
     <g id="line2d_43">
      <g>
       <use style="fill:#657b83;stroke:#657b83;stroke-width:0.4;" x="44.088125" xlink:href="#m536cc12d5a" y="78.116324"/>
      </g>
     </g>
    </g>
    <g id="ytick_12">
     <g id="line2d_44">
      <g>
       <use style="fill:#657b83;stroke:#657b83;stroke-width:0.4;" x="44.088125" xlink:href="#m536cc12d5a" y="60.126867"/>
      </g>
     </g>
    </g>
    <g id="text_19">
     <!-- Wall-clock overhead -->
     <defs>
      <path d="M 0 72.90625 
L 9.625 72.90625 
L 16.609375 13.71875 
L 24.90625 52.875 
L 35.203125 52.875 
L 43.609375 13.625 
L 50.59375 72.90625 
L 60.203125 72.90625 
L 49.3125 0 
L 39.984375 0 
L 30.078125 43.3125 
L 20.21875 0 
L 10.890625 0 
z
" id="DejaVuSansMono-87"/>
      <path d="M 34.28125 27.484375 
L 31.296875 27.484375 
Q 23.4375 27.484375 19.453125 24.71875 
Q 15.484375 21.96875 15.484375 16.5 
Q 15.484375 11.578125 18.453125 8.84375 
Q 21.4375 6.109375 26.703125 6.109375 
Q 34.125 6.109375 38.375 11.25 
Q 42.625 16.40625 42.671875 25.484375 
L 42.671875 27.484375 
z
M 51.703125 31.203125 
L 51.703125 0 
L 42.671875 0 
L 42.671875 8.109375 
Q 39.796875 3.21875 35.421875 0.890625 
Q 31.0625 -1.421875 24.8125 -1.421875 
Q 16.453125 -1.421875 11.46875 3.296875 
Q 6.5 8.015625 6.5 15.921875 
Q 6.5 25.046875 12.625 29.78125 
Q 18.75 34.515625 30.609375 34.515625 
L 42.671875 34.515625 
L 42.671875 35.9375 
Q 42.625 42.484375 39.34375 45.4375 
Q 36.078125 48.390625 28.90625 48.390625 
Q 24.3125 48.390625 19.625 47.0625 
Q 14.9375 45.75 10.5 43.21875 
L 10.5 52.203125 
Q 15.484375 54.109375 20.046875 55.046875 
Q 24.609375 56 28.90625 56 
Q 35.6875 56 40.5 54 
Q 45.3125 52 48.296875 48 
Q 50.140625 45.5625 50.921875 41.96875 
Q 51.703125 38.375 51.703125 31.203125 
z
" id="DejaVuSansMono-97"/>
      <path d="M 17.390625 31.390625 
L 42.828125 31.390625 
L 42.828125 23.390625 
L 17.390625 23.390625 
z
" id="DejaVuSansMono-45"/>
      <path d="M 4.890625 54.6875 
L 14.203125 54.6875 
L 30.078125 8.796875 
L 46 54.6875 
L 55.328125 54.6875 
L 35.890625 0 
L 24.3125 0 
z
" id="DejaVuSansMono-118"/>
      <path d="M 56.390625 43.40625 
Q 53.515625 45.65625 50.53125 46.671875 
Q 47.5625 47.703125 44 47.703125 
Q 35.59375 47.703125 31.140625 42.421875 
Q 26.703125 37.15625 26.703125 27.203125 
L 26.703125 0 
L 17.671875 0 
L 17.671875 54.6875 
L 26.703125 54.6875 
L 26.703125 44 
Q 28.953125 49.8125 33.609375 52.90625 
Q 38.28125 56 44.671875 56 
Q 48 56 50.875 55.171875 
Q 53.765625 54.34375 56.390625 52.59375 
z
" id="DejaVuSansMono-114"/>
      <path d="M 51.3125 33.890625 
L 51.3125 0 
L 42.28125 0 
L 42.28125 33.890625 
Q 42.28125 41.265625 39.6875 44.71875 
Q 37.109375 48.1875 31.59375 48.1875 
Q 25.296875 48.1875 21.890625 43.71875 
Q 18.5 39.265625 18.5 30.90625 
L 18.5 0 
L 9.515625 0 
L 9.515625 75.984375 
L 18.5 75.984375 
L 18.5 46.484375 
Q 20.90625 51.171875 25 53.578125 
Q 29.109375 56 34.71875 56 
Q 43.0625 56 47.1875 50.5 
Q 51.3125 45.015625 51.3125 33.890625 
z
" id="DejaVuSansMono-104"/>
      <path d="M 41.890625 47.703125 
L 41.890625 75.984375 
L 50.875 75.984375 
L 50.875 0 
L 41.890625 0 
L 41.890625 6.890625 
Q 39.65625 2.828125 35.90625 0.703125 
Q 32.171875 -1.421875 27.296875 -1.421875 
Q 17.390625 -1.421875 11.6875 6.265625 
Q 6 13.96875 6 27.484375 
Q 6 40.828125 11.71875 48.40625 
Q 17.4375 56 27.296875 56 
Q 32.234375 56 35.984375 53.875 
Q 39.75 51.765625 41.890625 47.703125 
z
M 15.484375 27.296875 
Q 15.484375 16.84375 18.796875 11.515625 
Q 22.125 6.203125 28.609375 6.203125 
Q 35.109375 6.203125 38.5 11.5625 
Q 41.890625 16.9375 41.890625 27.296875 
Q 41.890625 37.703125 38.5 43.046875 
Q 35.109375 48.390625 28.609375 48.390625 
Q 22.125 48.390625 18.796875 43.0625 
Q 15.484375 37.75 15.484375 27.296875 
z
" id="DejaVuSansMono-100"/>
     </defs>
     <g style="fill:#657b83;" transform="translate(14.086406 281.006946)rotate(-90)scale(0.09 -0.09)">
      <use xlink:href="#DejaVuSansMono-87"/>
      <use x="60.205078" xlink:href="#DejaVuSansMono-97"/>
      <use x="120.410156" xlink:href="#DejaVuSansMono-108"/>
      <use x="180.615234" xlink:href="#DejaVuSansMono-108"/>
      <use x="240.820312" xlink:href="#DejaVuSansMono-45"/>
      <use x="301.025391" xlink:href="#DejaVuSansMono-99"/>
      <use x="361.230469" xlink:href="#DejaVuSansMono-108"/>
      <use x="421.435547" xlink:href="#DejaVuSansMono-111"/>
      <use x="481.640625" xlink:href="#DejaVuSansMono-99"/>
      <use x="541.845703" xlink:href="#DejaVuSansMono-107"/>
      <use x="602.050781" xlink:href="#DejaVuSansMono-32"/>
      <use x="662.255859" xlink:href="#DejaVuSansMono-111"/>
      <use x="722.460938" xlink:href="#DejaVuSansMono-118"/>
      <use x="782.666016" xlink:href="#DejaVuSansMono-101"/>
      <use x="842.871094" xlink:href="#DejaVuSansMono-114"/>
      <use x="903.076172" xlink:href="#DejaVuSansMono-104"/>
      <use x="963.28125" xlink:href="#DejaVuSansMono-101"/>
      <use x="1023.486328" xlink:href="#DejaVuSansMono-97"/>
      <use x="1083.691406" xlink:href="#DejaVuSansMono-100"/>
     </g>
    </g>
   </g>
   <g id="PathCollection_1">
    <defs>
     <path d="M 0 6.123724 
C 1.624031 6.123724 3.181764 5.47849 4.330127 4.330127 
C 5.47849 3.181764 6.123724 1.624031 6.123724 0 
C 6.123724 -1.624031 5.47849 -3.181764 4.330127 -4.330127 
C 3.181764 -5.47849 1.624031 -6.123724 0 -6.123724 
C -1.624031 -6.123724 -3.181764 -5.47849 -4.330127 -4.330127 
C -5.47849 -3.181764 -6.123724 -1.624031 -6.123724 0 
C -6.123724 1.624031 -5.47849 3.181764 -4.330127 4.330127 
C -3.181764 5.47849 -1.624031 6.123724 0 6.123724 
z
" id="C0_0_9c99f641a9"/>
    </defs>
    <g clip-path="url(#pd87162e8b3)">
     <use style="fill:#839496;fill-opacity:0.77;" x="89.963864" xlink:href="#C0_0_9c99f641a9" y="276.856387"/>
    </g>
    <g clip-path="url(#pd87162e8b3)">
     <use style="fill:#839496;fill-opacity:0.77;" x="144.385801" xlink:href="#C0_0_9c99f641a9" y="279.120325"/>
    </g>
    <g clip-path="url(#pd87162e8b3)">
     <use style="fill:#839496;fill-opacity:0.77;" x="187.723091" xlink:href="#C0_0_9c99f641a9" y="276.555089"/>
    </g>
    <g clip-path="url(#pd87162e8b3)">
     <use style="fill:#839496;fill-opacity:0.77;" x="239.145256" xlink:href="#C0_0_9c99f641a9" y="278.875641"/>
    </g>
    <g clip-path="url(#pd87162e8b3)">
     <use style="fill:#839496;fill-opacity:0.77;" x="278.860328" xlink:href="#C0_0_9c99f641a9" y="280.810856"/>
    </g>
    <g clip-path="url(#pd87162e8b3)">
     <use style="fill:#839496;fill-opacity:0.77;" x="319.776545" xlink:href="#C0_0_9c99f641a9" y="279.191528"/>
    </g>
    <g clip-path="url(#pd87162e8b3)">
     <use style="fill:#839496;fill-opacity:0.77;" x="375.113772" xlink:href="#C0_0_9c99f641a9" y="175.536113"/>
    </g>
    <g clip-path="url(#pd87162e8b3)">
     <use style="fill:#839496;fill-opacity:0.77;" x="411.031592" xlink:href="#C0_0_9c99f641a9" y="217.01469"/>
    </g>
    <g clip-path="url(#pd87162e8b3)">
     <use style="fill:#839496;fill-opacity:0.77;" x="463.980875" xlink:href="#C0_0_9c99f641a9" y="109.676287"/>
    </g>
    <g clip-path="url(#pd87162e8b3)">
     <use style="fill:#839496;fill-opacity:0.77;" x="510.388405" xlink:href="#C0_0_9c99f641a9" y="131.646918"/>
    </g>
    <g clip-path="url(#pd87162e8b3)">
     <use style="fill:#839496;fill-opacity:0.77;" x="561.471633" xlink:href="#C0_0_9c99f641a9" y="190.315342"/>
    </g>
    <g clip-path="url(#pd87162e8b3)">
     <use style="fill:#839496;fill-opacity:0.77;" x="599.347628" xlink:href="#C0_0_9c99f641a9" y="170.608272"/>
    </g>
    <g clip-path="url(#pd87162e8b3)">
     <use style="fill:#839496;fill-opacity:0.77;" x="647.390079" xlink:href="#C0_0_9c99f641a9" y="139.136409"/>
    </g>
    <g clip-path="url(#pd87162e8b3)">
     <use style="fill:#839496;fill-opacity:0.77;" x="697.891585" xlink:href="#C0_0_9c99f641a9" y="100.910299"/>
    </g>
    <g clip-path="url(#pd87162e8b3)">
     <use style="fill:#839496;fill-opacity:0.77;" x="750.233352" xlink:href="#C0_0_9c99f641a9" y="36.819543"/>
    </g>
   </g>
   <g id="PathCollection_2">
    <defs>
     <path d="M 0 3.061862 
C 0.812015 3.061862 1.590882 2.739245 2.165064 2.165064 
C 2.739245 1.590882 3.061862 0.812015 3.061862 0 
C 3.061862 -0.812015 2.739245 -1.590882 2.165064 -2.165064 
C 1.590882 -2.739245 0.812015 -3.061862 0 -3.061862 
C -0.812015 -3.061862 -1.590882 -2.739245 -2.165064 -2.165064 
C -2.739245 -1.590882 -3.061862 -0.812015 -3.061862 0 
C -3.061862 0.812015 -2.739245 1.590882 -2.165064 2.165064 
C -1.590882 2.739245 -0.812015 3.061862 0 3.061862 
z
" id="C1_0_8430fdd54e"/>
    </defs>
    <g clip-path="url(#pd87162e8b3)">
     <use style="fill:#839496;fill-opacity:0.77;" x="89.408444" xlink:href="#C1_0_8430fdd54e" y="264.575919"/>
    </g>
    <g clip-path="url(#pd87162e8b3)">
     <use style="fill:#839496;fill-opacity:0.77;" x="134.259391" xlink:href="#C1_0_8430fdd54e" y="292.756913"/>
    </g>
    <g clip-path="url(#pd87162e8b3)">
     <use style="fill:#839496;fill-opacity:0.77;" x="178.752712" xlink:href="#C1_0_8430fdd54e" y="407.85945"/>
    </g>
    <g clip-path="url(#pd87162e8b3)">
     <use style="fill:#839496;fill-opacity:0.77;" x="232.075569" xlink:href="#C1_0_8430fdd54e" y="421.900462"/>
    </g>
    <g clip-path="url(#pd87162e8b3)">
     <use style="fill:#839496;fill-opacity:0.77;" x="285.958541" xlink:href="#C1_0_8430fdd54e" y="426.202798"/>
    </g>
    <g clip-path="url(#pd87162e8b3)">
     <use style="fill:#839496;fill-opacity:0.77;" x="319.725054" xlink:href="#C1_0_8430fdd54e" y="411.385881"/>
    </g>
    <g clip-path="url(#pd87162e8b3)">
     <use style="fill:#839496;fill-opacity:0.77;" x="365.836322" xlink:href="#C1_0_8430fdd54e" y="405.408569"/>
    </g>
    <g clip-path="url(#pd87162e8b3)">
     <use style="fill:#839496;fill-opacity:0.77;" x="419.864447" xlink:href="#C1_0_8430fdd54e" y="388.661694"/>
    </g>
    <g clip-path="url(#pd87162e8b3)">
     <use style="fill:#839496;fill-opacity:0.77;" x="470.282005" xlink:href="#C1_0_8430fdd54e" y="411.409576"/>
    </g>
    <g clip-path="url(#pd87162e8b3)">
     <use style="fill:#839496;fill-opacity:0.77;" x="514.407649" xlink:href="#C1_0_8430fdd54e" y="391.125718"/>
    </g>
    <g clip-path="url(#pd87162e8b3)">
     <use style="fill:#839496;fill-opacity:0.77;" x="553.67423" xlink:href="#C1_0_8430fdd54e" y="388.971185"/>
    </g>
    <g clip-path="url(#pd87162e8b3)">
     <use style="fill:#839496;fill-opacity:0.77;" x="604.312406" xlink:href="#C1_0_8430fdd54e" y="378.711351"/>
    </g>
    <g clip-path="url(#pd87162e8b3)">
     <use style="fill:#839496;fill-opacity:0.77;" x="647.125471" xlink:href="#C1_0_8430fdd54e" y="373.642332"/>
    </g>
    <g clip-path="url(#pd87162e8b3)">
     <use style="fill:#839496;fill-opacity:0.77;" x="696.70112" xlink:href="#C1_0_8430fdd54e" y="355.965433"/>
    </g>
    <g clip-path="url(#pd87162e8b3)">
     <use style="fill:#839496;fill-opacity:0.77;" x="741.033086" xlink:href="#C1_0_8430fdd54e" y="316.909776"/>
    </g>
   </g>
   <g id="patch_3">
    <path d="M 44.088125 448.366549 
L 44.088125 10.7 
" style="fill:none;stroke:#fdf6e3;stroke-linecap:square;stroke-linejoin:miter;"/>
   </g>
   <g id="patch_4">
    <path d="M 796.109091 448.366549 
L 796.109091 10.7 
" style="fill:none;stroke:#fdf6e3;stroke-linecap:square;stroke-linejoin:miter;"/>
   </g>
   <g id="patch_5">
    <path d="M 44.088125 448.366549 
L 796.109091 448.366549 
" style="fill:none;stroke:#fdf6e3;stroke-linecap:square;stroke-linejoin:miter;"/>
   </g>
   <g id="patch_6">
    <path d="M 44.088125 10.7 
L 796.109091 10.7 
" style="fill:none;stroke:#fdf6e3;stroke-linecap:square;stroke-linejoin:miter;"/>
   </g>
  </g>
 </g>
 <defs>
  <clipPath id="pd87162e8b3">
   <rect height="437.666549" width="752.020966" x="44.088125" y="10.7"/>
  </clipPath>
 </defs>
</svg>
