<?xml version="1.0" encoding="UTF-8" standalone="no"?>
<!DOCTYPE svg PUBLIC "-//W3C//DTD SVG 1.1//EN"
 "http://www.w3.org/Graphics/SVG/1.1/DTD/svg11.dtd">
<!-- Generated by graphviz version 2.38.0 (20140413.2041)
 -->
<!-- Title: %3 Pages: 1 -->
<svg width="240pt" height="218pt"
 viewBox="0.00 0.00 239.59 218.00" xmlns="http://www.w3.org/2000/svg" xmlns:xlink="http://www.w3.org/1999/xlink">
<g id="graph0" class="graph" transform="scale(1 1) rotate(0) translate(4 214)">
<title>%3</title>
<!-- mRNA_Var -->
<g id="node1" class="node"><title>mRNA_Var</title>
<ellipse fill="none" stroke="#42ffff" cx="136.095" cy="-18" rx="64.9885" ry="18"/>
<text text-anchor="start" x="94.0946" y="-15.3" font-family="Times,serif" font-size="14.00" fill="white"> </text>
<text text-anchor="start" x="98.0946" y="-15.3" font-family="Times,serif" font-size="14.00" fill="#42ffff">?mRNA_Var</text>
<text text-anchor="start" x="174.095" y="-15.3" font-family="Times,serif" font-size="14.00" fill="white"> </text>
</g>
<!-- cinetic_Var -->
<g id="node2" class="node"><title>cinetic_Var</title>
<ellipse fill="none" stroke="#42ffff" cx="61.0946" cy="-105" rx="61.1893" ry="18"/>
<text text-anchor="start" x="22.0946" y="-102.3" font-family="Times,serif" font-size="14.00" fill="white"> </text>
<text text-anchor="start" x="26.0946" y="-102.3" font-family="Times,serif" font-size="14.00" fill="#42ffff">?cinetic_Var</text>
<text text-anchor="start" x="96.0946" y="-102.3" font-family="Times,serif" font-size="14.00" fill="white"> </text>
</g>
<!-- mRNA_Var&#45;&gt;cinetic_Var -->
<g id="edge1" class="edge"><title>mRNA_Var&#45;&gt;cinetic_Var</title>
<path fill="none" stroke="white" d="M104.545,-33.8293C95.7072,-39.1852 86.7169,-45.9381 80.0946,-54 74.6239,-60.6599 70.6226,-69.0628 67.7444,-77.0695"/>
<polygon fill="white" stroke="white" points="64.3335,-76.2489 64.6731,-86.8383 71.0112,-78.3485 64.3335,-76.2489"/>
<text text-anchor="start" x="80.0946" y="-57.8" font-family="Times,serif" font-size="14.00" fill="white"> :has_cinetic </text>
</g>
<!-- mRNA -->
<g id="node3" class="node"><title>mRNA</title>
<ellipse fill="none" stroke="#cc9999" cx="186.095" cy="-105" rx="45.4919" ry="18"/>
<text text-anchor="start" x="159.095" y="-102.3" font-family="Times,serif" font-size="14.00" fill="white"> </text>
<text text-anchor="start" x="163.095" y="-102.3" font-family="Times,serif" font-size="14.00" fill="#cc9999">:mRNA</text>
<text text-anchor="start" x="209.095" y="-102.3" font-family="Times,serif" font-size="14.00" fill="white"> </text>
</g>
<!-- mRNA_Var&#45;&gt;mRNA -->
<g id="edge2" class="edge"><title>mRNA_Var&#45;&gt;mRNA</title>
<path fill="none" stroke="#cc9999" d="M145.973,-35.7933C153.095,-47.9009 162.84,-64.4671 170.942,-78.241"/>
<polygon fill="#cc9999" stroke="#cc9999" points="168.15,-80.3969 176.237,-87.2416 174.183,-76.8477 168.15,-80.3969"/>
<text text-anchor="start" x="164.095" y="-58.8" font-family="Times,serif" font-size="14.00" fill="white"> </text>
<text text-anchor="start" x="168.095" y="-58.8" font-family="Times,serif" font-size="14.00" fill="#cc9999">rdf:type</text>
<text text-anchor="start" x="214.095" y="-58.8" font-family="Times,serif" font-size="14.00" fill="white"> </text>
</g>
<!-- cinetic -->
<g id="node4" class="node"><title>cinetic</title>
<ellipse fill="none" stroke="#cc9999" cx="61.0946" cy="-192" rx="42.4939" ry="18"/>
<text text-anchor="start" x="36.5946" y="-189.3" font-family="Times,serif" font-size="14.00" fill="white"> </text>
<text text-anchor="start" x="40.5946" y="-189.3" font-family="Times,serif" font-size="14.00" fill="#cc9999">:cinetic</text>
<text text-anchor="start" x="81.5946" y="-189.3" font-family="Times,serif" font-size="14.00" fill="white"> </text>
</g>
<!-- cinetic_Var&#45;&gt;cinetic -->
<g id="edge3" class="edge"><title>cinetic_Var&#45;&gt;cinetic</title>
<path fill="none" stroke="#cc9999" d="M61.0946,-123.201C61.0946,-134.837 61.0946,-150.452 61.0946,-163.763"/>
<polygon fill="#cc9999" stroke="#cc9999" points="57.5947,-163.825 61.0946,-173.825 64.5947,-163.825 57.5947,-163.825"/>
<text text-anchor="start" x="61.0946" y="-145.8" font-family="Times,serif" font-size="14.00" fill="white"> </text>
<text text-anchor="start" x="65.0946" y="-145.8" font-family="Times,serif" font-size="14.00" fill="#cc9999">rdf:type</text>
<text text-anchor="start" x="111.095" y="-145.8" font-family="Times,serif" font-size="14.00" fill="white"> </text>
</g>
</g>
</svg>
