<?xml version="1.0" encoding="UTF-8" standalone="no"?>
<!DOCTYPE svg PUBLIC "-//W3C//DTD SVG 1.1//EN"
 "http://www.w3.org/Graphics/SVG/1.1/DTD/svg11.dtd">
<!-- Generated by graphviz version 2.38.0 (20140413.2041)
 -->
<!-- Title: %3 Pages: 1 -->
<svg width="1579pt" height="588pt"
 viewBox="0.00 0.00 1578.72 587.82" xmlns="http://www.w3.org/2000/svg" xmlns:xlink="http://www.w3.org/1999/xlink">
<g id="graph0" class="graph" transform="scale(1 1) rotate(0) translate(4 583.823)">
<title>%3</title>
<g id="clust1" class="cluster"><title>cluster_rdfs</title>
<polygon fill="none" stroke="white" points="216.716,-402.368 216.716,-571.823 381.716,-571.823 381.716,-402.368 216.716,-402.368"/>
<text text-anchor="middle" x="299.216" y="-410.168" font-family="Times,serif" font-size="14.00" fill="white">Ontologie RDFS</text>
</g>
<g id="clust2" class="cluster"><title>cluster_UniProt</title>
<polygon fill="none" stroke="white" points="30.7164,-286.912 30.7164,-477.368 208.716,-477.368 208.716,-286.912 30.7164,-286.912"/>
<text text-anchor="middle" x="119.716" y="-294.712" font-family="Times,serif" font-size="14.00" fill="white">Ontologie d&#39;UniProt</text>
</g>
<g id="clust3" class="cluster"><title>cluster_GO</title>
<polygon fill="none" stroke="white" points="389.716,-164 389.716,-484.823 975.716,-484.823 975.716,-164 389.716,-164"/>
<text text-anchor="middle" x="682.716" y="-171.8" font-family="Times,serif" font-size="14.00" fill="white">Gene Ontology</text>
</g>
<g id="clust5" class="cluster"><title>cluster_onto</title>
<polygon fill="none" stroke="white" points="1052.72,-286.912 1052.72,-477.368 1330.72,-477.368 1330.72,-286.912 1052.72,-286.912"/>
<text text-anchor="middle" x="1191.72" y="-294.712" font-family="Times,serif" font-size="14.00" fill="white">Ontologie d&#39;AskOmics</text>
</g>
<!-- Property -->
<g id="node1" class="node"><title>Property</title>
<ellipse fill="none" stroke="#cc9999" cx="298.716" cy="-451.368" rx="64.9885" ry="18"/>
<text text-anchor="start" x="256.716" y="-448.668" font-family="Times,serif" font-size="14.00" fill="white"> </text>
<text text-anchor="start" x="260.716" y="-448.668" font-family="Times,serif" font-size="14.00" fill="#cc9999">rdfs:Property</text>
<text text-anchor="start" x="336.716" y="-448.668" font-family="Times,serif" font-size="14.00" fill="white"> </text>
</g>
<!-- Class -->
<g id="node2" class="node"><title>Class</title>
<ellipse fill="none" stroke="#cc9999" cx="319.716" cy="-545.823" rx="51.9908" ry="18"/>
<text text-anchor="start" x="287.716" y="-543.123" font-family="Times,serif" font-size="14.00" fill="white"> </text>
<text text-anchor="start" x="291.716" y="-543.123" font-family="Times,serif" font-size="14.00" fill="#cc9999">rdfs:Class</text>
<text text-anchor="start" x="347.716" y="-543.123" font-family="Times,serif" font-size="14.00" fill="white"> </text>
</g>
<!-- Property&#45;&gt;Class -->
<g id="edge1" class="edge"><title>Property&#45;&gt;Class</title>
<path fill="none" stroke="#cc9999" d="M302.666,-469.758C305.736,-483.273 310.05,-502.264 313.57,-517.762"/>
<polygon fill="#cc9999" stroke="#cc9999" points="310.227,-518.847 315.855,-527.823 317.053,-517.297 310.227,-518.847"/>
<text text-anchor="start" x="311.716" y="-499.623" font-family="Times,serif" font-size="14.00" fill="white"> </text>
<text text-anchor="start" x="315.716" y="-499.623" font-family="Times,serif" font-size="14.00" fill="#cc9999">rdf:type</text>
<text text-anchor="start" x="361.716" y="-499.623" font-family="Times,serif" font-size="14.00" fill="white"> </text>
</g>
<!-- Property&#45;&gt;Class -->
<g id="edge11" class="edge"><title>Property&#45;&gt;Class</title>
<path fill="none" stroke="#cc9999" d="M271.541,-467.993C256.012,-479.036 241.33,-494.538 250.716,-509.823 255.672,-517.893 263.131,-524.173 271.338,-529.036"/>
<polygon fill="#cc9999" stroke="#cc9999" points="269.968,-532.268 280.456,-533.775 273.197,-526.057 269.968,-532.268"/>
<text text-anchor="start" x="250.716" y="-499.623" font-family="Times,serif" font-size="14.00" fill="white"> </text>
<text text-anchor="start" x="254.716" y="-499.623" font-family="Times,serif" font-size="14.00" fill="#cc9999">rdf:type</text>
<text text-anchor="start" x="300.716" y="-499.623" font-family="Times,serif" font-size="14.00" fill="white"> </text>
</g>
<!-- X1XMA5 -->
<g id="node3" class="node"><title>X1XMA5</title>
<ellipse fill="none" stroke="white" cx="623.716" cy="-105" rx="66.0889" ry="18"/>
<text text-anchor="start" x="580.716" y="-101.3" font-family="Times,serif" font-size="14.00" fill="white"> up:X1XMA5 </text>
</g>
<!-- Protein -->
<g id="node4" class="node"><title>Protein</title>
<ellipse fill="none" stroke="#cc9999" cx="145.716" cy="-451.368" rx="55.4913" ry="18"/>
<text text-anchor="start" x="111.216" y="-448.668" font-family="Times,serif" font-size="14.00" fill="white"> </text>
<text text-anchor="start" x="115.216" y="-448.668" font-family="Times,serif" font-size="14.00" fill="#cc9999">up:Protein</text>
<text text-anchor="start" x="176.216" y="-448.668" font-family="Times,serif" font-size="14.00" fill="white"> </text>
</g>
<!-- X1XMA5&#45;&gt;Protein -->
<g id="edge2" class="edge"><title>X1XMA5&#45;&gt;Protein</title>
<path fill="none" stroke="#cc9999" d="M558.201,-107.797C506.583,-112.309 435.297,-125.745 385.716,-164 345.753,-194.835 351.047,-217.284 331.716,-263.912 308.541,-319.814 339.39,-355.848 292.716,-394.368 278.937,-405.74 229.433,-396.063 212.716,-402.368 197.487,-408.111 182.564,-418.228 170.681,-427.697"/>
<polygon fill="#cc9999" stroke="#cc9999" points="168.438,-425.01 162.974,-434.087 172.906,-430.399 168.438,-425.01"/>
<text text-anchor="start" x="331.716" y="-268.712" font-family="Times,serif" font-size="14.00" fill="white"> </text>
<text text-anchor="start" x="335.716" y="-268.712" font-family="Times,serif" font-size="14.00" fill="#cc9999">rdf:type</text>
<text text-anchor="start" x="381.716" y="-268.712" font-family="Times,serif" font-size="14.00" fill="white"> </text>
</g>
<!-- 0042131 -->
<g id="node5" class="node"><title>0042131</title>
<ellipse fill="none" stroke="#cc9999" cx="623.716" cy="-220.456" rx="178.382" ry="25.4118"/>
<text text-anchor="start" x="585.716" y="-224.256" font-family="Times,serif" font-size="14.00" fill="white"> </text>
<text text-anchor="start" x="589.716" y="-224.256" font-family="Times,serif" font-size="14.00" fill="#cc9999">go:0042131</text>
<text text-anchor="start" x="505.716" y="-210.256" font-family="Times,serif" font-size="14.00" fill="#cc9999">thiamine phosphate phosphatase activity</text>
<text text-anchor="start" x="737.716" y="-210.256" font-family="Times,serif" font-size="14.00" fill="white"> </text>
</g>
<!-- X1XMA5&#45;&gt;0042131 -->
<g id="edge3" class="edge"><title>X1XMA5&#45;&gt;0042131</title>
<path fill="none" stroke="white" d="M623.716,-123.232C623.716,-139.49 623.716,-164.342 623.716,-184.717"/>
<polygon fill="white" stroke="white" points="620.216,-184.894 623.716,-194.894 627.216,-184.894 620.216,-184.894"/>
<text text-anchor="middle" x="673.716" y="-144.8" font-family="Times,serif" font-size="14.00" fill="white">up:classifiedWith</text>
</g>
<!-- Protein&#45;&gt;Class -->
<g id="edge4" class="edge"><title>Protein&#45;&gt;Class</title>
<path fill="none" stroke="#cc9999" d="M154.802,-469.147C162.661,-482.112 175.195,-499.528 190.716,-509.823 211.698,-523.74 238.067,-532.148 261.488,-537.216"/>
<polygon fill="#cc9999" stroke="#cc9999" points="260.827,-540.653 271.32,-539.189 262.205,-533.79 260.827,-540.653"/>
<text text-anchor="start" x="190.716" y="-499.623" font-family="Times,serif" font-size="14.00" fill="white"> </text>
<text text-anchor="start" x="194.716" y="-499.623" font-family="Times,serif" font-size="14.00" fill="#cc9999">rdf:type</text>
<text text-anchor="start" x="240.716" y="-499.623" font-family="Times,serif" font-size="14.00" fill="white"> </text>
</g>
<!-- 0042131&#45;&gt;0042131 -->
<g id="edge13" class="edge"><title>0042131&#45;&gt;0042131</title>
<path fill="none" stroke="#cc9999" stroke-dasharray="5,2" d="M794.247,-212.973C809.988,-214.519 819.907,-217.013 819.907,-220.456 819.907,-223.091 814.093,-225.171 804.303,-226.695"/>
<polygon fill="#cc9999" stroke="#cc9999" points="803.741,-223.238 794.247,-227.939 804.601,-230.185 803.741,-223.238"/>
<text text-anchor="start" x="819.907" y="-217.756" font-family="Times,serif" font-size="14.00" fill="white"> </text>
<text text-anchor="start" x="823.907" y="-217.756" font-family="Times,serif" font-size="14.00" fill="#cc9999">rdfs:subClassOf</text>
<text text-anchor="start" x="914.907" y="-217.756" font-family="Times,serif" font-size="14.00" fill="white"> </text>
</g>
<!-- 0003993 -->
<g id="node7" class="node"><title>0003993</title>
<ellipse fill="none" stroke="#cc9999" cx="691.716" cy="-335.912" rx="159.198" ry="25.4118"/>
<text text-anchor="start" x="653.716" y="-339.712" font-family="Times,serif" font-size="14.00" fill="white"> </text>
<text text-anchor="start" x="657.716" y="-339.712" font-family="Times,serif" font-size="14.00" fill="#cc9999">go:0003993</text>
<text text-anchor="start" x="587.216" y="-325.712" font-family="Times,serif" font-size="14.00" fill="#cc9999">acid phosphate phosphatase activity</text>
<text text-anchor="start" x="792.216" y="-325.712" font-family="Times,serif" font-size="14.00" fill="white"> </text>
</g>
<!-- 0042131&#45;&gt;0003993 -->
<g id="edge9" class="edge"><title>0042131&#45;&gt;0003993</title>
<path fill="none" stroke="#cc9999" d="M638.471,-246.074C648.184,-262.28 661.021,-283.698 671.657,-301.444"/>
<polygon fill="#cc9999" stroke="#cc9999" points="668.847,-303.563 676.99,-310.342 674.851,-299.965 668.847,-303.563"/>
<text text-anchor="start" x="657.716" y="-268.712" font-family="Times,serif" font-size="14.00" fill="white"> </text>
<text text-anchor="start" x="661.716" y="-268.712" font-family="Times,serif" font-size="14.00" fill="#cc9999">rdfs:subClassOf</text>
<text text-anchor="start" x="752.716" y="-268.712" font-family="Times,serif" font-size="14.00" fill="white"> </text>
</g>
<!-- 0042578 -->
<g id="node8" class="node"><title>0042578</title>
<ellipse fill="none" stroke="#cc9999" cx="537.716" cy="-451.368" rx="140.014" ry="25.4118"/>
<text text-anchor="start" x="499.716" y="-455.168" font-family="Times,serif" font-size="14.00" fill="white"> </text>
<text text-anchor="start" x="503.716" y="-455.168" font-family="Times,serif" font-size="14.00" fill="#cc9999">go:0042578</text>
<text text-anchor="start" x="446.716" y="-441.168" font-family="Times,serif" font-size="14.00" fill="#cc9999">phosphate phosphatase activity</text>
<text text-anchor="start" x="624.716" y="-441.168" font-family="Times,serif" font-size="14.00" fill="white"> </text>
</g>
<!-- 0042131&#45;&gt;0042578 -->
<g id="edge12" class="edge"><title>0042131&#45;&gt;0042578</title>
<path fill="none" stroke="#cc9999" stroke-dasharray="5,2" d="M495.318,-238.217C467.768,-248.016 441.829,-263.268 424.716,-286.912 405.314,-313.718 410.268,-331.597 424.716,-361.368 437.043,-386.767 460.521,-407.091 482.897,-421.868"/>
<polygon fill="#cc9999" stroke="#cc9999" points="481.074,-424.856 491.393,-427.258 484.825,-418.945 481.074,-424.856"/>
<text text-anchor="start" x="424.716" y="-333.212" font-family="Times,serif" font-size="14.00" fill="white"> </text>
<text text-anchor="start" x="428.716" y="-333.212" font-family="Times,serif" font-size="14.00" fill="#cc9999">rdfs:subClassOf</text>
<text text-anchor="start" x="519.716" y="-333.212" font-family="Times,serif" font-size="14.00" fill="white"> </text>
</g>
<!-- classifiedWith -->
<g id="node6" class="node"><title>classifiedWith</title>
<ellipse fill="none" stroke="#9999cc" cx="119.716" cy="-335.912" rx="80.6858" ry="18"/>
<text text-anchor="start" x="65.7164" y="-333.212" font-family="Times,serif" font-size="14.00" fill="white"> </text>
<text text-anchor="start" x="69.7164" y="-333.212" font-family="Times,serif" font-size="14.00" fill="#9999cc">up:classifiedWith</text>
<text text-anchor="start" x="169.716" y="-333.212" font-family="Times,serif" font-size="14.00" fill="white"> </text>
</g>
<!-- classifiedWith&#45;&gt;Property -->
<g id="edge7" class="edge"><title>classifiedWith&#45;&gt;Property</title>
<path fill="none" stroke="#cc9999" d="M159.348,-351.687C176.896,-358.962 197.432,-368.507 214.716,-379.368 236.531,-393.074 258.684,-412.055 274.759,-426.943"/>
<polygon fill="#cc9999" stroke="#cc9999" points="272.453,-429.578 282.134,-433.881 277.249,-424.48 272.453,-429.578"/>
<text text-anchor="start" x="234.716" y="-384.168" font-family="Times,serif" font-size="14.00" fill="white"> </text>
<text text-anchor="start" x="238.716" y="-384.168" font-family="Times,serif" font-size="14.00" fill="#cc9999">rdf:type</text>
<text text-anchor="start" x="284.716" y="-384.168" font-family="Times,serif" font-size="14.00" fill="white"> </text>
</g>
<!-- classifiedWith&#45;&gt;Class -->
<g id="edge5" class="edge"><title>classifiedWith&#45;&gt;Class</title>
<path fill="none" stroke="#9999cc" d="M78.148,-351.468C55.3237,-361.843 29.0198,-378.276 15.7164,-402.368 -1.99851,-434.448 -7.55329,-456.512 15.7164,-484.823 45.792,-521.415 178.332,-536.056 258.143,-541.631"/>
<polygon fill="#9999cc" stroke="#9999cc" points="258.348,-545.152 268.56,-542.328 258.816,-538.168 258.348,-545.152"/>
<text text-anchor="start" x="15.7164" y="-448.668" font-family="Times,serif" font-size="14.00" fill="white"> </text>
<text text-anchor="start" x="19.7164" y="-448.668" font-family="Times,serif" font-size="14.00" fill="#9999cc">rdfs:range</text>
<text text-anchor="start" x="77.7164" y="-448.668" font-family="Times,serif" font-size="14.00" fill="white"> </text>
</g>
<!-- classifiedWith&#45;&gt;Protein -->
<g id="edge6" class="edge"><title>classifiedWith&#45;&gt;Protein</title>
<path fill="none" stroke="#9999cc" d="M123.665,-354.143C127.889,-372.576 134.644,-402.052 139.566,-423.529"/>
<polygon fill="#9999cc" stroke="#9999cc" points="136.17,-424.38 141.816,-433.346 142.993,-422.816 136.17,-424.38"/>
<text text-anchor="start" x="132.716" y="-384.168" font-family="Times,serif" font-size="14.00" fill="white"> </text>
<text text-anchor="start" x="136.716" y="-384.168" font-family="Times,serif" font-size="14.00" fill="#9999cc">rdfs:domain</text>
<text text-anchor="start" x="206.716" y="-384.168" font-family="Times,serif" font-size="14.00" fill="white"> </text>
</g>
<!-- 0003993&#45;&gt;0003993 -->
<g id="edge14" class="edge"><title>0003993&#45;&gt;0003993</title>
<path fill="none" stroke="#cc9999" stroke-dasharray="5,2" d="M843.497,-328.205C858.95,-329.73 868.815,-332.298 868.815,-335.912 868.815,-338.65 863.15,-340.788 853.681,-342.327"/>
<polygon fill="#cc9999" stroke="#cc9999" points="852.977,-338.888 843.497,-343.618 853.858,-345.832 852.977,-338.888"/>
<text text-anchor="start" x="868.815" y="-333.212" font-family="Times,serif" font-size="14.00" fill="white"> </text>
<text text-anchor="start" x="872.815" y="-333.212" font-family="Times,serif" font-size="14.00" fill="#cc9999">rdfs:subClassOf</text>
<text text-anchor="start" x="963.815" y="-333.212" font-family="Times,serif" font-size="14.00" fill="white"> </text>
</g>
<!-- 0003993&#45;&gt;0042578 -->
<g id="edge10" class="edge"><title>0003993&#45;&gt;0042578</title>
<path fill="none" stroke="#cc9999" d="M659.057,-360.973C635.498,-378.33 603.537,-401.876 578.332,-420.445"/>
<polygon fill="#cc9999" stroke="#cc9999" points="576.039,-417.787 570.064,-426.536 580.191,-423.422 576.039,-417.787"/>
<text text-anchor="start" x="633.716" y="-384.168" font-family="Times,serif" font-size="14.00" fill="white"> </text>
<text text-anchor="start" x="637.716" y="-384.168" font-family="Times,serif" font-size="14.00" fill="#cc9999">rdfs:subClassOf</text>
<text text-anchor="start" x="728.716" y="-384.168" font-family="Times,serif" font-size="14.00" fill="white"> </text>
</g>
<!-- 0042578&#45;&gt;Class -->
<g id="edge8" class="edge"><title>0042578&#45;&gt;Class</title>
<path fill="none" stroke="#cc9999" d="M484.388,-474.985C446.25,-491.159 395.683,-512.605 360.694,-527.444"/>
<polygon fill="#cc9999" stroke="#cc9999" points="359.101,-524.318 351.262,-531.445 361.835,-530.762 359.101,-524.318"/>
<text text-anchor="start" x="435.716" y="-499.623" font-family="Times,serif" font-size="14.00" fill="white"> </text>
<text text-anchor="start" x="439.716" y="-499.623" font-family="Times,serif" font-size="14.00" fill="#cc9999">rdf:type</text>
<text text-anchor="start" x="485.716" y="-499.623" font-family="Times,serif" font-size="14.00" fill="white"> </text>
</g>
<!-- 0042578&#45;&gt;0042578 -->
<g id="edge15" class="edge"><title>0042578&#45;&gt;0042578</title>
<path fill="none" stroke="#cc9999" stroke-dasharray="5,2" d="M670.856,-443.423C685.945,-444.911 695.724,-447.559 695.724,-451.368 695.724,-454.254 690.108,-456.474 680.821,-458.027"/>
<polygon fill="#cc9999" stroke="#cc9999" points="680.326,-454.562 670.856,-459.312 681.221,-461.504 680.326,-454.562"/>
<text text-anchor="start" x="695.724" y="-448.668" font-family="Times,serif" font-size="14.00" fill="white"> </text>
<text text-anchor="start" x="699.724" y="-448.668" font-family="Times,serif" font-size="14.00" fill="#cc9999">rdfs:subClassOf</text>
<text text-anchor="start" x="790.724" y="-448.668" font-family="Times,serif" font-size="14.00" fill="white"> </text>
</g>
<!-- mRNA -->
<g id="node9" class="node"><title>mRNA</title>
<ellipse fill="none" stroke="#cc9999" cx="1242.72" cy="-451.368" rx="45.4919" ry="18"/>
<text text-anchor="start" x="1215.72" y="-448.668" font-family="Times,serif" font-size="14.00" fill="white"> </text>
<text text-anchor="start" x="1219.72" y="-448.668" font-family="Times,serif" font-size="14.00" fill="#cc9999">:mRNA</text>
<text text-anchor="start" x="1265.72" y="-448.668" font-family="Times,serif" font-size="14.00" fill="white"> </text>
</g>
<!-- mRNA&#45;&gt;Class -->
<g id="edge16" class="edge"><title>mRNA&#45;&gt;Class</title>
<path fill="none" stroke="#cc9999" d="M1212.74,-465.139C1195.71,-471.924 1173.84,-479.864 1153.72,-484.823 1072.73,-504.784 1050.76,-502.012 967.716,-509.823 752.945,-530.025 496.949,-539.587 381.539,-543.124"/>
<polygon fill="#cc9999" stroke="#cc9999" points="381.368,-539.627 371.478,-543.428 381.579,-546.624 381.368,-539.627"/>
<text text-anchor="start" x="1107.72" y="-499.623" font-family="Times,serif" font-size="14.00" fill="white"> </text>
<text text-anchor="start" x="1111.72" y="-499.623" font-family="Times,serif" font-size="14.00" fill="#cc9999">rdf:type</text>
<text text-anchor="start" x="1157.72" y="-499.623" font-family="Times,serif" font-size="14.00" fill="white"> </text>
</g>
<!-- diminution -->
<g id="node10" class="node"><title>diminution</title>
<ellipse fill="none" stroke="white" cx="1256.72" cy="-335.912" rx="59.5901" ry="18"/>
<text text-anchor="start" x="1218.72" y="-332.212" font-family="Times,serif" font-size="14.00" fill="white"> :diminution </text>
</g>
<!-- cinetic -->
<g id="node11" class="node"><title>cinetic</title>
<ellipse fill="none" stroke="#cc9999" cx="1102.72" cy="-451.368" rx="42.4939" ry="18"/>
<text text-anchor="start" x="1078.22" y="-448.668" font-family="Times,serif" font-size="14.00" fill="white"> </text>
<text text-anchor="start" x="1082.22" y="-448.668" font-family="Times,serif" font-size="14.00" fill="#cc9999">:cinetic</text>
<text text-anchor="start" x="1123.22" y="-448.668" font-family="Times,serif" font-size="14.00" fill="white"> </text>
</g>
<!-- diminution&#45;&gt;cinetic -->
<g id="edge17" class="edge"><title>diminution&#45;&gt;cinetic</title>
<path fill="none" stroke="#cc9999" d="M1258.65,-353.933C1259.11,-366.857 1257.35,-384.101 1246.72,-394.368 1237.36,-403.404 1201.05,-398.237 1188.72,-402.368 1169.06,-408.947 1148.74,-420.057 1132.79,-429.932"/>
<polygon fill="#cc9999" stroke="#cc9999" points="1130.5,-427.24 1123.94,-435.56 1134.26,-433.147 1130.5,-427.24"/>
<text text-anchor="start" x="1255.72" y="-384.168" font-family="Times,serif" font-size="14.00" fill="white"> </text>
<text text-anchor="start" x="1259.72" y="-384.168" font-family="Times,serif" font-size="14.00" fill="#cc9999">rdf:type</text>
<text text-anchor="start" x="1305.72" y="-384.168" font-family="Times,serif" font-size="14.00" fill="white"> </text>
</g>
<!-- cinetic&#45;&gt;Class -->
<g id="edge18" class="edge"><title>cinetic&#45;&gt;Class</title>
<path fill="none" stroke="#cc9999" d="M1069.64,-462.708C1045.07,-469.993 1010.6,-479.384 979.716,-484.823 761.931,-523.178 499.142,-537.761 381.683,-542.648"/>
<polygon fill="#cc9999" stroke="#cc9999" points="381.3,-539.16 371.451,-543.064 381.585,-546.154 381.3,-539.16"/>
<text text-anchor="start" x="909.716" y="-499.623" font-family="Times,serif" font-size="14.00" fill="white"> </text>
<text text-anchor="start" x="913.716" y="-499.623" font-family="Times,serif" font-size="14.00" fill="#cc9999">rdf:type</text>
<text text-anchor="start" x="959.716" y="-499.623" font-family="Times,serif" font-size="14.00" fill="white"> </text>
</g>
<!-- has_cinetic -->
<g id="node12" class="node"><title>has_cinetic</title>
<ellipse fill="none" stroke="#9999cc" cx="1119.72" cy="-335.912" rx="59.2899" ry="18"/>
<text text-anchor="start" x="1082.22" y="-333.212" font-family="Times,serif" font-size="14.00" fill="white"> </text>
<text text-anchor="start" x="1086.22" y="-333.212" font-family="Times,serif" font-size="14.00" fill="#9999cc">:has_cinetic</text>
<text text-anchor="start" x="1153.22" y="-333.212" font-family="Times,serif" font-size="14.00" fill="white"> </text>
</g>
<!-- has_cinetic&#45;&gt;Property -->
<g id="edge21" class="edge"><title>has_cinetic&#45;&gt;Property</title>
<path fill="none" stroke="#cc9999" d="M1086.52,-350.9C1046.9,-367.541 985.267,-393.234 979.716,-394.368 915.045,-407.575 449.524,-385.474 385.716,-402.368 365.596,-407.695 345.116,-418.663 329.084,-428.771"/>
<polygon fill="#cc9999" stroke="#cc9999" points="327.133,-425.865 320.666,-434.257 330.955,-431.73 327.133,-425.865"/>
<text text-anchor="start" x="1017.72" y="-384.168" font-family="Times,serif" font-size="14.00" fill="white"> </text>
<text text-anchor="start" x="1021.72" y="-384.168" font-family="Times,serif" font-size="14.00" fill="#cc9999">rdf:type</text>
<text text-anchor="start" x="1067.72" y="-384.168" font-family="Times,serif" font-size="14.00" fill="white"> </text>
</g>
<!-- has_cinetic&#45;&gt;mRNA -->
<g id="edge20" class="edge"><title>has_cinetic&#45;&gt;mRNA</title>
<path fill="none" stroke="#9999cc" d="M1132.36,-353.599C1141.77,-365.542 1155.27,-381.683 1168.72,-394.368 1182.21,-407.093 1198.53,-419.697 1212.4,-429.716"/>
<polygon fill="#9999cc" stroke="#9999cc" points="1210.5,-432.658 1220.68,-435.597 1214.56,-426.952 1210.5,-432.658"/>
<text text-anchor="start" x="1168.72" y="-384.168" font-family="Times,serif" font-size="14.00" fill="white"> </text>
<text text-anchor="start" x="1172.72" y="-384.168" font-family="Times,serif" font-size="14.00" fill="#9999cc">rdfs:domain</text>
<text text-anchor="start" x="1242.72" y="-384.168" font-family="Times,serif" font-size="14.00" fill="white"> </text>
</g>
<!-- has_cinetic&#45;&gt;cinetic -->
<g id="edge19" class="edge"><title>has_cinetic&#45;&gt;cinetic</title>
<path fill="none" stroke="#9999cc" d="M1099.11,-352.881C1091.5,-360.057 1083.75,-369.202 1079.72,-379.368 1073.81,-394.241 1078.96,-411.288 1085.87,-424.949"/>
<polygon fill="#9999cc" stroke="#9999cc" points="1082.88,-426.779 1090.82,-433.798 1088.99,-423.362 1082.88,-426.779"/>
<text text-anchor="start" x="1079.72" y="-384.168" font-family="Times,serif" font-size="14.00" fill="white"> </text>
<text text-anchor="start" x="1083.72" y="-384.168" font-family="Times,serif" font-size="14.00" fill="#9999cc">rdfs:range</text>
<text text-anchor="start" x="1141.72" y="-384.168" font-family="Times,serif" font-size="14.00" fill="white"> </text>
</g>
<!-- ACYPI087140 -->
<g id="node13" class="node"><title>ACYPI087140</title>
<ellipse fill="none" stroke="white" cx="1254.72" cy="-18" rx="91.784" ry="18"/>
<text text-anchor="start" x="1192.22" y="-14.3" font-family="Times,serif" font-size="14.00" fill="white"> :ACYPI087140&#45;RA </text>
</g>
<!-- ACYPI087140&#45;&gt;X1XMA5 -->
<g id="edge24" class="edge"><title>ACYPI087140&#45;&gt;X1XMA5</title>
<path fill="none" stroke="white" d="M1181.41,-28.8752C1058.18,-45.4746 811.303,-78.7308 691.728,-94.8384"/>
<polygon fill="white" stroke="white" points="691.046,-91.3985 681.603,-96.2023 691.981,-98.3358 691.046,-91.3985"/>
<text text-anchor="start" x="977.716" y="-57.8" font-family="Times,serif" font-size="14.00" fill="white"> rdfs:seeAlso </text>
</g>
<!-- ACYPI087140&#45;&gt;mRNA -->
<g id="edge23" class="edge"><title>ACYPI087140&#45;&gt;mRNA</title>
<path fill="none" stroke="#cc9999" d="M1289.51,-34.78C1314.84,-48.9109 1344.72,-72.2992 1344.72,-104 1344.72,-104 1344.72,-104 1344.72,-336.912 1344.72,-378.376 1306.57,-411.555 1276.94,-431.076"/>
<polygon fill="#cc9999" stroke="#cc9999" points="1275.03,-428.143 1268.46,-436.453 1278.78,-434.056 1275.03,-428.143"/>
<text text-anchor="start" x="1344.72" y="-217.756" font-family="Times,serif" font-size="14.00" fill="white"> </text>
<text text-anchor="start" x="1348.72" y="-217.756" font-family="Times,serif" font-size="14.00" fill="#cc9999">rdf:type</text>
<text text-anchor="start" x="1394.72" y="-217.756" font-family="Times,serif" font-size="14.00" fill="white"> </text>
</g>
<!-- ACYPI087140&#45;&gt;diminution -->
<g id="edge22" class="edge"><title>ACYPI087140&#45;&gt;diminution</title>
<path fill="none" stroke="white" d="M1254.83,-36.4348C1255.16,-88.6469 1256.14,-244.048 1256.54,-307.483"/>
<polygon fill="white" stroke="white" points="1253.04,-307.553 1256.61,-317.531 1260.04,-307.509 1253.04,-307.553"/>
<text text-anchor="start" x="1255.72" y="-144.8" font-family="Times,serif" font-size="14.00" fill="white"> :has_cinetic </text>
</g>
<!-- ACYPI004799 -->
<g id="node14" class="node"><title>ACYPI004799</title>
<ellipse fill="none" stroke="white" cx="1464.72" cy="-335.912" rx="91.784" ry="18"/>
<text text-anchor="start" x="1402.22" y="-332.212" font-family="Times,serif" font-size="14.00" fill="white"> :ACYPI004799&#45;RA </text>
</g>
<!-- ACYPI004799&#45;&gt;mRNA -->
<g id="edge26" class="edge"><title>ACYPI004799&#45;&gt;mRNA</title>
<path fill="none" stroke="#cc9999" d="M1435.67,-353.135C1414.48,-364.852 1384.99,-380.916 1358.72,-394.368 1332.77,-407.656 1303.16,-421.933 1280.35,-432.746"/>
<polygon fill="#cc9999" stroke="#cc9999" points="1278.57,-429.718 1271.03,-437.155 1281.56,-436.046 1278.57,-429.718"/>
<text text-anchor="start" x="1385.72" y="-384.168" font-family="Times,serif" font-size="14.00" fill="white"> </text>
<text text-anchor="start" x="1389.72" y="-384.168" font-family="Times,serif" font-size="14.00" fill="#cc9999">rdf:type</text>
<text text-anchor="start" x="1435.72" y="-384.168" font-family="Times,serif" font-size="14.00" fill="white"> </text>
</g>
<!-- 2.1^^xsd:decimal -->
<g id="node15" class="node"><title>2.1^^xsd:decimal</title>
<polygon fill="none" stroke="#99cc99" points="1527.22,-469.368 1402.22,-469.368 1402.22,-433.368 1527.22,-433.368 1527.22,-469.368"/>
<text text-anchor="start" x="1410.22" y="-448.668" font-family="Times,serif" font-size="14.00" fill="white"> </text>
<text text-anchor="start" x="1414.22" y="-448.668" font-family="Times,serif" font-size="14.00" fill="#99cc99">2.1^^xsd:decimal</text>
<text text-anchor="start" x="1515.22" y="-448.668" font-family="Times,serif" font-size="14.00" fill="white"> </text>
</g>
<!-- ACYPI004799&#45;&gt;2.1^^xsd:decimal -->
<g id="edge25" class="edge"><title>ACYPI004799&#45;&gt;2.1^^xsd:decimal</title>
<path fill="none" stroke="#99cc99" d="M1464.72,-354.143C1464.72,-372.492 1464.72,-401.785 1464.72,-423.235"/>
<polygon fill="#99cc99" stroke="#99cc99" points="1461.22,-423.346 1464.72,-433.346 1468.22,-423.346 1461.22,-423.346"/>
<text text-anchor="start" x="1464.72" y="-384.168" font-family="Times,serif" font-size="14.00" fill="white"> </text>
<text text-anchor="start" x="1468.72" y="-384.168" font-family="Times,serif" font-size="14.00" fill="#99cc99">:has_foldChange</text>
<text text-anchor="start" x="1566.72" y="-384.168" font-family="Times,serif" font-size="14.00" fill="white"> </text>
</g>
</g>
</svg>
