<?xml version="1.0" encoding="UTF-8" standalone="no"?>
<!DOCTYPE svg PUBLIC "-//W3C//DTD SVG 1.1//EN"
 "http://www.w3.org/Graphics/SVG/1.1/DTD/svg11.dtd">
<!-- Generated by graphviz version 2.38.0 (20140413.2041)
 -->
<!-- Title: %3 Pages: 1 -->
<svg width="428pt" height="131pt"
 viewBox="0.00 0.00 427.64 131.00" xmlns="http://www.w3.org/2000/svg" xmlns:xlink="http://www.w3.org/1999/xlink">
<g id="graph0" class="graph" transform="scale(1 1) rotate(0) translate(4 127)">
<title>%3</title>
<!-- ACYPI087140 -->
<g id="node1" class="node"><title>ACYPI087140</title>
<ellipse fill="none" stroke="white" cx="91.6419" cy="-105" rx="91.784" ry="18"/>
<text text-anchor="start" x="29.1419" y="-101.3" font-family="Times,serif" font-size="14.00" fill="white"> :ACYPI087140&#45;RA </text>
</g>
<!-- diminution -->
<g id="node2" class="node"><title>diminution</title>
<ellipse fill="none" stroke="white" cx="66.6419" cy="-18" rx="59.5901" ry="18"/>
<text text-anchor="start" x="28.6419" y="-14.3" font-family="Times,serif" font-size="14.00" fill="white"> :diminution </text>
</g>
<!-- ACYPI087140&#45;&gt;diminution -->
<g id="edge1" class="edge"><title>ACYPI087140&#45;&gt;diminution</title>
<path fill="none" stroke="white" d="M77.011,-86.9003C73.2359,-81.5141 69.6681,-75.3138 67.6419,-69 65.3337,-61.8077 64.4789,-53.7292 64.3562,-46.1976"/>
<polygon fill="white" stroke="white" points="67.8583,-46.1434 64.595,-36.0637 60.8603,-45.9784 67.8583,-46.1434"/>
<text text-anchor="start" x="67.6419" y="-58.8" font-family="Times,serif" font-size="14.00" fill="white"> </text>
<text text-anchor="start" x="71.6419" y="-58.8" font-family="Times,serif" font-size="14.00" fill="#9999cc">:has_cinetic</text>
<text text-anchor="start" x="138.642" y="-58.8" font-family="Times,serif" font-size="14.00" fill="white"> </text>
</g>
<!-- mRNA -->
<g id="node3" class="node"><title>mRNA</title>
<ellipse fill="none" stroke="#cc9999" cx="190.642" cy="-18" rx="45.4919" ry="18"/>
<text text-anchor="start" x="163.642" y="-15.3" font-family="Times,serif" font-size="14.00" fill="white"> </text>
<text text-anchor="start" x="167.642" y="-15.3" font-family="Times,serif" font-size="14.00" fill="#cc9999">:mRNA</text>
<text text-anchor="start" x="213.642" y="-15.3" font-family="Times,serif" font-size="14.00" fill="white"> </text>
</g>
<!-- ACYPI087140&#45;&gt;mRNA -->
<g id="edge2" class="edge"><title>ACYPI087140&#45;&gt;mRNA</title>
<path fill="none" stroke="#cc9999" d="M117.555,-87.7142C125.834,-82.1219 134.863,-75.6004 142.642,-69 152.055,-61.0128 161.633,-51.3971 169.731,-42.741"/>
<polygon fill="#cc9999" stroke="#cc9999" points="172.526,-44.8714 176.705,-35.1356 167.367,-40.1404 172.526,-44.8714"/>
<text text-anchor="start" x="158.642" y="-58.8" font-family="Times,serif" font-size="14.00" fill="white"> </text>
<text text-anchor="start" x="162.642" y="-58.8" font-family="Times,serif" font-size="14.00" fill="#cc9999">rdf:type</text>
<text text-anchor="start" x="208.642" y="-58.8" font-family="Times,serif" font-size="14.00" fill="white"> </text>
</g>
<!-- ACYPI004799 -->
<g id="node4" class="node"><title>ACYPI004799</title>
<ellipse fill="none" stroke="white" cx="305.642" cy="-105" rx="91.784" ry="18"/>
<text text-anchor="start" x="243.142" y="-101.3" font-family="Times,serif" font-size="14.00" fill="white"> :ACYPI004799&#45;RA </text>
</g>
<!-- ACYPI004799&#45;&gt;mRNA -->
<g id="edge4" class="edge"><title>ACYPI004799&#45;&gt;mRNA</title>
<path fill="none" stroke="#cc9999" d="M280.504,-87.6564C271.886,-81.9021 262.249,-75.2971 253.642,-69 241.518,-60.1301 228.459,-49.8854 217.391,-40.9877"/>
<polygon fill="#cc9999" stroke="#cc9999" points="219.339,-38.0617 209.364,-34.4912 214.935,-43.503 219.339,-38.0617"/>
<text text-anchor="start" x="253.642" y="-58.8" font-family="Times,serif" font-size="14.00" fill="white"> </text>
<text text-anchor="start" x="257.642" y="-58.8" font-family="Times,serif" font-size="14.00" fill="#cc9999">rdf:type</text>
<text text-anchor="start" x="303.642" y="-58.8" font-family="Times,serif" font-size="14.00" fill="white"> </text>
</g>
<!-- 2.1^^xsd:decimal -->
<g id="node5" class="node"><title>2.1^^xsd:decimal</title>
<polygon fill="none" stroke="#99cc99" points="381.142,-36 256.142,-36 256.142,-0 381.142,-0 381.142,-36"/>
<text text-anchor="start" x="264.142" y="-15.3" font-family="Times,serif" font-size="14.00" fill="white"> </text>
<text text-anchor="start" x="268.142" y="-15.3" font-family="Times,serif" font-size="14.00" fill="#99cc99">2.1^^xsd:decimal</text>
<text text-anchor="start" x="369.142" y="-15.3" font-family="Times,serif" font-size="14.00" fill="white"> </text>
</g>
<!-- ACYPI004799&#45;&gt;2.1^^xsd:decimal -->
<g id="edge3" class="edge"><title>ACYPI004799&#45;&gt;2.1^^xsd:decimal</title>
<path fill="none" stroke="#99cc99" d="M308.273,-86.799C310.052,-75.1626 312.44,-59.5479 314.476,-46.2368"/>
<polygon fill="#99cc99" stroke="#99cc99" points="317.963,-46.5897 316.015,-36.1754 311.043,-45.5313 317.963,-46.5897"/>
<text text-anchor="start" x="313.642" y="-58.8" font-family="Times,serif" font-size="14.00" fill="white"> </text>
<text text-anchor="start" x="317.642" y="-58.8" font-family="Times,serif" font-size="14.00" fill="#99cc99">:has_foldChange</text>
<text text-anchor="start" x="415.642" y="-58.8" font-family="Times,serif" font-size="14.00" fill="white"> </text>
</g>
</g>
</svg>
