<?xml version="1.0" encoding="utf-8" standalone="no"?>
<!DOCTYPE svg PUBLIC "-//W3C//DTD SVG 1.1//EN"
  "http://www.w3.org/Graphics/SVG/1.1/DTD/svg11.dtd">
<!-- Created with matplotlib (http://matplotlib.org/) -->
<svg height="216pt" version="1.1" viewBox="0 0 360 216" width="360pt" xmlns="http://www.w3.org/2000/svg" xmlns:xlink="http://www.w3.org/1999/xlink">
 <defs>
  <style type="text/css">
*{stroke-linecap:butt;stroke-linejoin:round;stroke-miterlimit:100000;}
  </style>
 </defs>
 <g id="figure_1">
  <g id="patch_1">
   <path d="M 0 216 
L 360 216 
L 360 0 
L 0 0 
L 0 216 
z
" style="fill:none;"/>
  </g>
  <g id="axes_1">
   <g id="patch_2">
    <path d="M 53.311435 187.04 
L 347.04 187.04 
L 347.04 19.520156 
L 53.311435 19.520156 
L 53.311435 187.04 
z
" style="fill:none;"/>
   </g>
   <g id="matplotlib.axis_1">
    <g id="xtick_1">
     <g id="line2d_1">
      <path clip-path="url(#p655340f466)" d="M 90.027505 187.04 
L 90.027505 19.520156 
" style="fill:none;stroke:#ffffff;stroke-linecap:round;"/>
     </g>
     <g id="line2d_2">
      <defs>
       <path d="M 0 0 
L 0 0 
" id="m4d467d3644" style="stroke:#ffffff;"/>
      </defs>
      <g>
       <use style="fill:#ffffff;stroke:#ffffff;" x="90.0275054626" xlink:href="#m4d467d3644" y="187.04"/>
      </g>
     </g>
     <g id="line2d_3">
      <g>
       <use style="fill:#ffffff;stroke:#ffffff;" x="90.0275054626" xlink:href="#m4d467d3644" y="19.52015625"/>
      </g>
     </g>
     <g id="text_1">
      <!-- Intero. Local -->
      <defs>
       <path d="M 3.328125 25.921875 
Q 3.328125 40.328125 11.328125 47.265625 
Q 18.015625 53.03125 27.640625 53.03125 
Q 38.328125 53.03125 45.109375 46.015625 
Q 51.90625 39.015625 51.90625 26.65625 
Q 51.90625 16.65625 48.90625 10.90625 
Q 45.90625 5.171875 40.15625 2 
Q 34.421875 -1.171875 27.640625 -1.171875 
Q 16.75 -1.171875 10.03125 5.8125 
Q 3.328125 12.796875 3.328125 25.921875 
M 12.359375 25.921875 
Q 12.359375 15.96875 16.703125 11.015625 
Q 21.046875 6.0625 27.640625 6.0625 
Q 34.1875 6.0625 38.53125 11.03125 
Q 42.875 16.015625 42.875 26.21875 
Q 42.875 35.84375 38.5 40.796875 
Q 34.125 45.75 27.640625 45.75 
Q 21.046875 45.75 16.703125 40.8125 
Q 12.359375 35.890625 12.359375 25.921875 
" id="ArialMT-6f"/>
       <path d="M 40.4375 6.390625 
Q 35.546875 2.25 31.03125 0.53125 
Q 26.515625 -1.171875 21.34375 -1.171875 
Q 12.796875 -1.171875 8.203125 3 
Q 3.609375 7.171875 3.609375 13.671875 
Q 3.609375 17.484375 5.34375 20.625 
Q 7.078125 23.78125 9.890625 25.6875 
Q 12.703125 27.59375 16.21875 28.5625 
Q 18.796875 29.25 24.03125 29.890625 
Q 34.671875 31.15625 39.703125 32.90625 
Q 39.75 34.71875 39.75 35.203125 
Q 39.75 40.578125 37.25 42.78125 
Q 33.890625 45.75 27.25 45.75 
Q 21.046875 45.75 18.09375 43.578125 
Q 15.140625 41.40625 13.71875 35.890625 
L 5.125 37.0625 
Q 6.296875 42.578125 8.984375 45.96875 
Q 11.671875 49.359375 16.75 51.1875 
Q 21.828125 53.03125 28.515625 53.03125 
Q 35.15625 53.03125 39.296875 51.46875 
Q 43.453125 49.90625 45.40625 47.53125 
Q 47.359375 45.171875 48.140625 41.546875 
Q 48.578125 39.3125 48.578125 33.453125 
L 48.578125 21.734375 
Q 48.578125 9.46875 49.140625 6.21875 
Q 49.703125 2.984375 51.375 0 
L 42.1875 0 
Q 40.828125 2.734375 40.4375 6.390625 
M 39.703125 26.03125 
Q 34.90625 24.078125 25.34375 22.703125 
Q 19.921875 21.921875 17.671875 20.9375 
Q 15.4375 19.96875 14.203125 18.09375 
Q 12.984375 16.21875 12.984375 13.921875 
Q 12.984375 10.40625 15.640625 8.0625 
Q 18.3125 5.71875 23.4375 5.71875 
Q 28.515625 5.71875 32.46875 7.9375 
Q 36.421875 10.15625 38.28125 14.015625 
Q 39.703125 17 39.703125 22.796875 
z
" id="ArialMT-61"/>
       <path d="M 9.328125 0 
L 9.328125 71.578125 
L 18.796875 71.578125 
L 18.796875 0 
z
" id="ArialMT-49"/>
       <path d="M 6.390625 0 
L 6.390625 71.578125 
L 15.1875 71.578125 
L 15.1875 0 
z
" id="ArialMT-6c"/>
       <path d="M 42.09375 16.703125 
L 51.171875 15.578125 
Q 49.03125 7.625 43.21875 3.21875 
Q 37.40625 -1.171875 28.375 -1.171875 
Q 17 -1.171875 10.328125 5.828125 
Q 3.65625 12.84375 3.65625 25.484375 
Q 3.65625 38.578125 10.390625 45.796875 
Q 17.140625 53.03125 27.875 53.03125 
Q 38.28125 53.03125 44.875 45.953125 
Q 51.46875 38.875 51.46875 26.03125 
Q 51.46875 25.25 51.421875 23.6875 
L 12.75 23.6875 
Q 13.234375 15.140625 17.578125 10.59375 
Q 21.921875 6.0625 28.421875 6.0625 
Q 33.25 6.0625 36.671875 8.59375 
Q 40.09375 11.140625 42.09375 16.703125 
M 13.234375 30.90625 
L 42.1875 30.90625 
Q 41.609375 37.453125 38.875 40.71875 
Q 34.671875 45.796875 27.984375 45.796875 
Q 21.921875 45.796875 17.796875 41.75 
Q 13.671875 37.703125 13.234375 30.90625 
" id="ArialMT-65"/>
       <path d="M 9.078125 0 
L 9.078125 10.015625 
L 19.09375 10.015625 
L 19.09375 0 
z
" id="ArialMT-2e"/>
       <path d="M 7.328125 0 
L 7.328125 71.578125 
L 16.796875 71.578125 
L 16.796875 8.453125 
L 52.046875 8.453125 
L 52.046875 0 
z
" id="ArialMT-4c"/>
       <path id="ArialMT-20"/>
       <path d="M 6.5 0 
L 6.5 51.859375 
L 14.40625 51.859375 
L 14.40625 44 
Q 17.4375 49.515625 20 51.265625 
Q 22.5625 53.03125 25.640625 53.03125 
Q 30.078125 53.03125 34.671875 50.203125 
L 31.640625 42.046875 
Q 28.421875 43.953125 25.203125 43.953125 
Q 22.3125 43.953125 20.015625 42.21875 
Q 17.71875 40.484375 16.75 37.40625 
Q 15.28125 32.71875 15.28125 27.15625 
L 15.28125 0 
z
" id="ArialMT-72"/>
       <path d="M 25.78125 7.859375 
L 27.046875 0.09375 
Q 23.34375 -0.6875 20.40625 -0.6875 
Q 15.625 -0.6875 12.984375 0.828125 
Q 10.359375 2.34375 9.28125 4.8125 
Q 8.203125 7.28125 8.203125 15.1875 
L 8.203125 45.015625 
L 1.765625 45.015625 
L 1.765625 51.859375 
L 8.203125 51.859375 
L 8.203125 64.703125 
L 16.9375 69.96875 
L 16.9375 51.859375 
L 25.78125 51.859375 
L 25.78125 45.015625 
L 16.9375 45.015625 
L 16.9375 14.703125 
Q 16.9375 10.9375 17.40625 9.859375 
Q 17.875 8.796875 18.921875 8.15625 
Q 19.96875 7.515625 21.921875 7.515625 
Q 23.390625 7.515625 25.78125 7.859375 
" id="ArialMT-74"/>
       <path d="M 6.59375 0 
L 6.59375 51.859375 
L 14.5 51.859375 
L 14.5 44.484375 
Q 20.21875 53.03125 31 53.03125 
Q 35.6875 53.03125 39.625 51.34375 
Q 43.5625 49.65625 45.515625 46.921875 
Q 47.46875 44.1875 48.25 40.4375 
Q 48.734375 37.984375 48.734375 31.890625 
L 48.734375 0 
L 39.9375 0 
L 39.9375 31.546875 
Q 39.9375 36.921875 38.90625 39.578125 
Q 37.890625 42.234375 35.28125 43.8125 
Q 32.671875 45.40625 29.15625 45.40625 
Q 23.53125 45.40625 19.453125 41.84375 
Q 15.375 38.28125 15.375 28.328125 
L 15.375 0 
z
" id="ArialMT-6e"/>
       <path d="M 40.4375 19 
L 49.078125 17.875 
Q 47.65625 8.9375 41.8125 3.875 
Q 35.984375 -1.171875 27.484375 -1.171875 
Q 16.84375 -1.171875 10.375 5.78125 
Q 3.90625 12.75 3.90625 25.734375 
Q 3.90625 34.125 6.6875 40.421875 
Q 9.46875 46.734375 15.15625 49.875 
Q 20.84375 53.03125 27.546875 53.03125 
Q 35.984375 53.03125 41.359375 48.75 
Q 46.734375 44.484375 48.25 36.625 
L 39.703125 35.296875 
Q 38.484375 40.53125 35.375 43.15625 
Q 32.28125 45.796875 27.875 45.796875 
Q 21.234375 45.796875 17.078125 41.03125 
Q 12.9375 36.28125 12.9375 25.984375 
Q 12.9375 15.53125 16.9375 10.796875 
Q 20.953125 6.0625 27.390625 6.0625 
Q 32.5625 6.0625 36.03125 9.234375 
Q 39.5 12.40625 40.4375 19 
" id="ArialMT-63"/>
      </defs>
      <g style="fill:#ffffff;" transform="translate(62.5126617126 201.1978125)scale(0.1 -0.1)">
       <use xlink:href="#ArialMT-49"/>
       <use x="27.783203125" xlink:href="#ArialMT-6e"/>
       <use x="83.3984375" xlink:href="#ArialMT-74"/>
       <use x="111.181640625" xlink:href="#ArialMT-65"/>
       <use x="166.796875" xlink:href="#ArialMT-72"/>
       <use x="200.09765625" xlink:href="#ArialMT-6f"/>
       <use x="255.712890625" xlink:href="#ArialMT-2e"/>
       <use x="283.49609375" xlink:href="#ArialMT-20"/>
       <use x="311.279296875" xlink:href="#ArialMT-4c"/>
       <use x="366.89453125" xlink:href="#ArialMT-6f"/>
       <use x="422.509765625" xlink:href="#ArialMT-63"/>
       <use x="472.509765625" xlink:href="#ArialMT-61"/>
       <use x="528.125" xlink:href="#ArialMT-6c"/>
      </g>
     </g>
    </g>
    <g id="xtick_2">
     <g id="line2d_4">
      <path clip-path="url(#p655340f466)" d="M 163.459647 187.04 
L 163.459647 19.520156 
" style="fill:none;stroke:#ffffff;stroke-linecap:round;"/>
     </g>
     <g id="line2d_5">
      <g>
       <use style="fill:#ffffff;stroke:#ffffff;" x="163.459646759" xlink:href="#m4d467d3644" y="187.04"/>
      </g>
     </g>
     <g id="line2d_6">
      <g>
       <use style="fill:#ffffff;stroke:#ffffff;" x="163.459646759" xlink:href="#m4d467d3644" y="19.52015625"/>
      </g>
     </g>
     <g id="text_2">
      <!-- Intero. Feder. -->
      <defs>
       <path d="M 40.234375 0 
L 40.234375 6.546875 
Q 35.296875 -1.171875 25.734375 -1.171875 
Q 19.53125 -1.171875 14.328125 2.25 
Q 9.125 5.671875 6.265625 11.796875 
Q 3.421875 17.921875 3.421875 25.875 
Q 3.421875 33.640625 6 39.96875 
Q 8.59375 46.296875 13.765625 49.65625 
Q 18.953125 53.03125 25.34375 53.03125 
Q 30.03125 53.03125 33.6875 51.046875 
Q 37.359375 49.078125 39.65625 45.90625 
L 39.65625 71.578125 
L 48.390625 71.578125 
L 48.390625 0 
z
M 12.453125 25.875 
Q 12.453125 15.921875 16.640625 10.984375 
Q 20.84375 6.0625 26.5625 6.0625 
Q 32.328125 6.0625 36.34375 10.765625 
Q 40.375 15.484375 40.375 25.140625 
Q 40.375 35.796875 36.265625 40.765625 
Q 32.171875 45.75 26.171875 45.75 
Q 20.3125 45.75 16.375 40.96875 
Q 12.453125 36.1875 12.453125 25.875 
" id="ArialMT-64"/>
       <path d="M 8.203125 0 
L 8.203125 71.578125 
L 56.5 71.578125 
L 56.5 63.140625 
L 17.671875 63.140625 
L 17.671875 40.96875 
L 51.265625 40.96875 
L 51.265625 32.515625 
L 17.671875 32.515625 
L 17.671875 0 
z
" id="ArialMT-46"/>
      </defs>
      <g style="fill:#ffffff;" transform="translate(133.451834259 201.1978125)scale(0.1 -0.1)">
       <use xlink:href="#ArialMT-49"/>
       <use x="27.783203125" xlink:href="#ArialMT-6e"/>
       <use x="83.3984375" xlink:href="#ArialMT-74"/>
       <use x="111.181640625" xlink:href="#ArialMT-65"/>
       <use x="166.796875" xlink:href="#ArialMT-72"/>
       <use x="200.09765625" xlink:href="#ArialMT-6f"/>
       <use x="255.712890625" xlink:href="#ArialMT-2e"/>
       <use x="283.49609375" xlink:href="#ArialMT-20"/>
       <use x="311.279296875" xlink:href="#ArialMT-46"/>
       <use x="372.36328125" xlink:href="#ArialMT-65"/>
       <use x="427.978515625" xlink:href="#ArialMT-64"/>
       <use x="483.59375" xlink:href="#ArialMT-65"/>
       <use x="539.208984375" xlink:href="#ArialMT-72"/>
       <use x="572.431640625" xlink:href="#ArialMT-2e"/>
      </g>
     </g>
    </g>
    <g id="xtick_3">
     <g id="line2d_7">
      <path clip-path="url(#p655340f466)" d="M 236.891788 187.04 
L 236.891788 19.520156 
" style="fill:none;stroke:#ffffff;stroke-linecap:round;"/>
     </g>
     <g id="line2d_8">
      <g>
       <use style="fill:#ffffff;stroke:#ffffff;" x="236.891788055" xlink:href="#m4d467d3644" y="187.04"/>
      </g>
     </g>
     <g id="line2d_9">
      <g>
       <use style="fill:#ffffff;stroke:#ffffff;" x="236.891788055" xlink:href="#m4d467d3644" y="19.52015625"/>
      </g>
     </g>
     <g id="text_3">
      <!-- Sel. Local -->
      <defs>
       <path d="M 4.5 23 
L 13.421875 23.78125 
Q 14.0625 18.40625 16.375 14.96875 
Q 18.703125 11.53125 23.578125 9.40625 
Q 28.46875 7.28125 34.578125 7.28125 
Q 39.984375 7.28125 44.140625 8.890625 
Q 48.296875 10.5 50.3125 13.296875 
Q 52.34375 16.109375 52.34375 19.4375 
Q 52.34375 22.796875 50.390625 25.3125 
Q 48.4375 27.828125 43.953125 29.546875 
Q 41.0625 30.671875 31.203125 33.03125 
Q 21.34375 35.40625 17.390625 37.5 
Q 12.25 40.1875 9.734375 44.15625 
Q 7.234375 48.140625 7.234375 53.078125 
Q 7.234375 58.5 10.296875 63.203125 
Q 13.375 67.921875 19.28125 70.359375 
Q 25.203125 72.796875 32.421875 72.796875 
Q 40.375 72.796875 46.453125 70.234375 
Q 52.546875 67.671875 55.8125 62.6875 
Q 59.078125 57.71875 59.328125 51.421875 
L 50.25 50.734375 
Q 49.515625 57.515625 45.28125 60.984375 
Q 41.0625 64.453125 32.8125 64.453125 
Q 24.21875 64.453125 20.28125 61.296875 
Q 16.359375 58.15625 16.359375 53.71875 
Q 16.359375 49.859375 19.140625 47.359375 
Q 21.875 44.875 33.421875 42.265625 
Q 44.96875 39.65625 49.265625 37.703125 
Q 55.515625 34.8125 58.484375 30.390625 
Q 61.46875 25.984375 61.46875 20.21875 
Q 61.46875 14.5 58.203125 9.4375 
Q 54.9375 4.390625 48.796875 1.578125 
Q 42.671875 -1.21875 35.015625 -1.21875 
Q 25.296875 -1.21875 18.71875 1.609375 
Q 12.15625 4.4375 8.421875 10.125 
Q 4.6875 15.828125 4.5 23 
" id="ArialMT-53"/>
      </defs>
      <g style="fill:#ffffff;" transform="translate(214.934756805 201.1978125)scale(0.1 -0.1)">
       <use xlink:href="#ArialMT-53"/>
       <use x="66.69921875" xlink:href="#ArialMT-65"/>
       <use x="122.314453125" xlink:href="#ArialMT-6c"/>
       <use x="144.53125" xlink:href="#ArialMT-2e"/>
       <use x="172.314453125" xlink:href="#ArialMT-20"/>
       <use x="200.09765625" xlink:href="#ArialMT-4c"/>
       <use x="255.712890625" xlink:href="#ArialMT-6f"/>
       <use x="311.328125" xlink:href="#ArialMT-63"/>
       <use x="361.328125" xlink:href="#ArialMT-61"/>
       <use x="416.943359375" xlink:href="#ArialMT-6c"/>
      </g>
     </g>
    </g>
    <g id="xtick_4">
     <g id="line2d_10">
      <path clip-path="url(#p655340f466)" d="M 310.323929 187.04 
L 310.323929 19.520156 
" style="fill:none;stroke:#ffffff;stroke-linecap:round;"/>
     </g>
     <g id="line2d_11">
      <g>
       <use style="fill:#ffffff;stroke:#ffffff;" x="310.323929352" xlink:href="#m4d467d3644" y="187.04"/>
      </g>
     </g>
     <g id="line2d_12">
      <g>
       <use style="fill:#ffffff;stroke:#ffffff;" x="310.323929352" xlink:href="#m4d467d3644" y="19.52015625"/>
      </g>
     </g>
     <g id="text_4">
      <!-- Sel. Feder. -->
      <g style="fill:#ffffff;" transform="translate(285.873929352 201.1978125)scale(0.1 -0.1)">
       <use xlink:href="#ArialMT-53"/>
       <use x="66.69921875" xlink:href="#ArialMT-65"/>
       <use x="122.314453125" xlink:href="#ArialMT-6c"/>
       <use x="144.53125" xlink:href="#ArialMT-2e"/>
       <use x="172.314453125" xlink:href="#ArialMT-20"/>
       <use x="200.09765625" xlink:href="#ArialMT-46"/>
       <use x="261.181640625" xlink:href="#ArialMT-65"/>
       <use x="316.796875" xlink:href="#ArialMT-64"/>
       <use x="372.412109375" xlink:href="#ArialMT-65"/>
       <use x="428.02734375" xlink:href="#ArialMT-72"/>
       <use x="461.25" xlink:href="#ArialMT-2e"/>
      </g>
     </g>
    </g>
   </g>
   <g id="matplotlib.axis_2">
    <g id="ytick_1">
     <g id="line2d_13">
      <path clip-path="url(#p655340f466)" d="M 53.311435 187.04 
L 347.04 187.04 
" style="fill:none;stroke:#ffffff;stroke-linecap:round;"/>
     </g>
     <g id="line2d_14">
      <g>
       <use style="fill:#ffffff;stroke:#ffffff;" x="53.3114348145" xlink:href="#m4d467d3644" y="187.04"/>
      </g>
     </g>
     <g id="line2d_15">
      <g>
       <use style="fill:#ffffff;stroke:#ffffff;" x="347.04" xlink:href="#m4d467d3644" y="187.04"/>
      </g>
     </g>
     <g id="text_5">
      <!-- $\mathdefault{10^{-3}}$ -->
      <defs>
       <path d="M 4.203125 18.890625 
L 12.984375 20.0625 
Q 14.5 12.59375 18.140625 9.296875 
Q 21.78125 6 27 6 
Q 33.203125 6 37.46875 10.296875 
Q 41.75 14.59375 41.75 20.953125 
Q 41.75 27 37.796875 30.921875 
Q 33.84375 34.859375 27.734375 34.859375 
Q 25.25 34.859375 21.53125 33.890625 
L 22.515625 41.609375 
Q 23.390625 41.5 23.921875 41.5 
Q 29.546875 41.5 34.03125 44.421875 
Q 38.53125 47.359375 38.53125 53.46875 
Q 38.53125 58.296875 35.25 61.46875 
Q 31.984375 64.65625 26.8125 64.65625 
Q 21.6875 64.65625 18.265625 61.421875 
Q 14.84375 58.203125 13.875 51.765625 
L 5.078125 53.328125 
Q 6.6875 62.15625 12.390625 67.015625 
Q 18.109375 71.875 26.609375 71.875 
Q 32.46875 71.875 37.390625 69.359375 
Q 42.328125 66.84375 44.9375 62.5 
Q 47.5625 58.15625 47.5625 53.265625 
Q 47.5625 48.640625 45.0625 44.828125 
Q 42.578125 41.015625 37.703125 38.765625 
Q 44.046875 37.3125 47.5625 32.6875 
Q 51.078125 28.078125 51.078125 21.140625 
Q 51.078125 11.765625 44.234375 5.25 
Q 37.40625 -1.265625 26.953125 -1.265625 
Q 17.53125 -1.265625 11.296875 4.34375 
Q 5.078125 9.96875 4.203125 18.890625 
" id="ArialMT-33"/>
       <path d="M 3.171875 21.484375 
L 3.171875 30.328125 
L 30.171875 30.328125 
L 30.171875 21.484375 
z
" id="ArialMT-2d"/>
       <path d="M 37.25 0 
L 28.46875 0 
L 28.46875 56 
Q 25.296875 52.984375 20.140625 49.953125 
Q 14.984375 46.921875 10.890625 45.40625 
L 10.890625 53.90625 
Q 18.265625 57.375 23.78125 62.296875 
Q 29.296875 67.234375 31.59375 71.875 
L 37.25 71.875 
z
" id="ArialMT-31"/>
       <path d="M 4.15625 35.296875 
Q 4.15625 48 6.765625 55.734375 
Q 9.375 63.484375 14.515625 67.671875 
Q 19.671875 71.875 27.484375 71.875 
Q 33.25 71.875 37.59375 69.546875 
Q 41.9375 67.234375 44.765625 62.859375 
Q 47.609375 58.5 49.21875 52.21875 
Q 50.828125 45.953125 50.828125 35.296875 
Q 50.828125 22.703125 48.234375 14.96875 
Q 45.65625 7.234375 40.5 3 
Q 35.359375 -1.21875 27.484375 -1.21875 
Q 17.140625 -1.21875 11.234375 6.203125 
Q 4.15625 15.140625 4.15625 35.296875 
M 13.1875 35.296875 
Q 13.1875 17.671875 17.3125 11.828125 
Q 21.4375 6 27.484375 6 
Q 33.546875 6 37.671875 11.859375 
Q 41.796875 17.71875 41.796875 35.296875 
Q 41.796875 52.984375 37.671875 58.78125 
Q 33.546875 64.59375 27.390625 64.59375 
Q 21.34375 64.59375 17.71875 59.46875 
Q 13.1875 52.9375 13.1875 35.296875 
" id="ArialMT-30"/>
      </defs>
      <g style="fill:#ffffff;" transform="translate(27.6114348145 189.9525)scale(0.1 -0.1)">
       <use transform="translate(0.0 0.8843750000000057)" xlink:href="#ArialMT-31"/>
       <use transform="translate(55.615234375 0.8843750000000057)" xlink:href="#ArialMT-30"/>
       <use transform="translate(116.4575 45.68750000000001)scale(0.7)" xlink:href="#ArialMT-2d"/>
       <use transform="translate(139.768046875 45.68750000000001)scale(0.7)" xlink:href="#ArialMT-33"/>
      </g>
     </g>
    </g>
    <g id="ytick_2">
     <g id="line2d_16">
      <path clip-path="url(#p655340f466)" d="M 53.311435 159.120026 
L 347.04 159.120026 
" style="fill:none;stroke:#ffffff;stroke-linecap:round;"/>
     </g>
     <g id="line2d_17">
      <g>
       <use style="fill:#ffffff;stroke:#ffffff;" x="53.3114348145" xlink:href="#m4d467d3644" y="159.120026042"/>
      </g>
     </g>
     <g id="line2d_18">
      <g>
       <use style="fill:#ffffff;stroke:#ffffff;" x="347.04" xlink:href="#m4d467d3644" y="159.120026042"/>
      </g>
     </g>
     <g id="text_6">
      <!-- $\mathdefault{10^{-2}}$ -->
      <defs>
       <path d="M 50.34375 8.453125 
L 50.34375 0 
L 3.03125 0 
Q 2.9375 3.171875 4.046875 6.109375 
Q 5.859375 10.9375 9.828125 15.625 
Q 13.8125 20.3125 21.34375 26.46875 
Q 33.015625 36.03125 37.109375 41.625 
Q 41.21875 47.21875 41.21875 52.203125 
Q 41.21875 57.421875 37.46875 61 
Q 33.734375 64.59375 27.734375 64.59375 
Q 21.390625 64.59375 17.578125 60.78125 
Q 13.765625 56.984375 13.71875 50.25 
L 4.6875 51.171875 
Q 5.609375 61.28125 11.65625 66.578125 
Q 17.71875 71.875 27.9375 71.875 
Q 38.234375 71.875 44.234375 66.15625 
Q 50.25 60.453125 50.25 52 
Q 50.25 47.703125 48.484375 43.546875 
Q 46.734375 39.40625 42.65625 34.8125 
Q 38.578125 30.21875 29.109375 22.21875 
Q 21.1875 15.578125 18.9375 13.203125 
Q 16.703125 10.84375 15.234375 8.453125 
z
" id="ArialMT-32"/>
      </defs>
      <g style="fill:#ffffff;" transform="translate(27.6114348145 162.032526042)scale(0.1 -0.1)">
       <use transform="translate(0.0 0.8843750000000057)" xlink:href="#ArialMT-31"/>
       <use transform="translate(55.615234375 0.8843750000000057)" xlink:href="#ArialMT-30"/>
       <use transform="translate(116.4575 45.68750000000001)scale(0.7)" xlink:href="#ArialMT-2d"/>
       <use transform="translate(139.768046875 45.68750000000001)scale(0.7)" xlink:href="#ArialMT-32"/>
      </g>
     </g>
    </g>
    <g id="ytick_3">
     <g id="line2d_19">
      <path clip-path="url(#p655340f466)" d="M 53.311435 131.200052 
L 347.04 131.200052 
" style="fill:none;stroke:#ffffff;stroke-linecap:round;"/>
     </g>
     <g id="line2d_20">
      <g>
       <use style="fill:#ffffff;stroke:#ffffff;" x="53.3114348145" xlink:href="#m4d467d3644" y="131.200052083"/>
      </g>
     </g>
     <g id="line2d_21">
      <g>
       <use style="fill:#ffffff;stroke:#ffffff;" x="347.04" xlink:href="#m4d467d3644" y="131.200052083"/>
      </g>
     </g>
     <g id="text_7">
      <!-- $\mathdefault{10^{-1}}$ -->
      <g style="fill:#ffffff;" transform="translate(27.6114348145 134.112552083)scale(0.1 -0.1)">
       <use transform="translate(0.0 0.8843750000000057)" xlink:href="#ArialMT-31"/>
       <use transform="translate(55.615234375 0.8843750000000057)" xlink:href="#ArialMT-30"/>
       <use transform="translate(116.4575 45.68750000000001)scale(0.7)" xlink:href="#ArialMT-2d"/>
       <use transform="translate(139.768046875 45.68750000000001)scale(0.7)" xlink:href="#ArialMT-31"/>
      </g>
     </g>
    </g>
    <g id="ytick_4">
     <g id="line2d_22">
      <path clip-path="url(#p655340f466)" d="M 53.311435 103.280078 
L 347.04 103.280078 
" style="fill:none;stroke:#ffffff;stroke-linecap:round;"/>
     </g>
     <g id="line2d_23">
      <g>
       <use style="fill:#ffffff;stroke:#ffffff;" x="53.3114348145" xlink:href="#m4d467d3644" y="103.280078125"/>
      </g>
     </g>
     <g id="line2d_24">
      <g>
       <use style="fill:#ffffff;stroke:#ffffff;" x="347.04" xlink:href="#m4d467d3644" y="103.280078125"/>
      </g>
     </g>
     <g id="text_8">
      <!-- $\mathdefault{10^{0}}$ -->
      <g style="fill:#ffffff;" transform="translate(30.0114348145 106.192578125)scale(0.1 -0.1)">
       <use transform="translate(0.0 0.8843750000000057)" xlink:href="#ArialMT-31"/>
       <use transform="translate(55.615234375 0.8843750000000057)" xlink:href="#ArialMT-30"/>
       <use transform="translate(116.4575 45.68750000000001)scale(0.7)" xlink:href="#ArialMT-30"/>
      </g>
     </g>
    </g>
    <g id="ytick_5">
     <g id="line2d_25">
      <path clip-path="url(#p655340f466)" d="M 53.311435 75.360104 
L 347.04 75.360104 
" style="fill:none;stroke:#ffffff;stroke-linecap:round;"/>
     </g>
     <g id="line2d_26">
      <g>
       <use style="fill:#ffffff;stroke:#ffffff;" x="53.3114348145" xlink:href="#m4d467d3644" y="75.3601041667"/>
      </g>
     </g>
     <g id="line2d_27">
      <g>
       <use style="fill:#ffffff;stroke:#ffffff;" x="347.04" xlink:href="#m4d467d3644" y="75.3601041667"/>
      </g>
     </g>
     <g id="text_9">
      <!-- $\mathdefault{10^{1}}$ -->
      <g style="fill:#ffffff;" transform="translate(30.0114348145 78.2726041667)scale(0.1 -0.1)">
       <use transform="translate(0.0 0.8843750000000057)" xlink:href="#ArialMT-31"/>
       <use transform="translate(55.615234375 0.8843750000000057)" xlink:href="#ArialMT-30"/>
       <use transform="translate(116.4575 45.68750000000001)scale(0.7)" xlink:href="#ArialMT-31"/>
      </g>
     </g>
    </g>
    <g id="ytick_6">
     <g id="line2d_28">
      <path clip-path="url(#p655340f466)" d="M 53.311435 47.44013 
L 347.04 47.44013 
" style="fill:none;stroke:#ffffff;stroke-linecap:round;"/>
     </g>
     <g id="line2d_29">
      <g>
       <use style="fill:#ffffff;stroke:#ffffff;" x="53.3114348145" xlink:href="#m4d467d3644" y="47.4401302083"/>
      </g>
     </g>
     <g id="line2d_30">
      <g>
       <use style="fill:#ffffff;stroke:#ffffff;" x="347.04" xlink:href="#m4d467d3644" y="47.4401302083"/>
      </g>
     </g>
     <g id="text_10">
      <!-- $\mathdefault{10^{2}}$ -->
      <g style="fill:#ffffff;" transform="translate(30.0114348145 50.3526302083)scale(0.1 -0.1)">
       <use transform="translate(0.0 0.8843750000000057)" xlink:href="#ArialMT-31"/>
       <use transform="translate(55.615234375 0.8843750000000057)" xlink:href="#ArialMT-30"/>
       <use transform="translate(116.4575 45.68750000000001)scale(0.7)" xlink:href="#ArialMT-32"/>
      </g>
     </g>
    </g>
    <g id="ytick_7">
     <g id="line2d_31">
      <path clip-path="url(#p655340f466)" d="M 53.311435 19.520156 
L 347.04 19.520156 
" style="fill:none;stroke:#ffffff;stroke-linecap:round;"/>
     </g>
     <g id="line2d_32">
      <g>
       <use style="fill:#ffffff;stroke:#ffffff;" x="53.3114348145" xlink:href="#m4d467d3644" y="19.52015625"/>
      </g>
     </g>
     <g id="line2d_33">
      <g>
       <use style="fill:#ffffff;stroke:#ffffff;" x="347.04" xlink:href="#m4d467d3644" y="19.52015625"/>
      </g>
     </g>
     <g id="text_11">
      <!-- $\mathdefault{10^{3}}$ -->
      <g style="fill:#ffffff;" transform="translate(30.0114348145 22.43265625)scale(0.1 -0.1)">
       <use transform="translate(0.0 0.8843750000000057)" xlink:href="#ArialMT-31"/>
       <use transform="translate(55.615234375 0.8843750000000057)" xlink:href="#ArialMT-30"/>
       <use transform="translate(116.4575 45.68750000000001)scale(0.7)" xlink:href="#ArialMT-33"/>
      </g>
     </g>
    </g>
    <g id="ytick_8">
     <g id="line2d_34">
      <defs>
       <path d="M 0 0 
L 0 0 
" id="mfeaf9d78c8" style="stroke:#ffffff;stroke-width:0.5;"/>
      </defs>
      <g>
       <use style="fill:#ffffff;stroke:#ffffff;stroke-width:0.5;" x="53.3114348145" xlink:href="#mfeaf9d78c8" y="178.63525036"/>
      </g>
     </g>
     <g id="line2d_35">
      <g>
       <use style="fill:#ffffff;stroke:#ffffff;stroke-width:0.5;" x="347.04" xlink:href="#mfeaf9d78c8" y="178.63525036"/>
      </g>
     </g>
    </g>
    <g id="ytick_9">
     <g id="line2d_36">
      <g>
       <use style="fill:#ffffff;stroke:#ffffff;stroke-width:0.5;" x="53.3114348145" xlink:href="#mfeaf9d78c8" y="173.718786993"/>
      </g>
     </g>
     <g id="line2d_37">
      <g>
       <use style="fill:#ffffff;stroke:#ffffff;stroke-width:0.5;" x="347.04" xlink:href="#mfeaf9d78c8" y="173.718786993"/>
      </g>
     </g>
    </g>
    <g id="ytick_10">
     <g id="line2d_38">
      <g>
       <use style="fill:#ffffff;stroke:#ffffff;stroke-width:0.5;" x="53.3114348145" xlink:href="#mfeaf9d78c8" y="170.230500721"/>
      </g>
     </g>
     <g id="line2d_39">
      <g>
       <use style="fill:#ffffff;stroke:#ffffff;stroke-width:0.5;" x="347.04" xlink:href="#mfeaf9d78c8" y="170.230500721"/>
      </g>
     </g>
    </g>
    <g id="ytick_11">
     <g id="line2d_40">
      <g>
       <use style="fill:#ffffff;stroke:#ffffff;stroke-width:0.5;" x="53.3114348145" xlink:href="#mfeaf9d78c8" y="167.524775681"/>
      </g>
     </g>
     <g id="line2d_41">
      <g>
       <use style="fill:#ffffff;stroke:#ffffff;stroke-width:0.5;" x="347.04" xlink:href="#mfeaf9d78c8" y="167.524775681"/>
      </g>
     </g>
    </g>
    <g id="ytick_12">
     <g id="line2d_42">
      <g>
       <use style="fill:#ffffff;stroke:#ffffff;stroke-width:0.5;" x="53.3114348145" xlink:href="#mfeaf9d78c8" y="165.314037354"/>
      </g>
     </g>
     <g id="line2d_43">
      <g>
       <use style="fill:#ffffff;stroke:#ffffff;stroke-width:0.5;" x="347.04" xlink:href="#mfeaf9d78c8" y="165.314037354"/>
      </g>
     </g>
    </g>
    <g id="ytick_13">
     <g id="line2d_44">
      <g>
       <use style="fill:#ffffff;stroke:#ffffff;stroke-width:0.5;" x="53.3114348145" xlink:href="#mfeaf9d78c8" y="163.444884731"/>
      </g>
     </g>
     <g id="line2d_45">
      <g>
       <use style="fill:#ffffff;stroke:#ffffff;stroke-width:0.5;" x="347.04" xlink:href="#mfeaf9d78c8" y="163.444884731"/>
      </g>
     </g>
    </g>
    <g id="ytick_14">
     <g id="line2d_46">
      <g>
       <use style="fill:#ffffff;stroke:#ffffff;stroke-width:0.5;" x="53.3114348145" xlink:href="#mfeaf9d78c8" y="161.825751081"/>
      </g>
     </g>
     <g id="line2d_47">
      <g>
       <use style="fill:#ffffff;stroke:#ffffff;stroke-width:0.5;" x="347.04" xlink:href="#mfeaf9d78c8" y="161.825751081"/>
      </g>
     </g>
    </g>
    <g id="ytick_15">
     <g id="line2d_48">
      <g>
       <use style="fill:#ffffff;stroke:#ffffff;stroke-width:0.5;" x="53.3114348145" xlink:href="#mfeaf9d78c8" y="160.397573987"/>
      </g>
     </g>
     <g id="line2d_49">
      <g>
       <use style="fill:#ffffff;stroke:#ffffff;stroke-width:0.5;" x="347.04" xlink:href="#mfeaf9d78c8" y="160.397573987"/>
      </g>
     </g>
    </g>
    <g id="ytick_16">
     <g id="line2d_50">
      <g>
       <use style="fill:#ffffff;stroke:#ffffff;stroke-width:0.5;" x="53.3114348145" xlink:href="#mfeaf9d78c8" y="150.715276402"/>
      </g>
     </g>
     <g id="line2d_51">
      <g>
       <use style="fill:#ffffff;stroke:#ffffff;stroke-width:0.5;" x="347.04" xlink:href="#mfeaf9d78c8" y="150.715276402"/>
      </g>
     </g>
    </g>
    <g id="ytick_17">
     <g id="line2d_52">
      <g>
       <use style="fill:#ffffff;stroke:#ffffff;stroke-width:0.5;" x="53.3114348145" xlink:href="#mfeaf9d78c8" y="145.798813035"/>
      </g>
     </g>
     <g id="line2d_53">
      <g>
       <use style="fill:#ffffff;stroke:#ffffff;stroke-width:0.5;" x="347.04" xlink:href="#mfeaf9d78c8" y="145.798813035"/>
      </g>
     </g>
    </g>
    <g id="ytick_18">
     <g id="line2d_54">
      <g>
       <use style="fill:#ffffff;stroke:#ffffff;stroke-width:0.5;" x="53.3114348145" xlink:href="#mfeaf9d78c8" y="142.310526762"/>
      </g>
     </g>
     <g id="line2d_55">
      <g>
       <use style="fill:#ffffff;stroke:#ffffff;stroke-width:0.5;" x="347.04" xlink:href="#mfeaf9d78c8" y="142.310526762"/>
      </g>
     </g>
    </g>
    <g id="ytick_19">
     <g id="line2d_56">
      <g>
       <use style="fill:#ffffff;stroke:#ffffff;stroke-width:0.5;" x="53.3114348145" xlink:href="#mfeaf9d78c8" y="139.604801723"/>
      </g>
     </g>
     <g id="line2d_57">
      <g>
       <use style="fill:#ffffff;stroke:#ffffff;stroke-width:0.5;" x="347.04" xlink:href="#mfeaf9d78c8" y="139.604801723"/>
      </g>
     </g>
    </g>
    <g id="ytick_20">
     <g id="line2d_58">
      <g>
       <use style="fill:#ffffff;stroke:#ffffff;stroke-width:0.5;" x="53.3114348145" xlink:href="#mfeaf9d78c8" y="137.394063395"/>
      </g>
     </g>
     <g id="line2d_59">
      <g>
       <use style="fill:#ffffff;stroke:#ffffff;stroke-width:0.5;" x="347.04" xlink:href="#mfeaf9d78c8" y="137.394063395"/>
      </g>
     </g>
    </g>
    <g id="ytick_21">
     <g id="line2d_60">
      <g>
       <use style="fill:#ffffff;stroke:#ffffff;stroke-width:0.5;" x="53.3114348145" xlink:href="#mfeaf9d78c8" y="135.524910772"/>
      </g>
     </g>
     <g id="line2d_61">
      <g>
       <use style="fill:#ffffff;stroke:#ffffff;stroke-width:0.5;" x="347.04" xlink:href="#mfeaf9d78c8" y="135.524910772"/>
      </g>
     </g>
    </g>
    <g id="ytick_22">
     <g id="line2d_62">
      <g>
       <use style="fill:#ffffff;stroke:#ffffff;stroke-width:0.5;" x="53.3114348145" xlink:href="#mfeaf9d78c8" y="133.905777123"/>
      </g>
     </g>
     <g id="line2d_63">
      <g>
       <use style="fill:#ffffff;stroke:#ffffff;stroke-width:0.5;" x="347.04" xlink:href="#mfeaf9d78c8" y="133.905777123"/>
      </g>
     </g>
    </g>
    <g id="ytick_23">
     <g id="line2d_64">
      <g>
       <use style="fill:#ffffff;stroke:#ffffff;stroke-width:0.5;" x="53.3114348145" xlink:href="#mfeaf9d78c8" y="132.477600028"/>
      </g>
     </g>
     <g id="line2d_65">
      <g>
       <use style="fill:#ffffff;stroke:#ffffff;stroke-width:0.5;" x="347.04" xlink:href="#mfeaf9d78c8" y="132.477600028"/>
      </g>
     </g>
    </g>
    <g id="ytick_24">
     <g id="line2d_66">
      <g>
       <use style="fill:#ffffff;stroke:#ffffff;stroke-width:0.5;" x="53.3114348145" xlink:href="#mfeaf9d78c8" y="122.795302444"/>
      </g>
     </g>
     <g id="line2d_67">
      <g>
       <use style="fill:#ffffff;stroke:#ffffff;stroke-width:0.5;" x="347.04" xlink:href="#mfeaf9d78c8" y="122.795302444"/>
      </g>
     </g>
    </g>
    <g id="ytick_25">
     <g id="line2d_68">
      <g>
       <use style="fill:#ffffff;stroke:#ffffff;stroke-width:0.5;" x="53.3114348145" xlink:href="#mfeaf9d78c8" y="117.878839077"/>
      </g>
     </g>
     <g id="line2d_69">
      <g>
       <use style="fill:#ffffff;stroke:#ffffff;stroke-width:0.5;" x="347.04" xlink:href="#mfeaf9d78c8" y="117.878839077"/>
      </g>
     </g>
    </g>
    <g id="ytick_26">
     <g id="line2d_70">
      <g>
       <use style="fill:#ffffff;stroke:#ffffff;stroke-width:0.5;" x="53.3114348145" xlink:href="#mfeaf9d78c8" y="114.390552804"/>
      </g>
     </g>
     <g id="line2d_71">
      <g>
       <use style="fill:#ffffff;stroke:#ffffff;stroke-width:0.5;" x="347.04" xlink:href="#mfeaf9d78c8" y="114.390552804"/>
      </g>
     </g>
    </g>
    <g id="ytick_27">
     <g id="line2d_72">
      <g>
       <use style="fill:#ffffff;stroke:#ffffff;stroke-width:0.5;" x="53.3114348145" xlink:href="#mfeaf9d78c8" y="111.684827765"/>
      </g>
     </g>
     <g id="line2d_73">
      <g>
       <use style="fill:#ffffff;stroke:#ffffff;stroke-width:0.5;" x="347.04" xlink:href="#mfeaf9d78c8" y="111.684827765"/>
      </g>
     </g>
    </g>
    <g id="ytick_28">
     <g id="line2d_74">
      <g>
       <use style="fill:#ffffff;stroke:#ffffff;stroke-width:0.5;" x="53.3114348145" xlink:href="#mfeaf9d78c8" y="109.474089437"/>
      </g>
     </g>
     <g id="line2d_75">
      <g>
       <use style="fill:#ffffff;stroke:#ffffff;stroke-width:0.5;" x="347.04" xlink:href="#mfeaf9d78c8" y="109.474089437"/>
      </g>
     </g>
    </g>
    <g id="ytick_29">
     <g id="line2d_76">
      <g>
       <use style="fill:#ffffff;stroke:#ffffff;stroke-width:0.5;" x="53.3114348145" xlink:href="#mfeaf9d78c8" y="107.604936814"/>
      </g>
     </g>
     <g id="line2d_77">
      <g>
       <use style="fill:#ffffff;stroke:#ffffff;stroke-width:0.5;" x="347.04" xlink:href="#mfeaf9d78c8" y="107.604936814"/>
      </g>
     </g>
    </g>
    <g id="ytick_30">
     <g id="line2d_78">
      <g>
       <use style="fill:#ffffff;stroke:#ffffff;stroke-width:0.5;" x="53.3114348145" xlink:href="#mfeaf9d78c8" y="105.985803164"/>
      </g>
     </g>
     <g id="line2d_79">
      <g>
       <use style="fill:#ffffff;stroke:#ffffff;stroke-width:0.5;" x="347.04" xlink:href="#mfeaf9d78c8" y="105.985803164"/>
      </g>
     </g>
    </g>
    <g id="ytick_31">
     <g id="line2d_80">
      <g>
       <use style="fill:#ffffff;stroke:#ffffff;stroke-width:0.5;" x="53.3114348145" xlink:href="#mfeaf9d78c8" y="104.55762607"/>
      </g>
     </g>
     <g id="line2d_81">
      <g>
       <use style="fill:#ffffff;stroke:#ffffff;stroke-width:0.5;" x="347.04" xlink:href="#mfeaf9d78c8" y="104.55762607"/>
      </g>
     </g>
    </g>
    <g id="ytick_32">
     <g id="line2d_82">
      <g>
       <use style="fill:#ffffff;stroke:#ffffff;stroke-width:0.5;" x="53.3114348145" xlink:href="#mfeaf9d78c8" y="94.8753284854"/>
      </g>
     </g>
     <g id="line2d_83">
      <g>
       <use style="fill:#ffffff;stroke:#ffffff;stroke-width:0.5;" x="347.04" xlink:href="#mfeaf9d78c8" y="94.8753284854"/>
      </g>
     </g>
    </g>
    <g id="ytick_33">
     <g id="line2d_84">
      <g>
       <use style="fill:#ffffff;stroke:#ffffff;stroke-width:0.5;" x="53.3114348145" xlink:href="#mfeaf9d78c8" y="89.9588651183"/>
      </g>
     </g>
     <g id="line2d_85">
      <g>
       <use style="fill:#ffffff;stroke:#ffffff;stroke-width:0.5;" x="347.04" xlink:href="#mfeaf9d78c8" y="89.9588651183"/>
      </g>
     </g>
    </g>
    <g id="ytick_34">
     <g id="line2d_86">
      <g>
       <use style="fill:#ffffff;stroke:#ffffff;stroke-width:0.5;" x="53.3114348145" xlink:href="#mfeaf9d78c8" y="86.4705788458"/>
      </g>
     </g>
     <g id="line2d_87">
      <g>
       <use style="fill:#ffffff;stroke:#ffffff;stroke-width:0.5;" x="347.04" xlink:href="#mfeaf9d78c8" y="86.4705788458"/>
      </g>
     </g>
    </g>
    <g id="ytick_35">
     <g id="line2d_88">
      <g>
       <use style="fill:#ffffff;stroke:#ffffff;stroke-width:0.5;" x="53.3114348145" xlink:href="#mfeaf9d78c8" y="83.7648538063"/>
      </g>
     </g>
     <g id="line2d_89">
      <g>
       <use style="fill:#ffffff;stroke:#ffffff;stroke-width:0.5;" x="347.04" xlink:href="#mfeaf9d78c8" y="83.7648538063"/>
      </g>
     </g>
    </g>
    <g id="ytick_36">
     <g id="line2d_90">
      <g>
       <use style="fill:#ffffff;stroke:#ffffff;stroke-width:0.5;" x="53.3114348145" xlink:href="#mfeaf9d78c8" y="81.5541154786"/>
      </g>
     </g>
     <g id="line2d_91">
      <g>
       <use style="fill:#ffffff;stroke:#ffffff;stroke-width:0.5;" x="347.04" xlink:href="#mfeaf9d78c8" y="81.5541154786"/>
      </g>
     </g>
    </g>
    <g id="ytick_37">
     <g id="line2d_92">
      <g>
       <use style="fill:#ffffff;stroke:#ffffff;stroke-width:0.5;" x="53.3114348145" xlink:href="#mfeaf9d78c8" y="79.6849628556"/>
      </g>
     </g>
     <g id="line2d_93">
      <g>
       <use style="fill:#ffffff;stroke:#ffffff;stroke-width:0.5;" x="347.04" xlink:href="#mfeaf9d78c8" y="79.6849628556"/>
      </g>
     </g>
    </g>
    <g id="ytick_38">
     <g id="line2d_94">
      <g>
       <use style="fill:#ffffff;stroke:#ffffff;stroke-width:0.5;" x="53.3114348145" xlink:href="#mfeaf9d78c8" y="78.0658292062"/>
      </g>
     </g>
     <g id="line2d_95">
      <g>
       <use style="fill:#ffffff;stroke:#ffffff;stroke-width:0.5;" x="347.04" xlink:href="#mfeaf9d78c8" y="78.0658292062"/>
      </g>
     </g>
    </g>
    <g id="ytick_39">
     <g id="line2d_96">
      <g>
       <use style="fill:#ffffff;stroke:#ffffff;stroke-width:0.5;" x="53.3114348145" xlink:href="#mfeaf9d78c8" y="76.6376521115"/>
      </g>
     </g>
     <g id="line2d_97">
      <g>
       <use style="fill:#ffffff;stroke:#ffffff;stroke-width:0.5;" x="347.04" xlink:href="#mfeaf9d78c8" y="76.6376521115"/>
      </g>
     </g>
    </g>
    <g id="ytick_40">
     <g id="line2d_98">
      <g>
       <use style="fill:#ffffff;stroke:#ffffff;stroke-width:0.5;" x="53.3114348145" xlink:href="#mfeaf9d78c8" y="66.9553545271"/>
      </g>
     </g>
     <g id="line2d_99">
      <g>
       <use style="fill:#ffffff;stroke:#ffffff;stroke-width:0.5;" x="347.04" xlink:href="#mfeaf9d78c8" y="66.9553545271"/>
      </g>
     </g>
    </g>
    <g id="ytick_41">
     <g id="line2d_100">
      <g>
       <use style="fill:#ffffff;stroke:#ffffff;stroke-width:0.5;" x="53.3114348145" xlink:href="#mfeaf9d78c8" y="62.0388911599"/>
      </g>
     </g>
     <g id="line2d_101">
      <g>
       <use style="fill:#ffffff;stroke:#ffffff;stroke-width:0.5;" x="347.04" xlink:href="#mfeaf9d78c8" y="62.0388911599"/>
      </g>
     </g>
    </g>
    <g id="ytick_42">
     <g id="line2d_102">
      <g>
       <use style="fill:#ffffff;stroke:#ffffff;stroke-width:0.5;" x="53.3114348145" xlink:href="#mfeaf9d78c8" y="58.5506048874"/>
      </g>
     </g>
     <g id="line2d_103">
      <g>
       <use style="fill:#ffffff;stroke:#ffffff;stroke-width:0.5;" x="347.04" xlink:href="#mfeaf9d78c8" y="58.5506048874"/>
      </g>
     </g>
    </g>
    <g id="ytick_43">
     <g id="line2d_104">
      <g>
       <use style="fill:#ffffff;stroke:#ffffff;stroke-width:0.5;" x="53.3114348145" xlink:href="#mfeaf9d78c8" y="55.8448798479"/>
      </g>
     </g>
     <g id="line2d_105">
      <g>
       <use style="fill:#ffffff;stroke:#ffffff;stroke-width:0.5;" x="347.04" xlink:href="#mfeaf9d78c8" y="55.8448798479"/>
      </g>
     </g>
    </g>
    <g id="ytick_44">
     <g id="line2d_106">
      <g>
       <use style="fill:#ffffff;stroke:#ffffff;stroke-width:0.5;" x="53.3114348145" xlink:href="#mfeaf9d78c8" y="53.6341415203"/>
      </g>
     </g>
     <g id="line2d_107">
      <g>
       <use style="fill:#ffffff;stroke:#ffffff;stroke-width:0.5;" x="347.04" xlink:href="#mfeaf9d78c8" y="53.6341415203"/>
      </g>
     </g>
    </g>
    <g id="ytick_45">
     <g id="line2d_108">
      <g>
       <use style="fill:#ffffff;stroke:#ffffff;stroke-width:0.5;" x="53.3114348145" xlink:href="#mfeaf9d78c8" y="51.7649888972"/>
      </g>
     </g>
     <g id="line2d_109">
      <g>
       <use style="fill:#ffffff;stroke:#ffffff;stroke-width:0.5;" x="347.04" xlink:href="#mfeaf9d78c8" y="51.7649888972"/>
      </g>
     </g>
    </g>
    <g id="ytick_46">
     <g id="line2d_110">
      <g>
       <use style="fill:#ffffff;stroke:#ffffff;stroke-width:0.5;" x="53.3114348145" xlink:href="#mfeaf9d78c8" y="50.1458552478"/>
      </g>
     </g>
     <g id="line2d_111">
      <g>
       <use style="fill:#ffffff;stroke:#ffffff;stroke-width:0.5;" x="347.04" xlink:href="#mfeaf9d78c8" y="50.1458552478"/>
      </g>
     </g>
    </g>
    <g id="ytick_47">
     <g id="line2d_112">
      <g>
       <use style="fill:#ffffff;stroke:#ffffff;stroke-width:0.5;" x="53.3114348145" xlink:href="#mfeaf9d78c8" y="48.7176781532"/>
      </g>
     </g>
     <g id="line2d_113">
      <g>
       <use style="fill:#ffffff;stroke:#ffffff;stroke-width:0.5;" x="347.04" xlink:href="#mfeaf9d78c8" y="48.7176781532"/>
      </g>
     </g>
    </g>
    <g id="ytick_48">
     <g id="line2d_114">
      <g>
       <use style="fill:#ffffff;stroke:#ffffff;stroke-width:0.5;" x="53.3114348145" xlink:href="#mfeaf9d78c8" y="39.0353805687"/>
      </g>
     </g>
     <g id="line2d_115">
      <g>
       <use style="fill:#ffffff;stroke:#ffffff;stroke-width:0.5;" x="347.04" xlink:href="#mfeaf9d78c8" y="39.0353805687"/>
      </g>
     </g>
    </g>
    <g id="ytick_49">
     <g id="line2d_116">
      <g>
       <use style="fill:#ffffff;stroke:#ffffff;stroke-width:0.5;" x="53.3114348145" xlink:href="#mfeaf9d78c8" y="34.1189172016"/>
      </g>
     </g>
     <g id="line2d_117">
      <g>
       <use style="fill:#ffffff;stroke:#ffffff;stroke-width:0.5;" x="347.04" xlink:href="#mfeaf9d78c8" y="34.1189172016"/>
      </g>
     </g>
    </g>
    <g id="ytick_50">
     <g id="line2d_118">
      <g>
       <use style="fill:#ffffff;stroke:#ffffff;stroke-width:0.5;" x="53.3114348145" xlink:href="#mfeaf9d78c8" y="30.6306309291"/>
      </g>
     </g>
     <g id="line2d_119">
      <g>
       <use style="fill:#ffffff;stroke:#ffffff;stroke-width:0.5;" x="347.04" xlink:href="#mfeaf9d78c8" y="30.6306309291"/>
      </g>
     </g>
    </g>
    <g id="ytick_51">
     <g id="line2d_120">
      <g>
       <use style="fill:#ffffff;stroke:#ffffff;stroke-width:0.5;" x="53.3114348145" xlink:href="#mfeaf9d78c8" y="27.9249058896"/>
      </g>
     </g>
     <g id="line2d_121">
      <g>
       <use style="fill:#ffffff;stroke:#ffffff;stroke-width:0.5;" x="347.04" xlink:href="#mfeaf9d78c8" y="27.9249058896"/>
      </g>
     </g>
    </g>
    <g id="ytick_52">
     <g id="line2d_122">
      <g>
       <use style="fill:#ffffff;stroke:#ffffff;stroke-width:0.5;" x="53.3114348145" xlink:href="#mfeaf9d78c8" y="25.714167562"/>
      </g>
     </g>
     <g id="line2d_123">
      <g>
       <use style="fill:#ffffff;stroke:#ffffff;stroke-width:0.5;" x="347.04" xlink:href="#mfeaf9d78c8" y="25.714167562"/>
      </g>
     </g>
    </g>
    <g id="ytick_53">
     <g id="line2d_124">
      <g>
       <use style="fill:#ffffff;stroke:#ffffff;stroke-width:0.5;" x="53.3114348145" xlink:href="#mfeaf9d78c8" y="23.8450149389"/>
      </g>
     </g>
     <g id="line2d_125">
      <g>
       <use style="fill:#ffffff;stroke:#ffffff;stroke-width:0.5;" x="347.04" xlink:href="#mfeaf9d78c8" y="23.8450149389"/>
      </g>
     </g>
    </g>
    <g id="ytick_54">
     <g id="line2d_126">
      <g>
       <use style="fill:#ffffff;stroke:#ffffff;stroke-width:0.5;" x="53.3114348145" xlink:href="#mfeaf9d78c8" y="22.2258812895"/>
      </g>
     </g>
     <g id="line2d_127">
      <g>
       <use style="fill:#ffffff;stroke:#ffffff;stroke-width:0.5;" x="347.04" xlink:href="#mfeaf9d78c8" y="22.2258812895"/>
      </g>
     </g>
    </g>
    <g id="ytick_55">
     <g id="line2d_128">
      <g>
       <use style="fill:#ffffff;stroke:#ffffff;stroke-width:0.5;" x="53.3114348145" xlink:href="#mfeaf9d78c8" y="20.7977041949"/>
      </g>
     </g>
     <g id="line2d_129">
      <g>
       <use style="fill:#ffffff;stroke:#ffffff;stroke-width:0.5;" x="347.04" xlink:href="#mfeaf9d78c8" y="20.7977041949"/>
      </g>
     </g>
    </g>
    <g id="text_12">
     <!-- Temps (secondes, échelle log) -->
     <defs>
      <path d="M 6.59375 0 
L 6.59375 51.859375 
L 14.453125 51.859375 
L 14.453125 44.578125 
Q 16.890625 48.390625 20.9375 50.703125 
Q 25 53.03125 30.171875 53.03125 
Q 35.9375 53.03125 39.625 50.640625 
Q 43.3125 48.25 44.828125 43.953125 
Q 50.984375 53.03125 60.84375 53.03125 
Q 68.5625 53.03125 72.703125 48.75 
Q 76.859375 44.484375 76.859375 35.59375 
L 76.859375 0 
L 68.109375 0 
L 68.109375 32.671875 
Q 68.109375 37.9375 67.25 40.25 
Q 66.40625 42.578125 64.15625 43.984375 
Q 61.921875 45.40625 58.890625 45.40625 
Q 53.421875 45.40625 49.796875 41.765625 
Q 46.1875 38.140625 46.1875 30.125 
L 46.1875 0 
L 37.40625 0 
L 37.40625 33.6875 
Q 37.40625 39.546875 35.25 42.46875 
Q 33.109375 45.40625 28.21875 45.40625 
Q 24.515625 45.40625 21.359375 43.453125 
Q 18.21875 41.5 16.796875 37.734375 
Q 15.375 33.984375 15.375 26.90625 
L 15.375 0 
z
" id="ArialMT-6d"/>
      <path d="M 3.078125 15.484375 
L 11.765625 16.84375 
Q 12.5 11.625 15.84375 8.84375 
Q 19.1875 6.0625 25.203125 6.0625 
Q 31.25 6.0625 34.171875 8.515625 
Q 37.109375 10.984375 37.109375 14.3125 
Q 37.109375 17.28125 34.515625 19 
Q 32.71875 20.171875 25.53125 21.96875 
Q 15.875 24.421875 12.140625 26.203125 
Q 8.40625 27.984375 6.46875 31.125 
Q 4.546875 34.28125 4.546875 38.09375 
Q 4.546875 41.546875 6.125 44.5 
Q 7.71875 47.46875 10.453125 49.421875 
Q 12.5 50.921875 16.03125 51.96875 
Q 19.578125 53.03125 23.640625 53.03125 
Q 29.734375 53.03125 34.34375 51.265625 
Q 38.96875 49.515625 41.15625 46.5 
Q 43.359375 43.5 44.1875 38.484375 
L 35.59375 37.3125 
Q 35.015625 41.3125 32.203125 43.546875 
Q 29.390625 45.796875 24.265625 45.796875 
Q 18.21875 45.796875 15.625 43.796875 
Q 13.03125 41.796875 13.03125 39.109375 
Q 13.03125 37.40625 14.109375 36.03125 
Q 15.1875 34.625 17.484375 33.6875 
Q 18.796875 33.203125 25.25 31.453125 
Q 34.578125 28.953125 38.25 27.359375 
Q 41.9375 25.78125 44.03125 22.75 
Q 46.140625 19.734375 46.140625 15.234375 
Q 46.140625 10.84375 43.578125 6.953125 
Q 41.015625 3.078125 36.171875 0.953125 
Q 31.34375 -1.171875 25.25 -1.171875 
Q 15.140625 -1.171875 9.84375 3.03125 
Q 4.546875 7.234375 3.078125 15.484375 
" id="ArialMT-73"/>
      <path d="M 4.984375 -4.296875 
L 13.53125 -5.5625 
Q 14.0625 -9.515625 16.5 -11.328125 
Q 19.78125 -13.765625 25.4375 -13.765625 
Q 31.546875 -13.765625 34.859375 -11.328125 
Q 38.1875 -8.890625 39.359375 -4.5 
Q 40.046875 -1.8125 39.984375 6.78125 
Q 34.234375 0 25.640625 0 
Q 14.9375 0 9.078125 7.71875 
Q 3.21875 15.4375 3.21875 26.21875 
Q 3.21875 33.640625 5.90625 39.90625 
Q 8.59375 46.1875 13.6875 49.609375 
Q 18.796875 53.03125 25.6875 53.03125 
Q 34.859375 53.03125 40.828125 45.609375 
L 40.828125 51.859375 
L 48.921875 51.859375 
L 48.921875 7.03125 
Q 48.921875 -5.078125 46.453125 -10.125 
Q 44 -15.1875 38.640625 -18.109375 
Q 33.296875 -21.046875 25.484375 -21.046875 
Q 16.21875 -21.046875 10.5 -16.875 
Q 4.78125 -12.703125 4.984375 -4.296875 
M 12.25 26.859375 
Q 12.25 16.65625 16.296875 11.96875 
Q 20.359375 7.28125 26.46875 7.28125 
Q 32.515625 7.28125 36.609375 11.9375 
Q 40.71875 16.609375 40.71875 26.5625 
Q 40.71875 36.078125 36.5 40.90625 
Q 32.28125 45.75 26.3125 45.75 
Q 20.453125 45.75 16.34375 40.984375 
Q 12.25 36.234375 12.25 26.859375 
" id="ArialMT-67"/>
      <path d="M 25.921875 0 
L 25.921875 63.140625 
L 2.34375 63.140625 
L 2.34375 71.578125 
L 59.078125 71.578125 
L 59.078125 63.140625 
L 35.40625 63.140625 
L 35.40625 0 
z
" id="ArialMT-54"/>
      <path d="M 6.59375 0 
L 6.59375 71.578125 
L 15.375 71.578125 
L 15.375 45.90625 
Q 21.53125 53.03125 30.90625 53.03125 
Q 36.671875 53.03125 40.921875 50.75 
Q 45.171875 48.484375 47 44.484375 
Q 48.828125 40.484375 48.828125 32.859375 
L 48.828125 0 
L 40.046875 0 
L 40.046875 32.859375 
Q 40.046875 39.453125 37.1875 42.453125 
Q 34.328125 45.453125 29.109375 45.453125 
Q 25.203125 45.453125 21.75 43.421875 
Q 18.3125 41.40625 16.84375 37.9375 
Q 15.375 34.46875 15.375 28.375 
L 15.375 0 
z
" id="ArialMT-68"/>
      <path d="M 8.890625 0 
L 8.890625 10.015625 
L 18.890625 10.015625 
L 18.890625 0 
Q 18.890625 -5.515625 16.9375 -8.90625 
Q 14.984375 -12.3125 10.75 -14.15625 
L 8.296875 -10.40625 
Q 11.078125 -9.1875 12.390625 -6.8125 
Q 13.71875 -4.4375 13.875 0 
z
" id="ArialMT-2c"/>
      <path d="M 42.09375 16.703125 
L 51.171875 15.578125 
Q 49.03125 7.625 43.21875 3.21875 
Q 37.40625 -1.171875 28.375 -1.171875 
Q 17 -1.171875 10.328125 5.828125 
Q 3.65625 12.84375 3.65625 25.484375 
Q 3.65625 38.578125 10.390625 45.796875 
Q 17.140625 53.03125 27.875 53.03125 
Q 38.28125 53.03125 44.875 45.953125 
Q 51.46875 38.875 51.46875 26.03125 
Q 51.46875 25.25 51.421875 23.6875 
L 12.75 23.6875 
Q 13.234375 15.140625 17.578125 10.59375 
Q 21.921875 6.0625 28.421875 6.0625 
Q 33.25 6.0625 36.671875 8.59375 
Q 40.09375 11.140625 42.09375 16.703125 
M 13.234375 30.90625 
L 42.1875 30.90625 
Q 41.609375 37.453125 38.875 40.71875 
Q 34.671875 45.796875 27.984375 45.796875 
Q 21.921875 45.796875 17.796875 41.75 
Q 13.671875 37.703125 13.234375 30.90625 
M 22.71875 58.296875 
L 29.203125 71.96875 
L 40.734375 71.96875 
L 29.984375 58.296875 
z
" id="ArialMT-e9"/>
      <path d="M 12.359375 -21.046875 
L 6.0625 -21.046875 
Q 20.65625 2.390625 20.65625 25.875 
Q 20.65625 35.0625 18.5625 44.09375 
Q 16.890625 51.421875 13.921875 58.15625 
Q 12.015625 62.546875 6.0625 72.796875 
L 12.359375 72.796875 
Q 21.53125 60.546875 25.921875 48.1875 
Q 29.6875 37.546875 29.6875 25.921875 
Q 29.6875 12.75 24.625 0.4375 
Q 19.578125 -11.859375 12.359375 -21.046875 
" id="ArialMT-29"/>
      <path d="M 6.59375 -19.875 
L 6.59375 51.859375 
L 14.59375 51.859375 
L 14.59375 45.125 
Q 17.4375 49.078125 21 51.046875 
Q 24.5625 53.03125 29.640625 53.03125 
Q 36.28125 53.03125 41.359375 49.609375 
Q 46.4375 46.1875 49.015625 39.953125 
Q 51.609375 33.734375 51.609375 26.3125 
Q 51.609375 18.359375 48.75 11.984375 
Q 45.90625 5.609375 40.453125 2.21875 
Q 35.015625 -1.171875 29 -1.171875 
Q 24.609375 -1.171875 21.109375 0.6875 
Q 17.625 2.546875 15.375 5.375 
L 15.375 -19.875 
z
M 14.546875 25.640625 
Q 14.546875 15.625 18.59375 10.84375 
Q 22.65625 6.0625 28.421875 6.0625 
Q 34.28125 6.0625 38.453125 11.015625 
Q 42.625 15.96875 42.625 26.375 
Q 42.625 36.28125 38.546875 41.203125 
Q 34.46875 46.140625 28.8125 46.140625 
Q 23.1875 46.140625 18.859375 40.890625 
Q 14.546875 35.640625 14.546875 25.640625 
" id="ArialMT-70"/>
      <path d="M 23.390625 -21.046875 
Q 16.109375 -11.859375 11.078125 0.4375 
Q 6.0625 12.75 6.0625 25.921875 
Q 6.0625 37.546875 9.8125 48.1875 
Q 14.203125 60.546875 23.390625 72.796875 
L 29.6875 72.796875 
Q 23.78125 62.640625 21.875 58.296875 
Q 18.890625 51.5625 17.1875 44.234375 
Q 15.09375 35.109375 15.09375 25.875 
Q 15.09375 2.390625 29.6875 -21.046875 
z
" id="ArialMT-28"/>
     </defs>
     <g style="fill:#ffffff;" transform="translate(20.2962785645 178.162578125)rotate(-90.0)scale(0.11 -0.11)">
      <use xlink:href="#ArialMT-54"/>
      <use x="60.912109375" xlink:href="#ArialMT-65"/>
      <use x="116.52734375" xlink:href="#ArialMT-6d"/>
      <use x="199.828125" xlink:href="#ArialMT-70"/>
      <use x="255.443359375" xlink:href="#ArialMT-73"/>
      <use x="305.443359375" xlink:href="#ArialMT-20"/>
      <use x="333.2265625" xlink:href="#ArialMT-28"/>
      <use x="366.52734375" xlink:href="#ArialMT-73"/>
      <use x="416.52734375" xlink:href="#ArialMT-65"/>
      <use x="472.142578125" xlink:href="#ArialMT-63"/>
      <use x="522.142578125" xlink:href="#ArialMT-6f"/>
      <use x="577.7578125" xlink:href="#ArialMT-6e"/>
      <use x="633.373046875" xlink:href="#ArialMT-64"/>
      <use x="688.98828125" xlink:href="#ArialMT-65"/>
      <use x="744.603515625" xlink:href="#ArialMT-73"/>
      <use x="794.603515625" xlink:href="#ArialMT-2c"/>
      <use x="822.38671875" xlink:href="#ArialMT-20"/>
      <use x="850.169921875" xlink:href="#ArialMT-e9"/>
      <use x="905.78515625" xlink:href="#ArialMT-63"/>
      <use x="955.78515625" xlink:href="#ArialMT-68"/>
      <use x="1011.400390625" xlink:href="#ArialMT-65"/>
      <use x="1067.015625" xlink:href="#ArialMT-6c"/>
      <use x="1089.232421875" xlink:href="#ArialMT-6c"/>
      <use x="1111.44921875" xlink:href="#ArialMT-65"/>
      <use x="1167.064453125" xlink:href="#ArialMT-20"/>
      <use x="1194.84765625" xlink:href="#ArialMT-6c"/>
      <use x="1217.064453125" xlink:href="#ArialMT-6f"/>
      <use x="1272.6796875" xlink:href="#ArialMT-67"/>
      <use x="1328.294921875" xlink:href="#ArialMT-29"/>
     </g>
    </g>
   </g>
   <g id="patch_3">
    <path clip-path="url(#p655340f466)" d="M 71.66947 8507.19224 
L 90.027505 8507.19224 
L 90.027505 160.500716 
L 71.66947 160.500716 
z
" style="fill:#4c72b0;stroke:#eeeeee;stroke-linejoin:miter;stroke-width:0.3;"/>
   </g>
   <g id="patch_4">
    <path clip-path="url(#p655340f466)" d="M 145.101611 8507.19224 
L 163.459647 8507.19224 
L 163.459647 133.606594 
L 145.101611 133.606594 
z
" style="fill:#4c72b0;stroke:#eeeeee;stroke-linejoin:miter;stroke-width:0.3;"/>
   </g>
   <g id="patch_5">
    <path clip-path="url(#p655340f466)" d="M 218.533753 8507.19224 
L 236.891788 8507.19224 
L 236.891788 139.286965 
L 218.533753 139.286965 
z
" style="fill:#4c72b0;stroke:#eeeeee;stroke-linejoin:miter;stroke-width:0.3;"/>
   </g>
   <g id="patch_6">
    <path clip-path="url(#p655340f466)" d="M 291.965894 8507.19224 
L 310.323929 8507.19224 
L 310.323929 30.793801 
L 291.965894 30.793801 
z
" style="fill:#4c72b0;stroke:#eeeeee;stroke-linejoin:miter;stroke-width:0.3;"/>
   </g>
   <g id="patch_7">
    <path clip-path="url(#p655340f466)" d="M 90.027505 8507.19224 
L 108.385541 8507.19224 
L 108.385541 172.754892 
L 90.027505 172.754892 
z
" style="fill:#55a868;stroke:#eeeeee;stroke-linejoin:miter;stroke-width:0.3;"/>
   </g>
   <g id="patch_8">
    <path clip-path="url(#p655340f466)" d="M 163.459647 8507.19224 
L 181.817682 8507.19224 
L 181.817682 134.068571 
L 163.459647 134.068571 
z
" style="fill:#55a868;stroke:#eeeeee;stroke-linejoin:miter;stroke-width:0.3;"/>
   </g>
   <g id="patch_9">
    <path clip-path="url(#p655340f466)" d="M 236.891788 8507.19224 
L 255.249823 8507.19224 
L 255.249823 152.608882 
L 236.891788 152.608882 
z
" style="fill:#55a868;stroke:#eeeeee;stroke-linejoin:miter;stroke-width:0.3;"/>
   </g>
   <g id="patch_10">
    <path clip-path="url(#p655340f466)" d="M 310.323929 8507.19224 
L 328.681965 8507.19224 
L 328.681965 28.647448 
L 310.323929 28.647448 
z
" style="fill:#55a868;stroke:#eeeeee;stroke-linejoin:miter;stroke-width:0.3;"/>
   </g>
   <g id="patch_11">
    <path d="M 347.04 187.04 
L 347.04 19.520156 
" style="fill:none;"/>
   </g>
   <g id="patch_12">
    <path d="M 53.311435 19.520156 
L 347.04 19.520156 
" style="fill:none;"/>
   </g>
   <g id="patch_13">
    <path d="M 53.311435 187.04 
L 347.04 187.04 
" style="fill:none;"/>
   </g>
   <g id="patch_14">
    <path d="M 53.311435 187.04 
L 53.311435 19.520156 
" style="fill:none;"/>
   </g>
   <g id="legend_1">
    <g id="patch_15">
     <path d="M 58.311435 55.810781 
L 130.992685 55.810781 
L 130.992685 24.520156 
L 58.311435 24.520156 
z
" style="fill:#222222;stroke:#ffffff;stroke-linejoin:miter;stroke-width:0.3;"/>
    </g>
    <g id="patch_16">
     <path d="M 62.311435 35.677969 
L 82.311435 35.677969 
L 82.311435 28.677969 
L 62.311435 28.677969 
z
" style="fill:#4c72b0;stroke:#eeeeee;stroke-linejoin:miter;stroke-width:0.3;"/>
    </g>
    <g id="text_13">
     <!-- Fuseki -->
     <defs>
      <path d="M 6.640625 0 
L 6.640625 71.578125 
L 15.4375 71.578125 
L 15.4375 30.765625 
L 36.234375 51.859375 
L 47.609375 51.859375 
L 27.78125 32.625 
L 49.609375 0 
L 38.765625 0 
L 21.625 26.515625 
L 15.4375 20.5625 
L 15.4375 0 
z
" id="ArialMT-6b"/>
      <path d="M 40.578125 0 
L 40.578125 7.625 
Q 34.515625 -1.171875 24.125 -1.171875 
Q 19.53125 -1.171875 15.546875 0.578125 
Q 11.578125 2.34375 9.640625 5 
Q 7.71875 7.671875 6.9375 11.53125 
Q 6.390625 14.109375 6.390625 19.734375 
L 6.390625 51.859375 
L 15.1875 51.859375 
L 15.1875 23.09375 
Q 15.1875 16.21875 15.71875 13.8125 
Q 16.546875 10.359375 19.234375 8.375 
Q 21.921875 6.390625 25.875 6.390625 
Q 29.828125 6.390625 33.296875 8.421875 
Q 36.765625 10.453125 38.203125 13.9375 
Q 39.65625 17.4375 39.65625 24.078125 
L 39.65625 51.859375 
L 48.4375 51.859375 
L 48.4375 0 
z
" id="ArialMT-75"/>
      <path d="M 6.640625 61.46875 
L 6.640625 71.578125 
L 15.4375 71.578125 
L 15.4375 61.46875 
z
M 6.640625 0 
L 6.640625 51.859375 
L 15.4375 51.859375 
L 15.4375 0 
z
" id="ArialMT-69"/>
     </defs>
     <g style="fill:#ffffff;" transform="translate(90.3114348145 35.67796875)scale(0.1 -0.1)">
      <use xlink:href="#ArialMT-46"/>
      <use x="61.083984375" xlink:href="#ArialMT-75"/>
      <use x="116.69921875" xlink:href="#ArialMT-73"/>
      <use x="166.69921875" xlink:href="#ArialMT-65"/>
      <use x="222.314453125" xlink:href="#ArialMT-6b"/>
      <use x="272.314453125" xlink:href="#ArialMT-69"/>
     </g>
    </g>
    <g id="patch_17">
     <path d="M 62.311435 49.823281 
L 82.311435 49.823281 
L 82.311435 42.823281 
L 62.311435 42.823281 
z
" style="fill:#55a868;stroke:#eeeeee;stroke-linejoin:miter;stroke-width:0.3;"/>
    </g>
    <g id="text_14">
     <!-- Virtuoso -->
     <defs>
      <path d="M 28.171875 0 
L 0.4375 71.578125 
L 10.6875 71.578125 
L 29.296875 19.578125 
Q 31.546875 13.328125 33.0625 7.859375 
Q 34.71875 13.71875 36.921875 19.578125 
L 56.25 71.578125 
L 65.921875 71.578125 
L 37.890625 0 
z
" id="ArialMT-56"/>
     </defs>
     <g style="fill:#ffffff;" transform="translate(90.3114348145 49.82328125)scale(0.1 -0.1)">
      <use xlink:href="#ArialMT-56"/>
      <use x="66.68359375" xlink:href="#ArialMT-69"/>
      <use x="88.900390625" xlink:href="#ArialMT-72"/>
      <use x="122.201171875" xlink:href="#ArialMT-74"/>
      <use x="149.984375" xlink:href="#ArialMT-75"/>
      <use x="205.599609375" xlink:href="#ArialMT-6f"/>
      <use x="261.21484375" xlink:href="#ArialMT-73"/>
      <use x="311.21484375" xlink:href="#ArialMT-6f"/>
     </g>
    </g>
   </g>
  </g>
 </g>
 <defs>
  <clipPath id="p655340f466">
   <rect height="167.51984375" width="293.728565186" x="53.3114348145" y="19.52015625"/>
  </clipPath>
 </defs>
</svg>
